<svg width="426" height="221" viewBox="0 0 426 221" fill="none" xmlns="http://www.w3.org/2000/svg">
<rect width="426" height="221" fill="#F5F5F5"/>
<path d="M395 183C398.314 183 401 180.314 401 177C401 173.686 398.314 171 395 171C391.686 171 389 173.686 389 177C389 180.314 391.686 183 395 183Z" fill="#212121" fill-opacity="0.3"/>
<path d="M367 183C370.314 183 373 180.314 373 177C373 173.686 370.314 171 367 171C363.686 171 361 173.686 361 177C361 180.314 363.686 183 367 183Z" fill="#212121" fill-opacity="0.3"/>
<path d="M339 183C342.314 183 345 180.314 345 177C345 173.686 342.314 171 339 171C335.686 171 333 173.686 333 177C333 180.314 335.686 183 339 183Z" fill="#212121" fill-opacity="0.3"/>
<path d="M311 183C314.314 183 317 180.314 317 177C317 173.686 314.314 171 311 171C307.686 171 305 173.686 305 177C305 180.314 307.686 183 311 183Z" fill="#212121" fill-opacity="0.3"/>
<path d="M283 183C286.314 183 289 180.314 289 177C289 173.686 286.314 171 283 171C279.686 171 277 173.686 277 177C277 180.314 279.686 183 283 183Z" fill="#212121" fill-opacity="0.3"/>
<path d="M255 183C258.314 183 261 180.314 261 177C261 173.686 258.314 171 255 171C251.686 171 249 173.686 249 177C249 180.314 251.686 183 255 183Z" fill="#212121" fill-opacity="0.3"/>
<path d="M227 183C230.314 183 233 180.314 233 177C233 173.686 230.314 171 227 171C223.686 171 221 173.686 221 177C221 180.314 223.686 183 227 183Z" fill="#212121" fill-opacity="0.3"/>
<path d="M199 183C202.314 183 205 180.314 205 177C205 173.686 202.314 171 199 171C195.686 171 193 173.686 193 177C193 180.314 195.686 183 199 183Z" fill="#212121" fill-opacity="0.3"/>
<path d="M171 183C174.314 183 177 180.314 177 177C177 173.686 174.314 171 171 171C167.686 171 165 173.686 165 177C165 180.314 167.686 183 171 183Z" fill="#212121" fill-opacity="0.3"/>
<path d="M143 183C146.314 183 149 180.314 149 177C149 173.686 146.314 171 143 171C139.686 171 137 173.686 137 177C137 180.314 139.686 183 143 183Z" fill="#212121" fill-opacity="0.3"/>
<path d="M115 183C118.314 183 121 180.314 121 177C121 173.686 118.314 171 115 171C111.686 171 109 173.686 109 177C109 180.314 111.686 183 115 183Z" fill="#212121" fill-opacity="0.3"/>
<path d="M87 183C90.3137 183 93 180.314 93 177C93 173.686 90.3137 171 87 171C83.6863 171 81 173.686 81 177C81 180.314 83.6863 183 87 183Z" fill="#0A0A0A"/>
<path d="M59 183C62.3137 183 65 180.314 65 177C65 173.686 62.3137 171 59 171C55.6863 171 53 173.686 53 177C53 180.314 55.6863 183 59 183Z" fill="#212121" fill-opacity="0.3"/>
<path d="M31 183C34.3137 183 37 180.314 37 177C37 173.686 34.3137 171 31 171C27.6863 171 25 173.686 25 177C25 180.314 27.6863 183 31 183Z" fill="#212121" fill-opacity="0.3"/>
<path d="M395 139C398.314 139 401 136.314 401 133C401 129.686 398.314 127 395 127C391.686 127 389 129.686 389 133C389 136.314 391.686 139 395 139Z" fill="#212121" fill-opacity="0.3"/>
<path d="M367 139C370.314 139 373 136.314 373 133C373 129.686 370.314 127 367 127C363.686 127 361 129.686 361 133C361 136.314 363.686 139 367 139Z" fill="#212121" fill-opacity="0.3"/>
<path d="M339 139C342.314 139 345 136.314 345 133C345 129.686 342.314 127 339 127C335.686 127 333 129.686 333 133C333 136.314 335.686 139 339 139Z" fill="#212121" fill-opacity="0.3"/>
<path d="M311 139C314.314 139 317 136.314 317 133C317 129.686 314.314 127 311 127C307.686 127 305 129.686 305 133C305 136.314 307.686 139 311 139Z" fill="#212121" fill-opacity="0.3"/>
<path d="M283 139C286.314 139 289 136.314 289 133C289 129.686 286.314 127 283 127C279.686 127 277 129.686 277 133C277 136.314 279.686 139 283 139Z" fill="#0A0A0A"/>
<path d="M255 139C258.314 139 261 136.314 261 133C261 129.686 258.314 127 255 127C251.686 127 249 129.686 249 133C249 136.314 251.686 139 255 139Z" fill="#212121" fill-opacity="0.3"/>
<path d="M227 139C230.314 139 233 136.314 233 133C233 129.686 230.314 127 227 127C223.686 127 221 129.686 221 133C221 136.314 223.686 139 227 139Z" fill="#212121" fill-opacity="0.3"/>
<path d="M199 139C202.314 139 205 136.314 205 133C205 129.686 202.314 127 199 127C195.686 127 193 129.686 193 133C193 136.314 195.686 139 199 139Z" fill="#212121" fill-opacity="0.3"/>
<path d="M171 139C174.314 139 177 136.314 177 133C177 129.686 174.314 127 171 127C167.686 127 165 129.686 165 133C165 136.314 167.686 139 171 139Z" fill="#212121" fill-opacity="0.3"/>
<path d="M143 139C146.314 139 149 136.314 149 133C149 129.686 146.314 127 143 127C139.686 127 137 129.686 137 133C137 136.314 139.686 139 143 139Z" fill="#0A0A0A"/>
<path d="M115 139C118.314 139 121 136.314 121 133C121 129.686 118.314 127 115 127C111.686 127 109 129.686 109 133C109 136.314 111.686 139 115 139Z" fill="#212121" fill-opacity="0.3"/>
<path d="M87 139C90.3137 139 93 136.314 93 133C93 129.686 90.3137 127 87 127C83.6863 127 81 129.686 81 133C81 136.314 83.6863 139 87 139Z" fill="#212121" fill-opacity="0.3"/>
<path d="M59 139C62.3137 139 65 136.314 65 133C65 129.686 62.3137 127 59 127C55.6863 127 53 129.686 53 133C53 136.314 55.6863 139 59 139Z" fill="#212121" fill-opacity="0.3"/>
<path d="M31 139C34.3137 139 37 136.314 37 133C37 129.686 34.3137 127 31 127C27.6863 127 25 129.686 25 133C25 136.314 27.6863 139 31 139Z" fill="#212121" fill-opacity="0.3"/>
<path d="M395 95C398.314 95 401 92.3137 401 89C401 85.6863 398.314 83 395 83C391.686 83 389 85.6863 389 89C389 92.3137 391.686 95 395 95Z" fill="#212121" fill-opacity="0.3"/>
<path d="M367 95C370.314 95 373 92.3137 373 89C373 85.6863 370.314 83 367 83C363.686 83 361 85.6863 361 89C361 92.3137 363.686 95 367 95Z" fill="#212121" fill-opacity="0.3"/>
<path d="M339 95C342.314 95 345 92.3137 345 89C345 85.6863 342.314 83 339 83C335.686 83 333 85.6863 333 89C333 92.3137 335.686 95 339 95Z" fill="#212121" fill-opacity="0.3"/>
<path d="M311 95C314.314 95 317 92.3137 317 89C317 85.6863 314.314 83 311 83C307.686 83 305 85.6863 305 89C305 92.3137 307.686 95 311 95Z" fill="#212121" fill-opacity="0.3"/>
<path d="M283 95C286.314 95 289 92.3137 289 89C289 85.6863 286.314 83 283 83C279.686 83 277 85.6863 277 89C277 92.3137 279.686 95 283 95Z" fill="#212121" fill-opacity="0.3"/>
<path d="M255 95C258.314 95 261 92.3137 261 89C261 85.6863 258.314 83 255 83C251.686 83 249 85.6863 249 89C249 92.3137 251.686 95 255 95Z" fill="#0A0A0A"/>
<path d="M227 95C230.314 95 233 92.3137 233 89C233 85.6863 230.314 83 227 83C223.686 83 221 85.6863 221 89C221 92.3137 223.686 95 227 95Z" fill="#212121" fill-opacity="0.3"/>
<path d="M199 95C202.314 95 205 92.3137 205 89C205 85.6863 202.314 83 199 83C195.686 83 193 85.6863 193 89C193 92.3137 195.686 95 199 95Z" fill="#212121" fill-opacity="0.3"/>
<path d="M171 95C174.314 95 177 92.3137 177 89C177 85.6863 174.314 83 171 83C167.686 83 165 85.6863 165 89C165 92.3137 167.686 95 171 95Z" fill="#212121" fill-opacity="0.3"/>
<path d="M143 95C146.314 95 149 92.3137 149 89C149 85.6863 146.314 83 143 83C139.686 83 137 85.6863 137 89C137 92.3137 139.686 95 143 95Z" fill="#0A0A0A"/>
<path d="M115 95C118.314 95 121 92.3137 121 89C121 85.6863 118.314 83 115 83C111.686 83 109 85.6863 109 89C109 92.3137 111.686 95 115 95Z" fill="#212121" fill-opacity="0.3"/>
<path d="M87 95C90.3137 95 93 92.3137 93 89C93 85.6863 90.3137 83 87 83C83.6863 83 81 85.6863 81 89C81 92.3137 83.6863 95 87 95Z" fill="#212121" fill-opacity="0.3"/>
<path d="M59 95C62.3137 95 65 92.3137 65 89C65 85.6863 62.3137 83 59 83C55.6863 83 53 85.6863 53 89C53 92.3137 55.6863 95 59 95Z" fill="#212121" fill-opacity="0.3"/>
<path d="M31 95C34.3137 95 37 92.3137 37 89C37 85.6863 34.3137 83 31 83C27.6863 83 25 85.6863 25 89C25 92.3137 27.6863 95 31 95Z" fill="#212121" fill-opacity="0.3"/>
<path d="M395 51C398.314 51 401 48.3137 401 45C401 41.6863 398.314 39 395 39C391.686 39 389 41.6863 389 45C389 48.3137 391.686 51 395 51Z" fill="#212121" fill-opacity="0.3"/>
<path d="M367 51C370.314 51 373 48.3137 373 45C373 41.6863 370.314 39 367 39C363.686 39 361 41.6863 361 45C361 48.3137 363.686 51 367 51Z" fill="#212121" fill-opacity="0.3"/>
<path d="M339 51C342.314 51 345 48.3137 345 45C345 41.6863 342.314 39 339 39C335.686 39 333 41.6863 333 45C333 48.3137 335.686 51 339 51Z" fill="#0A0A0A"/>
<path d="M311 51C314.314 51 317 48.3137 317 45C317 41.6863 314.314 39 311 39C307.686 39 305 41.6863 305 45C305 48.3137 307.686 51 311 51Z" fill="#212121" fill-opacity="0.3"/>
<path d="M283 51C286.314 51 289 48.3137 289 45C289 41.6863 286.314 39 283 39C279.686 39 277 41.6863 277 45C277 48.3137 279.686 51 283 51Z" fill="#212121" fill-opacity="0.3"/>
<path d="M255 51C258.314 51 261 48.3137 261 45C261 41.6863 258.314 39 255 39C251.686 39 249 41.6863 249 45C249 48.3137 251.686 51 255 51Z" fill="#212121" fill-opacity="0.3"/>
<path d="M227 51C230.314 51 233 48.3137 233 45C233 41.6863 230.314 39 227 39C223.686 39 221 41.6863 221 45C221 48.3137 223.686 51 227 51Z" fill="#212121" fill-opacity="0.3"/>
<path d="M199 51C202.314 51 205 48.3137 205 45C205 41.6863 202.314 39 199 39C195.686 39 193 41.6863 193 45C193 48.3137 195.686 51 199 51Z" fill="#212121" fill-opacity="0.3"/>
<path d="M171 51C174.314 51 177 48.3137 177 45C177 41.6863 174.314 39 171 39C167.686 39 165 41.6863 165 45C165 48.3137 167.686 51 171 51Z" fill="#212121" fill-opacity="0.3"/>
<path d="M143 51C146.314 51 149 48.3137 149 45C149 41.6863 146.314 39 143 39C139.686 39 137 41.6863 137 45C137 48.3137 139.686 51 143 51Z" fill="#212121" fill-opacity="0.3"/>
<path d="M115 51C118.314 51 121 48.3137 121 45C121 41.6863 118.314 39 115 39C111.686 39 109 41.6863 109 45C109 48.3137 111.686 51 115 51Z" fill="#212121" fill-opacity="0.3"/>
<path d="M87 51C90.3137 51 93 48.3137 93 45C93 41.6863 90.3137 39 87 39C83.6863 39 81 41.6863 81 45C81 48.3137 83.6863 51 87 51Z" fill="#212121" fill-opacity="0.3"/>
<path d="M59 51C62.3137 51 65 48.3137 65 45C65 41.6863 62.3137 39 59 39C55.6863 39 53 41.6863 53 45C53 48.3137 55.6863 51 59 51Z" fill="#212121" fill-opacity="0.3"/>
<path d="M31 51C34.3137 51 37 48.3137 37 45C37 41.6863 34.3137 39 31 39C27.6863 39 25 41.6863 25 45C25 48.3137 27.6863 51 31 51Z" fill="#212121" fill-opacity="0.3"/>
<path opacity="0.402" d="M255 100C261.075 100 266 95.0751 266 89C266 82.9249 261.075 78 255 78C248.925 78 244 82.9249 244 89C244 95.0751 248.925 100 255 100Z" fill="#0A0A0A"/>
</svg>
