<svg width="242" height="152" viewBox="0 0 242 152" fill="none" xmlns="http://www.w3.org/2000/svg">
<g filter="url(#filter0_dddd_538_4737)">
<rect x="51" y="18" width="140" height="50" rx="4" fill="black"/>
</g>
<path d="M81.7973 43.5804C81.819 41.8994 82.7217 40.3088 84.1539 39.4283C83.2504 38.138 81.7371 37.3199 80.1627 37.2706C78.4835 37.0944 76.8555 38.2754 75.9998 38.2754C75.1275 38.2754 73.81 37.2881 72.3913 37.3173C70.5421 37.3771 68.8181 38.4284 67.9184 40.0452C65.9844 43.3936 67.427 48.3146 69.2796 51.0213C70.2065 52.3466 71.2898 53.8271 72.7072 53.7746C74.0943 53.717 74.6123 52.8901 76.2866 52.8901C77.9454 52.8901 78.4314 53.7746 79.8776 53.7412C81.366 53.717 82.3038 52.4099 83.1981 51.072C83.8641 50.1277 84.3766 49.084 84.7166 47.9795C82.9674 47.2397 81.7994 45.4795 81.7973 43.5804Z" fill="white"/>
<path d="M79.0656 35.4906C79.8772 34.5164 80.277 33.2642 80.1802 32C78.9403 32.1302 77.7951 32.7228 76.9726 33.6596C76.1683 34.5749 75.7497 35.8051 75.8289 37.021C77.0692 37.0338 78.2885 36.4573 79.0656 35.4906Z" fill="white"/>
<path d="M92.87 39H95.24C97.46 39 99.04 37.57 99.04 35.56C99.04 33.55 97.46 32.13 95.24 32.13H92.87V39ZM93.88 38.08V33.05H95.3C96.89 33.05 98 34.09 98 35.56C98 37.04 96.89 38.08 95.3 38.08H93.88ZM102.787 39.12C104.257 39.12 105.497 37.88 105.497 36.41C105.497 34.94 104.257 33.71 102.787 33.71C101.307 33.71 100.057 34.94 100.057 36.41C100.057 37.88 101.307 39.12 102.787 39.12ZM102.787 38.26C101.837 38.26 101.047 37.42 101.047 36.41C101.047 35.41 101.837 34.57 102.787 34.57C103.717 34.57 104.507 35.41 104.507 36.41C104.507 37.42 103.717 38.26 102.787 38.26ZM107.751 39H108.661L109.911 35.16L111.151 39H112.061L113.801 33.83H112.791L111.611 37.68L110.331 33.83H109.491L108.211 37.68L107.021 33.83H106.011L107.751 39ZM117.43 33.71C116.73 33.71 116.1 34.07 115.79 34.58V33.83H114.8V39H115.79V35.65C115.87 35.04 116.49 34.57 117.21 34.57C117.91 34.57 118.4 35.11 118.4 35.88V39H119.37V35.71C119.37 34.54 118.57 33.71 117.43 33.71ZM120.786 39H121.766V32.01H120.786V39ZM125.658 39.12C127.128 39.12 128.368 37.88 128.368 36.41C128.368 34.94 127.128 33.71 125.658 33.71C124.178 33.71 122.928 34.94 122.928 36.41C122.928 37.88 124.178 39.12 125.658 39.12ZM125.658 38.26C124.708 38.26 123.918 37.42 123.918 36.41C123.918 35.41 124.708 34.57 125.658 34.57C126.588 34.57 127.378 35.41 127.378 36.41C127.378 37.42 126.588 38.26 125.658 38.26ZM131.697 33.71C131.127 33.71 130.477 33.86 129.737 34.23L130.097 34.96C130.547 34.73 131.047 34.53 131.557 34.53C132.587 34.53 132.887 35.22 132.887 35.87V36.03C132.387 35.86 131.837 35.75 131.327 35.75C130.187 35.75 129.257 36.44 129.257 37.47C129.257 38.48 130.067 39.12 131.167 39.12C131.797 39.12 132.507 38.83 132.887 38.29V39H133.857V35.87C133.857 34.59 133.087 33.71 131.697 33.71ZM131.357 38.34C130.707 38.34 130.207 38 130.207 37.44C130.207 36.88 130.787 36.49 131.477 36.49C131.987 36.49 132.467 36.56 132.887 36.69V37.38C132.717 38.02 131.997 38.34 131.357 38.34ZM139.268 32.01V34.72C138.868 34.09 138.228 33.71 137.428 33.71C136.068 33.71 135.048 34.83 135.048 36.41C135.048 38 136.068 39.12 137.428 39.12C138.228 39.12 138.868 38.74 139.268 38.1V39H140.248V32.01H139.268ZM137.668 38.26C136.718 38.26 136.048 37.49 136.048 36.41C136.048 35.33 136.718 34.57 137.668 34.57C138.598 34.57 139.268 35.33 139.268 36.41C139.268 37.49 138.598 38.26 137.668 38.26ZM147.045 39.12C148.515 39.12 149.755 37.88 149.755 36.41C149.755 34.94 148.515 33.71 147.045 33.71C145.565 33.71 144.315 34.94 144.315 36.41C144.315 37.88 145.565 39.12 147.045 39.12ZM147.045 38.26C146.095 38.26 145.305 37.42 145.305 36.41C145.305 35.41 146.095 34.57 147.045 34.57C147.975 34.57 148.765 35.41 148.765 36.41C148.765 37.42 147.975 38.26 147.045 38.26ZM153.543 33.71C152.843 33.71 152.213 34.07 151.903 34.58V33.83H150.913V39H151.903V35.65C151.983 35.04 152.603 34.57 153.323 34.57C154.023 34.57 154.513 35.11 154.513 35.88V39H155.483V35.71C155.483 34.54 154.683 33.71 153.543 33.71ZM162.181 38.07C162.071 38.18 161.871 38.26 161.651 38.26C161.361 38.26 161.121 38 161.121 37.64V34.67H162.341V33.83H161.121V32.41H160.151V33.83H159.371V34.67H160.151V37.71C160.151 38.54 160.711 39.12 161.511 39.12C161.881 39.12 162.261 38.98 162.541 38.75L162.181 38.07ZM166.18 33.71C165.47 33.71 164.84 34.08 164.53 34.6V32.01H163.55V39H164.53V35.79C164.53 35.12 165.18 34.57 165.96 34.57C166.66 34.57 167.15 35.11 167.15 35.88V39H168.12V35.71C168.12 34.54 167.32 33.71 166.18 33.71ZM171.906 38.24C171.016 38.24 170.386 37.62 170.256 36.76H174.326C174.326 34.91 173.416 33.71 171.836 33.71C170.406 33.71 169.256 34.85 169.256 36.4C169.256 37.99 170.476 39.12 171.916 39.12C172.646 39.12 173.546 38.81 174.006 38.32L173.386 37.68C173.076 38 172.446 38.24 171.906 38.24ZM171.876 34.59C172.766 34.59 173.256 35.17 173.366 35.97H170.266C170.426 35.13 171.076 34.59 171.876 34.59Z" fill="white"/>
<path d="M100.008 52H102.332L98.412 42.382H96.102L92.182 52H94.492L95.108 50.488H99.392L100.008 52ZM95.822 48.738L97.25 45.224L98.678 48.738H95.822ZM107.876 44.594C106.868 44.594 106.028 45.028 105.454 45.77V44.762H103.41V54.408H105.454V50.978C106.028 51.734 106.868 52.168 107.876 52.168C109.808 52.168 111.208 50.6 111.208 48.374C111.208 46.162 109.808 44.594 107.876 44.594ZM107.288 50.446C106.294 50.446 105.566 49.718 105.454 48.654V48.094C105.566 47.044 106.294 46.316 107.288 46.316C108.422 46.316 109.22 47.17 109.22 48.374C109.22 49.592 108.422 50.446 107.288 50.446ZM117.118 44.594C116.11 44.594 115.27 45.028 114.696 45.77V44.762H112.652V54.408H114.696V50.978C115.27 51.734 116.11 52.168 117.118 52.168C119.05 52.168 120.45 50.6 120.45 48.374C120.45 46.162 119.05 44.594 117.118 44.594ZM116.53 50.446C115.536 50.446 114.808 49.718 114.696 48.654V48.094C114.808 47.044 115.536 46.316 116.53 46.316C117.664 46.316 118.462 47.17 118.462 48.374C118.462 49.592 117.664 50.446 116.53 50.446ZM129.5 52.168C131.852 52.168 133.238 50.95 133.238 49.116C133.238 47.338 131.866 46.722 129.794 46.26C128.31 45.924 127.736 45.7 127.736 45C127.736 44.426 128.268 43.964 129.15 43.964C130.074 43.964 131.04 44.342 131.894 45.028L132.972 43.544C131.992 42.704 130.774 42.214 129.206 42.214C127.106 42.214 125.65 43.432 125.65 45.21C125.65 47.072 127.092 47.646 129.122 48.108C130.592 48.444 131.152 48.654 131.152 49.34C131.152 49.942 130.62 50.418 129.584 50.418C128.366 50.418 127.33 49.942 126.42 49.158L125.23 50.572C126.35 51.608 127.834 52.168 129.5 52.168ZM138.472 50.208C138.332 50.348 138.052 50.446 137.772 50.446C137.394 50.446 137.086 50.11 137.086 49.634V46.414H138.654V44.762H137.086V42.774H135.126V44.762H134.132V46.414H135.126V49.956C135.126 51.258 136.022 52.168 137.296 52.168C137.884 52.168 138.542 51.916 138.962 51.538L138.472 50.208ZM143.798 52.168C145.94 52.168 147.732 50.432 147.732 48.374C147.732 46.316 145.94 44.594 143.798 44.594C141.642 44.594 139.836 46.316 139.836 48.374C139.836 50.432 141.642 52.168 143.798 52.168ZM143.798 50.446C142.706 50.446 141.796 49.494 141.796 48.374C141.796 47.254 142.706 46.316 143.798 46.316C144.876 46.316 145.786 47.254 145.786 48.374C145.786 49.494 144.876 50.446 143.798 50.446ZM151.159 46.106V44.762H149.115V52H151.159V48.542C151.159 47.184 152.125 46.316 153.637 46.316V44.594C152.531 44.594 151.635 45.168 151.159 46.106ZM158.232 50.362C157.378 50.362 156.748 49.83 156.51 49.046H161.732C161.732 46.316 160.402 44.594 158.134 44.594C156.02 44.594 154.41 46.176 154.41 48.36C154.41 50.586 156.09 52.168 158.246 52.168C159.31 52.168 160.556 51.72 161.2 51.048L159.898 49.718C159.506 50.096 158.806 50.362 158.232 50.362ZM158.218 46.4C159.044 46.4 159.576 46.862 159.772 47.576H156.538C156.804 46.848 157.448 46.4 158.218 46.4Z" fill="white"/>
<defs>
<filter id="filter0_dddd_538_4737" x="0" y="0" width="242" height="152" filterUnits="userSpaceOnUse" color-interpolation-filters="sRGB">
<feFlood flood-opacity="0" result="BackgroundImageFix"/>
<feColorMatrix in="SourceAlpha" type="matrix" values="0 0 0 0 0 0 0 0 0 0 0 0 0 0 0 0 0 0 127 0" result="hardAlpha"/>
<feOffset dy="1.4945"/>
<feGaussianBlur stdDeviation="1.15484"/>
<feColorMatrix type="matrix" values="0 0 0 0 0 0 0 0 0 0 0 0 0 0 0 0 0 0 0.0268173 0"/>
<feBlend mode="normal" in2="BackgroundImageFix" result="effect1_dropShadow_538_4737"/>
<feColorMatrix in="SourceAlpha" type="matrix" values="0 0 0 0 0 0 0 0 0 0 0 0 0 0 0 0 0 0 127 0" result="hardAlpha"/>
<feOffset dy="4.13211"/>
<feGaussianBlur stdDeviation="3.193"/>
<feColorMatrix type="matrix" values="0 0 0 0 0 0 0 0 0 0 0 0 0 0 0 0 0 0 0.0399899 0"/>
<feBlend mode="normal" in2="effect1_dropShadow_538_4737" result="effect2_dropShadow_538_4737"/>
<feColorMatrix in="SourceAlpha" type="matrix" values="0 0 0 0 0 0 0 0 0 0 0 0 0 0 0 0 0 0 127 0" result="hardAlpha"/>
<feOffset dy="9.94853"/>
<feGaussianBlur stdDeviation="7.6875"/>
<feColorMatrix type="matrix" values="0 0 0 0 0 0 0 0 0 0 0 0 0 0 0 0 0 0 0.0582218 0"/>
<feBlend mode="normal" in2="effect2_dropShadow_538_4737" result="effect3_dropShadow_538_4737"/>
<feColorMatrix in="SourceAlpha" type="matrix" values="0 0 0 0 0 0 0 0 0 0 0 0 0 0 0 0 0 0 127 0" result="hardAlpha"/>
<feOffset dy="33"/>
<feGaussianBlur stdDeviation="25.5"/>
<feColorMatrix type="matrix" values="0 0 0 0 0 0 0 0 0 0 0 0 0 0 0 0 0 0 0.08 0"/>
<feBlend mode="normal" in2="effect3_dropShadow_538_4737" result="effect4_dropShadow_538_4737"/>
<feBlend mode="normal" in="SourceGraphic" in2="effect4_dropShadow_538_4737" result="shape"/>
</filter>
</defs>
</svg>
