<svg width="50" height="50" viewBox="0 0 50 50" fill="none" xmlns="http://www.w3.org/2000/svg">
<path d="M10.9764 21.875C10.9764 20.0334 11.3392 18.2099 12.0439 16.5085C12.7486 14.8071 13.7816 13.2611 15.0838 11.9589C16.386 10.6567 17.9319 9.62378 19.6333 8.91903C21.3347 8.21429 23.1583 7.85156 24.9999 7.85156C26.8415 7.85156 28.665 8.21429 30.3664 8.91903C32.0678 9.62378 33.6137 10.6567 34.9159 11.9589C36.2181 13.2611 37.2511 14.8071 37.9558 16.5085C38.6606 18.2099 39.0233 20.0334 39.0233 21.875V21.875C39.0233 28.8672 40.4881 32.9297 41.7772 35.1563C41.9141 35.3934 41.9863 35.6623 41.9865 35.9361C41.9868 36.2099 41.9151 36.479 41.7786 36.7164C41.6421 36.9537 41.4456 37.1511 41.2089 37.2886C40.9721 37.4261 40.7034 37.499 40.4296 37.5H9.57018C9.29637 37.499 9.02762 37.4261 8.79086 37.2886C8.5541 37.1511 8.35763 36.9537 8.22114 36.7164C8.08466 36.479 8.01294 36.2099 8.01318 35.9361C8.01343 35.6623 8.08562 35.3934 8.22252 35.1563C9.51159 32.9297 10.9764 28.8672 10.9764 21.875Z" stroke="#182D5D" stroke-width="2" stroke-linecap="round" stroke-linejoin="round"/>
<path d="M19 38V39.2C19 40.473 19.6321 41.6939 20.7574 42.5941C21.8826 43.4943 23.4087 44 25 44C26.5913 44 28.1174 43.4943 29.2426 42.5941C30.3679 41.6939 31 40.473 31 39.2V38" stroke="#182D5D" stroke-width="2" stroke-linecap="round" stroke-linejoin="round"/>
<path d="M35.8203 4.6875C39.0017 6.69572 41.5693 9.54038 43.2422 12.9102" stroke="#182D5D" stroke-width="2" stroke-linecap="round" stroke-linejoin="round"/>
<path d="M6.75781 12.9102C8.43071 9.54038 10.9983 6.69572 14.1797 4.6875" stroke="#182D5D" stroke-width="2" stroke-linecap="round" stroke-linejoin="round"/>
</svg>
