<svg width="242" height="152" viewBox="0 0 242 152" fill="none" xmlns="http://www.w3.org/2000/svg">
<g filter="url(#filter0_dddd_538_4727)">
<rect x="51" y="18" width="140" height="50" rx="4" fill="black"/>
</g>
<path d="M97.92 36.18H99.76V37.62C99.29 37.98 98.64 38.19 98.06 38.19C96.68 38.19 95.52 36.99 95.52 35.56C95.52 34.14 96.68 32.94 98.06 32.94C98.77 32.94 99.58 33.26 100.05 33.77L100.76 33.09C100.11 32.42 99.03 32.01 98.06 32.01C96.13 32.01 94.48 33.63 94.48 35.56C94.48 37.49 96.13 39.12 98.06 39.12C99.03 39.12 100.11 38.7 100.76 38.04V35.3H97.92V36.18ZM104.531 38.24C103.641 38.24 103.011 37.62 102.881 36.76H106.951C106.951 34.91 106.041 33.71 104.461 33.71C103.031 33.71 101.881 34.85 101.881 36.4C101.881 37.99 103.101 39.12 104.541 39.12C105.271 39.12 106.171 38.81 106.631 38.32L106.011 37.68C105.701 38 105.071 38.24 104.531 38.24ZM104.501 34.59C105.391 34.59 105.881 35.17 105.991 35.97H102.891C103.051 35.13 103.701 34.59 104.501 34.59ZM110.519 38.07C110.409 38.18 110.209 38.26 109.989 38.26C109.699 38.26 109.459 38 109.459 37.64V34.67H110.679V33.83H109.459V32.41H108.489V33.83H107.709V34.67H108.489V37.71C108.489 38.54 109.049 39.12 109.849 39.12C110.219 39.12 110.599 38.98 110.879 38.75L110.519 38.07ZM115.239 32.97C115.559 32.97 115.829 32.69 115.829 32.37C115.829 32.06 115.559 31.78 115.239 31.78C114.899 31.78 114.639 32.06 114.639 32.37C114.639 32.69 114.899 32.97 115.239 32.97ZM114.739 39H115.729V33.83H114.739V39ZM119.581 38.07C119.471 38.18 119.271 38.26 119.051 38.26C118.761 38.26 118.521 38 118.521 37.64V34.67H119.741V33.83H118.521V32.41H117.551V33.83H116.771V34.67H117.551V37.71C117.551 38.54 118.111 39.12 118.911 39.12C119.281 39.12 119.661 38.98 119.941 38.75L119.581 38.07ZM127.142 39.12C129.072 39.12 130.692 37.49 130.692 35.56C130.692 33.63 129.072 32.01 127.142 32.01C125.212 32.01 123.572 33.63 123.572 35.56C123.572 37.49 125.212 39.12 127.142 39.12ZM127.142 38.19C125.772 38.19 124.612 36.99 124.612 35.56C124.612 34.14 125.772 32.94 127.142 32.94C128.512 32.94 129.662 34.14 129.662 35.56C129.662 36.99 128.512 38.19 127.142 38.19ZM134.528 33.71C133.828 33.71 133.198 34.07 132.888 34.58V33.83H131.898V39H132.888V35.65C132.968 35.04 133.588 34.57 134.308 34.57C135.008 34.57 135.498 35.11 135.498 35.88V39H136.468V35.71C136.468 34.54 135.668 33.71 134.528 33.71Z" fill="white"/>
<path d="M99.362 48.206H101.602V49.676C101.056 50.068 100.384 50.292 99.726 50.292C98.088 50.292 96.702 48.864 96.702 47.184C96.702 45.518 98.088 44.09 99.726 44.09C100.608 44.09 101.546 44.51 102.12 45.168L103.618 43.824C102.652 42.816 101.168 42.214 99.726 42.214C96.94 42.214 94.574 44.482 94.574 47.184C94.574 49.886 96.94 52.168 99.726 52.168C101.168 52.168 102.652 51.566 103.618 50.558V46.596H99.362V48.206ZM108.856 52.168C110.998 52.168 112.79 50.432 112.79 48.374C112.79 46.316 110.998 44.594 108.856 44.594C106.7 44.594 104.894 46.316 104.894 48.374C104.894 50.432 106.7 52.168 108.856 52.168ZM108.856 50.446C107.764 50.446 106.854 49.494 106.854 48.374C106.854 47.254 107.764 46.316 108.856 46.316C109.934 46.316 110.844 47.254 110.844 48.374C110.844 49.494 109.934 50.446 108.856 50.446ZM117.729 52.168C119.871 52.168 121.663 50.432 121.663 48.374C121.663 46.316 119.871 44.594 117.729 44.594C115.573 44.594 113.767 46.316 113.767 48.374C113.767 50.432 115.573 52.168 117.729 52.168ZM117.729 50.446C116.637 50.446 115.727 49.494 115.727 48.374C115.727 47.254 116.637 46.316 117.729 46.316C118.807 46.316 119.717 47.254 119.717 48.374C119.717 49.494 118.807 50.446 117.729 50.446ZM128.282 44.762V45.742C127.792 45.056 126.868 44.594 125.888 44.594C124.068 44.594 122.682 46.008 122.682 48.024C122.682 50.04 124.068 51.468 125.888 51.468C126.84 51.468 127.708 51.048 128.282 50.348V51.146C128.282 52.084 127.442 52.686 126.126 52.686C125.286 52.686 124.446 52.42 123.97 52L123.256 53.442C123.97 54.002 125.174 54.408 126.448 54.408C128.73 54.408 130.34 53.092 130.34 51.23V44.762H128.282ZM126.532 49.746C125.51 49.746 124.782 49.032 124.782 48.024C124.782 47.016 125.51 46.316 126.532 46.316C127.554 46.316 128.282 47.016 128.282 48.024C128.282 49.032 127.554 49.746 126.532 49.746ZM132.138 52H134.182V42.214H132.138V52ZM139.382 50.362C138.528 50.362 137.898 49.83 137.66 49.046H142.882C142.882 46.316 141.552 44.594 139.284 44.594C137.17 44.594 135.56 46.176 135.56 48.36C135.56 50.586 137.24 52.168 139.396 52.168C140.46 52.168 141.706 51.72 142.35 51.048L141.048 49.718C140.656 50.096 139.956 50.362 139.382 50.362ZM139.368 46.4C140.194 46.4 140.726 46.862 140.922 47.576H137.688C137.954 46.848 138.598 46.4 139.368 46.4ZM148.231 52H150.289V48.878H152.557C154.643 48.878 156.183 47.534 156.183 45.63C156.183 43.726 154.643 42.382 152.557 42.382H148.231V52ZM150.289 46.988V44.272H152.333C153.355 44.272 154.055 44.804 154.055 45.63C154.055 46.456 153.355 46.988 152.333 46.988H150.289ZM157.417 52H159.461V42.214H157.417V52ZM164.48 44.594C163.472 44.594 162.478 44.874 161.456 45.392L162.142 46.75C162.716 46.456 163.346 46.232 164.018 46.232C165.208 46.232 165.684 46.904 165.684 47.674V47.814C165.068 47.576 164.424 47.45 163.836 47.45C162.156 47.45 160.826 48.43 160.826 49.858C160.826 51.244 162.016 52.168 163.556 52.168C164.34 52.168 165.166 51.86 165.684 51.272V52H167.658V47.674C167.658 45.784 166.37 44.594 164.48 44.594ZM164.018 50.754C163.318 50.754 162.8 50.39 162.8 49.802C162.8 49.214 163.388 48.78 164.13 48.78C164.69 48.78 165.222 48.878 165.684 49.046V49.718C165.544 50.39 164.802 50.754 164.018 50.754ZM171.032 54.52C172.166 54.52 173.09 53.778 173.636 52.364L176.604 44.762H174.518L172.712 49.844L170.808 44.762H168.694L171.704 52.07L171.452 52.602C171.298 52.868 170.99 52.994 170.598 52.994C170.36 52.994 169.996 52.868 169.646 52.672L169.212 54.072C169.702 54.338 170.43 54.52 171.032 54.52Z" fill="white"/>
<g filter="url(#filter1_ii_538_4727)">
<path d="M64.463 30.3972C64.172 30.7052 64 31.1832 64 31.8022V53.9182C64 54.5382 64.172 55.0152 64.463 55.3232L64.537 55.3952L76.926 43.0062V42.8602V42.7142L64.537 30.3242L64.463 30.3972Z" fill="url(#paint0_linear_538_4727)"/>
<path d="M81.0548 47.137L76.9258 43.006V42.86V42.714L81.0558 38.584L81.1488 38.637L86.0418 41.417C87.4388 42.211 87.4388 43.51 86.0418 44.305L81.1488 47.085L81.0548 47.137Z" fill="url(#paint1_linear_538_4727)"/>
<g filter="url(#filter2_i_538_4727)">
<path d="M81.1489 47.0839L76.9249 42.8599L64.4629 55.3229C64.9229 55.8109 65.6839 55.8709 66.5409 55.3849L81.1489 47.0839Z" fill="url(#paint2_linear_538_4727)"/>
</g>
<path d="M81.1489 38.6361L66.5409 30.3361C65.6839 29.8491 64.9229 29.9101 64.4629 30.3981L76.9259 42.8611L81.1489 38.6361Z" fill="url(#paint3_linear_538_4727)"/>
</g>
<defs>
<filter id="filter0_dddd_538_4727" x="0" y="0" width="242" height="152" filterUnits="userSpaceOnUse" color-interpolation-filters="sRGB">
<feFlood flood-opacity="0" result="BackgroundImageFix"/>
<feColorMatrix in="SourceAlpha" type="matrix" values="0 0 0 0 0 0 0 0 0 0 0 0 0 0 0 0 0 0 127 0" result="hardAlpha"/>
<feOffset dy="1.4945"/>
<feGaussianBlur stdDeviation="1.15484"/>
<feColorMatrix type="matrix" values="0 0 0 0 0 0 0 0 0 0 0 0 0 0 0 0 0 0 0.0268173 0"/>
<feBlend mode="normal" in2="BackgroundImageFix" result="effect1_dropShadow_538_4727"/>
<feColorMatrix in="SourceAlpha" type="matrix" values="0 0 0 0 0 0 0 0 0 0 0 0 0 0 0 0 0 0 127 0" result="hardAlpha"/>
<feOffset dy="4.13211"/>
<feGaussianBlur stdDeviation="3.193"/>
<feColorMatrix type="matrix" values="0 0 0 0 0 0 0 0 0 0 0 0 0 0 0 0 0 0 0.0399899 0"/>
<feBlend mode="normal" in2="effect1_dropShadow_538_4727" result="effect2_dropShadow_538_4727"/>
<feColorMatrix in="SourceAlpha" type="matrix" values="0 0 0 0 0 0 0 0 0 0 0 0 0 0 0 0 0 0 127 0" result="hardAlpha"/>
<feOffset dy="9.94853"/>
<feGaussianBlur stdDeviation="7.6875"/>
<feColorMatrix type="matrix" values="0 0 0 0 0 0 0 0 0 0 0 0 0 0 0 0 0 0 0.0582218 0"/>
<feBlend mode="normal" in2="effect2_dropShadow_538_4727" result="effect3_dropShadow_538_4727"/>
<feColorMatrix in="SourceAlpha" type="matrix" values="0 0 0 0 0 0 0 0 0 0 0 0 0 0 0 0 0 0 127 0" result="hardAlpha"/>
<feOffset dy="33"/>
<feGaussianBlur stdDeviation="25.5"/>
<feColorMatrix type="matrix" values="0 0 0 0 0 0 0 0 0 0 0 0 0 0 0 0 0 0 0.08 0"/>
<feBlend mode="normal" in2="effect3_dropShadow_538_4727" result="effect4_dropShadow_538_4727"/>
<feBlend mode="normal" in="SourceGraphic" in2="effect4_dropShadow_538_4727" result="shape"/>
</filter>
<filter id="filter1_ii_538_4727" x="64" y="30" width="23.0894" height="25.7207" filterUnits="userSpaceOnUse" color-interpolation-filters="sRGB">
<feFlood flood-opacity="0" result="BackgroundImageFix"/>
<feBlend mode="normal" in="SourceGraphic" in2="BackgroundImageFix" result="shape"/>
<feColorMatrix in="SourceAlpha" type="matrix" values="0 0 0 0 0 0 0 0 0 0 0 0 0 0 0 0 0 0 127 0" result="hardAlpha"/>
<feOffset dy="-0.15"/>
<feComposite in2="hardAlpha" operator="arithmetic" k2="-1" k3="1"/>
<feColorMatrix type="matrix" values="0 0 0 0 0 0 0 0 0 0 0 0 0 0 0 0 0 0 0.12 0"/>
<feBlend mode="normal" in2="shape" result="effect1_innerShadow_538_4727"/>
<feColorMatrix in="SourceAlpha" type="matrix" values="0 0 0 0 0 0 0 0 0 0 0 0 0 0 0 0 0 0 127 0" result="hardAlpha"/>
<feOffset dy="0.15"/>
<feComposite in2="hardAlpha" operator="arithmetic" k2="-1" k3="1"/>
<feColorMatrix type="matrix" values="0 0 0 0 1 0 0 0 0 1 0 0 0 0 1 0 0 0 0.25 0"/>
<feBlend mode="normal" in2="effect1_innerShadow_538_4727" result="effect2_innerShadow_538_4727"/>
</filter>
<filter id="filter2_i_538_4727" x="64.4629" y="42.8599" width="16.686" height="12.8608" filterUnits="userSpaceOnUse" color-interpolation-filters="sRGB">
<feFlood flood-opacity="0" result="BackgroundImageFix"/>
<feBlend mode="normal" in="SourceGraphic" in2="BackgroundImageFix" result="shape"/>
<feColorMatrix in="SourceAlpha" type="matrix" values="0 0 0 0 0 0 0 0 0 0 0 0 0 0 0 0 0 0 127 0" result="hardAlpha"/>
<feOffset dy="-0.15"/>
<feComposite in2="hardAlpha" operator="arithmetic" k2="-1" k3="1"/>
<feColorMatrix type="matrix" values="0 0 0 0 0 0 0 0 0 0 0 0 0 0 0 0 0 0 0.08 0"/>
<feBlend mode="normal" in2="shape" result="effect1_innerShadow_538_4727"/>
</filter>
<linearGradient id="paint0_linear_538_4727" x1="75.8278" y1="31.5682" x2="59.0458" y2="48.3502" gradientUnits="userSpaceOnUse">
<stop stop-color="#00A0FF"/>
<stop offset="0.0066" stop-color="#00A1FF"/>
<stop offset="0.2601" stop-color="#00BEFF"/>
<stop offset="0.5122" stop-color="#00D2FF"/>
<stop offset="0.7604" stop-color="#00DFFF"/>
<stop offset="1" stop-color="#00E3FF"/>
</linearGradient>
<linearGradient id="paint1_linear_538_4727" x1="87.8603" y1="42.86" x2="63.6644" y2="42.86" gradientUnits="userSpaceOnUse">
<stop stop-color="#FFE000"/>
<stop offset="0.4087" stop-color="#FFBD00"/>
<stop offset="0.7754" stop-color="#FFA500"/>
<stop offset="1" stop-color="#FF9C00"/>
</linearGradient>
<linearGradient id="paint2_linear_538_4727" x1="78.855" y1="45.1538" x2="56.0965" y2="67.9123" gradientUnits="userSpaceOnUse">
<stop stop-color="#FF3A44"/>
<stop offset="1" stop-color="#C31162"/>
</linearGradient>
<linearGradient id="paint3_linear_538_4727" x1="61.3243" y1="23.0359" x2="71.4866" y2="33.1982" gradientUnits="userSpaceOnUse">
<stop stop-color="#32A071"/>
<stop offset="0.0685" stop-color="#2DA771"/>
<stop offset="0.4762" stop-color="#15CF74"/>
<stop offset="0.8009" stop-color="#06E775"/>
<stop offset="1" stop-color="#00F076"/>
</linearGradient>
</defs>
</svg>
