<svg width="108" height="54" viewBox="0 0 108 54" fill="none" xmlns="http://www.w3.org/2000/svg">
<path d="M18.8791 10.3151L10.0854 19.0826L18.8791 27.8502L27.6728 19.0826L18.8791 10.3151ZM12.8661 19.0826L18.8791 13.0875L24.8921 19.0826L18.8791 25.0769L12.8661 19.0826ZM18.8791 10.3151L10.0854 19.0826L18.8791 27.8502L27.6728 19.0826L18.8791 10.3151ZM12.8661 19.0826L18.8791 13.0875L24.8921 19.0826L18.8791 25.0769L12.8661 19.0826ZM18.8791 10.3151L10.0854 19.0826L18.8791 27.8502L27.6728 19.0826L18.8791 10.3151ZM12.8661 19.0826L18.8791 13.0875L24.8921 19.0826L18.8791 25.0769L12.8661 19.0826ZM18.8791 10.3151L10.0854 19.0826L18.8791 27.8502L27.6728 19.0826L18.8791 10.3151ZM12.8661 19.0826L18.8791 13.0875L24.8921 19.0826L18.8791 25.0769L12.8661 19.0826ZM18.8791 10.3151L10.0854 19.0826L18.8791 27.8502L27.6728 19.0826L18.8791 10.3151ZM12.8661 19.0826L18.8791 13.0875L24.8921 19.0826L18.8791 25.0769L12.8661 19.0826ZM18.8791 10.3151L10.0854 19.0826L18.8791 27.8502L27.6728 19.0826L18.8791 10.3151ZM12.8661 19.0826L18.8791 13.0875L24.8921 19.0826L18.8791 25.0769L12.8661 19.0826ZM18.8791 10.3151L10.0854 19.0826L18.8791 27.8502L27.6728 19.0826L18.8791 10.3151ZM12.8661 19.0826L18.8791 13.0875L24.8921 19.0826L18.8791 25.0769L12.8661 19.0826ZM18.8791 10.3151L10.0854 19.0826L18.8791 27.8502L27.6728 19.0826L18.8791 10.3151ZM12.8661 19.0826L18.8791 13.0875L24.8921 19.0826L18.8791 25.0769L12.8661 19.0826ZM37.9468 17.0806C37.9303 16.9211 37.9121 16.7628 37.8922 16.6056C37.8495 16.2702 37.7983 15.938 37.7385 15.6088C37.7163 15.4879 37.6933 15.3679 37.6694 15.2488C37.6463 15.1347 37.6224 15.0215 37.5977 14.9083C37.5729 14.7951 37.549 14.6929 37.5234 14.5857C37.4722 14.3723 37.4172 14.1598 37.3586 13.9481C37.3313 13.8493 37.3028 13.7506 37.2732 13.6519C37.2451 13.5565 37.216 13.4612 37.1879 13.3667C37.1597 13.2722 37.1298 13.1828 37.1025 13.0918C37.0752 13.0007 37.0436 12.9147 37.0171 12.827C36.9602 12.6568 36.8982 12.4851 36.831 12.312C35.8587 9.73529 34.3379 7.39921 32.3732 5.46465C30.4086 3.53009 28.0468 2.04299 25.4504 1.10573L25.1943 1.01465L24.9185 0.926127C24.8246 0.895483 24.7299 0.864839 24.6351 0.835898C24.5403 0.806956 24.4387 0.776312 24.3406 0.750776C24.2424 0.725239 24.1297 0.690339 24.0238 0.665654C23.8018 0.606069 23.5782 0.549037 23.3528 0.49541C23.1166 0.438662 22.8786 0.387873 22.639 0.343042C22.4427 0.305588 22.2454 0.270688 22.0474 0.238342C21.8493 0.205995 21.6501 0.177621 21.4497 0.15322L21.2081 0.124278C21.0502 0.105551 20.8905 0.0893781 20.7317 0.0757586C20.17 0.0252529 19.6008 0 19.0242 0C18.4477 0 17.8785 0.0252529 17.3167 0.0757586C17.1568 0.090513 16.998 0.106686 16.8403 0.124278C16.6815 0.143005 16.5227 0.162583 16.3648 0.184715C16.2324 0.203442 16.101 0.22302 15.9695 0.2443C15.7731 0.276646 15.5776 0.311546 15.383 0.349C15.1456 0.394966 14.9091 0.446039 14.6752 0.500517C14.5659 0.526054 14.4566 0.553293 14.3474 0.580532C14.1365 0.634159 13.9265 0.690339 13.719 0.750776C10.6315 1.65295 7.82288 3.31864 5.55408 5.59306C3.28528 7.86747 1.62995 10.6768 0.741915 13.76C0.682152 13.9694 0.62495 14.1788 0.571164 14.3907C0.543843 14.4997 0.517377 14.6095 0.491764 14.7193C0.437124 14.9534 0.387606 15.19 0.341504 15.4275C0.266942 15.8179 0.204049 16.2123 0.152824 16.6107C0.133472 16.7679 0.115258 16.9262 0.0981833 17.0857C-0.0327278 18.3797 -0.0327278 19.6835 0.0981833 20.9775C0.115258 21.1369 0.133472 21.2952 0.152824 21.4524C0.204049 21.8497 0.266942 22.2441 0.341504 22.6356C0.387606 22.8731 0.437124 23.1098 0.491764 23.3439C0.517377 23.4537 0.543843 23.5635 0.571164 23.6724C0.624096 23.8844 0.681298 24.0938 0.741915 24.3032C1.62995 27.3864 3.28528 30.1957 5.55408 32.4701C7.82288 34.7445 10.6315 36.4102 13.719 37.3124C13.9265 37.3737 14.1365 37.4298 14.3474 37.4826C14.4566 37.5099 14.5659 37.5371 14.6752 37.5626C14.9091 37.6171 15.1456 37.6682 15.383 37.7141C15.5776 37.7516 15.7731 37.7865 15.9695 37.8188C16.101 37.8401 16.2324 37.8597 16.3648 37.8784C16.5227 37.9006 16.6815 37.9201 16.8403 37.9389C16.9991 37.9576 17.1571 37.9729 17.3167 37.9874C17.8785 38.0373 18.4477 38.0626 19.0242 38.0631C19.6008 38.0637 20.17 38.0385 20.7317 37.9874C20.8905 37.9732 21.0493 37.957 21.2081 37.9389L21.4497 37.9099C21.6501 37.8844 21.8493 37.856 22.0474 37.8248C22.2454 37.7936 22.4427 37.7587 22.639 37.7201C22.8781 37.6741 23.116 37.6233 23.3528 37.5677C23.5782 37.515 23.8018 37.4579 24.0238 37.3975C24.1297 37.3685 24.2355 37.3388 24.3406 37.3081C24.4456 37.2775 24.5369 37.2502 24.6351 37.223C24.7333 37.1958 24.8246 37.1634 24.9185 37.1328L25.1918 37.0417L25.4479 36.9506C28.0435 36.013 30.4046 34.5259 32.3686 32.5915C34.3326 30.6571 35.853 28.3214 36.825 25.7451C36.8893 25.5749 36.9514 25.4032 37.0111 25.2302C37.041 25.145 37.0709 25.054 37.0965 24.9654C37.1221 24.8769 37.1554 24.7824 37.1819 24.6905C37.2084 24.5986 37.2399 24.5007 37.2673 24.4053C37.2946 24.31 37.3245 24.2078 37.3526 24.1091C37.4096 23.898 37.4645 23.6855 37.5174 23.4715C37.543 23.3643 37.5678 23.257 37.5917 23.1489C37.6156 23.0408 37.6404 22.9225 37.6634 22.8084C37.6865 22.6944 37.7104 22.5692 37.7326 22.4484C37.7923 22.1187 37.8435 21.7864 37.8862 21.4516C37.9067 21.2944 37.9249 21.1361 37.9409 20.9766C38.0718 19.6826 38.0718 18.3788 37.9409 17.0848L37.9468 17.0806ZM36.0216 17.6185L20.3595 2.00207C28.6776 2.64985 35.3403 9.29958 36.0216 17.6177V17.6185ZM18.8791 34.8651L3.04791 19.0809L18.8791 3.29763L25.5273 9.92692C23.1579 8.22173 20.2108 7.51449 17.3227 7.95805C17.1784 7.98019 17.035 8.00487 16.8958 8.03296C16.8241 8.04658 16.7532 8.06105 16.6824 8.07637C16.4963 8.11638 16.311 8.1615 16.1283 8.21002L15.9575 8.25768C15.8491 8.28918 15.7415 8.32152 15.6348 8.35557C15.5281 8.38962 15.435 8.42112 15.336 8.45602C15.237 8.49092 15.1516 8.52241 15.0602 8.55731C14.9749 8.59136 14.8835 8.62626 14.7956 8.66201C12.163 9.7493 10.0438 11.7943 8.86795 14.3822C8.82868 14.4673 8.79112 14.5525 8.75355 14.6376C8.71599 14.7227 8.6733 14.8308 8.63488 14.9278C8.5939 15.0308 8.55463 15.1355 8.51706 15.2411C8.4795 15.3466 8.44022 15.4633 8.40351 15.5756L8.34716 15.7561C8.3096 15.8804 8.27374 16.0063 8.24044 16.1323C8.20288 16.2708 8.16844 16.411 8.13714 16.5528C8.12177 16.6235 8.1064 16.6941 8.09189 16.7656C8.0825 16.8116 8.07396 16.8567 8.06457 16.9027C8.0381 17.0389 8.0142 17.1759 7.99371 17.3147C7.97322 17.4534 7.95358 17.5947 7.93736 17.7403C7.92712 17.8331 7.91772 17.9267 7.90919 18.0203C7.88016 18.3506 7.86479 18.686 7.86479 19.0239C7.86479 19.3618 7.88016 19.6972 7.90919 20.0275C7.91772 20.1211 7.92712 20.2148 7.93736 20.3084C7.95358 20.4489 7.97236 20.5893 7.99371 20.7289C8.01505 20.8685 8.0381 21.0047 8.06457 21.1409C8.07396 21.1869 8.0825 21.232 8.09189 21.2779C8.1064 21.3494 8.12177 21.4201 8.13714 21.4907C8.16901 21.632 8.20345 21.7722 8.24044 21.9112C8.28996 22.0977 8.3446 22.2815 8.40266 22.4637C8.47039 22.6725 8.54353 22.8785 8.62207 23.0817L8.67671 23.2196C8.74786 23.3938 8.82242 23.566 8.9004 23.7363C8.93369 23.8086 8.9687 23.8801 9.00285 23.9516C9.06859 24.0853 9.13689 24.2181 9.20689 24.3483C9.2769 24.4785 9.33752 24.5841 9.40497 24.6998C10.3901 26.3783 11.7965 27.7721 13.4859 28.744C13.544 28.7772 13.602 28.8104 13.6609 28.8427L13.8564 28.9483C13.9265 28.9849 13.9973 29.0206 14.0682 29.0564C14.2193 29.1313 14.373 29.2037 14.5275 29.2726C14.6129 29.3101 14.6982 29.3475 14.7836 29.3833C14.869 29.419 14.9663 29.4565 15.0585 29.4922C15.1601 29.5314 15.2626 29.5688 15.365 29.6046L15.546 29.6659C15.8471 29.7646 16.1542 29.8497 16.4672 29.9212C16.6081 29.9544 16.7498 29.9842 16.8941 30.0123C17.0384 30.0404 17.1793 30.0651 17.321 30.0872C18.4476 30.2597 19.594 30.2597 20.7206 30.0872C20.9056 30.0588 21.0892 30.0259 21.2713 29.9885L21.2944 29.9834C21.3513 29.9726 21.4059 29.9607 21.4583 29.9476C21.565 29.9238 21.67 29.8982 21.7759 29.8719C21.8817 29.8455 21.9722 29.8199 22.0696 29.7927C23.5024 29.3861 24.8382 28.6953 25.9968 27.7617L18.8791 34.8651ZM19.0225 28.2639C13.9521 28.2639 9.82757 24.1193 9.82757 19.0256C9.82757 13.9319 13.9521 9.78818 19.0225 9.78818C24.093 9.78818 28.2175 13.9319 28.2175 19.0256C28.2175 24.1193 24.093 28.2639 19.0225 28.2639ZM29.4093 23.1259C29.4708 22.9704 29.5277 22.813 29.5801 22.6535C29.6108 22.5633 29.6407 22.4731 29.6654 22.382C29.6654 22.382 29.6654 22.382 29.6654 22.3777C29.6945 22.2841 29.7226 22.1896 29.7508 22.0951C29.7645 22.0466 29.7781 21.9989 29.7909 21.9504C29.7909 21.9504 29.7909 21.9504 29.7909 21.9453C29.82 21.8363 29.8473 21.7274 29.8763 21.6167C29.9053 21.5061 29.9275 21.3929 29.9506 21.2762C29.96 21.2303 29.9685 21.1852 29.9779 21.1392C30.0044 21.003 30.0283 20.866 30.0488 20.7272C30.0693 20.5885 30.0889 20.4472 30.1051 20.3067C30.1154 20.2131 30.1247 20.1194 30.1333 20.0258C30.1623 19.6955 30.1777 19.3601 30.1777 19.0222C30.1777 18.6843 30.1623 18.3489 30.1333 18.0186C30.1247 17.925 30.1154 17.8314 30.1051 17.7386C30.0886 17.5973 30.0698 17.4554 30.0488 17.313C30.0283 17.1742 30.0044 17.0372 29.9779 16.901C29.9685 16.855 29.96 16.8099 29.9506 16.7639C29.9198 16.6141 29.8857 16.4643 29.8498 16.317C29.8251 16.2183 29.7995 16.1204 29.7721 16.0225C29.7491 15.9374 29.726 15.8582 29.7013 15.7765C29.6765 15.6948 29.6509 15.6139 29.6244 15.5331C29.598 15.4522 29.5775 15.3918 29.5536 15.322C29.1962 14.2908 28.6881 13.3179 28.0459 12.4346L34.7051 19.0741L27.6847 26.0737C28.4079 25.1852 28.9895 24.1909 29.4093 23.1259ZM17.3714 2.03271L2.04901 17.3036C2.86179 9.23744 9.30593 2.80817 17.3714 2.03271ZM2.06438 20.8711L17.2459 36.01C9.28032 35.1818 2.92326 28.8393 2.06438 20.8711ZM20.4807 36.0398L36.0114 20.5544C35.2789 28.7763 28.7015 35.3401 20.4807 36.0398ZM10.0871 19.0818L18.8808 27.8494L27.6745 19.0818L18.8808 10.3142L10.0871 19.0818ZM18.8808 25.0761L12.8661 19.0818L18.8791 13.0867L24.8921 19.0818L18.8808 25.0761ZM18.8808 10.3151L10.0871 19.0826L18.8808 27.8502L27.6745 19.0826L18.8808 10.3151ZM12.8678 19.0826L18.8808 13.0875L24.8938 19.0826L18.8808 25.0769L12.8678 19.0826ZM18.8808 10.3151L10.0871 19.0826L18.8808 27.8502L27.6745 19.0826L18.8808 10.3151ZM12.8678 19.0826L18.8808 13.0875L24.8938 19.0826L18.8808 25.0769L12.8678 19.0826ZM18.8808 10.3151L10.0871 19.0826L18.8808 27.8502L27.6745 19.0826L18.8808 10.3151ZM12.8678 19.0826L18.8808 13.0875L24.8938 19.0826L18.8808 25.0769L12.8678 19.0826ZM18.8808 10.3151L10.0871 19.0826L18.8808 27.8502L27.6745 19.0826L18.8808 10.3151ZM12.8678 19.0826L18.8808 13.0875L24.8938 19.0826L18.8808 25.0769L12.8678 19.0826ZM18.8808 10.3151L10.0871 19.0826L18.8808 27.8502L27.6745 19.0826L18.8808 10.3151ZM12.8678 19.0826L18.8808 13.0875L24.8938 19.0826L18.8808 25.0769L12.8678 19.0826ZM18.8808 10.3151L10.0871 19.0826L18.8808 27.8502L27.6745 19.0826L18.8808 10.3151ZM12.8678 19.0826L18.8808 13.0875L24.8938 19.0826L18.8808 25.0769L12.8678 19.0826Z" fill="white"/>
<path d="M18.8791 10.3151L10.0854 19.0826L18.8791 27.8502L27.6728 19.0826L18.8791 10.3151ZM12.8661 19.0826L18.8791 13.0875L24.8921 19.0826L18.8791 25.0769L12.8661 19.0826ZM18.8791 10.3151L10.0854 19.0826L18.8791 27.8502L27.6728 19.0826L18.8791 10.3151ZM12.8661 19.0826L18.8791 13.0875L24.8921 19.0826L18.8791 25.0769L12.8661 19.0826ZM18.8791 10.3151L10.0854 19.0826L18.8791 27.8502L27.6728 19.0826L18.8791 10.3151ZM12.8661 19.0826L18.8791 13.0875L24.8921 19.0826L18.8791 25.0769L12.8661 19.0826ZM18.8791 10.3151L10.0854 19.0826L18.8791 27.8502L27.6728 19.0826L18.8791 10.3151ZM12.8661 19.0826L18.8791 13.0875L24.8921 19.0826L18.8791 25.0769L12.8661 19.0826ZM18.8791 10.3151L10.0854 19.0826L18.8791 27.8502L27.6728 19.0826L18.8791 10.3151ZM12.8661 19.0826L18.8791 13.0875L24.8921 19.0826L18.8791 25.0769L12.8661 19.0826ZM18.8791 10.3151L10.0854 19.0826L18.8791 27.8502L27.6728 19.0826L18.8791 10.3151ZM12.8661 19.0826L18.8791 13.0875L24.8921 19.0826L18.8791 25.0769L12.8661 19.0826ZM18.8791 10.3151L10.0854 19.0826L18.8791 27.8502L27.6728 19.0826L18.8791 10.3151ZM12.8661 19.0826L18.8791 13.0875L24.8921 19.0826L18.8791 25.0769L12.8661 19.0826ZM18.8791 10.3151L10.0854 19.0826L18.8791 27.8502L27.6728 19.0826L18.8791 10.3151ZM12.8661 19.0826L18.8791 13.0875L24.8921 19.0826L18.8791 25.0769L12.8661 19.0826ZM37.9468 17.0806C37.9303 16.9211 37.9121 16.7628 37.8922 16.6056C37.8495 16.2702 37.7983 15.938 37.7385 15.6088C37.7163 15.4879 37.6933 15.3679 37.6694 15.2488C37.6463 15.1347 37.6224 15.0215 37.5977 14.9083C37.5729 14.7951 37.549 14.6929 37.5234 14.5857C37.4722 14.3723 37.4172 14.1598 37.3586 13.9481C37.3313 13.8493 37.3028 13.7506 37.2732 13.6519C37.2451 13.5565 37.216 13.4612 37.1879 13.3667C37.1597 13.2722 37.1298 13.1828 37.1025 13.0918C37.0752 13.0007 37.0436 12.9147 37.0171 12.827C36.9602 12.6568 36.8982 12.4851 36.831 12.312C35.8587 9.73529 34.3379 7.39921 32.3732 5.46465C30.4086 3.53009 28.0468 2.04299 25.4504 1.10573L25.1943 1.01465L24.9185 0.926127C24.8246 0.895483 24.7299 0.864839 24.6351 0.835898C24.5403 0.806956 24.4387 0.776312 24.3406 0.750776C24.2424 0.725239 24.1297 0.690339 24.0238 0.665654C23.8018 0.606069 23.5782 0.549037 23.3528 0.49541C23.1166 0.438662 22.8786 0.387873 22.639 0.343042C22.4427 0.305588 22.2454 0.270688 22.0474 0.238342C21.8493 0.205995 21.6501 0.177621 21.4497 0.15322L21.2081 0.124278C21.0502 0.105551 20.8905 0.0893781 20.7317 0.0757586C20.17 0.0252529 19.6008 0 19.0242 0C18.4477 0 17.8785 0.0252529 17.3167 0.0757586C17.1568 0.090513 16.998 0.106686 16.8403 0.124278C16.6815 0.143005 16.5227 0.162583 16.3648 0.184715C16.2324 0.203442 16.101 0.22302 15.9695 0.2443C15.7731 0.276646 15.5776 0.311546 15.383 0.349C15.1456 0.394966 14.9091 0.446039 14.6752 0.500517C14.5659 0.526054 14.4566 0.553293 14.3474 0.580532C14.1365 0.634159 13.9265 0.690339 13.719 0.750776C10.6315 1.65295 7.82288 3.31864 5.55408 5.59306C3.28528 7.86747 1.62995 10.6768 0.741915 13.76C0.682152 13.9694 0.62495 14.1788 0.571164 14.3907C0.543843 14.4997 0.517377 14.6095 0.491764 14.7193C0.437124 14.9534 0.387606 15.19 0.341504 15.4275C0.266942 15.8179 0.204049 16.2123 0.152824 16.6107C0.133472 16.7679 0.115258 16.9262 0.0981833 17.0857C-0.0327278 18.3797 -0.0327278 19.6835 0.0981833 20.9775C0.115258 21.1369 0.133472 21.2952 0.152824 21.4524C0.204049 21.8497 0.266942 22.2441 0.341504 22.6356C0.387606 22.8731 0.437124 23.1098 0.491764 23.3439C0.517377 23.4537 0.543843 23.5635 0.571164 23.6724C0.624096 23.8844 0.681298 24.0938 0.741915 24.3032C1.62995 27.3864 3.28528 30.1957 5.55408 32.4701C7.82288 34.7445 10.6315 36.4102 13.719 37.3124C13.9265 37.3737 14.1365 37.4298 14.3474 37.4826C14.4566 37.5099 14.5659 37.5371 14.6752 37.5626C14.9091 37.6171 15.1456 37.6682 15.383 37.7141C15.5776 37.7516 15.7731 37.7865 15.9695 37.8188C16.101 37.8401 16.2324 37.8597 16.3648 37.8784C16.5227 37.9006 16.6815 37.9201 16.8403 37.9389C16.9991 37.9576 17.1571 37.9729 17.3167 37.9874C17.8785 38.0373 18.4477 38.0626 19.0242 38.0631C19.6008 38.0637 20.17 38.0385 20.7317 37.9874C20.8905 37.9732 21.0493 37.957 21.2081 37.9389L21.4497 37.9099C21.6501 37.8844 21.8493 37.856 22.0474 37.8248C22.2454 37.7936 22.4427 37.7587 22.639 37.7201C22.8781 37.6741 23.116 37.6233 23.3528 37.5677C23.5782 37.515 23.8018 37.4579 24.0238 37.3975C24.1297 37.3685 24.2355 37.3388 24.3406 37.3081C24.4456 37.2775 24.5369 37.2502 24.6351 37.223C24.7333 37.1958 24.8246 37.1634 24.9185 37.1328L25.1918 37.0417L25.4479 36.9506C28.0435 36.013 30.4046 34.5259 32.3686 32.5915C34.3326 30.6571 35.853 28.3214 36.825 25.7451C36.8893 25.5749 36.9514 25.4032 37.0111 25.2302C37.041 25.145 37.0709 25.054 37.0965 24.9654C37.1221 24.8769 37.1554 24.7824 37.1819 24.6905C37.2084 24.5986 37.2399 24.5007 37.2673 24.4053C37.2946 24.31 37.3245 24.2078 37.3526 24.1091C37.4096 23.898 37.4645 23.6855 37.5174 23.4715C37.543 23.3643 37.5678 23.257 37.5917 23.1489C37.6156 23.0408 37.6404 22.9225 37.6634 22.8084C37.6865 22.6944 37.7104 22.5692 37.7326 22.4484C37.7923 22.1187 37.8435 21.7864 37.8862 21.4516C37.9067 21.2944 37.9249 21.1361 37.9409 20.9766C38.0718 19.6826 38.0718 18.3788 37.9409 17.0848L37.9468 17.0806ZM36.0216 17.6185L20.3595 2.00207C28.6776 2.64985 35.3403 9.29958 36.0216 17.6177V17.6185ZM18.8791 34.8651L3.04791 19.0809L18.8791 3.29763L25.5273 9.92692C23.1579 8.22173 20.2108 7.51449 17.3227 7.95805C17.1784 7.98019 17.035 8.00487 16.8958 8.03296C16.8241 8.04658 16.7532 8.06105 16.6824 8.07637C16.4963 8.11638 16.311 8.1615 16.1283 8.21002L15.9575 8.25768C15.8491 8.28918 15.7415 8.32152 15.6348 8.35557C15.5281 8.38962 15.435 8.42112 15.336 8.45602C15.237 8.49092 15.1516 8.52241 15.0602 8.55731C14.9749 8.59136 14.8835 8.62626 14.7956 8.66201C12.163 9.7493 10.0438 11.7943 8.86795 14.3822C8.82868 14.4673 8.79112 14.5525 8.75355 14.6376C8.71599 14.7227 8.6733 14.8308 8.63488 14.9278C8.5939 15.0308 8.55463 15.1355 8.51706 15.2411C8.4795 15.3466 8.44022 15.4633 8.40351 15.5756L8.34716 15.7561C8.3096 15.8804 8.27374 16.0063 8.24044 16.1323C8.20288 16.2708 8.16844 16.411 8.13714 16.5528C8.12177 16.6235 8.1064 16.6941 8.09189 16.7656C8.0825 16.8116 8.07396 16.8567 8.06457 16.9027C8.0381 17.0389 8.0142 17.1759 7.99371 17.3147C7.97322 17.4534 7.95358 17.5947 7.93736 17.7403C7.92712 17.8331 7.91772 17.9267 7.90919 18.0203C7.88016 18.3506 7.86479 18.686 7.86479 19.0239C7.86479 19.3618 7.88016 19.6972 7.90919 20.0275C7.91772 20.1211 7.92712 20.2148 7.93736 20.3084C7.95358 20.4489 7.97236 20.5893 7.99371 20.7289C8.01505 20.8685 8.0381 21.0047 8.06457 21.1409C8.07396 21.1869 8.0825 21.232 8.09189 21.2779C8.1064 21.3494 8.12177 21.4201 8.13714 21.4907C8.16901 21.632 8.20345 21.7722 8.24044 21.9112C8.28996 22.0977 8.3446 22.2815 8.40266 22.4637C8.47039 22.6725 8.54353 22.8785 8.62207 23.0817L8.67671 23.2196C8.74786 23.3938 8.82242 23.566 8.9004 23.7363C8.93369 23.8086 8.9687 23.8801 9.00285 23.9516C9.06859 24.0853 9.13689 24.2181 9.20689 24.3483C9.2769 24.4785 9.33752 24.5841 9.40497 24.6998C10.3901 26.3783 11.7965 27.7721 13.4859 28.744C13.544 28.7772 13.602 28.8104 13.6609 28.8427L13.8564 28.9483C13.9265 28.9849 13.9973 29.0206 14.0682 29.0564C14.2193 29.1313 14.373 29.2037 14.5275 29.2726C14.6129 29.3101 14.6982 29.3475 14.7836 29.3833C14.869 29.419 14.9663 29.4565 15.0585 29.4922C15.1601 29.5314 15.2626 29.5688 15.365 29.6046L15.546 29.6659C15.8471 29.7646 16.1542 29.8497 16.4672 29.9212C16.6081 29.9544 16.7498 29.9842 16.8941 30.0123C17.0384 30.0404 17.1793 30.0651 17.321 30.0872C18.4476 30.2597 19.594 30.2597 20.7206 30.0872C20.9056 30.0588 21.0892 30.0259 21.2713 29.9885L21.2944 29.9834C21.3513 29.9726 21.4059 29.9607 21.4583 29.9476C21.565 29.9238 21.67 29.8982 21.7759 29.8719C21.8817 29.8455 21.9722 29.8199 22.0696 29.7927C23.5024 29.3861 24.8382 28.6953 25.9968 27.7617L18.8791 34.8651ZM19.0225 28.2639C13.9521 28.2639 9.82757 24.1193 9.82757 19.0256C9.82757 13.9319 13.9521 9.78818 19.0225 9.78818C24.093 9.78818 28.2175 13.9319 28.2175 19.0256C28.2175 24.1193 24.093 28.2639 19.0225 28.2639ZM29.4093 23.1259C29.4708 22.9704 29.5277 22.813 29.5801 22.6535C29.6108 22.5633 29.6407 22.4731 29.6654 22.382C29.6654 22.382 29.6654 22.382 29.6654 22.3777C29.6945 22.2841 29.7226 22.1896 29.7508 22.0951C29.7645 22.0466 29.7781 21.9989 29.7909 21.9504C29.7909 21.9504 29.7909 21.9504 29.7909 21.9453C29.82 21.8363 29.8473 21.7274 29.8763 21.6167C29.9053 21.5061 29.9275 21.3929 29.9506 21.2762C29.96 21.2303 29.9685 21.1852 29.9779 21.1392C30.0044 21.003 30.0283 20.866 30.0488 20.7272C30.0693 20.5885 30.0889 20.4472 30.1051 20.3067C30.1154 20.2131 30.1247 20.1194 30.1333 20.0258C30.1623 19.6955 30.1777 19.3601 30.1777 19.0222C30.1777 18.6843 30.1623 18.3489 30.1333 18.0186C30.1247 17.925 30.1154 17.8314 30.1051 17.7386C30.0886 17.5973 30.0698 17.4554 30.0488 17.313C30.0283 17.1742 30.0044 17.0372 29.9779 16.901C29.9685 16.855 29.96 16.8099 29.9506 16.7639C29.9198 16.6141 29.8857 16.4643 29.8498 16.317C29.8251 16.2183 29.7995 16.1204 29.7721 16.0225C29.7491 15.9374 29.726 15.8582 29.7013 15.7765C29.6765 15.6948 29.6509 15.6139 29.6244 15.5331C29.598 15.4522 29.5775 15.3918 29.5536 15.322C29.1962 14.2908 28.6881 13.3179 28.0459 12.4346L34.7051 19.0741L27.6847 26.0737C28.4079 25.1852 28.9895 24.1909 29.4093 23.1259ZM17.3714 2.03271L2.04901 17.3036C2.86179 9.23744 9.30593 2.80817 17.3714 2.03271ZM2.06438 20.8711L17.2459 36.01C9.28032 35.1818 2.92326 28.8393 2.06438 20.8711ZM20.4807 36.0398L36.0114 20.5544C35.2789 28.7763 28.7015 35.3401 20.4807 36.0398ZM10.0871 19.0818L18.8808 27.8494L27.6745 19.0818L18.8808 10.3142L10.0871 19.0818ZM18.8808 25.0761L12.8661 19.0818L18.8791 13.0867L24.8921 19.0818L18.8808 25.0761ZM18.8808 10.3151L10.0871 19.0826L18.8808 27.8502L27.6745 19.0826L18.8808 10.3151ZM12.8678 19.0826L18.8808 13.0875L24.8938 19.0826L18.8808 25.0769L12.8678 19.0826ZM18.8808 10.3151L10.0871 19.0826L18.8808 27.8502L27.6745 19.0826L18.8808 10.3151ZM12.8678 19.0826L18.8808 13.0875L24.8938 19.0826L18.8808 25.0769L12.8678 19.0826ZM18.8808 10.3151L10.0871 19.0826L18.8808 27.8502L27.6745 19.0826L18.8808 10.3151ZM12.8678 19.0826L18.8808 13.0875L24.8938 19.0826L18.8808 25.0769L12.8678 19.0826ZM18.8808 10.3151L10.0871 19.0826L18.8808 27.8502L27.6745 19.0826L18.8808 10.3151ZM12.8678 19.0826L18.8808 13.0875L24.8938 19.0826L18.8808 25.0769L12.8678 19.0826ZM18.8808 10.3151L10.0871 19.0826L18.8808 27.8502L27.6745 19.0826L18.8808 10.3151ZM12.8678 19.0826L18.8808 13.0875L24.8938 19.0826L18.8808 25.0769L12.8678 19.0826ZM18.8808 10.3151L10.0871 19.0826L18.8808 27.8502L27.6745 19.0826L18.8808 10.3151ZM12.8678 19.0826L18.8808 13.0875L24.8938 19.0826L18.8808 25.0769L12.8678 19.0826Z" fill="white"/>
<path d="M37.9468 17.0797C37.9298 16.9203 37.9116 16.7619 37.8922 16.6047C37.8495 16.2694 37.7983 15.9371 37.7385 15.608C37.7163 15.4871 37.6933 15.3671 37.6694 15.2479C37.6463 15.1338 37.6224 15.0206 37.5977 14.9074C37.5729 14.7942 37.549 14.6921 37.5234 14.5848C37.4722 14.3711 37.4167 14.1592 37.3586 13.9472C37.3313 13.8485 37.3028 13.7498 37.2732 13.651C37.2451 13.5557 37.216 13.4603 37.1879 13.3659C37.1597 13.2714 37.1298 13.182 37.1025 13.0909C37.0752 12.9998 37.0436 12.9139 37.0171 12.8262C36.9602 12.6559 36.8982 12.4843 36.831 12.3112C35.8545 9.73691 34.3323 7.4031 32.3682 5.46921C30.4041 3.53533 28.0444 2.04694 25.4504 1.10573L25.1943 1.01465L24.9185 0.926127C24.8246 0.895483 24.7299 0.864839 24.6351 0.835898C24.5403 0.806956 24.4387 0.776312 24.3406 0.750776C24.2424 0.725239 24.1297 0.690339 24.0238 0.665654C23.8018 0.606069 23.5782 0.549037 23.3528 0.49541C23.1166 0.438662 22.8786 0.387873 22.639 0.343042C22.4427 0.305588 22.2454 0.270688 22.0474 0.238342C21.8493 0.205995 21.6501 0.177621 21.4497 0.15322L21.2081 0.124278C21.0493 0.106686 20.8905 0.090513 20.7317 0.0757586C20.17 0.0252529 19.6008 0 19.0242 0C18.4477 0 17.8785 0.0252529 17.3167 0.0757586C17.1568 0.090513 16.998 0.106686 16.8403 0.124278C16.6815 0.143005 16.5227 0.162583 16.3648 0.184715C16.2324 0.203442 16.101 0.22302 15.9695 0.2443C15.7731 0.276646 15.5776 0.311546 15.383 0.349C15.1456 0.394966 14.9091 0.446039 14.6752 0.500517C14.5659 0.526054 14.4566 0.553293 14.3474 0.580532C14.1365 0.634159 13.9265 0.69119 13.719 0.750776C10.6341 1.65801 7.82818 3.3254 5.56014 5.59906C3.29209 7.87271 1.63504 10.6794 0.741915 13.76C0.682152 13.9694 0.62495 14.1788 0.571164 14.3907C0.543843 14.4997 0.517377 14.6095 0.491764 14.7193C0.437124 14.9534 0.387606 15.19 0.341504 15.4275C0.266942 15.8179 0.204049 16.2123 0.152824 16.6107C0.133472 16.7679 0.115258 16.9262 0.0981833 17.0857C-0.0327278 18.3797 -0.0327278 19.6835 0.0981833 20.9775C0.115258 21.1369 0.133472 21.2952 0.152824 21.4524C0.204049 21.8497 0.266942 22.2441 0.341504 22.6356C0.387606 22.8731 0.437124 23.1098 0.491764 23.3439C0.517377 23.4537 0.543843 23.5635 0.571164 23.6724C0.624096 23.8844 0.681298 24.0938 0.741915 24.3032C1.63504 27.3838 3.29209 30.1904 5.56014 32.4641C7.82818 34.7377 10.6341 36.4051 13.719 37.3124C13.9265 37.3728 14.1365 37.4298 14.3474 37.4826C14.4566 37.5099 14.5659 37.5371 14.6752 37.5626C14.9091 37.6171 15.1456 37.6682 15.383 37.7141C15.5776 37.7516 15.7731 37.7865 15.9695 37.8188C16.101 37.8401 16.2324 37.8597 16.3648 37.8784C16.5227 37.9006 16.6815 37.9201 16.8403 37.9389C16.9991 37.9576 17.1571 37.9729 17.3167 37.9874C17.8785 38.0373 18.4477 38.0626 19.0242 38.0631C19.6008 38.0637 20.17 38.0385 20.7317 37.9874C20.8905 37.9732 21.0493 37.957 21.2081 37.9389L21.4497 37.9099C21.6501 37.8844 21.8493 37.856 22.0474 37.8248C22.2454 37.7936 22.4427 37.7587 22.639 37.7201C22.8781 37.6741 23.116 37.6233 23.3528 37.5677C23.5782 37.515 23.8018 37.4579 24.0238 37.3975C24.1297 37.3685 24.2355 37.3388 24.3406 37.3081C24.4456 37.2775 24.5369 37.2502 24.6351 37.223C24.7333 37.1958 24.8246 37.1634 24.9185 37.1328L25.1918 37.0417L25.4479 36.9506C28.0412 36.009 30.4002 34.5204 32.3637 32.5865C34.3272 30.6527 35.8489 28.3191 36.825 25.7451C36.8893 25.5749 36.9514 25.4032 37.0111 25.2302C37.041 25.145 37.0709 25.054 37.0965 24.9654C37.1221 24.8769 37.1554 24.7824 37.1819 24.6905C37.2084 24.5986 37.2399 24.5007 37.2673 24.4053C37.2946 24.31 37.3245 24.2078 37.3526 24.1091C37.4107 23.898 37.4662 23.6835 37.5174 23.4715C37.543 23.3643 37.5678 23.257 37.5917 23.1489C37.6156 23.0408 37.6404 22.9225 37.6634 22.8084C37.6865 22.6944 37.7104 22.5692 37.7326 22.4484C37.7923 22.1187 37.8435 21.7864 37.8862 21.4516C37.9062 21.2944 37.9244 21.1361 37.9409 20.9766C38.0718 19.6826 38.0718 18.3788 37.9409 17.0848L37.9468 17.0797ZM20.4807 36.0398C20.0003 36.0807 19.5143 36.1014 19.0225 36.1019C18.4291 36.1019 17.8361 36.0712 17.2459 36.01C9.28032 35.1818 2.92326 28.8393 2.06438 20.8711C1.93591 19.6856 1.93076 18.4901 2.04901 17.3036C2.86179 9.23744 9.30593 2.80817 17.3714 2.03271C17.9138 1.97596 18.4642 1.94759 19.0225 1.94759C19.4727 1.94759 19.9184 1.96518 20.3595 2.00037C28.6776 2.64814 35.3403 9.29788 36.0216 17.616C36.0592 18.0796 36.0783 18.5489 36.0788 19.0239C36.0788 19.5392 36.0564 20.0499 36.0114 20.5561C35.2789 28.7763 28.7015 35.3401 20.4807 36.0398Z" fill="white"/>
<path d="M18.8792 10.3154L10.0855 19.083L18.8792 27.8505L27.6729 19.083L18.8792 10.3154ZM12.8662 19.083L18.8792 13.0878L24.8922 19.083L18.8792 25.0773L12.8662 19.083ZM18.8792 10.3154L10.0855 19.083L18.8792 27.8505L27.6729 19.083L18.8792 10.3154ZM12.8662 19.083L18.8792 13.0878L24.8922 19.083L18.8792 25.0773L12.8662 19.083ZM18.8792 10.3154L10.0855 19.083L18.8792 27.8505L27.6729 19.083L18.8792 10.3154ZM12.8662 19.083L18.8792 13.0878L24.8922 19.083L18.8792 25.0773L12.8662 19.083ZM18.8792 10.3154L10.0855 19.083L18.8792 27.8505L27.6729 19.083L18.8792 10.3154ZM12.8662 19.083L18.8792 13.0878L24.8922 19.083L18.8792 25.0773L12.8662 19.083ZM18.8792 10.3154L10.0855 19.083L18.8792 27.8505L27.6729 19.083L18.8792 10.3154ZM12.8662 19.083L18.8792 13.0878L24.8922 19.083L18.8792 25.0773L12.8662 19.083ZM18.8792 10.3154L10.0855 19.083L18.8792 27.8505L27.6729 19.083L18.8792 10.3154ZM12.8662 19.083L18.8792 13.0878L24.8922 19.083L18.8792 25.0773L12.8662 19.083ZM18.8792 10.3154L10.0855 19.083L18.8792 27.8505L27.6729 19.083L18.8792 10.3154ZM12.8662 19.083L18.8792 13.0878L24.8922 19.083L18.8792 25.0773L12.8662 19.083ZM18.8792 10.3154L10.0855 19.083L18.8792 27.8505L27.6729 19.083L18.8792 10.3154ZM12.8662 19.083L18.8792 13.0878L24.8922 19.083L18.8792 25.0773L12.8662 19.083ZM36.0217 17.6189L20.3596 2.00238L18.8792 0.526367L2.04912 17.3039L0.269043 19.0813L2.06193 20.8688L17.246 36.0103L18.8775 37.637L20.4791 36.0401L36.0115 20.5547L37.4893 19.0813L36.0217 17.6189ZM19.0226 28.2642C13.9522 28.2642 9.82768 24.1196 9.82768 19.0259C9.82768 13.9322 13.9522 9.7885 19.0226 9.7885C24.0931 9.7885 28.2176 13.9322 28.2176 19.0259C28.2176 24.1196 24.0931 28.2642 19.0226 28.2642ZM18.8792 34.8654L3.04802 19.0813L18.8792 3.29794L25.5274 9.92724C23.158 8.22204 20.2109 7.51481 17.3228 7.95837C17.1785 7.9805 17.0351 8.00519 16.8959 8.03328C16.8242 8.0469 16.7533 8.06137 16.6825 8.07669C16.4964 8.1167 16.3111 8.16181 16.1284 8.21033L15.9576 8.258C15.8492 8.2895 15.7416 8.32184 15.6349 8.35589C15.5282 8.38994 15.4351 8.42144 15.3361 8.45634C15.2371 8.49124 15.1517 8.52273 15.0603 8.55763C14.975 8.59168 14.8836 8.62658 14.7957 8.66233C12.1631 9.74961 10.0439 11.7946 8.86806 14.3825C8.82879 14.4677 8.79122 14.5528 8.75366 14.6379C8.71609 14.723 8.67341 14.8311 8.63499 14.9282C8.59401 15.0312 8.55474 15.1359 8.51717 15.2414C8.4796 15.347 8.44033 15.4636 8.40362 15.5759L8.34727 15.7564C8.30971 15.8807 8.27385 16.0067 8.24055 16.1326C8.20299 16.2711 8.16855 16.4113 8.13725 16.5531C8.12188 16.6238 8.10651 16.6944 8.092 16.7659C8.08261 16.8119 8.07407 16.857 8.06468 16.903C8.03821 17.0392 8.01431 17.1762 7.99382 17.315C7.97333 17.4537 7.95369 17.595 7.93747 17.7406C7.92722 17.8334 7.91783 17.927 7.9093 18.0206C7.88027 18.3509 7.8649 18.6863 7.8649 19.0242C7.8649 19.3622 7.88027 19.6976 7.9093 20.0278C7.91783 20.1215 7.92722 20.2151 7.93747 20.3087C7.95369 20.4492 7.97247 20.5896 7.99382 20.7292C8.01516 20.8688 8.03821 21.005 8.06468 21.1412C8.07407 21.1872 8.08261 21.2323 8.092 21.2783C8.10651 21.3498 8.12188 21.4204 8.13725 21.4911C8.16912 21.6324 8.20356 21.7725 8.24055 21.9116C8.29007 22.098 8.34471 22.2819 8.40277 22.464C8.4705 22.6729 8.54364 22.8788 8.62218 23.082L8.67682 23.2199C8.74797 23.3941 8.82253 23.5663 8.90051 23.7366C8.9338 23.8089 8.96881 23.8804 9.00296 23.952C9.0687 24.0856 9.137 24.2184 9.207 24.3486C9.27701 24.4789 9.33763 24.5844 9.40508 24.7002C10.3902 26.3786 11.7966 27.7724 13.486 28.7443C13.5441 28.7775 13.6021 28.8107 13.661 28.8431L13.8566 28.9486C13.9266 28.9852 13.9974 29.021 14.0683 29.0567C14.2194 29.1316 14.3731 29.204 14.5276 29.2729C14.613 29.3104 14.6984 29.3478 14.7837 29.3836C14.8691 29.4193 14.9664 29.4568 15.0586 29.4925C15.1602 29.5317 15.2627 29.5692 15.3651 29.6049L15.5461 29.6662C15.8472 29.7649 16.1543 29.8501 16.4673 29.9216C16.6082 29.9548 16.7499 29.9846 16.8942 30.0126C17.0385 30.0407 17.1794 30.0654 17.3211 30.0875C18.4477 30.2601 19.5941 30.2601 20.7207 30.0875C20.9057 30.0592 21.0893 30.0263 21.2714 29.9888L21.2945 29.9837C21.3514 29.9729 21.406 29.961 21.4584 29.9479C21.5651 29.9241 21.6701 29.8986 21.776 29.8722C21.8818 29.8458 21.9723 29.8203 22.0697 29.793C23.5025 29.3864 24.8383 28.6956 25.9969 27.762L18.8792 34.8654ZM27.6899 26.0809C28.4119 25.1899 28.9918 24.1933 29.4094 23.1263C29.4709 22.9708 29.5278 22.8133 29.5802 22.6538C29.6109 22.5636 29.6408 22.4734 29.6655 22.3823C29.6655 22.3823 29.6655 22.3823 29.6655 22.378C29.6946 22.2844 29.7227 22.1899 29.7509 22.0954C29.7646 22.0469 29.7782 21.9993 29.791 21.9507C29.791 21.9507 29.791 21.9507 29.791 21.9456C29.8201 21.8367 29.8474 21.7277 29.8764 21.6171C29.9054 21.5064 29.9276 21.3932 29.9507 21.2766C29.9601 21.2306 29.9686 21.1855 29.978 21.1395C30.0045 21.0033 30.0284 20.8663 30.0489 20.7275C30.0694 20.5888 30.089 20.4475 30.1052 20.307C30.1155 20.2134 30.1249 20.1198 30.1334 20.0261C30.1624 19.6958 30.1778 19.3605 30.1778 19.0225C30.1778 18.6846 30.1624 18.3492 30.1334 18.0189C30.1249 17.9253 30.1155 17.8317 30.1052 17.7389C30.0887 17.5976 30.0699 17.4557 30.0489 17.3133C30.0284 17.1745 30.0045 17.0375 29.978 16.9013C29.9686 16.8553 29.9601 16.8102 29.9507 16.7642C29.92 16.6144 29.8858 16.4646 29.8499 16.3174C29.8252 16.2186 29.7996 16.1207 29.7723 16.0228C29.7492 15.9377 29.7262 15.8585 29.7014 15.7768C29.6766 15.6951 29.651 15.6142 29.6246 15.5334C29.5981 15.4525 29.5776 15.3921 29.5537 15.3223C29.1963 14.2911 28.6882 13.3182 28.046 12.4349L34.7052 19.0745L27.6899 26.0809ZM10.0872 19.0821L18.8809 27.8497L27.6746 19.0821L18.8809 10.3145L10.0872 19.0821ZM18.8809 25.0764L12.8662 19.0821L18.8792 13.087L24.8922 19.0821L18.8809 25.0764ZM18.8809 10.3154L10.0872 19.083L18.8809 27.8505L27.6746 19.083L18.8809 10.3154ZM12.8679 19.083L18.8809 13.0878L24.8939 19.083L18.8809 25.0773L12.8679 19.083ZM18.8809 10.3154L10.0872 19.083L18.8809 27.8505L27.6746 19.083L18.8809 10.3154ZM12.8679 19.083L18.8809 13.0878L24.8939 19.083L18.8809 25.0773L12.8679 19.083ZM18.8809 10.3154L10.0872 19.083L18.8809 27.8505L27.6746 19.083L18.8809 10.3154ZM12.8679 19.083L18.8809 13.0878L24.8939 19.083L18.8809 25.0773L12.8679 19.083ZM18.8809 10.3154L10.0872 19.083L18.8809 27.8505L27.6746 19.083L18.8809 10.3154ZM12.8679 19.083L18.8809 13.0878L24.8939 19.083L18.8809 25.0773L12.8679 19.083ZM18.8809 10.3154L10.0872 19.083L18.8809 27.8505L27.6746 19.083L18.8809 10.3154ZM12.8679 19.083L18.8809 13.0878L24.8939 19.083L18.8809 25.0773L12.8679 19.083ZM18.8809 10.3154L10.0872 19.083L18.8809 27.8505L27.6746 19.083L18.8809 10.3154ZM12.8679 19.083L18.8809 13.0878L24.8939 19.083L18.8809 25.0773L12.8679 19.083Z" fill="white"/>
<path d="M36.0217 17.618L20.3596 2.00238L18.8792 0.526367L2.04912 17.3039L0.269043 19.0813L2.06193 20.8688L17.246 36.0103L18.8775 37.637L20.4791 36.0401L36.0115 20.5547L37.4893 19.0813L36.0217 17.618ZM25.9969 27.7688L18.8792 34.8654L3.04802 19.0813L18.8792 3.29794L25.5274 9.92724L25.5487 9.94852L28.0246 12.4171L28.0485 12.4417L34.7078 19.0813L25.9969 27.7688Z" fill="white"/>
<path d="M18.879 10.3145L10.0854 19.0821L18.879 27.8496L27.6727 19.0821L18.879 10.3145ZM12.866 19.0821L18.879 13.0869L24.892 19.0821L18.879 25.0763L12.866 19.0821ZM18.879 10.3145L10.0854 19.0821L18.879 27.8496L27.6727 19.0821L18.879 10.3145ZM12.866 19.0821L18.879 13.0869L24.892 19.0821L18.879 25.0763L12.866 19.0821ZM18.879 10.3145L10.0854 19.0821L18.879 27.8496L27.6727 19.0821L18.879 10.3145ZM12.866 19.0821L18.879 13.0869L24.892 19.0821L18.879 25.0763L12.866 19.0821ZM18.879 10.3145L10.0854 19.0821L18.879 27.8496L27.6727 19.0821L18.879 10.3145ZM12.866 19.0821L18.879 13.0869L24.892 19.0821L18.879 25.0763L12.866 19.0821ZM18.879 10.3145L10.0854 19.0821L18.879 27.8496L27.6727 19.0821L18.879 10.3145ZM12.866 19.0821L18.879 13.0869L24.892 19.0821L18.879 25.0763L12.866 19.0821ZM18.879 10.3145L10.0854 19.0821L18.879 27.8496L27.6727 19.0821L18.879 10.3145ZM12.866 19.0821L18.879 13.0869L24.892 19.0821L18.879 25.0763L12.866 19.0821ZM18.879 10.3145L10.0854 19.0821L18.879 27.8496L27.6727 19.0821L18.879 10.3145ZM12.866 19.0821L18.879 13.0869L24.892 19.0821L18.879 25.0763L12.866 19.0821ZM18.879 10.3145L10.0854 19.0821L18.879 27.8496L27.6727 19.0821L18.879 10.3145ZM12.866 19.0821L18.879 13.0869L24.892 19.0821L18.879 25.0763L12.866 19.0821ZM30.1375 18.0214C30.129 17.9278 30.1196 17.8342 30.1094 17.7414C30.0928 17.6001 30.0741 17.4582 30.053 17.3158C30.0325 17.177 30.0086 17.04 29.9821 16.9038C29.9727 16.8578 29.9642 16.8127 29.9548 16.7667C29.9241 16.6169 29.8899 16.4671 29.8541 16.3199C29.8293 16.2211 29.8037 16.1232 29.7764 16.0253C29.7533 15.9402 29.7303 15.861 29.7055 15.7793C29.6808 15.6976 29.6552 15.6167 29.6287 15.5359C29.6022 15.455 29.5817 15.3946 29.5578 15.3248C29.2004 14.2936 28.6923 13.3207 28.0501 12.4374C27.3482 11.4722 26.4966 10.6245 25.5272 9.92634C23.1579 8.22114 20.2107 7.5139 17.3226 7.95747C17.1784 7.9796 17.0349 8.00428 16.8958 8.03237C16.8241 8.04599 16.7532 8.06046 16.6823 8.07579C16.4962 8.11579 16.311 8.16091 16.1282 8.20943L15.9575 8.25709C15.8491 8.28859 15.7415 8.32094 15.6348 8.35499C15.5281 8.38903 15.435 8.42053 15.336 8.45543C15.2369 8.49033 15.1515 8.52182 15.0602 8.55672C14.9748 8.59077 14.8835 8.62567 14.7955 8.66142C12.1629 9.74871 10.0438 11.7937 8.86791 14.3816C8.82864 14.4667 8.79107 14.5519 8.75351 14.637C8.71594 14.7221 8.67325 14.8302 8.63483 14.9273C8.59385 15.0303 8.55458 15.135 8.51702 15.2405C8.47945 15.3461 8.44018 15.4627 8.40347 15.575L8.34712 15.7555C8.30955 15.8798 8.27369 16.0057 8.2404 16.1317C8.20283 16.2702 8.1684 16.4104 8.13709 16.5522C8.12173 16.6229 8.10636 16.6935 8.09184 16.765C8.08245 16.811 8.07392 16.8561 8.06452 16.9021C8.03806 17.0383 8.01415 17.1753 7.99366 17.3141C7.97317 17.4528 7.95354 17.5941 7.93732 17.7397C7.92707 17.8325 7.91768 17.9261 7.90914 18.0197C7.88011 18.35 7.86475 18.6854 7.86475 19.0233C7.86475 19.3613 7.88011 19.6966 7.90914 20.0269C7.91768 20.1205 7.92707 20.2142 7.93732 20.3078C7.95354 20.4483 7.97232 20.5887 7.99366 20.7283C8.01501 20.8679 8.03806 21.0041 8.06452 21.1403C8.07392 21.1863 8.08245 21.2314 8.09184 21.2774C8.10636 21.3489 8.12173 21.4195 8.13709 21.4902C8.16897 21.6315 8.2034 21.7716 8.2404 21.9107C8.28992 22.0971 8.34456 22.2809 8.40261 22.4631C8.47034 22.6719 8.54348 22.8779 8.62203 23.0811L8.67667 23.219C8.74781 23.3932 8.82238 23.5654 8.90035 23.7357C8.93365 23.808 8.96865 23.8795 9.0028 23.951C9.06854 24.0847 9.13684 24.2175 9.20685 24.3477C9.27686 24.4779 9.33747 24.5835 9.40492 24.6993C10.39 26.3777 11.7965 27.7715 13.4859 28.7434C13.5439 28.7766 13.602 28.8098 13.6609 28.8421L13.8564 28.9477C13.9264 28.9843 13.9973 29.0201 14.0681 29.0558C14.2192 29.1307 14.3729 29.2031 14.5275 29.272C14.6128 29.3095 14.6982 29.3469 14.7836 29.3827C14.869 29.4184 14.9663 29.4559 15.0585 29.4916C15.1601 29.5308 15.2625 29.5682 15.365 29.604L15.546 29.6653C15.8471 29.764 16.1541 29.8491 16.4672 29.9206C16.6081 29.9538 16.7498 29.9836 16.8941 30.0117C17.0384 30.0398 17.1792 30.0645 17.3209 30.0866C18.4476 30.2591 19.594 30.2591 20.7206 30.0866C20.9056 30.0583 21.0891 30.0253 21.2713 29.9879L21.2943 29.9828C21.3512 29.972 21.4059 29.9601 21.4582 29.947C21.565 29.9232 21.67 29.8977 21.7758 29.8713C21.8817 29.8449 21.9722 29.8193 22.0695 29.7921C23.5024 29.3855 24.8382 28.6947 25.9968 27.7611C27.5211 26.5364 28.6983 24.9361 29.4118 23.1185C29.4733 22.9631 29.5302 22.8056 29.5826 22.6461C29.6133 22.5559 29.6432 22.4657 29.668 22.3746C29.668 22.3746 29.668 22.3746 29.668 22.3703C29.697 22.2767 29.7252 22.1822 29.7533 22.0877C29.767 22.0392 29.7807 21.9915 29.7935 21.943C29.7935 21.943 29.7935 21.943 29.7935 21.9379C29.8225 21.8289 29.8498 21.72 29.8788 21.6093C29.9079 21.4987 29.9301 21.3855 29.9531 21.2688C29.9625 21.2229 29.971 21.1778 29.9804 21.1318C30.0069 20.9956 30.0308 20.8586 30.0513 20.7198C30.0718 20.5811 30.0914 20.4398 30.1076 20.2993C30.1179 20.2057 30.1273 20.112 30.1358 20.0184C30.1648 19.6881 30.1802 19.3527 30.1802 19.0148C30.1802 18.6769 30.1674 18.3517 30.1375 18.0214ZM19.0225 28.2633C13.952 28.2633 9.82753 24.1187 9.82753 19.025C9.82753 13.9313 13.952 9.78759 19.0225 9.78759C24.0929 9.78759 28.2174 13.9313 28.2174 19.025C28.2174 24.1187 24.0929 28.2633 19.0225 28.2633ZM18.879 10.3145L10.0854 19.0821L18.879 27.8496L27.6727 19.0821L18.879 10.3145ZM12.866 19.0821L18.879 13.0869L24.892 19.0821L18.879 25.0763L12.866 19.0821ZM18.879 10.3145L10.0854 19.0821L18.879 27.8496L27.6727 19.0821L18.879 10.3145ZM12.866 19.0821L18.879 13.0869L24.892 19.0821L18.879 25.0763L12.866 19.0821ZM18.879 10.3145L10.0854 19.0821L18.879 27.8496L27.6727 19.0821L18.879 10.3145ZM12.866 19.0821L18.879 13.0869L24.892 19.0821L18.879 25.0763L12.866 19.0821ZM18.879 10.3145L10.0854 19.0821L18.879 27.8496L27.6727 19.0821L18.879 10.3145ZM12.866 19.0821L18.879 13.0869L24.892 19.0821L18.879 25.0763L12.866 19.0821ZM18.879 10.3145L10.0854 19.0821L18.879 27.8496L27.6727 19.0821L18.879 10.3145ZM12.866 19.0821L18.879 13.0869L24.892 19.0821L18.879 25.0763L12.866 19.0821ZM18.879 10.3145L10.0854 19.0821L18.879 27.8496L27.6727 19.0821L18.879 10.3145ZM12.866 19.0821L18.879 13.0869L24.892 19.0821L18.879 25.0763L12.866 19.0821ZM18.879 10.3145L10.0854 19.0821L18.879 27.8496L27.6727 19.0821L18.879 10.3145ZM12.866 19.0821L18.879 13.0869L24.892 19.0821L18.879 25.0763L12.866 19.0821Z" fill="white"/>
<path d="M30.1375 18.0217C30.129 17.9281 30.1196 17.8345 30.1093 17.7417C30.0928 17.6004 30.074 17.4585 30.053 17.3161C30.0316 17.1782 30.0077 17.0403 29.9821 16.9041C29.9727 16.8581 29.9642 16.813 29.9548 16.767C29.9241 16.6172 29.8899 16.4674 29.8541 16.3201C29.8293 16.2214 29.8037 16.1235 29.7764 16.0256C29.7533 15.9405 29.7303 15.8613 29.7055 15.7796C29.6807 15.6979 29.6551 15.617 29.6287 15.5362C29.6022 15.4553 29.5817 15.3949 29.5578 15.3251C28.8001 13.1662 27.4004 11.289 25.5452 9.94365C23.1745 8.22586 20.2189 7.51203 17.3226 7.95775C17.1784 7.97988 17.0349 8.00457 16.8958 8.03266C16.824 8.04628 16.7532 8.06075 16.6823 8.07607C16.4962 8.11608 16.3109 8.16119 16.1282 8.20971L15.9575 8.25738C15.8491 8.28887 15.7415 8.32122 15.6348 8.35527C15.528 8.38932 15.435 8.42081 15.336 8.45571C15.2369 8.49061 15.1515 8.52211 15.0602 8.55701C14.9748 8.59106 14.8835 8.62596 14.7955 8.66171C12.1668 9.75491 10.0496 11.7981 8.86791 14.3819C8.82864 14.467 8.79107 14.5522 8.7535 14.6373C8.71594 14.7224 8.67325 14.8305 8.63483 14.9275C8.59385 15.0305 8.55458 15.1352 8.51701 15.2408C8.47945 15.3463 8.44018 15.463 8.40347 15.5753L8.34712 15.7558C8.30955 15.8801 8.27369 16.006 8.2404 16.132C8.20369 16.2716 8.16954 16.4112 8.13709 16.5525C8.12173 16.6232 8.10636 16.6938 8.09184 16.7653C8.08245 16.8113 8.07392 16.8564 8.06452 16.9024C8.03891 17.0386 8.01501 17.1765 7.99366 17.3144C7.97232 17.4523 7.95354 17.5944 7.93732 17.74C7.92707 17.8328 7.91768 17.9264 7.90914 18.02C7.88011 18.3503 7.86475 18.6857 7.86475 19.0236C7.86475 19.3616 7.88011 19.6969 7.90914 20.0272C7.91768 20.1208 7.92707 20.2145 7.93732 20.3081C7.95354 20.4486 7.97232 20.589 7.99366 20.7286C8.01501 20.8682 8.03891 21.0044 8.06452 21.1406C8.07392 21.1866 8.08245 21.2317 8.09184 21.2776C8.10636 21.3491 8.12173 21.4198 8.13709 21.4905C8.16954 21.6318 8.20369 21.7714 8.2404 21.911C8.28992 22.0974 8.34456 22.2812 8.40261 22.4634C8.47034 22.6722 8.54348 22.8782 8.62203 23.0814L8.67667 23.2193C8.74781 23.3935 8.82237 23.5657 8.90035 23.736C8.93365 23.8083 8.96865 23.8798 9.0028 23.9513C9.06854 24.085 9.13684 24.2178 9.20685 24.348C9.27686 24.4782 9.33747 24.5838 9.40492 24.6996C10.3931 26.3756 11.7989 27.7687 13.4859 28.7437C13.5439 28.7769 13.602 28.8101 13.6609 28.8424L13.8564 28.948C13.9264 28.9846 13.9973 29.0203 14.0681 29.0561C14.2192 29.131 14.3729 29.2034 14.5274 29.2723C14.6128 29.3098 14.6982 29.3472 14.7836 29.383C14.8689 29.4187 14.9663 29.4562 15.0585 29.4919C15.1601 29.5311 15.2625 29.5685 15.365 29.6043L15.546 29.6656C15.8471 29.7643 16.1541 29.8494 16.4672 29.9209C16.608 29.9541 16.7498 29.9839 16.8941 30.012C17.0383 30.0401 17.1792 30.0648 17.3209 30.0869C18.4475 30.2594 19.594 30.2594 20.7206 30.0869C20.9056 30.0586 21.0891 30.0256 21.2713 29.9882L21.2943 29.9831C21.3512 29.9723 21.4059 29.9604 21.4582 29.9473C21.5649 29.9235 21.67 29.898 21.7758 29.8716C21.8817 29.8452 21.9722 29.8196 22.0695 29.7924C23.5146 29.3815 24.8613 28.6831 26.0284 27.7393C27.5333 26.5168 28.6976 24.9289 29.4092 23.1282C29.4696 22.9727 29.5265 22.8152 29.58 22.6558C29.6107 22.5655 29.6406 22.4753 29.6654 22.3842C29.6654 22.3842 29.6654 22.3842 29.6654 22.38C29.6944 22.2863 29.7226 22.1919 29.7507 22.0974C29.7644 22.0489 29.7781 22.0012 29.7909 21.9527C29.7909 21.9527 29.7909 21.9527 29.7909 21.9476C29.8199 21.8386 29.8472 21.7296 29.8762 21.619C29.9053 21.5083 29.9275 21.3951 29.9505 21.2785C29.9599 21.2325 29.9685 21.1874 29.9778 21.1415C30.0035 21.0053 30.0274 20.8674 30.0487 20.7295C30.0701 20.5916 30.0888 20.4494 30.1051 20.309C30.1153 20.2153 30.1247 20.1217 30.1332 20.0281C30.1623 19.6978 30.1776 19.3624 30.1776 19.0245C30.1776 18.6865 30.1674 18.352 30.1375 18.0217ZM19.0225 28.2636C13.952 28.2636 9.82753 24.119 9.82753 19.0253C9.82753 13.9316 13.952 9.78787 19.0225 9.78787C24.0929 9.78787 28.2174 13.9316 28.2174 19.0253C28.2174 24.119 24.0929 28.2636 19.0225 28.2636Z" fill="white"/>
<path d="M18.8791 10.3145L10.0854 19.082L18.8791 27.8496L27.6728 19.082L18.8791 10.3145ZM12.8661 19.082L18.8791 13.0869L24.8921 19.082L18.8791 25.0763L12.8661 19.082Z" fill="white"/>
<path d="M18.8791 10.3145L10.0854 19.082L18.8791 27.8496L27.6728 19.082L18.8791 10.3145ZM12.8661 19.082L18.8791 13.0869L24.8921 19.082L18.8791 25.0763L12.8661 19.082Z" fill="white"/>
<path d="M45.6846 6.58789H55.3841C58.6767 6.58789 61.2306 7.76825 63.0457 10.129C64.665 12.2593 65.4749 14.988 65.4755 18.3151C65.4755 20.8841 64.9971 23.2065 64.0403 25.2824C62.3556 28.9494 59.4593 30.783 55.3516 30.783H45.6846V6.58789ZM54.7395 27.9833C55.8266 27.9833 56.7202 27.8681 57.4203 27.6377C58.6696 27.2092 59.6941 26.3864 60.4938 25.1692C61.129 24.192 61.5866 22.9404 61.8666 21.4144C62.0216 20.5776 62.1027 19.7288 62.1091 18.8778C62.1091 15.8798 61.5249 13.5517 60.3564 11.8935C59.1878 10.2354 57.3048 9.40571 54.7071 9.40458H49.0057V27.9833H54.7395Z" fill="white"/>
<path d="M70.2817 6.58789H81.1415C83.2878 6.58789 85.0213 7.19453 86.3417 8.4078C87.6622 9.62107 88.3222 11.3266 88.3216 13.5245C88.3216 15.413 87.7328 17.0573 86.5552 18.4573C85.3776 19.8573 83.575 20.5573 81.1475 20.5573H73.5695V30.783H70.2817V6.58789ZM83.0334 9.91446C82.3111 9.57397 81.3214 9.40372 80.0641 9.40372H73.5695V17.7874H80.0641C81.5302 17.7874 82.7195 17.4753 83.6319 16.851C84.5443 16.2268 84.9996 15.1231 84.9979 13.5398C85.0002 11.7596 84.3454 10.5512 83.0334 9.91446Z" fill="white"/>
<path d="M92.5342 6.58789H95.822V27.9007H108V30.783H92.5342V6.58789Z" fill="white"/>
<path d="M2.516 45.4522L3.91494 48.4526L5.32262 45.4522H6.64287L4.52697 49.5309V51.8862H3.30728V49.5309L1.18701 45.4522H2.516Z" fill="white"/>
<path d="M6.6997 49.5441V49.4513C6.6997 49.1008 6.74924 48.7782 6.84833 48.4836C6.94743 48.186 7.09169 47.9283 7.28113 47.7103C7.47057 47.4922 7.70227 47.3229 7.97623 47.2021C8.25019 47.0783 8.56203 47.0165 8.91177 47.0165C9.26733 47.0165 9.58209 47.0783 9.85605 47.2021C10.1329 47.3229 10.3661 47.4922 10.5555 47.7103C10.745 47.9283 10.8892 48.186 10.9883 48.4836C11.0874 48.7782 11.1369 49.1008 11.1369 49.4513V49.5441C11.1369 49.8918 11.0874 50.2143 10.9883 50.5119C10.8892 50.8065 10.745 51.0643 10.5555 51.2852C10.3661 51.5032 10.1344 51.6726 9.86042 51.7934C9.58646 51.9142 9.27316 51.9746 8.92051 51.9746C8.57077 51.9746 8.25747 51.9142 7.9806 51.7934C7.70373 51.6726 7.47057 51.5032 7.28113 51.2852C7.09169 51.0643 6.94743 50.8065 6.84833 50.5119C6.74924 50.2143 6.6997 49.8918 6.6997 49.5441ZM7.85382 49.4513V49.5441C7.85382 49.7533 7.87422 49.9492 7.91502 50.1319C7.95583 50.3145 8.01849 50.4751 8.103 50.6135C8.18752 50.752 8.29682 50.861 8.43088 50.9405C8.56786 51.0171 8.73107 51.0554 8.92051 51.0554C9.10703 51.0554 9.26733 51.0171 9.40139 50.9405C9.53546 50.861 9.64475 50.752 9.72927 50.6135C9.8167 50.4751 9.88082 50.3145 9.92162 50.1319C9.96243 49.9492 9.98283 49.7533 9.98283 49.5441V49.4513C9.98283 49.2451 9.96243 49.0522 9.92162 48.8724C9.88082 48.6898 9.8167 48.5292 9.72927 48.3908C9.64475 48.2494 9.534 48.1389 9.39702 48.0594C9.26296 47.9769 9.1012 47.9356 8.91177 47.9356C8.72524 47.9356 8.56495 47.9769 8.43088 48.0594C8.29682 48.1389 8.18752 48.2494 8.103 48.3908C8.01849 48.5292 7.95583 48.6898 7.91502 48.8724C7.87422 49.0522 7.85382 49.2451 7.85382 49.4513Z" fill="white"/>
<path d="M14.7917 50.7505V47.1049H15.9545V51.8862H14.8616L14.7917 50.7505ZM14.9403 49.7607L15.2988 49.7518C15.2988 50.0729 15.2638 50.369 15.1939 50.64C15.1239 50.9111 15.0146 51.1468 14.866 51.3471C14.7203 51.5445 14.5352 51.6991 14.3108 51.8111C14.0864 51.9201 13.8212 51.9746 13.5151 51.9746C13.282 51.9746 13.0692 51.9422 12.8769 51.8774C12.6845 51.8096 12.5184 51.705 12.3785 51.5636C12.2415 51.4193 12.1351 51.2351 12.0594 51.0112C11.9836 50.7844 11.9457 50.5119 11.9457 50.1937V47.1049H13.0998V50.2026C13.0998 50.3616 13.1173 50.4942 13.1523 50.6003C13.1902 50.7063 13.2412 50.7932 13.3053 50.861C13.3723 50.9258 13.4496 50.9729 13.537 51.0024C13.6273 51.0289 13.7235 51.0422 13.8255 51.0422C14.1053 51.0422 14.3254 50.9862 14.4857 50.8742C14.6489 50.7594 14.7654 50.6062 14.8354 50.4147C14.9053 50.2202 14.9403 50.0022 14.9403 49.7607Z" fill="white"/>
<path d="M18.1316 48.0814V51.8862H16.9775V47.1049H18.0704L18.1316 48.0814ZM19.5699 47.0739L19.5524 48.161C19.4883 48.1492 19.4154 48.1404 19.3338 48.1345C19.2552 48.1286 19.1808 48.1256 19.1109 48.1256C18.9331 48.1256 18.7772 48.1507 18.6431 48.2008C18.5091 48.2479 18.3968 48.3171 18.3065 48.4085C18.2191 48.4998 18.152 48.6117 18.1054 48.7443C18.0588 48.8739 18.0325 49.0212 18.0267 49.1862L17.7775 49.1553C17.7775 48.8518 17.8081 48.5705 17.8693 48.3112C17.9305 48.052 18.0194 47.8251 18.136 47.6307C18.2526 47.4363 18.3983 47.286 18.5732 47.18C18.751 47.071 18.955 47.0165 19.1852 47.0165C19.2493 47.0165 19.3178 47.0224 19.3907 47.0341C19.4665 47.043 19.5262 47.0562 19.5699 47.0739Z" fill="white"/>
<path d="M24.4225 51.8862H23.0498L23.0585 50.9317H24.4225C24.7926 50.9317 25.103 50.8492 25.3536 50.6842C25.6043 50.5163 25.7937 50.2762 25.922 49.9639C26.0502 49.6487 26.1143 49.2716 26.1143 48.8327V48.5013C26.1143 48.1625 26.0779 47.8634 26.005 47.6042C25.9322 47.345 25.8243 47.1269 25.6815 46.9502C25.5416 46.7734 25.3682 46.6394 25.1613 46.5481C24.9544 46.4567 24.7168 46.4111 24.4487 46.4111H23.0235V45.4522H24.4487C24.8742 45.4522 25.2618 45.5243 25.6116 45.6687C25.9642 45.813 26.2688 46.0207 26.5253 46.2918C26.7846 46.5598 26.9828 46.881 27.1198 47.2551C27.2597 47.6292 27.3296 48.0476 27.3296 48.5101V48.8327C27.3296 49.2923 27.2597 49.7106 27.1198 50.0877C26.9828 50.4618 26.7846 50.7829 26.5253 51.051C26.2688 51.3191 25.9628 51.5253 25.6072 51.6697C25.2516 51.814 24.8567 51.8862 24.4225 51.8862ZM23.723 45.4522V51.8862H22.5208V45.4522H23.723Z" fill="white"/>
<path d="M29.4893 47.1049V51.8862H28.3308V47.1049H29.4893ZM28.2521 45.8543C28.2521 45.6805 28.3104 45.5361 28.4269 45.4212C28.5464 45.3063 28.7067 45.2489 28.9078 45.2489C29.1089 45.2489 29.2678 45.3063 29.3843 45.4212C29.5038 45.5361 29.5636 45.6805 29.5636 45.8543C29.5636 46.0251 29.5038 46.168 29.3843 46.2829C29.2678 46.3978 29.1089 46.4553 28.9078 46.4553C28.7067 46.4553 28.5464 46.3978 28.4269 46.2829C28.3104 46.168 28.2521 46.0251 28.2521 45.8543Z" fill="white"/>
<path d="M33.1964 50.8698V48.6648C33.1964 48.5027 33.1687 48.3628 33.1134 48.245C33.058 48.1271 32.9735 48.0358 32.8598 47.971C32.7461 47.9062 32.6019 47.8738 32.427 47.8738C32.2726 47.8738 32.137 47.9003 32.0205 47.9533C31.9068 48.0063 31.8194 48.0814 31.7582 48.1787C31.6969 48.2729 31.6663 48.3819 31.6663 48.5057H30.5079C30.5079 48.3083 30.5545 48.1212 30.6477 47.9445C30.741 47.7648 30.8736 47.6057 31.0456 47.4672C31.2204 47.3258 31.4288 47.2153 31.6707 47.1358C31.9155 47.0562 32.1895 47.0165 32.4926 47.0165C32.8511 47.0165 33.1702 47.0783 33.45 47.2021C33.7327 47.3229 33.9542 47.5055 34.1145 47.75C34.2777 47.9945 34.3593 48.3024 34.3593 48.6736V50.7594C34.3593 50.998 34.3739 51.2027 34.403 51.3736C34.4351 51.5415 34.4817 51.6873 34.5429 51.8111V51.8862H33.3669C33.3116 51.7654 33.2693 51.6122 33.2402 51.4266C33.211 51.2381 33.1964 51.0525 33.1964 50.8698ZM33.3582 48.9741L33.3669 49.6679H32.6369C32.4562 49.6679 32.2973 49.687 32.1603 49.7253C32.0234 49.7607 31.9112 49.8137 31.8237 49.8844C31.7363 49.9522 31.6707 50.0346 31.627 50.1319C31.5833 50.2261 31.5614 50.3337 31.5614 50.4544C31.5614 50.5723 31.5877 50.6783 31.6401 50.7726C31.6955 50.8669 31.7742 50.942 31.8762 50.998C31.9811 51.051 32.1035 51.0775 32.2434 51.0775C32.4474 51.0775 32.6252 51.0363 32.7768 50.9538C32.9283 50.8684 33.0463 50.7652 33.1309 50.6445C33.2154 50.5237 33.2606 50.4088 33.2664 50.2998L33.5986 50.8035C33.5578 50.9243 33.4966 51.0525 33.415 51.188C33.3334 51.3235 33.2285 51.4502 33.1003 51.568C32.972 51.6859 32.8176 51.7831 32.6369 51.8597C32.4562 51.9363 32.2463 51.9746 32.0073 51.9746C31.7013 51.9746 31.4274 51.9127 31.1855 51.789C30.9436 51.6652 30.7527 51.4959 30.6128 51.2808C30.4729 51.0657 30.4029 50.8212 30.4029 50.5472C30.4029 50.2939 30.4496 50.07 30.5428 49.8756C30.6361 49.6811 30.7745 49.5176 30.9581 49.385C31.1417 49.2495 31.3691 49.1479 31.6401 49.0801C31.9141 49.0094 32.2274 48.9741 32.58 48.9741H33.3582Z" fill="white"/>
<path d="M36.5495 48.0859V51.8862H35.3954V47.1049H36.4839L36.5495 48.0859ZM36.379 49.3232H36.0249C36.0249 48.9903 36.0643 48.6839 36.1429 48.404C36.2245 48.1242 36.344 47.8811 36.5014 47.6749C36.6588 47.4657 36.8526 47.3037 37.0829 47.1888C37.316 47.0739 37.5856 47.0165 37.8916 47.0165C38.1044 47.0165 38.2996 47.0489 38.4774 47.1137C38.6552 47.1756 38.8082 47.2742 38.9364 47.4098C39.0676 47.5423 39.1681 47.7161 39.2381 47.9312C39.308 48.1433 39.343 48.3981 39.343 48.6957V51.8862H38.1889V48.815C38.1889 48.5911 38.1568 48.4158 38.0927 48.2891C38.0315 48.1625 37.9426 48.0741 37.826 48.024C37.7095 47.971 37.5696 47.9445 37.4064 47.9445C37.2257 47.9445 37.0697 47.9813 36.9386 48.0549C36.8104 48.1256 36.704 48.2243 36.6195 48.351C36.5378 48.4777 36.4766 48.6235 36.4358 48.7885C36.398 48.9535 36.379 49.1317 36.379 49.3232ZM39.2556 49.1067L38.7791 49.195C38.782 48.8945 38.8228 48.6132 38.9015 48.351C38.9802 48.0859 39.0953 47.8546 39.2468 47.6572C39.4013 47.4569 39.5922 47.3008 39.8195 47.1888C40.0498 47.0739 40.315 47.0165 40.6152 47.0165C40.8483 47.0165 41.0582 47.0504 41.2447 47.1181C41.4341 47.1829 41.5959 47.2875 41.7299 47.4319C41.864 47.5733 41.966 47.7574 42.036 47.9842C42.1088 48.2111 42.1453 48.488 42.1453 48.815V51.8862H40.9824V48.8106C40.9824 48.5778 40.9503 48.3996 40.8862 48.2759C40.825 48.1522 40.7361 48.0667 40.6195 48.0196C40.503 47.9695 40.366 47.9445 40.2086 47.9445C40.0483 47.9445 39.9084 47.9754 39.7889 48.0373C39.6723 48.0962 39.5733 48.1787 39.4916 48.2847C39.413 48.3908 39.3532 48.5145 39.3124 48.6559C39.2745 48.7944 39.2556 48.9446 39.2556 49.1067Z" fill="white"/>
<path d="M42.9759 49.5441V49.4513C42.9759 49.1008 43.0254 48.7782 43.1245 48.4836C43.2236 48.186 43.3679 47.9283 43.5573 47.7103C43.7467 47.4922 43.9784 47.3229 44.2524 47.2021C44.5264 47.0783 44.8382 47.0165 45.1879 47.0165C45.5435 47.0165 45.8583 47.0783 46.1322 47.2021C46.4091 47.3229 46.6423 47.4922 46.8317 47.7103C47.0211 47.9283 47.1654 48.186 47.2645 48.4836C47.3636 48.7782 47.4131 49.1008 47.4131 49.4513V49.5441C47.4131 49.8918 47.3636 50.2143 47.2645 50.5119C47.1654 50.8065 47.0211 51.0643 46.8317 51.2852C46.6423 51.5032 46.4106 51.6726 46.1366 51.7934C45.8626 51.9142 45.5493 51.9746 45.1967 51.9746C44.847 51.9746 44.5336 51.9142 44.2568 51.7934C43.9799 51.6726 43.7467 51.5032 43.5573 51.2852C43.3679 51.0643 43.2236 50.8065 43.1245 50.5119C43.0254 50.2143 42.9759 49.8918 42.9759 49.5441ZM44.13 49.4513V49.5441C44.13 49.7533 44.1504 49.9492 44.1912 50.1319C44.232 50.3145 44.2947 50.4751 44.3792 50.6135C44.4637 50.752 44.573 50.861 44.7071 50.9405C44.844 51.0171 45.0072 51.0554 45.1967 51.0554C45.3832 51.0554 45.5435 51.0171 45.6776 50.9405C45.8116 50.861 45.9209 50.752 46.0054 50.6135C46.0929 50.4751 46.157 50.3145 46.1978 50.1319C46.2386 49.9492 46.259 49.7533 46.259 49.5441V49.4513C46.259 49.2451 46.2386 49.0522 46.1978 48.8724C46.157 48.6898 46.0929 48.5292 46.0054 48.3908C45.9209 48.2494 45.8102 48.1389 45.6732 48.0594C45.5391 47.9769 45.3774 47.9356 45.1879 47.9356C45.0014 47.9356 44.8411 47.9769 44.7071 48.0594C44.573 48.1389 44.4637 48.2494 44.3792 48.3908C44.2947 48.5292 44.232 48.6898 44.1912 48.8724C44.1504 49.0522 44.13 49.2451 44.13 49.4513Z" fill="white"/>
<path d="M49.3848 48.1256V51.8862H48.2306V47.1049H49.3148L49.3848 48.1256ZM49.2011 49.3232H48.8602C48.8631 48.9756 48.9097 48.6603 49 48.3775C49.0904 48.0947 49.2172 47.8517 49.3804 47.6484C49.5465 47.4451 49.7432 47.289 49.9706 47.18C50.1979 47.071 50.4514 47.0165 50.7312 47.0165C50.9586 47.0165 51.164 47.0489 51.3476 47.1137C51.5312 47.1785 51.6886 47.2816 51.8198 47.423C51.9538 47.5644 52.0558 47.75 52.1258 47.9798C52.1987 48.2067 52.2351 48.4865 52.2351 48.8194V51.8862H51.0722V48.8106C51.0722 48.5926 51.0402 48.4202 50.976 48.2936C50.9148 48.1669 50.8245 48.077 50.705 48.024C50.5884 47.971 50.4442 47.9445 50.2722 47.9445C50.0944 47.9445 49.9385 47.9813 49.8044 48.0549C49.6733 48.1256 49.5625 48.2243 49.4722 48.351C49.3848 48.4777 49.3177 48.6235 49.2711 48.7885C49.2245 48.9535 49.2011 49.1317 49.2011 49.3232Z" fill="white"/>
<path d="M56.0909 50.8698V45.0986H57.2538V51.8862H56.2046L56.0909 50.8698ZM53.0526 49.553V49.4602C53.0526 49.0949 53.0934 48.7634 53.175 48.4659C53.2595 48.1654 53.3819 47.9076 53.5422 47.6926C53.7025 47.4775 53.8963 47.3111 54.1237 47.1932C54.3539 47.0754 54.6147 47.0165 54.9062 47.0165C55.1889 47.0165 55.4352 47.0739 55.645 47.1888C55.8577 47.3037 56.0384 47.4672 56.1871 47.6793C56.3386 47.8914 56.4596 48.1433 56.5499 48.435C56.6403 48.7237 56.7059 49.0418 56.7467 49.3895V49.6413C56.7059 49.9801 56.6403 50.2909 56.5499 50.5738C56.4596 50.8566 56.3386 51.104 56.1871 51.3161C56.0384 51.5253 55.8577 51.6873 55.645 51.8022C55.4322 51.9171 55.1831 51.9746 54.8974 51.9746C54.6089 51.9746 54.3495 51.9142 54.1193 51.7934C53.892 51.6726 53.6981 51.5032 53.5378 51.2852C53.3805 51.0672 53.2595 50.8109 53.175 50.5163C53.0934 50.2217 53.0526 49.9006 53.0526 49.553ZM54.2111 49.4602V49.553C54.2111 49.7592 54.2286 49.9522 54.2635 50.1319C54.2985 50.3116 54.3554 50.4706 54.434 50.6091C54.5127 50.7446 54.6133 50.8507 54.7357 50.9273C54.861 51.0039 55.0126 51.0422 55.1903 51.0422C55.4177 51.0422 55.6042 50.9921 55.7499 50.8919C55.8986 50.7888 56.0137 50.6489 56.0953 50.4721C56.1769 50.2924 56.2293 50.0906 56.2527 49.8667V49.1729C56.241 48.9962 56.2104 48.8327 56.1609 48.6824C56.1142 48.5322 56.0472 48.4026 55.9598 48.2936C55.8752 48.1846 55.7703 48.0991 55.645 48.0373C55.5197 47.9754 55.371 47.9445 55.1991 47.9445C55.0213 47.9445 54.8698 47.9842 54.7444 48.0638C54.6191 48.1404 54.5171 48.2479 54.4384 48.3864C54.3597 48.5248 54.3014 48.6854 54.2635 48.868C54.2286 49.0507 54.2111 49.2481 54.2111 49.4602Z" fill="white"/>
<path d="M60.8997 50.5782C60.8997 50.478 60.8735 50.3882 60.8211 50.3086C60.7686 50.2291 60.6695 50.1569 60.5238 50.0921C60.381 50.0243 60.1711 49.961 59.8943 49.9021C59.6495 49.849 59.4236 49.7828 59.2167 49.7032C59.0097 49.6237 58.8319 49.5279 58.6833 49.416C58.5347 49.3011 58.4181 49.167 58.3336 49.0139C58.252 48.8577 58.2112 48.678 58.2112 48.4747C58.2112 48.2774 58.2534 48.0918 58.3379 47.9179C58.4225 47.7412 58.5449 47.5865 58.7052 47.454C58.8655 47.3184 59.0607 47.2124 59.291 47.1358C59.5212 47.0562 59.7806 47.0165 60.0691 47.0165C60.4713 47.0165 60.8167 47.0828 61.1052 47.2153C61.3967 47.3479 61.6196 47.5305 61.7741 47.7633C61.9286 47.9931 62.0058 48.2523 62.0058 48.541H60.8517C60.8517 48.4143 60.8225 48.2995 60.7642 48.1963C60.7089 48.0932 60.6229 48.0107 60.5063 47.9489C60.3897 47.8841 60.2425 47.8517 60.0648 47.8517C59.9045 47.8517 59.7689 47.8782 59.6582 47.9312C59.5504 47.9842 59.4688 48.0535 59.4134 48.1389C59.358 48.2243 59.3303 48.3186 59.3303 48.4217C59.3303 48.4983 59.3449 48.5675 59.374 48.6294C59.4061 48.6883 59.4571 48.7428 59.527 48.7929C59.597 48.843 59.6917 48.8886 59.8112 48.9299C59.9336 48.9711 60.0837 49.0109 60.2615 49.0492C60.6141 49.1199 60.9216 49.2142 61.1839 49.332C61.4491 49.4469 61.6561 49.6001 61.8047 49.7916C61.9533 49.9831 62.0276 50.2276 62.0276 50.5251C62.0276 50.7373 61.9825 50.9317 61.8921 51.1085C61.8018 51.2823 61.6706 51.434 61.4987 51.5636C61.3267 51.6932 61.1213 51.7949 60.8823 51.8685C60.6433 51.9392 60.3737 51.9746 60.0735 51.9746C59.6393 51.9746 59.272 51.8965 58.9718 51.7404C58.6717 51.5813 58.4443 51.381 58.2899 51.1394C58.1354 50.8949 58.0582 50.6415 58.0582 50.3793H59.1642C59.1729 50.5649 59.2225 50.7137 59.3128 50.8256C59.4032 50.9376 59.5168 51.0186 59.6538 51.0687C59.7937 51.1158 59.9409 51.1394 60.0954 51.1394C60.2702 51.1394 60.4174 51.1158 60.5369 51.0687C60.6564 51.0186 60.7467 50.9523 60.8079 50.8698C60.8691 50.7844 60.8997 50.6872 60.8997 50.5782Z" fill="white"/>
<path d="M63.9949 50.8345L63.9862 51.6432C63.9862 51.9584 63.9089 52.278 63.7545 52.6021C63.6 52.9261 63.4004 53.1942 63.1555 53.4063L62.5435 53.0661C62.6222 52.9335 62.6951 52.7995 62.7621 52.6639C62.832 52.5284 62.8874 52.3811 62.9282 52.222C62.9719 52.0659 62.9938 51.8906 62.9938 51.6962V50.8345H63.9949Z" fill="white"/>
<path d="M68.0737 45.4522L69.4726 48.4526L70.8803 45.4522H72.2005L70.0846 49.5309V51.8862H68.8649V49.5309L66.7447 45.4522H68.0737Z" fill="white"/>
<path d="M72.2574 49.5441V49.4513C72.2574 49.1008 72.3069 48.7782 72.406 48.4836C72.5051 48.186 72.6494 47.9283 72.8388 47.7103C73.0282 47.4922 73.2599 47.3229 73.5339 47.2021C73.8079 47.0783 74.1197 47.0165 74.4694 47.0165C74.825 47.0165 75.1398 47.0783 75.4137 47.2021C75.6906 47.3229 75.9238 47.4922 76.1132 47.7103C76.3026 47.9283 76.4469 48.186 76.546 48.4836C76.6451 48.7782 76.6946 49.1008 76.6946 49.4513V49.5441C76.6946 49.8918 76.6451 50.2143 76.546 50.5119C76.4469 50.8065 76.3026 51.0643 76.1132 51.2852C75.9238 51.5032 75.692 51.6726 75.4181 51.7934C75.1441 51.9142 74.8308 51.9746 74.4782 51.9746C74.1284 51.9746 73.8151 51.9142 73.5383 51.7934C73.2614 51.6726 73.0282 51.5032 72.8388 51.2852C72.6494 51.0643 72.5051 50.8065 72.406 50.5119C72.3069 50.2143 72.2574 49.8918 72.2574 49.5441ZM73.4115 49.4513V49.5441C73.4115 49.7533 73.4319 49.9492 73.4727 50.1319C73.5135 50.3145 73.5762 50.4751 73.6607 50.6135C73.7452 50.752 73.8545 50.861 73.9886 50.9405C74.1255 51.0171 74.2887 51.0554 74.4782 51.0554C74.6647 51.0554 74.825 51.0171 74.9591 50.9405C75.0931 50.861 75.2024 50.752 75.2869 50.6135C75.3744 50.4751 75.4385 50.3145 75.4793 50.1319C75.5201 49.9492 75.5405 49.7533 75.5405 49.5441V49.4513C75.5405 49.2451 75.5201 49.0522 75.4793 48.8724C75.4385 48.6898 75.3744 48.5292 75.2869 48.3908C75.2024 48.2494 75.0917 48.1389 74.9547 48.0594C74.8206 47.9769 74.6589 47.9356 74.4694 47.9356C74.2829 47.9356 74.1226 47.9769 73.9886 48.0594C73.8545 48.1389 73.7452 48.2494 73.6607 48.3908C73.5762 48.5292 73.5135 48.6898 73.4727 48.8724C73.4319 49.0522 73.4115 49.2451 73.4115 49.4513Z" fill="white"/>
<path d="M80.3493 50.7505V47.1049H81.5122V51.8862H80.4193L80.3493 50.7505ZM80.498 49.7607L80.8565 49.7518C80.8565 50.0729 80.8215 50.369 80.7515 50.64C80.6816 50.9111 80.5723 51.1468 80.4237 51.3471C80.2779 51.5445 80.0929 51.6991 79.8685 51.8111C79.644 51.9201 79.3788 51.9746 79.0728 51.9746C78.8397 51.9746 78.6269 51.9422 78.4345 51.8774C78.2422 51.8096 78.0761 51.705 77.9362 51.5636C77.7992 51.4193 77.6928 51.2351 77.617 51.0112C77.5413 50.7844 77.5034 50.5119 77.5034 50.1937V47.1049H78.6575V50.2026C78.6575 50.3616 78.675 50.4942 78.71 50.6003C78.7479 50.7063 78.7989 50.7932 78.863 50.861C78.93 50.9258 79.0072 50.9729 79.0947 51.0024C79.185 51.0289 79.2812 51.0422 79.3832 51.0422C79.663 51.0422 79.883 50.9862 80.0433 50.8742C80.2065 50.7594 80.3231 50.6062 80.3931 50.4147C80.463 50.2202 80.498 50.0022 80.498 49.7607Z" fill="white"/>
<path d="M83.6893 48.0814V51.8862H82.5352V47.1049H83.6281L83.6893 48.0814ZM85.1276 47.0739L85.1101 48.161C85.046 48.1492 84.9731 48.1404 84.8915 48.1345C84.8128 48.1286 84.7385 48.1256 84.6686 48.1256C84.4908 48.1256 84.3349 48.1507 84.2008 48.2008C84.0667 48.2479 83.9545 48.3171 83.8642 48.4085C83.7767 48.4998 83.7097 48.6117 83.6631 48.7443C83.6164 48.8739 83.5902 49.0212 83.5844 49.1862L83.3352 49.1553C83.3352 48.8518 83.3658 48.5705 83.427 48.3112C83.4882 48.052 83.5771 47.8251 83.6937 47.6307C83.8103 47.4363 83.956 47.286 84.1308 47.18C84.3086 47.071 84.5126 47.0165 84.7429 47.0165C84.807 47.0165 84.8755 47.0224 84.9483 47.0341C85.0241 47.043 85.0839 47.0562 85.1276 47.0739Z" fill="white"/>
<path d="M90.5266 49.5397H88.8872V48.5852H90.5266C90.7947 48.5852 91.0119 48.541 91.178 48.4526C91.347 48.3613 91.4709 48.2376 91.5496 48.0814C91.6283 47.9224 91.6676 47.7412 91.6676 47.5379C91.6676 47.3405 91.6283 47.1564 91.5496 46.9855C91.4709 46.8147 91.347 46.6762 91.178 46.5702C91.0119 46.4641 90.7947 46.4111 90.5266 46.4111H89.2807V51.8862H88.0785V45.4522H90.5266C91.0221 45.4522 91.4447 45.542 91.7944 45.7217C92.147 45.8985 92.4152 46.1445 92.5988 46.4597C92.7853 46.772 92.8786 47.1284 92.8786 47.5291C92.8786 47.9445 92.7853 48.3024 92.5988 48.6029C92.4152 48.9034 92.147 49.1346 91.7944 49.2967C91.4447 49.4587 91.0221 49.5397 90.5266 49.5397Z" fill="white"/>
<path d="M94.8895 48.0814V51.8862H93.7354V47.1049H94.8283L94.8895 48.0814ZM96.3278 47.0739L96.3103 48.161C96.2462 48.1492 96.1734 48.1404 96.0918 48.1345C96.0131 48.1286 95.9387 48.1256 95.8688 48.1256C95.691 48.1256 95.5351 48.1507 95.401 48.2008C95.267 48.2479 95.1548 48.3171 95.0644 48.4085C94.977 48.4998 94.9099 48.6117 94.8633 48.7443C94.8167 48.8739 94.7905 49.0212 94.7846 49.1862L94.5354 49.1553C94.5354 48.8518 94.566 48.5705 94.6272 48.3112C94.6884 48.052 94.7773 47.8251 94.8939 47.6307C95.0105 47.4363 95.1562 47.286 95.3311 47.18C95.5089 47.071 95.7129 47.0165 95.9431 47.0165C96.0072 47.0165 96.0757 47.0224 96.1486 47.0341C96.2244 47.043 96.2841 47.0562 96.3278 47.0739Z" fill="white"/>
<path d="M98.1858 47.1049V51.8862H97.0273V47.1049H98.1858ZM96.9486 45.8543C96.9486 45.6805 97.0069 45.5361 97.1235 45.4212C97.243 45.3063 97.4033 45.2489 97.6044 45.2489C97.8055 45.2489 97.9643 45.3063 98.0809 45.4212C98.2004 45.5361 98.2601 45.6805 98.2601 45.8543C98.2601 46.0251 98.2004 46.168 98.0809 46.2829C97.9643 46.3978 97.8055 46.4553 97.6044 46.4553C97.4033 46.4553 97.243 46.3978 97.1235 46.2829C97.0069 46.168 96.9486 46.0251 96.9486 45.8543Z" fill="white"/>
<path d="M101.228 51.0554C101.392 51.0554 101.537 51.023 101.666 50.9582C101.794 50.8934 101.896 50.8021 101.972 50.6842C102.05 50.5664 102.093 50.4294 102.098 50.2733H103.187C103.181 50.5973 103.091 50.8875 102.916 51.1438C102.741 51.4001 102.508 51.6034 102.216 51.7536C101.928 51.9009 101.604 51.9746 101.246 51.9746C100.882 51.9746 100.564 51.9127 100.293 51.789C100.022 51.6652 99.796 51.4929 99.6153 51.272C99.4375 51.051 99.3035 50.7947 99.2131 50.5031C99.1257 50.2114 99.082 49.8991 99.082 49.5662V49.4248C99.082 49.0919 99.1257 48.7796 99.2131 48.488C99.3035 48.1963 99.4375 47.94 99.6153 47.7191C99.796 47.4981 100.022 47.3258 100.293 47.2021C100.564 47.0783 100.88 47.0165 101.242 47.0165C101.623 47.0165 101.959 47.0916 102.247 47.2418C102.539 47.3921 102.766 47.6042 102.929 47.8782C103.095 48.1522 103.181 48.4747 103.187 48.8459H102.098C102.093 48.6751 102.055 48.5219 101.985 48.3864C101.915 48.2508 101.816 48.1418 101.688 48.0594C101.559 47.9769 101.403 47.9356 101.22 47.9356C101.024 47.9356 100.861 47.9769 100.73 48.0594C100.602 48.1418 100.501 48.2553 100.428 48.3996C100.359 48.541 100.309 48.7001 100.28 48.8769C100.254 49.0507 100.24 49.2333 100.24 49.4248V49.5662C100.24 49.7607 100.254 49.9463 100.28 50.123C100.309 50.2998 100.359 50.4589 100.428 50.6003C100.501 50.7387 100.602 50.8492 100.73 50.9317C100.861 51.0142 101.027 51.0554 101.228 51.0554Z" fill="white"/>
<path d="M106.081 51.9746C105.723 51.9746 105.401 51.9157 105.115 51.7978C104.829 51.68 104.586 51.5165 104.385 51.3073C104.187 51.0952 104.034 50.8492 103.926 50.5693C103.821 50.2865 103.768 49.9831 103.768 49.659V49.4823C103.768 49.114 103.821 48.7796 103.926 48.4792C104.031 48.1757 104.179 47.915 104.372 47.697C104.564 47.479 104.794 47.3111 105.062 47.1932C105.331 47.0754 105.626 47.0165 105.95 47.0165C106.285 47.0165 106.581 47.0739 106.837 47.1888C107.094 47.3008 107.308 47.4598 107.48 47.6661C107.652 47.8723 107.782 48.1197 107.869 48.4085C107.956 48.6942 108 49.0109 108 49.3585V49.849H104.293V49.0448H106.864V48.9564C106.858 48.7708 106.823 48.6014 106.759 48.4482C106.695 48.2921 106.595 48.1684 106.461 48.077C106.327 47.9828 106.154 47.9356 105.941 47.9356C105.769 47.9356 105.619 47.9739 105.491 48.0505C105.366 48.1242 105.261 48.2302 105.176 48.3687C105.094 48.5042 105.033 48.6662 104.992 48.8548C104.952 49.0433 104.931 49.2525 104.931 49.4823V49.659C104.931 49.8594 104.958 50.045 105.01 50.2158C105.065 50.3867 105.146 50.5355 105.25 50.6621C105.358 50.7859 105.486 50.8831 105.635 50.9538C105.787 51.0215 105.959 51.0554 106.151 51.0554C106.393 51.0554 106.611 51.0083 106.807 50.914C107.005 50.8168 107.177 50.6739 107.323 50.4854L107.904 51.0952C107.805 51.2425 107.671 51.3839 107.502 51.5194C107.336 51.6549 107.135 51.7654 106.899 51.8508C106.662 51.9333 106.39 51.9746 106.081 51.9746Z" fill="white"/>
</svg>
