<svg width="32" height="32" viewBox="0 0 32 32" fill="none" xmlns="http://www.w3.org/2000/svg">
<path d="M6.793 4.16773L25.65 6.75573C26.0176 6.79945 26.357 6.97489 26.6052 7.24957C26.8534 7.52426 26.9936 7.87957 27 8.24973V23.7497C26.9939 24.1201 26.8537 24.4756 26.6055 24.7505C26.3573 25.0254 26.0178 25.201 25.65 25.2447L6.793 27.8317C6.57133 27.8626 6.34568 27.847 6.13033 27.7861C5.91498 27.7252 5.71464 27.6201 5.542 27.4777C5.37333 27.3391 5.23731 27.165 5.14363 26.9677C5.04995 26.7705 5.00091 26.5551 5 26.3367V5.66273C5.00105 5.44457 5.05017 5.22931 5.14384 5.03228C5.23752 4.83525 5.37346 4.66127 5.542 4.52273C5.71464 4.38032 5.91498 4.27531 6.13033 4.21438C6.34568 4.15344 6.57133 4.1379 6.793 4.16873V4.16773Z" stroke="#0A0A0A" stroke-width="2" stroke-linecap="round" stroke-linejoin="round"/>
</svg>
