<svg width="336" height="175" viewBox="0 0 336 175" fill="none" xmlns="http://www.w3.org/2000/svg">
<rect width="336" height="174.31" fill="#F5F5F5"/>
<path d="M311.549 144.339C314.163 144.339 316.282 142.22 316.282 139.606C316.282 136.993 314.163 134.874 311.549 134.874C308.936 134.874 306.817 136.993 306.817 139.606C306.817 142.22 308.936 144.339 311.549 144.339Z" fill="#757575"/>
<path d="M289.464 144.339C292.078 144.339 294.197 142.22 294.197 139.606C294.197 136.993 292.078 134.874 289.464 134.874C286.851 134.874 284.732 136.993 284.732 139.606C284.732 142.22 286.851 144.339 289.464 144.339Z" fill="#757575"/>
<path d="M267.38 144.339C269.994 144.339 272.113 142.22 272.113 139.606C272.113 136.993 269.994 134.874 267.38 134.874C264.767 134.874 262.648 136.993 262.648 139.606C262.648 142.22 264.767 144.339 267.38 144.339Z" fill="#757575"/>
<path d="M245.296 144.339C247.909 144.339 250.028 142.22 250.028 139.606C250.028 136.993 247.909 134.874 245.296 134.874C242.682 134.874 240.563 136.993 240.563 139.606C240.563 142.22 242.682 144.339 245.296 144.339Z" fill="#757575"/>
<path d="M223.212 144.339C225.826 144.339 227.944 142.22 227.944 139.606C227.944 136.993 225.826 134.874 223.212 134.874C220.598 134.874 218.479 136.993 218.479 139.606C218.479 142.22 220.598 144.339 223.212 144.339Z" fill="#757575"/>
<path d="M201.126 144.339C203.74 144.339 205.859 142.22 205.859 139.606C205.859 136.993 203.74 134.874 201.126 134.874C198.513 134.874 196.394 136.993 196.394 139.606C196.394 142.22 198.513 144.339 201.126 144.339Z" fill="#757575"/>
<path d="M179.042 144.339C181.656 144.339 183.774 142.22 183.774 139.606C183.774 136.993 181.656 134.874 179.042 134.874C176.428 134.874 174.31 136.993 174.31 139.606C174.31 142.22 176.428 144.339 179.042 144.339Z" fill="#757575"/>
<path d="M156.958 144.339C159.572 144.339 161.69 142.22 161.69 139.606C161.69 136.993 159.572 134.874 156.958 134.874C154.344 134.874 152.226 136.993 152.226 139.606C152.226 142.22 154.344 144.339 156.958 144.339Z" fill="#757575"/>
<path d="M134.873 144.339C137.487 144.339 139.605 142.22 139.605 139.606C139.605 136.993 137.487 134.874 134.873 134.874C132.259 134.874 130.141 136.993 130.141 139.606C130.141 142.22 132.259 144.339 134.873 144.339Z" fill="#757575"/>
<path d="M112.789 144.339C115.402 144.339 117.521 142.22 117.521 139.606C117.521 136.993 115.402 134.874 112.789 134.874C110.175 134.874 108.056 136.993 108.056 139.606C108.056 142.22 110.175 144.339 112.789 144.339Z" fill="#757575"/>
<path d="M90.7046 144.339C93.3182 144.339 95.437 142.22 95.437 139.606C95.437 136.993 93.3182 134.874 90.7046 134.874C88.0909 134.874 85.9722 136.993 85.9722 139.606C85.9722 142.22 88.0909 144.339 90.7046 144.339Z" fill="#757575"/>
<path d="M68.6196 144.339C71.2332 144.339 73.352 142.22 73.352 139.606C73.352 136.993 71.2332 134.874 68.6196 134.874C66.006 134.874 63.8872 136.993 63.8872 139.606C63.8872 142.22 66.006 144.339 68.6196 144.339Z" fill="#0A0A0A"/>
<path d="M46.5351 144.339C49.1488 144.339 51.2675 142.22 51.2675 139.606C51.2675 136.993 49.1488 134.874 46.5351 134.874C43.9215 134.874 41.8027 136.993 41.8027 139.606C41.8027 142.22 43.9215 144.339 46.5351 144.339Z" fill="#757575"/>
<path d="M24.4507 144.339C27.0643 144.339 29.1831 142.22 29.1831 139.606C29.1831 136.993 27.0643 134.874 24.4507 134.874C21.837 134.874 19.7183 136.993 19.7183 139.606C19.7183 142.22 21.837 144.339 24.4507 144.339Z" fill="#757575"/>
<path d="M311.549 109.633C314.163 109.633 316.282 107.514 316.282 104.9C316.282 102.287 314.163 100.168 311.549 100.168C308.936 100.168 306.817 102.287 306.817 104.9C306.817 107.514 308.936 109.633 311.549 109.633Z" fill="#757575"/>
<path d="M289.464 109.633C292.078 109.633 294.197 107.514 294.197 104.9C294.197 102.287 292.078 100.168 289.464 100.168C286.851 100.168 284.732 102.287 284.732 104.9C284.732 107.514 286.851 109.633 289.464 109.633Z" fill="#757575"/>
<path d="M267.38 109.633C269.994 109.633 272.113 107.514 272.113 104.9C272.113 102.287 269.994 100.168 267.38 100.168C264.767 100.168 262.648 102.287 262.648 104.9C262.648 107.514 264.767 109.633 267.38 109.633Z" fill="#757575"/>
<path d="M245.296 109.633C247.909 109.633 250.028 107.514 250.028 104.9C250.028 102.287 247.909 100.168 245.296 100.168C242.682 100.168 240.563 102.287 240.563 104.9C240.563 107.514 242.682 109.633 245.296 109.633Z" fill="#757575"/>
<path d="M223.212 109.633C225.826 109.633 227.944 107.514 227.944 104.9C227.944 102.287 225.826 100.168 223.212 100.168C220.598 100.168 218.479 102.287 218.479 104.9C218.479 107.514 220.598 109.633 223.212 109.633Z" fill="#0A0A0A"/>
<path d="M201.126 109.633C203.74 109.633 205.859 107.514 205.859 104.9C205.859 102.287 203.74 100.168 201.126 100.168C198.513 100.168 196.394 102.287 196.394 104.9C196.394 107.514 198.513 109.633 201.126 109.633Z" fill="#757575"/>
<path d="M179.042 109.633C181.656 109.633 183.774 107.514 183.774 104.9C183.774 102.287 181.656 100.168 179.042 100.168C176.428 100.168 174.31 102.287 174.31 104.9C174.31 107.514 176.428 109.633 179.042 109.633Z" fill="#757575"/>
<path d="M156.958 109.633C159.572 109.633 161.69 107.514 161.69 104.9C161.69 102.287 159.572 100.168 156.958 100.168C154.344 100.168 152.226 102.287 152.226 104.9C152.226 107.514 154.344 109.633 156.958 109.633Z" fill="#757575"/>
<path d="M134.873 109.633C137.487 109.633 139.605 107.514 139.605 104.9C139.605 102.287 137.487 100.168 134.873 100.168C132.259 100.168 130.141 102.287 130.141 104.9C130.141 107.514 132.259 109.633 134.873 109.633Z" fill="#757575"/>
<path d="M112.789 109.633C115.402 109.633 117.521 107.514 117.521 104.9C117.521 102.287 115.402 100.168 112.789 100.168C110.175 100.168 108.056 102.287 108.056 104.9C108.056 107.514 110.175 109.633 112.789 109.633Z" fill="#0A0A0A"/>
<path d="M90.7041 109.633C93.3177 109.633 95.4365 107.514 95.4365 104.9C95.4365 102.287 93.3177 100.168 90.7041 100.168C88.0904 100.168 85.9717 102.287 85.9717 104.9C85.9717 107.514 88.0904 109.633 90.7041 109.633Z" fill="#757575"/>
<path d="M68.6196 109.633C71.2332 109.633 73.352 107.514 73.352 104.9C73.352 102.287 71.2332 100.168 68.6196 100.168C66.006 100.168 63.8872 102.287 63.8872 104.9C63.8872 107.514 66.006 109.633 68.6196 109.633Z" fill="#757575"/>
<path d="M46.5351 109.633C49.1488 109.633 51.2675 107.514 51.2675 104.9C51.2675 102.287 49.1488 100.168 46.5351 100.168C43.9215 100.168 41.8027 102.287 41.8027 104.9C41.8027 107.514 43.9215 109.633 46.5351 109.633Z" fill="#757575"/>
<path d="M24.4507 109.633C27.0643 109.633 29.1831 107.514 29.1831 104.9C29.1831 102.287 27.0643 100.168 24.4507 100.168C21.837 100.168 19.7183 102.287 19.7183 104.9C19.7183 107.514 21.837 109.633 24.4507 109.633Z" fill="#757575"/>
<path d="M311.549 74.9306C314.163 74.9306 316.282 72.8118 316.282 70.1982C316.282 67.5846 314.163 65.4658 311.549 65.4658C308.936 65.4658 306.817 67.5846 306.817 70.1982C306.817 72.8118 308.936 74.9306 311.549 74.9306Z" fill="#757575"/>
<path d="M289.465 74.9306C292.078 74.9306 294.197 72.8118 294.197 70.1982C294.197 67.5846 292.078 65.4658 289.465 65.4658C286.851 65.4658 284.732 67.5846 284.732 70.1982C284.732 72.8118 286.851 74.9306 289.465 74.9306Z" fill="#757575"/>
<path d="M267.38 74.9306C269.994 74.9306 272.113 72.8118 272.113 70.1982C272.113 67.5846 269.994 65.4658 267.38 65.4658C264.767 65.4658 262.648 67.5846 262.648 70.1982C262.648 72.8118 264.767 74.9306 267.38 74.9306Z" fill="#757575"/>
<path d="M245.296 74.9306C247.909 74.9306 250.028 72.8118 250.028 70.1982C250.028 67.5846 247.909 65.4658 245.296 65.4658C242.682 65.4658 240.563 67.5846 240.563 70.1982C240.563 72.8118 242.682 74.9306 245.296 74.9306Z" fill="#757575"/>
<path d="M223.212 74.9306C225.826 74.9306 227.944 72.8118 227.944 70.1982C227.944 67.5846 225.826 65.4658 223.212 65.4658C220.598 65.4658 218.479 67.5846 218.479 70.1982C218.479 72.8118 220.598 74.9306 223.212 74.9306Z" fill="#757575"/>
<path d="M201.126 74.9306C203.74 74.9306 205.859 72.8118 205.859 70.1982C205.859 67.5846 203.74 65.4658 201.126 65.4658C198.513 65.4658 196.394 67.5846 196.394 70.1982C196.394 72.8118 198.513 74.9306 201.126 74.9306Z" fill="#0A0A0A"/>
<path d="M179.042 74.9306C181.656 74.9306 183.774 72.8118 183.774 70.1982C183.774 67.5846 181.656 65.4658 179.042 65.4658C176.428 65.4658 174.31 67.5846 174.31 70.1982C174.31 72.8118 176.428 74.9306 179.042 74.9306Z" fill="#757575"/>
<path d="M156.958 74.9306C159.572 74.9306 161.69 72.8118 161.69 70.1982C161.69 67.5846 159.572 65.4658 156.958 65.4658C154.344 65.4658 152.226 67.5846 152.226 70.1982C152.226 72.8118 154.344 74.9306 156.958 74.9306Z" fill="#757575"/>
<path d="M134.873 74.9306C137.487 74.9306 139.605 72.8118 139.605 70.1982C139.605 67.5846 137.487 65.4658 134.873 65.4658C132.259 65.4658 130.141 67.5846 130.141 70.1982C130.141 72.8118 132.259 74.9306 134.873 74.9306Z" fill="#757575"/>
<path d="M112.789 74.9306C115.403 74.9306 117.521 72.8118 117.521 70.1982C117.521 67.5846 115.403 65.4658 112.789 65.4658C110.175 65.4658 108.057 67.5846 108.057 70.1982C108.057 72.8118 110.175 74.9306 112.789 74.9306Z" fill="#0A0A0A"/>
<path d="M90.7046 74.9306C93.3182 74.9306 95.437 72.8118 95.437 70.1982C95.437 67.5846 93.3182 65.4658 90.7046 65.4658C88.0909 65.4658 85.9722 67.5846 85.9722 70.1982C85.9722 72.8118 88.0909 74.9306 90.7046 74.9306Z" fill="#757575"/>
<path d="M68.6196 74.9306C71.2332 74.9306 73.352 72.8118 73.352 70.1982C73.352 67.5846 71.2332 65.4658 68.6196 65.4658C66.006 65.4658 63.8872 67.5846 63.8872 70.1982C63.8872 72.8118 66.006 74.9306 68.6196 74.9306Z" fill="#757575"/>
<path d="M46.5351 74.9306C49.1488 74.9306 51.2675 72.8118 51.2675 70.1982C51.2675 67.5846 49.1488 65.4658 46.5351 65.4658C43.9215 65.4658 41.8027 67.5846 41.8027 70.1982C41.8027 72.8118 43.9215 74.9306 46.5351 74.9306Z" fill="#757575"/>
<path d="M24.4507 74.9306C27.0643 74.9306 29.1831 72.8118 29.1831 70.1982C29.1831 67.5846 27.0643 65.4658 24.4507 65.4658C21.837 65.4658 19.7183 67.5846 19.7183 70.1982C19.7183 72.8118 21.837 74.9306 24.4507 74.9306Z" fill="#757575"/>
<path d="M311.549 40.2255C314.163 40.2255 316.282 38.1068 316.282 35.4931C316.282 32.8795 314.163 30.7607 311.549 30.7607C308.936 30.7607 306.817 32.8795 306.817 35.4931C306.817 38.1068 308.936 40.2255 311.549 40.2255Z" fill="#757575"/>
<path d="M289.464 40.2255C292.078 40.2255 294.197 38.1068 294.197 35.4931C294.197 32.8795 292.078 30.7607 289.464 30.7607C286.851 30.7607 284.732 32.8795 284.732 35.4931C284.732 38.1068 286.851 40.2255 289.464 40.2255Z" fill="#757575"/>
<path d="M267.38 40.2255C269.994 40.2255 272.113 38.1068 272.113 35.4931C272.113 32.8795 269.994 30.7607 267.38 30.7607C264.767 30.7607 262.648 32.8795 262.648 35.4931C262.648 38.1068 264.767 40.2255 267.38 40.2255Z" fill="#0A0A0A"/>
<path d="M245.296 40.2255C247.909 40.2255 250.028 38.1068 250.028 35.4931C250.028 32.8795 247.909 30.7607 245.296 30.7607C242.682 30.7607 240.563 32.8795 240.563 35.4931C240.563 38.1068 242.682 40.2255 245.296 40.2255Z" fill="#757575"/>
<path d="M223.212 40.2255C225.826 40.2255 227.944 38.1068 227.944 35.4931C227.944 32.8795 225.826 30.7607 223.212 30.7607C220.598 30.7607 218.479 32.8795 218.479 35.4931C218.479 38.1068 220.598 40.2255 223.212 40.2255Z" fill="#757575"/>
<path d="M201.126 40.2255C203.74 40.2255 205.859 38.1068 205.859 35.4931C205.859 32.8795 203.74 30.7607 201.126 30.7607C198.513 30.7607 196.394 32.8795 196.394 35.4931C196.394 38.1068 198.513 40.2255 201.126 40.2255Z" fill="#757575"/>
<path d="M179.042 40.2255C181.656 40.2255 183.774 38.1068 183.774 35.4931C183.774 32.8795 181.656 30.7607 179.042 30.7607C176.428 30.7607 174.31 32.8795 174.31 35.4931C174.31 38.1068 176.428 40.2255 179.042 40.2255Z" fill="#757575"/>
<path d="M156.958 40.2255C159.572 40.2255 161.69 38.1068 161.69 35.4931C161.69 32.8795 159.572 30.7607 156.958 30.7607C154.344 30.7607 152.226 32.8795 152.226 35.4931C152.226 38.1068 154.344 40.2255 156.958 40.2255Z" fill="#757575"/>
<path d="M134.873 40.2255C137.487 40.2255 139.605 38.1068 139.605 35.4931C139.605 32.8795 137.487 30.7607 134.873 30.7607C132.259 30.7607 130.141 32.8795 130.141 35.4931C130.141 38.1068 132.259 40.2255 134.873 40.2255Z" fill="#757575"/>
<path d="M112.789 40.2255C115.402 40.2255 117.521 38.1068 117.521 35.4931C117.521 32.8795 115.402 30.7607 112.789 30.7607C110.175 30.7607 108.056 32.8795 108.056 35.4931C108.056 38.1068 110.175 40.2255 112.789 40.2255Z" fill="#757575"/>
<path d="M90.7046 40.2255C93.3182 40.2255 95.437 38.1068 95.437 35.4931C95.437 32.8795 93.3182 30.7607 90.7046 30.7607C88.0909 30.7607 85.9722 32.8795 85.9722 35.4931C85.9722 38.1068 88.0909 40.2255 90.7046 40.2255Z" fill="#757575"/>
<path d="M68.6196 40.2255C71.2332 40.2255 73.352 38.1068 73.352 35.4931C73.352 32.8795 71.2332 30.7607 68.6196 30.7607C66.006 30.7607 63.8872 32.8795 63.8872 35.4931C63.8872 38.1068 66.006 40.2255 68.6196 40.2255Z" fill="#757575"/>
<path d="M46.5351 40.2255C49.1488 40.2255 51.2675 38.1068 51.2675 35.4931C51.2675 32.8795 49.1488 30.7607 46.5351 30.7607C43.9215 30.7607 41.8027 32.8795 41.8027 35.4931C41.8027 38.1068 43.9215 40.2255 46.5351 40.2255Z" fill="#757575"/>
<path d="M24.4507 40.2255C27.0643 40.2255 29.1831 38.1068 29.1831 35.4931C29.1831 32.8795 27.0643 30.7607 24.4507 30.7607C21.837 30.7607 19.7183 32.8795 19.7183 35.4931C19.7183 38.1068 21.837 40.2255 24.4507 40.2255Z" fill="#757575"/>
<path opacity="0.402" d="M201.127 78.8726C205.918 78.8726 209.803 74.9882 209.803 70.1966C209.803 65.4049 205.918 61.5205 201.127 61.5205C196.335 61.5205 192.451 65.4049 192.451 70.1966C192.451 74.9882 196.335 78.8726 201.127 78.8726Z" fill="#0A0A0A"/>
</svg>
