<svg width="376" height="144" viewBox="0 0 376 144" fill="none" xmlns="http://www.w3.org/2000/svg">
<path d="M370 144C373.314 144 376 141.314 376 138C376 134.686 373.314 132 370 132C366.686 132 364 134.686 364 138C364 141.314 366.686 144 370 144Z" fill="#212121" fill-opacity="0.3"/>
<path d="M342 144C345.314 144 348 141.314 348 138C348 134.686 345.314 132 342 132C338.686 132 336 134.686 336 138C336 141.314 338.686 144 342 144Z" fill="#212121" fill-opacity="0.3"/>
<path d="M314 144C317.314 144 320 141.314 320 138C320 134.686 317.314 132 314 132C310.686 132 308 134.686 308 138C308 141.314 310.686 144 314 144Z" fill="#212121" fill-opacity="0.3"/>
<path d="M286 144C289.314 144 292 141.314 292 138C292 134.686 289.314 132 286 132C282.686 132 280 134.686 280 138C280 141.314 282.686 144 286 144Z" fill="#212121" fill-opacity="0.3"/>
<path d="M258 144C261.314 144 264 141.314 264 138C264 134.686 261.314 132 258 132C254.686 132 252 134.686 252 138C252 141.314 254.686 144 258 144Z" fill="#212121" fill-opacity="0.3"/>
<path d="M230 144C233.314 144 236 141.314 236 138C236 134.686 233.314 132 230 132C226.686 132 224 134.686 224 138C224 141.314 226.686 144 230 144Z" fill="#212121" fill-opacity="0.3"/>
<path d="M202 144C205.314 144 208 141.314 208 138C208 134.686 205.314 132 202 132C198.686 132 196 134.686 196 138C196 141.314 198.686 144 202 144Z" fill="#212121" fill-opacity="0.3"/>
<path d="M174 144C177.314 144 180 141.314 180 138C180 134.686 177.314 132 174 132C170.686 132 168 134.686 168 138C168 141.314 170.686 144 174 144Z" fill="#212121" fill-opacity="0.3"/>
<path d="M146 144C149.314 144 152 141.314 152 138C152 134.686 149.314 132 146 132C142.686 132 140 134.686 140 138C140 141.314 142.686 144 146 144Z" fill="#212121" fill-opacity="0.3"/>
<path d="M118 144C121.314 144 124 141.314 124 138C124 134.686 121.314 132 118 132C114.686 132 112 134.686 112 138C112 141.314 114.686 144 118 144Z" fill="#212121" fill-opacity="0.3"/>
<path d="M90 144C93.3137 144 96 141.314 96 138C96 134.686 93.3137 132 90 132C86.6863 132 84 134.686 84 138C84 141.314 86.6863 144 90 144Z" fill="#212121" fill-opacity="0.3"/>
<path d="M62 144C65.3137 144 68 141.314 68 138C68 134.686 65.3137 132 62 132C58.6863 132 56 134.686 56 138C56 141.314 58.6863 144 62 144Z" fill="#0A0A0A"/>
<path d="M34 144C37.3137 144 40 141.314 40 138C40 134.686 37.3137 132 34 132C30.6863 132 28 134.686 28 138C28 141.314 30.6863 144 34 144Z" fill="#212121" fill-opacity="0.3"/>
<path d="M6 144C9.31371 144 12 141.314 12 138C12 134.686 9.31371 132 6 132C2.68629 132 0 134.686 0 138C0 141.314 2.68629 144 6 144Z" fill="#212121" fill-opacity="0.3"/>
<path d="M370 100C373.314 100 376 97.3137 376 94C376 90.6863 373.314 88 370 88C366.686 88 364 90.6863 364 94C364 97.3137 366.686 100 370 100Z" fill="#212121" fill-opacity="0.3"/>
<path d="M342 100C345.314 100 348 97.3137 348 94C348 90.6863 345.314 88 342 88C338.686 88 336 90.6863 336 94C336 97.3137 338.686 100 342 100Z" fill="#212121" fill-opacity="0.3"/>
<path d="M314 100C317.314 100 320 97.3137 320 94C320 90.6863 317.314 88 314 88C310.686 88 308 90.6863 308 94C308 97.3137 310.686 100 314 100Z" fill="#212121" fill-opacity="0.3"/>
<path d="M286 100C289.314 100 292 97.3137 292 94C292 90.6863 289.314 88 286 88C282.686 88 280 90.6863 280 94C280 97.3137 282.686 100 286 100Z" fill="#212121" fill-opacity="0.3"/>
<path d="M258 100C261.314 100 264 97.3137 264 94C264 90.6863 261.314 88 258 88C254.686 88 252 90.6863 252 94C252 97.3137 254.686 100 258 100Z" fill="#0A0A0A"/>
<path d="M230 100C233.314 100 236 97.3137 236 94C236 90.6863 233.314 88 230 88C226.686 88 224 90.6863 224 94C224 97.3137 226.686 100 230 100Z" fill="#212121" fill-opacity="0.3"/>
<path d="M202 100C205.314 100 208 97.3137 208 94C208 90.6863 205.314 88 202 88C198.686 88 196 90.6863 196 94C196 97.3137 198.686 100 202 100Z" fill="#212121" fill-opacity="0.3"/>
<path d="M174 100C177.314 100 180 97.3137 180 94C180 90.6863 177.314 88 174 88C170.686 88 168 90.6863 168 94C168 97.3137 170.686 100 174 100Z" fill="#212121" fill-opacity="0.3"/>
<path d="M146 100C149.314 100 152 97.3137 152 94C152 90.6863 149.314 88 146 88C142.686 88 140 90.6863 140 94C140 97.3137 142.686 100 146 100Z" fill="#212121" fill-opacity="0.3"/>
<path d="M118 100C121.314 100 124 97.3137 124 94C124 90.6863 121.314 88 118 88C114.686 88 112 90.6863 112 94C112 97.3137 114.686 100 118 100Z" fill="#0A0A0A"/>
<path d="M90 100C93.3137 100 96 97.3137 96 94C96 90.6863 93.3137 88 90 88C86.6863 88 84 90.6863 84 94C84 97.3137 86.6863 100 90 100Z" fill="#212121" fill-opacity="0.3"/>
<path d="M62 100C65.3137 100 68 97.3137 68 94C68 90.6863 65.3137 88 62 88C58.6863 88 56 90.6863 56 94C56 97.3137 58.6863 100 62 100Z" fill="#212121" fill-opacity="0.3"/>
<path d="M34 100C37.3137 100 40 97.3137 40 94C40 90.6863 37.3137 88 34 88C30.6863 88 28 90.6863 28 94C28 97.3137 30.6863 100 34 100Z" fill="#212121" fill-opacity="0.3"/>
<path d="M6 100C9.31371 100 12 97.3137 12 94C12 90.6863 9.31371 88 6 88C2.68629 88 0 90.6863 0 94C0 97.3137 2.68629 100 6 100Z" fill="#212121" fill-opacity="0.3"/>
<path d="M370 56C373.314 56 376 53.3137 376 50C376 46.6863 373.314 44 370 44C366.686 44 364 46.6863 364 50C364 53.3137 366.686 56 370 56Z" fill="#212121" fill-opacity="0.3"/>
<path d="M342 56C345.314 56 348 53.3137 348 50C348 46.6863 345.314 44 342 44C338.686 44 336 46.6863 336 50C336 53.3137 338.686 56 342 56Z" fill="#212121" fill-opacity="0.3"/>
<path d="M314 56C317.314 56 320 53.3137 320 50C320 46.6863 317.314 44 314 44C310.686 44 308 46.6863 308 50C308 53.3137 310.686 56 314 56Z" fill="#212121" fill-opacity="0.3"/>
<path d="M286 56C289.314 56 292 53.3137 292 50C292 46.6863 289.314 44 286 44C282.686 44 280 46.6863 280 50C280 53.3137 282.686 56 286 56Z" fill="#212121" fill-opacity="0.3"/>
<path d="M258 56C261.314 56 264 53.3137 264 50C264 46.6863 261.314 44 258 44C254.686 44 252 46.6863 252 50C252 53.3137 254.686 56 258 56Z" fill="#212121" fill-opacity="0.3"/>
<path d="M230 56C233.314 56 236 53.3137 236 50C236 46.6863 233.314 44 230 44C226.686 44 224 46.6863 224 50C224 53.3137 226.686 56 230 56Z" fill="#0A0A0A"/>
<path d="M202 56C205.314 56 208 53.3137 208 50C208 46.6863 205.314 44 202 44C198.686 44 196 46.6863 196 50C196 53.3137 198.686 56 202 56Z" fill="#212121" fill-opacity="0.3"/>
<path d="M174 56C177.314 56 180 53.3137 180 50C180 46.6863 177.314 44 174 44C170.686 44 168 46.6863 168 50C168 53.3137 170.686 56 174 56Z" fill="#212121" fill-opacity="0.3"/>
<path d="M146 56C149.314 56 152 53.3137 152 50C152 46.6863 149.314 44 146 44C142.686 44 140 46.6863 140 50C140 53.3137 142.686 56 146 56Z" fill="#212121" fill-opacity="0.3"/>
<path d="M118 56C121.314 56 124 53.3137 124 50C124 46.6863 121.314 44 118 44C114.686 44 112 46.6863 112 50C112 53.3137 114.686 56 118 56Z" fill="#0A0A0A"/>
<path d="M90 56C93.3137 56 96 53.3137 96 50C96 46.6863 93.3137 44 90 44C86.6863 44 84 46.6863 84 50C84 53.3137 86.6863 56 90 56Z" fill="#212121" fill-opacity="0.3"/>
<path d="M62 56C65.3137 56 68 53.3137 68 50C68 46.6863 65.3137 44 62 44C58.6863 44 56 46.6863 56 50C56 53.3137 58.6863 56 62 56Z" fill="#212121" fill-opacity="0.3"/>
<path d="M34 56C37.3137 56 40 53.3137 40 50C40 46.6863 37.3137 44 34 44C30.6863 44 28 46.6863 28 50C28 53.3137 30.6863 56 34 56Z" fill="#212121" fill-opacity="0.3"/>
<path d="M6 56C9.31371 56 12 53.3137 12 50C12 46.6863 9.31371 44 6 44C2.68629 44 0 46.6863 0 50C0 53.3137 2.68629 56 6 56Z" fill="#212121" fill-opacity="0.3"/>
<path d="M370 12C373.314 12 376 9.31371 376 6C376 2.68629 373.314 0 370 0C366.686 0 364 2.68629 364 6C364 9.31371 366.686 12 370 12Z" fill="#212121" fill-opacity="0.3"/>
<path d="M342 12C345.314 12 348 9.31371 348 6C348 2.68629 345.314 0 342 0C338.686 0 336 2.68629 336 6C336 9.31371 338.686 12 342 12Z" fill="#212121" fill-opacity="0.3"/>
<path d="M314 12C317.314 12 320 9.31371 320 6C320 2.68629 317.314 0 314 0C310.686 0 308 2.68629 308 6C308 9.31371 310.686 12 314 12Z" fill="#0A0A0A"/>
<path d="M286 12C289.314 12 292 9.31371 292 6C292 2.68629 289.314 0 286 0C282.686 0 280 2.68629 280 6C280 9.31371 282.686 12 286 12Z" fill="#212121" fill-opacity="0.3"/>
<path d="M258 12C261.314 12 264 9.31371 264 6C264 2.68629 261.314 0 258 0C254.686 0 252 2.68629 252 6C252 9.31371 254.686 12 258 12Z" fill="#212121" fill-opacity="0.3"/>
<path d="M230 12C233.314 12 236 9.31371 236 6C236 2.68629 233.314 0 230 0C226.686 0 224 2.68629 224 6C224 9.31371 226.686 12 230 12Z" fill="#212121" fill-opacity="0.3"/>
<path d="M202 12C205.314 12 208 9.31371 208 6C208 2.68629 205.314 0 202 0C198.686 0 196 2.68629 196 6C196 9.31371 198.686 12 202 12Z" fill="#212121" fill-opacity="0.3"/>
<path d="M174 12C177.314 12 180 9.31371 180 6C180 2.68629 177.314 0 174 0C170.686 0 168 2.68629 168 6C168 9.31371 170.686 12 174 12Z" fill="#212121" fill-opacity="0.3"/>
<path d="M146 12C149.314 12 152 9.31371 152 6C152 2.68629 149.314 0 146 0C142.686 0 140 2.68629 140 6C140 9.31371 142.686 12 146 12Z" fill="#212121" fill-opacity="0.3"/>
<path d="M118 12C121.314 12 124 9.31371 124 6C124 2.68629 121.314 0 118 0C114.686 0 112 2.68629 112 6C112 9.31371 114.686 12 118 12Z" fill="#212121" fill-opacity="0.3"/>
<path d="M90 12C93.3137 12 96 9.31371 96 6C96 2.68629 93.3137 0 90 0C86.6863 0 84 2.68629 84 6C84 9.31371 86.6863 12 90 12Z" fill="#212121" fill-opacity="0.3"/>
<path d="M62 12C65.3137 12 68 9.31371 68 6C68 2.68629 65.3137 0 62 0C58.6863 0 56 2.68629 56 6C56 9.31371 58.6863 12 62 12Z" fill="#212121" fill-opacity="0.3"/>
<path d="M34 12C37.3137 12 40 9.31371 40 6C40 2.68629 37.3137 0 34 0C30.6863 0 28 2.68629 28 6C28 9.31371 30.6863 12 34 12Z" fill="#212121" fill-opacity="0.3"/>
<path d="M6 12C9.31371 12 12 9.31371 12 6C12 2.68629 9.31371 0 6 0C2.68629 0 0 2.68629 0 6C0 9.31371 2.68629 12 6 12Z" fill="#212121" fill-opacity="0.3"/>
</svg>
