<svg width="426" height="221" viewBox="0 0 426 221" fill="none" xmlns="http://www.w3.org/2000/svg">
<rect width="426" height="221" fill="#F5F5F5"/>
<path d="M396 182C399.314 182 402 179.314 402 176C402 172.686 399.314 170 396 170C392.686 170 390 172.686 390 176C390 179.314 392.686 182 396 182Z" fill="#212121" fill-opacity="0.3"/>
<path d="M368 182C371.314 182 374 179.314 374 176C374 172.686 371.314 170 368 170C364.686 170 362 172.686 362 176C362 179.314 364.686 182 368 182Z" fill="#212121" fill-opacity="0.3"/>
<path d="M340 182C343.314 182 346 179.314 346 176C346 172.686 343.314 170 340 170C336.686 170 334 172.686 334 176C334 179.314 336.686 182 340 182Z" fill="#212121" fill-opacity="0.3"/>
<path d="M312 182C315.314 182 318 179.314 318 176C318 172.686 315.314 170 312 170C308.686 170 306 172.686 306 176C306 179.314 308.686 182 312 182Z" fill="#212121" fill-opacity="0.3"/>
<path d="M284 182C287.314 182 290 179.314 290 176C290 172.686 287.314 170 284 170C280.686 170 278 172.686 278 176C278 179.314 280.686 182 284 182Z" fill="#212121" fill-opacity="0.3"/>
<path d="M256 182C259.314 182 262 179.314 262 176C262 172.686 259.314 170 256 170C252.686 170 250 172.686 250 176C250 179.314 252.686 182 256 182Z" fill="#212121" fill-opacity="0.3"/>
<path d="M228 182C231.314 182 234 179.314 234 176C234 172.686 231.314 170 228 170C224.686 170 222 172.686 222 176C222 179.314 224.686 182 228 182Z" fill="#0A0A0A"/>
<path d="M200 182C203.314 182 206 179.314 206 176C206 172.686 203.314 170 200 170C196.686 170 194 172.686 194 176C194 179.314 196.686 182 200 182Z" fill="#212121" fill-opacity="0.3"/>
<path d="M172 182C175.314 182 178 179.314 178 176C178 172.686 175.314 170 172 170C168.686 170 166 172.686 166 176C166 179.314 168.686 182 172 182Z" fill="#212121" fill-opacity="0.3"/>
<path d="M144 182C147.314 182 150 179.314 150 176C150 172.686 147.314 170 144 170C140.686 170 138 172.686 138 176C138 179.314 140.686 182 144 182Z" fill="#212121" fill-opacity="0.3"/>
<path d="M116 182C119.314 182 122 179.314 122 176C122 172.686 119.314 170 116 170C112.686 170 110 172.686 110 176C110 179.314 112.686 182 116 182Z" fill="#212121" fill-opacity="0.3"/>
<path d="M88 182C91.3137 182 94 179.314 94 176C94 172.686 91.3137 170 88 170C84.6863 170 82 172.686 82 176C82 179.314 84.6863 182 88 182Z" fill="#212121" fill-opacity="0.3"/>
<path d="M60 182C63.3137 182 66 179.314 66 176C66 172.686 63.3137 170 60 170C56.6863 170 54 172.686 54 176C54 179.314 56.6863 182 60 182Z" fill="#212121" fill-opacity="0.3"/>
<path d="M32 182C35.3137 182 38 179.314 38 176C38 172.686 35.3137 170 32 170C28.6863 170 26 172.686 26 176C26 179.314 28.6863 182 32 182Z" fill="#212121" fill-opacity="0.3"/>
<path d="M396 138C399.314 138 402 135.314 402 132C402 128.686 399.314 126 396 126C392.686 126 390 128.686 390 132C390 135.314 392.686 138 396 138Z" fill="#0A0A0A"/>
<path d="M368 138C371.314 138 374 135.314 374 132C374 128.686 371.314 126 368 126C364.686 126 362 128.686 362 132C362 135.314 364.686 138 368 138Z" fill="#212121" fill-opacity="0.3"/>
<path d="M340 138C343.314 138 346 135.314 346 132C346 128.686 343.314 126 340 126C336.686 126 334 128.686 334 132C334 135.314 336.686 138 340 138Z" fill="#212121" fill-opacity="0.3"/>
<path d="M312 138C315.314 138 318 135.314 318 132C318 128.686 315.314 126 312 126C308.686 126 306 128.686 306 132C306 135.314 308.686 138 312 138Z" fill="#212121" fill-opacity="0.3"/>
<path d="M284 138C287.314 138 290 135.314 290 132C290 128.686 287.314 126 284 126C280.686 126 278 128.686 278 132C278 135.314 280.686 138 284 138Z" fill="#0A0A0A"/>
<path d="M256 138C259.314 138 262 135.314 262 132C262 128.686 259.314 126 256 126C252.686 126 250 128.686 250 132C250 135.314 252.686 138 256 138Z" fill="#212121" fill-opacity="0.3"/>
<path d="M228 138C231.314 138 234 135.314 234 132C234 128.686 231.314 126 228 126C224.686 126 222 128.686 222 132C222 135.314 224.686 138 228 138Z" fill="#212121" fill-opacity="0.3"/>
<path d="M200 138C203.314 138 206 135.314 206 132C206 128.686 203.314 126 200 126C196.686 126 194 128.686 194 132C194 135.314 196.686 138 200 138Z" fill="#0A0A0A"/>
<path d="M172 138C175.314 138 178 135.314 178 132C178 128.686 175.314 126 172 126C168.686 126 166 128.686 166 132C166 135.314 168.686 138 172 138Z" fill="#212121" fill-opacity="0.3"/>
<path d="M144 138C147.314 138 150 135.314 150 132C150 128.686 147.314 126 144 126C140.686 126 138 128.686 138 132C138 135.314 140.686 138 144 138Z" fill="#212121" fill-opacity="0.3"/>
<path d="M116 138C119.314 138 122 135.314 122 132C122 128.686 119.314 126 116 126C112.686 126 110 128.686 110 132C110 135.314 112.686 138 116 138Z" fill="#212121" fill-opacity="0.3"/>
<path d="M88 138C91.3137 138 94 135.314 94 132C94 128.686 91.3137 126 88 126C84.6863 126 82 128.686 82 132C82 135.314 84.6863 138 88 138Z" fill="#0A0A0A"/>
<path d="M60 138C63.3137 138 66 135.314 66 132C66 128.686 63.3137 126 60 126C56.6863 126 54 128.686 54 132C54 135.314 56.6863 138 60 138Z" fill="#212121" fill-opacity="0.3"/>
<path d="M32 138C35.3137 138 38 135.314 38 132C38 128.686 35.3137 126 32 126C28.6863 126 26 128.686 26 132C26 135.314 28.6863 138 32 138Z" fill="#212121" fill-opacity="0.3"/>
<path d="M396 94C399.314 94 402 91.3137 402 88C402 84.6863 399.314 82 396 82C392.686 82 390 84.6863 390 88C390 91.3137 392.686 94 396 94Z" fill="#212121" fill-opacity="0.3"/>
<path d="M368 94C371.314 94 374 91.3137 374 88C374 84.6863 371.314 82 368 82C364.686 82 362 84.6863 362 88C362 91.3137 364.686 94 368 94Z" fill="#212121" fill-opacity="0.3"/>
<path d="M340 94C343.314 94 346 91.3137 346 88C346 84.6863 343.314 82 340 82C336.686 82 334 84.6863 334 88C334 91.3137 336.686 94 340 94Z" fill="#0A0A0A"/>
<path d="M312 94C315.314 94 318 91.3137 318 88C318 84.6863 315.314 82 312 82C308.686 82 306 84.6863 306 88C306 91.3137 308.686 94 312 94Z" fill="#212121" fill-opacity="0.3"/>
<path d="M284 94C287.314 94 290 91.3137 290 88C290 84.6863 287.314 82 284 82C280.686 82 278 84.6863 278 88C278 91.3137 280.686 94 284 94Z" fill="#212121" fill-opacity="0.3"/>
<path d="M256 94C259.314 94 262 91.3137 262 88C262 84.6863 259.314 82 256 82C252.686 82 250 84.6863 250 88C250 91.3137 252.686 94 256 94Z" fill="#0A0A0A"/>
<path d="M228 94C231.314 94 234 91.3137 234 88C234 84.6863 231.314 82 228 82C224.686 82 222 84.6863 222 88C222 91.3137 224.686 94 228 94Z" fill="#212121" fill-opacity="0.3"/>
<path d="M200 94C203.314 94 206 91.3137 206 88C206 84.6863 203.314 82 200 82C196.686 82 194 84.6863 194 88C194 91.3137 196.686 94 200 94Z" fill="#212121" fill-opacity="0.3"/>
<path d="M172 94C175.314 94 178 91.3137 178 88C178 84.6863 175.314 82 172 82C168.686 82 166 84.6863 166 88C166 91.3137 168.686 94 172 94Z" fill="#212121" fill-opacity="0.3"/>
<path d="M144 94C147.314 94 150 91.3137 150 88C150 84.6863 147.314 82 144 82C140.686 82 138 84.6863 138 88C138 91.3137 140.686 94 144 94Z" fill="#0A0A0A"/>
<path d="M116 94C119.314 94 122 91.3137 122 88C122 84.6863 119.314 82 116 82C112.686 82 110 84.6863 110 88C110 91.3137 112.686 94 116 94Z" fill="#212121" fill-opacity="0.3"/>
<path d="M88 94C91.3137 94 94 91.3137 94 88C94 84.6863 91.3137 82 88 82C84.6863 82 82 84.6863 82 88C82 91.3137 84.6863 94 88 94Z" fill="#0A0A0A"/>
<path d="M60 94C63.3137 94 66 91.3137 66 88C66 84.6863 63.3137 82 60 82C56.6863 82 54 84.6863 54 88C54 91.3137 56.6863 94 60 94Z" fill="#212121" fill-opacity="0.3"/>
<path d="M32 94C35.3137 94 38 91.3137 38 88C38 84.6863 35.3137 82 32 82C28.6863 82 26 84.6863 26 88C26 91.3137 28.6863 94 32 94Z" fill="#212121" fill-opacity="0.3"/>
<path d="M396 50C399.314 50 402 47.3137 402 44C402 40.6863 399.314 38 396 38C392.686 38 390 40.6863 390 44C390 47.3137 392.686 50 396 50Z" fill="#212121" fill-opacity="0.3"/>
<path d="M368 50C371.314 50 374 47.3137 374 44C374 40.6863 371.314 38 368 38C364.686 38 362 40.6863 362 44C362 47.3137 364.686 50 368 50Z" fill="#212121" fill-opacity="0.3"/>
<path d="M340 50C343.314 50 346 47.3137 346 44C346 40.6863 343.314 38 340 38C336.686 38 334 40.6863 334 44C334 47.3137 336.686 50 340 50Z" fill="#212121" fill-opacity="0.3"/>
<path d="M312 50C315.314 50 318 47.3137 318 44C318 40.6863 315.314 38 312 38C308.686 38 306 40.6863 306 44C306 47.3137 308.686 50 312 50Z" fill="#212121" fill-opacity="0.3"/>
<path d="M284 50C287.314 50 290 47.3137 290 44C290 40.6863 287.314 38 284 38C280.686 38 278 40.6863 278 44C278 47.3137 280.686 50 284 50Z" fill="#212121" fill-opacity="0.3"/>
<path d="M256 50C259.314 50 262 47.3137 262 44C262 40.6863 259.314 38 256 38C252.686 38 250 40.6863 250 44C250 47.3137 252.686 50 256 50Z" fill="#212121" fill-opacity="0.3"/>
<path d="M228 50C231.314 50 234 47.3137 234 44C234 40.6863 231.314 38 228 38C224.686 38 222 40.6863 222 44C222 47.3137 224.686 50 228 50Z" fill="#212121" fill-opacity="0.3"/>
<path d="M200 50C203.314 50 206 47.3137 206 44C206 40.6863 203.314 38 200 38C196.686 38 194 40.6863 194 44C194 47.3137 196.686 50 200 50Z" fill="#212121" fill-opacity="0.3"/>
<path d="M172 50C175.314 50 178 47.3137 178 44C178 40.6863 175.314 38 172 38C168.686 38 166 40.6863 166 44C166 47.3137 168.686 50 172 50Z" fill="#212121" fill-opacity="0.3"/>
<path d="M144 50C147.314 50 150 47.3137 150 44C150 40.6863 147.314 38 144 38C140.686 38 138 40.6863 138 44C138 47.3137 140.686 50 144 50Z" fill="#212121" fill-opacity="0.3"/>
<path d="M116 50C119.314 50 122 47.3137 122 44C122 40.6863 119.314 38 116 38C112.686 38 110 40.6863 110 44C110 47.3137 112.686 50 116 50Z" fill="#212121" fill-opacity="0.3"/>
<path d="M88 50C91.3137 50 94 47.3137 94 44C94 40.6863 91.3137 38 88 38C84.6863 38 82 40.6863 82 44C82 47.3137 84.6863 50 88 50Z" fill="#212121" fill-opacity="0.3"/>
<path d="M60 50C63.3137 50 66 47.3137 66 44C66 40.6863 63.3137 38 60 38C56.6863 38 54 40.6863 54 44C54 47.3137 56.6863 50 60 50Z" fill="#212121" fill-opacity="0.3"/>
<path d="M32 50C35.3137 50 38 47.3137 38 44C38 40.6863 35.3137 38 32 38C28.6863 38 26 40.6863 26 44C26 47.3137 28.6863 50 32 50Z" fill="#0A0A0A"/>
<path d="M32.9678 44.7246L89.6418 88.7964V132.49L145.209 88.7964L200.209 132.49L228.434 178.856L257.121 88.7954L284.984 134.604L340.04 88.7954L398.125 132.489" stroke="#0A0A0A" stroke-width="2"/>
</svg>
