<svg width="335" height="174" viewBox="0 0 335 174" fill="none" xmlns="http://www.w3.org/2000/svg">
<rect width="335" height="173.791" fill="#F5F5F5"/>
<path d="M311.409 143.122C314.015 143.122 316.127 141.01 316.127 138.404C316.127 135.798 314.015 133.686 311.409 133.686C308.803 133.686 306.69 135.798 306.69 138.404C306.69 141.01 308.803 143.122 311.409 143.122Z" fill="#757575"/>
<path d="M289.39 143.122C291.996 143.122 294.108 141.01 294.108 138.404C294.108 135.798 291.996 133.686 289.39 133.686C286.784 133.686 284.672 135.798 284.672 138.404C284.672 141.01 286.784 143.122 289.39 143.122Z" fill="#757575"/>
<path d="M267.371 143.122C269.977 143.122 272.089 141.01 272.089 138.404C272.089 135.798 269.977 133.686 267.371 133.686C264.765 133.686 262.653 135.798 262.653 138.404C262.653 141.01 264.765 143.122 267.371 143.122Z" fill="#757575"/>
<path d="M245.352 143.122C247.958 143.122 250.07 141.01 250.07 138.404C250.07 135.798 247.958 133.686 245.352 133.686C242.746 133.686 240.634 135.798 240.634 138.404C240.634 141.01 242.746 143.122 245.352 143.122Z" fill="#757575"/>
<path d="M223.334 143.122C225.939 143.122 228.052 141.01 228.052 138.404C228.052 135.798 225.939 133.686 223.334 133.686C220.728 133.686 218.615 135.798 218.615 138.404C218.615 141.01 220.728 143.122 223.334 143.122Z" fill="#757575"/>
<path d="M201.315 143.122C203.921 143.122 206.033 141.01 206.033 138.404C206.033 135.798 203.921 133.686 201.315 133.686C198.709 133.686 196.597 135.798 196.597 138.404C196.597 141.01 198.709 143.122 201.315 143.122Z" fill="#757575"/>
<path d="M179.296 143.122C181.902 143.122 184.014 141.01 184.014 138.404C184.014 135.798 181.902 133.686 179.296 133.686C176.69 133.686 174.578 135.798 174.578 138.404C174.578 141.01 176.69 143.122 179.296 143.122Z" fill="#0A0A0A"/>
<path d="M157.277 143.122C159.883 143.122 161.996 141.01 161.996 138.404C161.996 135.798 159.883 133.686 157.277 133.686C154.672 133.686 152.559 135.798 152.559 138.404C152.559 141.01 154.672 143.122 157.277 143.122Z" fill="#757575"/>
<path d="M135.259 143.122C137.865 143.122 139.977 141.01 139.977 138.404C139.977 135.798 137.865 133.686 135.259 133.686C132.653 133.686 130.541 135.798 130.541 138.404C130.541 141.01 132.653 143.122 135.259 143.122Z" fill="#757575"/>
<path d="M113.239 143.122C115.845 143.122 117.958 141.01 117.958 138.404C117.958 135.798 115.845 133.686 113.239 133.686C110.633 133.686 108.521 135.798 108.521 138.404C108.521 141.01 110.633 143.122 113.239 143.122Z" fill="#757575"/>
<path d="M91.2208 143.122C93.8266 143.122 95.9391 141.01 95.9391 138.404C95.9391 135.798 93.8266 133.686 91.2208 133.686C88.6149 133.686 86.5024 135.798 86.5024 138.404C86.5024 141.01 88.6149 143.122 91.2208 143.122Z" fill="#757575"/>
<path d="M69.2022 143.122C71.808 143.122 73.9205 141.01 73.9205 138.404C73.9205 135.798 71.808 133.686 69.2022 133.686C66.5963 133.686 64.4839 135.798 64.4839 138.404C64.4839 141.01 66.5963 143.122 69.2022 143.122Z" fill="#757575"/>
<path d="M47.1832 143.122C49.789 143.122 51.9015 141.01 51.9015 138.404C51.9015 135.798 49.789 133.686 47.1832 133.686C44.5773 133.686 42.4648 135.798 42.4648 138.404C42.4648 141.01 44.5773 143.122 47.1832 143.122Z" fill="#757575"/>
<path d="M25.1646 143.122C27.7704 143.122 29.8829 141.01 29.8829 138.404C29.8829 135.798 27.7704 133.686 25.1646 133.686C22.5587 133.686 20.4463 135.798 20.4463 138.404C20.4463 141.01 22.5587 143.122 25.1646 143.122Z" fill="#757575"/>
<path d="M311.409 108.523C314.015 108.523 316.127 106.41 316.127 103.804C316.127 101.198 314.015 99.0859 311.409 99.0859C308.803 99.0859 306.69 101.198 306.69 103.804C306.69 106.41 308.803 108.523 311.409 108.523Z" fill="#0A0A0A"/>
<path d="M289.39 108.523C291.996 108.523 294.108 106.41 294.108 103.804C294.108 101.198 291.996 99.0859 289.39 99.0859C286.784 99.0859 284.672 101.198 284.672 103.804C284.672 106.41 286.784 108.523 289.39 108.523Z" fill="#757575"/>
<path d="M267.371 108.523C269.977 108.523 272.089 106.41 272.089 103.804C272.089 101.198 269.977 99.0859 267.371 99.0859C264.765 99.0859 262.653 101.198 262.653 103.804C262.653 106.41 264.765 108.523 267.371 108.523Z" fill="#757575"/>
<path d="M245.352 108.523C247.958 108.523 250.07 106.41 250.07 103.804C250.07 101.198 247.958 99.0859 245.352 99.0859C242.746 99.0859 240.634 101.198 240.634 103.804C240.634 106.41 242.746 108.523 245.352 108.523Z" fill="#757575"/>
<path d="M223.334 108.523C225.939 108.523 228.052 106.41 228.052 103.804C228.052 101.198 225.939 99.0859 223.334 99.0859C220.728 99.0859 218.615 101.198 218.615 103.804C218.615 106.41 220.728 108.523 223.334 108.523Z" fill="#0A0A0A"/>
<path d="M201.315 108.523C203.921 108.523 206.033 106.41 206.033 103.804C206.033 101.198 203.921 99.0859 201.315 99.0859C198.709 99.0859 196.597 101.198 196.597 103.804C196.597 106.41 198.709 108.523 201.315 108.523Z" fill="#757575"/>
<path d="M179.296 108.523C181.902 108.523 184.014 106.41 184.014 103.804C184.014 101.198 181.902 99.0859 179.296 99.0859C176.69 99.0859 174.578 101.198 174.578 103.804C174.578 106.41 176.69 108.523 179.296 108.523Z" fill="#757575"/>
<path d="M157.277 108.523C159.883 108.523 161.996 106.41 161.996 103.804C161.996 101.198 159.883 99.0859 157.277 99.0859C154.672 99.0859 152.559 101.198 152.559 103.804C152.559 106.41 154.672 108.523 157.277 108.523Z" fill="#0A0A0A"/>
<path d="M135.259 108.523C137.865 108.523 139.977 106.41 139.977 103.804C139.977 101.198 137.865 99.0859 135.259 99.0859C132.653 99.0859 130.541 101.198 130.541 103.804C130.541 106.41 132.653 108.523 135.259 108.523Z" fill="#757575"/>
<path d="M113.239 108.523C115.845 108.523 117.958 106.41 117.958 103.804C117.958 101.198 115.845 99.0859 113.239 99.0859C110.633 99.0859 108.521 101.198 108.521 103.804C108.521 106.41 110.633 108.523 113.239 108.523Z" fill="#757575"/>
<path d="M91.2208 108.523C93.8266 108.523 95.9391 106.41 95.9391 103.804C95.9391 101.198 93.8266 99.0859 91.2208 99.0859C88.6149 99.0859 86.5024 101.198 86.5024 103.804C86.5024 106.41 88.6149 108.523 91.2208 108.523Z" fill="#757575"/>
<path d="M69.2022 108.523C71.808 108.523 73.9205 106.41 73.9205 103.804C73.9205 101.198 71.808 99.0859 69.2022 99.0859C66.5963 99.0859 64.4839 101.198 64.4839 103.804C64.4839 106.41 66.5963 108.523 69.2022 108.523Z" fill="#0A0A0A"/>
<path d="M47.1832 108.523C49.789 108.523 51.9015 106.41 51.9015 103.804C51.9015 101.198 49.789 99.0859 47.1832 99.0859C44.5773 99.0859 42.4648 101.198 42.4648 103.804C42.4648 106.41 44.5773 108.523 47.1832 108.523Z" fill="#757575"/>
<path d="M25.1646 108.523C27.7704 108.523 29.8829 106.41 29.8829 103.804C29.8829 101.198 27.7704 99.0859 25.1646 99.0859C22.5587 99.0859 20.4463 101.198 20.4463 103.804C20.4463 106.41 22.5587 108.523 25.1646 108.523Z" fill="#757575"/>
<path d="M311.409 73.921C314.015 73.921 316.127 71.8085 316.127 69.2027C316.127 66.5968 314.015 64.4844 311.409 64.4844C308.803 64.4844 306.69 66.5968 306.69 69.2027C306.69 71.8085 308.803 73.921 311.409 73.921Z" fill="#757575"/>
<path d="M289.39 73.921C291.996 73.921 294.108 71.8085 294.108 69.2027C294.108 66.5968 291.996 64.4844 289.39 64.4844C286.784 64.4844 284.672 66.5968 284.672 69.2027C284.672 71.8085 286.784 73.921 289.39 73.921Z" fill="#757575"/>
<path d="M267.371 73.921C269.977 73.921 272.089 71.8085 272.089 69.2027C272.089 66.5968 269.977 64.4844 267.371 64.4844C264.765 64.4844 262.653 66.5968 262.653 69.2027C262.653 71.8085 264.765 73.921 267.371 73.921Z" fill="#0A0A0A"/>
<path d="M245.352 73.921C247.958 73.921 250.07 71.8085 250.07 69.2027C250.07 66.5968 247.958 64.4844 245.352 64.4844C242.746 64.4844 240.634 66.5968 240.634 69.2027C240.634 71.8085 242.746 73.921 245.352 73.921Z" fill="#757575"/>
<path d="M223.334 73.921C225.939 73.921 228.052 71.8085 228.052 69.2027C228.052 66.5968 225.939 64.4844 223.334 64.4844C220.728 64.4844 218.615 66.5968 218.615 69.2027C218.615 71.8085 220.728 73.921 223.334 73.921Z" fill="#757575"/>
<path d="M201.315 73.921C203.921 73.921 206.033 71.8085 206.033 69.2027C206.033 66.5968 203.921 64.4844 201.315 64.4844C198.709 64.4844 196.597 66.5968 196.597 69.2027C196.597 71.8085 198.709 73.921 201.315 73.921Z" fill="#0A0A0A"/>
<path d="M179.296 73.921C181.902 73.921 184.014 71.8085 184.014 69.2027C184.014 66.5968 181.902 64.4844 179.296 64.4844C176.69 64.4844 174.578 66.5968 174.578 69.2027C174.578 71.8085 176.69 73.921 179.296 73.921Z" fill="#757575"/>
<path d="M157.277 73.921C159.883 73.921 161.996 71.8085 161.996 69.2027C161.996 66.5968 159.883 64.4844 157.277 64.4844C154.672 64.4844 152.559 66.5968 152.559 69.2027C152.559 71.8085 154.672 73.921 157.277 73.921Z" fill="#757575"/>
<path d="M135.259 73.921C137.865 73.921 139.977 71.8085 139.977 69.2027C139.977 66.5968 137.865 64.4844 135.259 64.4844C132.653 64.4844 130.541 66.5968 130.541 69.2027C130.541 71.8085 132.653 73.921 135.259 73.921Z" fill="#757575"/>
<path d="M113.239 73.921C115.845 73.921 117.958 71.8085 117.958 69.2027C117.958 66.5968 115.845 64.4844 113.239 64.4844C110.633 64.4844 108.521 66.5968 108.521 69.2027C108.521 71.8085 110.633 73.921 113.239 73.921Z" fill="#0A0A0A"/>
<path d="M91.2208 73.921C93.8266 73.921 95.9391 71.8085 95.9391 69.2027C95.9391 66.5968 93.8266 64.4844 91.2208 64.4844C88.6149 64.4844 86.5024 66.5968 86.5024 69.2027C86.5024 71.8085 88.6149 73.921 91.2208 73.921Z" fill="#757575"/>
<path d="M69.2022 73.921C71.808 73.921 73.9205 71.8085 73.9205 69.2027C73.9205 66.5968 71.808 64.4844 69.2022 64.4844C66.5963 64.4844 64.4839 66.5968 64.4839 69.2027C64.4839 71.8085 66.5963 73.921 69.2022 73.921Z" fill="#0A0A0A"/>
<path d="M47.1832 73.921C49.789 73.921 51.9015 71.8085 51.9015 69.2027C51.9015 66.5968 49.789 64.4844 47.1832 64.4844C44.5773 64.4844 42.4648 66.5968 42.4648 69.2027C42.4648 71.8085 44.5773 73.921 47.1832 73.921Z" fill="#757575"/>
<path d="M25.1646 73.921C27.7704 73.921 29.8829 71.8085 29.8829 69.2027C29.8829 66.5968 27.7704 64.4844 25.1646 64.4844C22.5587 64.4844 20.4463 66.5968 20.4463 69.2027C20.4463 71.8085 22.5587 73.921 25.1646 73.921Z" fill="#757575"/>
<path d="M311.409 39.3194C314.015 39.3194 316.127 37.207 316.127 34.6011C316.127 31.9953 314.015 29.8828 311.409 29.8828C308.803 29.8828 306.69 31.9953 306.69 34.6011C306.69 37.207 308.803 39.3194 311.409 39.3194Z" fill="#757575"/>
<path d="M289.39 39.3194C291.996 39.3194 294.108 37.207 294.108 34.6011C294.108 31.9953 291.996 29.8828 289.39 29.8828C286.784 29.8828 284.672 31.9953 284.672 34.6011C284.672 37.207 286.784 39.3194 289.39 39.3194Z" fill="#757575"/>
<path d="M267.371 39.3194C269.977 39.3194 272.089 37.207 272.089 34.6011C272.089 31.9953 269.977 29.8828 267.371 29.8828C264.765 29.8828 262.653 31.9953 262.653 34.6011C262.653 37.207 264.765 39.3194 267.371 39.3194Z" fill="#757575"/>
<path d="M245.352 39.3194C247.958 39.3194 250.07 37.207 250.07 34.6011C250.07 31.9953 247.958 29.8828 245.352 29.8828C242.746 29.8828 240.634 31.9953 240.634 34.6011C240.634 37.207 242.746 39.3194 245.352 39.3194Z" fill="#757575"/>
<path d="M223.334 39.3194C225.939 39.3194 228.052 37.207 228.052 34.6011C228.052 31.9953 225.939 29.8828 223.334 29.8828C220.728 29.8828 218.615 31.9953 218.615 34.6011C218.615 37.207 220.728 39.3194 223.334 39.3194Z" fill="#757575"/>
<path d="M201.315 39.3194C203.921 39.3194 206.033 37.207 206.033 34.6011C206.033 31.9953 203.921 29.8828 201.315 29.8828C198.709 29.8828 196.597 31.9953 196.597 34.6011C196.597 37.207 198.709 39.3194 201.315 39.3194Z" fill="#757575"/>
<path d="M179.296 39.3194C181.902 39.3194 184.014 37.207 184.014 34.6011C184.014 31.9953 181.902 29.8828 179.296 29.8828C176.69 29.8828 174.578 31.9953 174.578 34.6011C174.578 37.207 176.69 39.3194 179.296 39.3194Z" fill="#757575"/>
<path d="M157.277 39.3194C159.883 39.3194 161.996 37.207 161.996 34.6011C161.996 31.9953 159.883 29.8828 157.277 29.8828C154.672 29.8828 152.559 31.9953 152.559 34.6011C152.559 37.207 154.672 39.3194 157.277 39.3194Z" fill="#757575"/>
<path d="M135.259 39.3194C137.865 39.3194 139.977 37.207 139.977 34.6011C139.977 31.9953 137.865 29.8828 135.259 29.8828C132.653 29.8828 130.541 31.9953 130.541 34.6011C130.541 37.207 132.653 39.3194 135.259 39.3194Z" fill="#757575"/>
<path d="M113.239 39.3194C115.845 39.3194 117.958 37.207 117.958 34.6011C117.958 31.9953 115.845 29.8828 113.239 29.8828C110.633 29.8828 108.521 31.9953 108.521 34.6011C108.521 37.207 110.633 39.3194 113.239 39.3194Z" fill="#757575"/>
<path d="M91.2208 39.3194C93.8266 39.3194 95.9391 37.207 95.9391 34.6011C95.9391 31.9953 93.8266 29.8828 91.2208 29.8828C88.6149 29.8828 86.5024 31.9953 86.5024 34.6011C86.5024 37.207 88.6149 39.3194 91.2208 39.3194Z" fill="#757575"/>
<path d="M69.2022 39.3194C71.808 39.3194 73.9205 37.207 73.9205 34.6011C73.9205 31.9953 71.808 29.8828 69.2022 29.8828C66.5963 29.8828 64.4839 31.9953 64.4839 34.6011C64.4839 37.207 66.5963 39.3194 69.2022 39.3194Z" fill="#757575"/>
<path d="M47.1832 39.3194C49.789 39.3194 51.9015 37.207 51.9015 34.6011C51.9015 31.9953 49.789 29.8828 47.1832 29.8828C44.5773 29.8828 42.4648 31.9953 42.4648 34.6011C42.4648 37.207 44.5773 39.3194 47.1832 39.3194Z" fill="#757575"/>
<path d="M25.1646 39.3194C27.7704 39.3194 29.8829 37.207 29.8829 34.6011C29.8829 31.9953 27.7704 29.8828 25.1646 29.8828C22.5587 29.8828 20.4463 31.9953 20.4463 34.6011C20.4463 37.207 22.5587 39.3194 25.1646 39.3194Z" fill="#0A0A0A"/>
<path d="M25.9253 35.1719L70.4929 69.8293V104.189L114.19 69.8293L157.441 104.189L179.637 140.651L202.196 69.8285L224.107 105.852L267.402 69.8285L313.079 104.188" stroke="#0A0A0A" stroke-width="2"/>
</svg>
