<svg width="163" height="58" viewBox="0 0 163 58" fill="none" xmlns="http://www.w3.org/2000/svg">
<rect width="162.4" height="58" rx="4" fill="#0A0A0A"/>
<path d="M35.7249 29.6734C35.7501 27.7235 36.7973 25.8784 38.4586 24.8571C37.4105 23.3603 35.6551 22.4113 33.8288 22.3542C31.8809 22.1497 29.9925 23.5198 28.9998 23.5198C27.988 23.5198 26.4597 22.3745 24.814 22.4083C22.6688 22.4776 20.669 23.6972 19.6254 25.5726C17.382 29.4568 19.0554 35.1652 21.2044 38.3049C22.2796 39.8423 23.5362 41.5596 25.1804 41.4987C26.7894 41.432 27.3904 40.4727 29.3325 40.4727C31.2567 40.4727 31.8205 41.4987 33.4981 41.46C35.2246 41.432 36.3124 39.9158 37.3499 38.3638C38.1224 37.2683 38.7169 36.0576 39.1113 34.7765C37.0823 33.9183 35.7273 31.8764 35.7249 29.6734Z" fill="white"/>
<path d="M32.5562 20.2894C33.4976 19.1593 33.9614 17.7067 33.8491 16.2402C32.4108 16.3913 31.0823 17.0787 30.1283 18.1654C29.1953 19.2272 28.7098 20.6541 28.8016 22.0646C30.2403 22.0794 31.6547 21.4107 32.5562 20.2894Z" fill="white"/>
<path d="M48.4301 23.0801H50.8001C53.0201 23.0801 54.6001 21.6501 54.6001 19.6401C54.6001 17.6301 53.0201 16.2101 50.8001 16.2101H48.4301V23.0801ZM49.4401 22.1601V17.1301H50.8601C52.4501 17.1301 53.5601 18.1701 53.5601 19.6401C53.5601 21.1201 52.4501 22.1601 50.8601 22.1601H49.4401ZM58.3472 23.2001C59.8172 23.2001 61.0572 21.9601 61.0572 20.4901C61.0572 19.0201 59.8172 17.7901 58.3472 17.7901C56.8672 17.7901 55.6172 19.0201 55.6172 20.4901C55.6172 21.9601 56.8672 23.2001 58.3472 23.2001ZM58.3472 22.3401C57.3972 22.3401 56.6072 21.5001 56.6072 20.4901C56.6072 19.4901 57.3972 18.6501 58.3472 18.6501C59.2772 18.6501 60.0672 19.4901 60.0672 20.4901C60.0672 21.5001 59.2772 22.3401 58.3472 22.3401ZM63.3108 23.0801H64.2208L65.4708 19.2401L66.7108 23.0801H67.6208L69.3608 17.9101H68.3508L67.1708 21.7601L65.8908 17.9101H65.0508L63.7708 21.7601L62.5808 17.9101H61.5708L63.3108 23.0801ZM72.9901 17.7901C72.2901 17.7901 71.6601 18.1501 71.3501 18.6601V17.9101H70.3601V23.0801H71.3501V19.7301C71.4301 19.1201 72.0501 18.6501 72.7701 18.6501C73.4701 18.6501 73.9601 19.1901 73.9601 19.9601V23.0801H74.9301V19.7901C74.9301 18.6201 74.1301 17.7901 72.9901 17.7901ZM76.3465 23.0801H77.3265V16.0901H76.3465V23.0801ZM81.2183 23.2001C82.6883 23.2001 83.9283 21.9601 83.9283 20.4901C83.9283 19.0201 82.6883 17.7901 81.2183 17.7901C79.7383 17.7901 78.4883 19.0201 78.4883 20.4901C78.4883 21.9601 79.7383 23.2001 81.2183 23.2001ZM81.2183 22.3401C80.2683 22.3401 79.4783 21.5001 79.4783 20.4901C79.4783 19.4901 80.2683 18.6501 81.2183 18.6501C82.1483 18.6501 82.9383 19.4901 82.9383 20.4901C82.9383 21.5001 82.1483 22.3401 81.2183 22.3401ZM87.2567 17.7901C86.6867 17.7901 86.0367 17.9401 85.2967 18.3101L85.6567 19.0401C86.1067 18.8101 86.6067 18.6101 87.1167 18.6101C88.1467 18.6101 88.4467 19.3001 88.4467 19.9501V20.1101C87.9467 19.9401 87.3967 19.8301 86.8867 19.8301C85.7467 19.8301 84.8167 20.5201 84.8167 21.5501C84.8167 22.5601 85.6267 23.2001 86.7267 23.2001C87.3567 23.2001 88.0667 22.9101 88.4467 22.3701V23.0801H89.4167V19.9501C89.4167 18.6701 88.6467 17.7901 87.2567 17.7901ZM86.9167 22.4201C86.2667 22.4201 85.7667 22.0801 85.7667 21.5201C85.7667 20.9601 86.3467 20.5701 87.0367 20.5701C87.5467 20.5701 88.0267 20.6401 88.4467 20.7701V21.4601C88.2767 22.1001 87.5567 22.4201 86.9167 22.4201ZM94.8284 16.0901V18.8001C94.4284 18.1701 93.7884 17.7901 92.9884 17.7901C91.6284 17.7901 90.6084 18.9101 90.6084 20.4901C90.6084 22.0801 91.6284 23.2001 92.9884 23.2001C93.7884 23.2001 94.4284 22.8201 94.8284 22.1801V23.0801H95.8084V16.0901H94.8284ZM93.2284 22.3401C92.2784 22.3401 91.6084 21.5701 91.6084 20.4901C91.6084 19.4101 92.2784 18.6501 93.2284 18.6501C94.1584 18.6501 94.8284 19.4101 94.8284 20.4901C94.8284 21.5701 94.1584 22.3401 93.2284 22.3401ZM102.605 23.2001C104.075 23.2001 105.315 21.9601 105.315 20.4901C105.315 19.0201 104.075 17.7901 102.605 17.7901C101.125 17.7901 99.8751 19.0201 99.8751 20.4901C99.8751 21.9601 101.125 23.2001 102.605 23.2001ZM102.605 22.3401C101.655 22.3401 100.865 21.5001 100.865 20.4901C100.865 19.4901 101.655 18.6501 102.605 18.6501C103.535 18.6501 104.325 19.4901 104.325 20.4901C104.325 21.5001 103.535 22.3401 102.605 22.3401ZM109.103 17.7901C108.403 17.7901 107.773 18.1501 107.463 18.6601V17.9101H106.473V23.0801H107.463V19.7301C107.543 19.1201 108.163 18.6501 108.883 18.6501C109.583 18.6501 110.073 19.1901 110.073 19.9601V23.0801H111.043V19.7901C111.043 18.6201 110.243 17.7901 109.103 17.7901ZM117.741 22.1501C117.631 22.2601 117.431 22.3401 117.211 22.3401C116.921 22.3401 116.681 22.0801 116.681 21.7201V18.7501H117.901V17.9101H116.681V16.4901H115.711V17.9101H114.931V18.7501H115.711V21.7901C115.711 22.6201 116.271 23.2001 117.071 23.2001C117.441 23.2001 117.821 23.0601 118.101 22.8301L117.741 22.1501ZM121.74 17.7901C121.03 17.7901 120.4 18.1601 120.09 18.6801V16.0901H119.11V23.0801H120.09V19.8701C120.09 19.2001 120.74 18.6501 121.52 18.6501C122.22 18.6501 122.71 19.1901 122.71 19.9601V23.0801H123.68V19.7901C123.68 18.6201 122.88 17.7901 121.74 17.7901ZM127.466 22.3201C126.576 22.3201 125.946 21.7001 125.816 20.8401H129.886C129.886 18.9901 128.976 17.7901 127.396 17.7901C125.966 17.7901 124.816 18.9301 124.816 20.4801C124.816 22.0701 126.036 23.2001 127.476 23.2001C128.206 23.2001 129.106 22.8901 129.566 22.4001L128.946 21.7601C128.636 22.0801 128.006 22.3201 127.466 22.3201ZM127.436 18.6701C128.326 18.6701 128.816 19.2501 128.926 20.0501H125.826C125.986 19.2101 126.636 18.6701 127.436 18.6701Z" fill="white"/>
<path d="M55.5681 37.6797H57.8921L53.9721 28.0617H51.6621L47.7421 37.6797H50.0521L50.6681 36.1677H54.9521L55.5681 37.6797ZM51.3821 34.4177L52.8101 30.9037L54.2381 34.4177H51.3821ZM63.4357 30.2737C62.4277 30.2737 61.5877 30.7077 61.0137 31.4497V30.4417H58.9697V40.0877H61.0137V36.6577C61.5877 37.4137 62.4277 37.8477 63.4357 37.8477C65.3677 37.8477 66.7677 36.2797 66.7677 34.0537C66.7677 31.8417 65.3677 30.2737 63.4357 30.2737ZM62.8477 36.1257C61.8537 36.1257 61.1257 35.3977 61.0137 34.3337V33.7737C61.1257 32.7237 61.8537 31.9957 62.8477 31.9957C63.9817 31.9957 64.7797 32.8497 64.7797 34.0537C64.7797 35.2717 63.9817 36.1257 62.8477 36.1257ZM72.6779 30.2737C71.6699 30.2737 70.8299 30.7077 70.2559 31.4497V30.4417H68.2119V40.0877H70.2559V36.6577C70.8299 37.4137 71.6699 37.8477 72.6779 37.8477C74.6099 37.8477 76.0099 36.2797 76.0099 34.0537C76.0099 31.8417 74.6099 30.2737 72.6779 30.2737ZM72.0899 36.1257C71.0959 36.1257 70.3679 35.3977 70.2559 34.3337V33.7737C70.3679 32.7237 71.0959 31.9957 72.0899 31.9957C73.2239 31.9957 74.0219 32.8497 74.0219 34.0537C74.0219 35.2717 73.2239 36.1257 72.0899 36.1257ZM85.0603 37.8477C87.4123 37.8477 88.7983 36.6297 88.7983 34.7957C88.7983 33.0177 87.4263 32.4017 85.3543 31.9397C83.8703 31.6037 83.2963 31.3797 83.2963 30.6797C83.2963 30.1057 83.8283 29.6437 84.7103 29.6437C85.6343 29.6437 86.6003 30.0217 87.4543 30.7077L88.5323 29.2237C87.5523 28.3837 86.3343 27.8937 84.7663 27.8937C82.6663 27.8937 81.2103 29.1117 81.2103 30.8897C81.2103 32.7517 82.6523 33.3257 84.6823 33.7877C86.1523 34.1237 86.7123 34.3337 86.7123 35.0197C86.7123 35.6217 86.1803 36.0977 85.1443 36.0977C83.9263 36.0977 82.8903 35.6217 81.9803 34.8377L80.7903 36.2517C81.9103 37.2877 83.3943 37.8477 85.0603 37.8477ZM94.0316 35.8877C93.8916 36.0277 93.6116 36.1257 93.3316 36.1257C92.9536 36.1257 92.6456 35.7897 92.6456 35.3137V32.0937H94.2136V30.4417H92.6456V28.4537H90.6856V30.4417H89.6916V32.0937H90.6856V35.6357C90.6856 36.9377 91.5816 37.8477 92.8556 37.8477C93.4436 37.8477 94.1016 37.5957 94.5216 37.2177L94.0316 35.8877ZM99.3578 37.8477C101.5 37.8477 103.292 36.1117 103.292 34.0537C103.292 31.9957 101.5 30.2737 99.3578 30.2737C97.2018 30.2737 95.3958 31.9957 95.3958 34.0537C95.3958 36.1117 97.2018 37.8477 99.3578 37.8477ZM99.3578 36.1257C98.2658 36.1257 97.3558 35.1737 97.3558 34.0537C97.3558 32.9337 98.2658 31.9957 99.3578 31.9957C100.436 31.9957 101.346 32.9337 101.346 34.0537C101.346 35.1737 100.436 36.1257 99.3578 36.1257ZM106.719 31.7857V30.4417H104.675V37.6797H106.719V34.2217C106.719 32.8637 107.685 31.9957 109.197 31.9957V30.2737C108.091 30.2737 107.195 30.8477 106.719 31.7857ZM113.792 36.0417C112.938 36.0417 112.308 35.5097 112.07 34.7257H117.292C117.292 31.9957 115.962 30.2737 113.694 30.2737C111.58 30.2737 109.97 31.8557 109.97 34.0397C109.97 36.2657 111.65 37.8477 113.806 37.8477C114.87 37.8477 116.116 37.3997 116.76 36.7277L115.458 35.3977C115.066 35.7757 114.366 36.0417 113.792 36.0417ZM113.778 32.0797C114.604 32.0797 115.136 32.5417 115.332 33.2557H112.098C112.364 32.5277 113.008 32.0797 113.778 32.0797Z" fill="white"/>
</svg>
