<svg width="100" height="46" viewBox="0 0 100 46" fill="none" xmlns="http://www.w3.org/2000/svg">
<path d="M17.3289 9.09389L9.25729 16.8233L17.3289 24.5527L25.4005 16.8233L17.3289 9.09389ZM11.8096 16.8233L17.3289 11.538L22.8482 16.8233L17.3289 22.1078L11.8096 16.8233ZM17.3289 9.09389L9.25729 16.8233L17.3289 24.5527L25.4005 16.8233L17.3289 9.09389ZM11.8096 16.8233L17.3289 11.538L22.8482 16.8233L17.3289 22.1078L11.8096 16.8233ZM17.3289 9.09389L9.25729 16.8233L17.3289 24.5527L25.4005 16.8233L17.3289 9.09389ZM11.8096 16.8233L17.3289 11.538L22.8482 16.8233L17.3289 22.1078L11.8096 16.8233ZM17.3289 9.09389L9.25729 16.8233L17.3289 24.5527L25.4005 16.8233L17.3289 9.09389ZM11.8096 16.8233L17.3289 11.538L22.8482 16.8233L17.3289 22.1078L11.8096 16.8233ZM17.3289 9.09389L9.25729 16.8233L17.3289 24.5527L25.4005 16.8233L17.3289 9.09389ZM11.8096 16.8233L17.3289 11.538L22.8482 16.8233L17.3289 22.1078L11.8096 16.8233ZM17.3289 9.09389L9.25729 16.8233L17.3289 24.5527L25.4005 16.8233L17.3289 9.09389ZM11.8096 16.8233L17.3289 11.538L22.8482 16.8233L17.3289 22.1078L11.8096 16.8233ZM17.3289 9.09389L9.25729 16.8233L17.3289 24.5527L25.4005 16.8233L17.3289 9.09389ZM11.8096 16.8233L17.3289 11.538L22.8482 16.8233L17.3289 22.1078L11.8096 16.8233ZM17.3289 9.09389L9.25729 16.8233L17.3289 24.5527L25.4005 16.8233L17.3289 9.09389ZM11.8096 16.8233L17.3289 11.538L22.8482 16.8233L17.3289 22.1078L11.8096 16.8233ZM34.831 15.0583C34.8159 14.9177 34.7991 14.7781 34.7809 14.6395C34.7417 14.3439 34.6947 14.051 34.6398 13.7608C34.6194 13.6542 34.5983 13.5484 34.5763 13.4434C34.5552 13.3428 34.5332 13.243 34.5105 13.1432C34.4878 13.0434 34.4658 12.9533 34.4423 12.8588C34.3953 12.6707 34.3449 12.4833 34.2911 12.2967C34.266 12.2097 34.2399 12.1226 34.2127 12.0356C34.1868 11.9515 34.1602 11.8675 34.1343 11.7842C34.1085 11.7009 34.0811 11.6221 34.056 11.5418C34.0309 11.4615 34.0019 11.3857 33.9776 11.3084C33.9254 11.1583 33.8684 11.007 33.8068 10.8544C32.9143 8.58275 31.5184 6.52329 29.715 4.8178C27.9117 3.11232 25.7438 1.80131 23.3607 0.975032L23.1256 0.894737L22.8725 0.816692C22.7863 0.789677 22.6993 0.762662 22.6123 0.737147C22.5253 0.711633 22.4321 0.684617 22.3419 0.662105C22.2518 0.639592 22.1484 0.608824 22.0512 0.587062C21.8475 0.534532 21.6421 0.484254 21.4353 0.436977C21.2184 0.386948 21.0001 0.342173 20.7801 0.302651C20.5999 0.269632 20.4189 0.238864 20.237 0.210348C20.0552 0.181832 19.8724 0.156818 19.6885 0.135306L19.4667 0.109791C19.3217 0.0932817 19.1752 0.0790236 19.0294 0.0670168C18.5138 0.0224915 17.9914 0.000228882 17.4621 0.000228882C16.9329 0.000228882 16.4105 0.0224915 15.8948 0.0670168C15.748 0.0800242 15.6023 0.0942823 15.4575 0.109791C15.3118 0.1263 15.166 0.14356 15.0211 0.163071C14.8996 0.179581 14.7789 0.19684 14.6582 0.215601C14.478 0.244117 14.2985 0.274885 14.1199 0.307903C13.902 0.348426 13.6849 0.393452 13.4702 0.441479C13.3699 0.463992 13.2696 0.488006 13.1693 0.512019C12.9757 0.559296 12.7829 0.608824 12.5925 0.662105C9.75856 1.45745 7.18054 2.92591 5.09803 4.931C3.01553 6.9361 1.49612 9.41277 0.680996 12.1309C0.62614 12.3155 0.573635 12.5001 0.524265 12.6869C0.499188 12.783 0.474895 12.8798 0.451385 12.9766C0.401232 13.183 0.35578 13.3916 0.313462 13.6009C0.245023 13.9451 0.187294 14.2928 0.140275 14.644C0.122512 14.7826 0.105795 14.9222 0.0901215 15.0628C-0.0300405 16.2035 -0.0300405 17.353 0.0901215 18.4937C0.105795 18.6343 0.122512 18.7739 0.140275 18.9125C0.187294 19.2627 0.245023 19.6104 0.313462 19.9556C0.35578 20.1649 0.401232 20.3735 0.451385 20.5799C0.474895 20.6767 0.499188 20.7735 0.524265 20.8696C0.572851 21.0564 0.625356 21.241 0.680996 21.4256C1.49612 24.1437 3.01553 26.6204 5.09803 28.6255C7.18054 30.6306 9.75856 32.099 12.5925 32.8944V32.8944C12.7829 32.9484 12.9757 32.998 13.1693 33.0445C13.2696 33.0685 13.3699 33.0925 13.4702 33.115C13.6849 33.1631 13.902 33.2081 14.1199 33.2486C14.2985 33.2816 14.478 33.3124 14.6582 33.3409C14.7789 33.3597 14.8996 33.3769 15.0211 33.3934C15.166 33.4129 15.3118 33.4302 15.4575 33.4467C15.6033 33.4632 15.7483 33.4767 15.8948 33.4895C16.4105 33.5335 16.9329 33.5558 17.4621 33.5563C17.9914 33.5568 18.5138 33.5345 19.0294 33.4895C19.1752 33.477 19.321 33.4627 19.4667 33.4467L19.6885 33.4212C19.8724 33.3987 20.0552 33.3737 20.237 33.3462C20.4189 33.3186 20.5999 33.2879 20.7801 33.2539C20.9995 33.2133 21.2179 33.1686 21.4353 33.1195C21.6421 33.073 21.8475 33.0227 22.0512 32.9694C22.1484 32.9439 22.2456 32.9177 22.3419 32.8906C22.4383 32.8636 22.5222 32.8396 22.6123 32.8156C22.7024 32.7916 22.7863 32.7631 22.8725 32.7361L23.1232 32.6558L23.3583 32.5755C25.7408 31.7489 27.908 30.4378 29.7108 28.7325C31.5135 27.0272 32.9091 24.9681 33.8013 22.6969C33.8603 22.5468 33.9173 22.3954 33.9721 22.2429C33.9996 22.1678 34.027 22.0875 34.0505 22.0095C34.074 21.9314 34.1046 21.8481 34.1289 21.7671C34.1532 21.686 34.1821 21.5997 34.2072 21.5157C34.2323 21.4316 34.2597 21.3416 34.2856 21.2545C34.3378 21.0684 34.3882 20.8811 34.4368 20.6925C34.4603 20.5979 34.4831 20.5034 34.505 20.4081C34.527 20.3128 34.5497 20.2084 34.5708 20.1079C34.592 20.0073 34.6139 19.897 34.6343 19.7905C34.6892 19.4998 34.7362 19.2069 34.7754 18.9117C34.7942 18.7731 34.8109 18.6336 34.8255 18.493C34.9457 17.3522 34.9457 16.2028 34.8255 15.062L34.831 15.0583ZM33.0639 15.5325L18.6878 1.76523C26.3229 2.3363 32.4385 8.19863 33.0639 15.5318V15.5325ZM17.3289 30.7369L2.79764 16.8218L17.3289 2.90738L23.4312 8.7517C21.2564 7.24841 18.5512 6.62492 15.9003 7.01596C15.7679 7.03547 15.6362 7.05723 15.5085 7.082C15.4427 7.094 15.3776 7.10676 15.3126 7.12027C15.1417 7.15554 14.9717 7.19531 14.804 7.23809L14.6473 7.28011C14.5477 7.30788 14.449 7.33639 14.351 7.36641C14.2531 7.39643 14.1677 7.42419 14.0768 7.45496C13.9859 7.48573 13.9075 7.51349 13.8236 7.54426C13.7453 7.57428 13.6614 7.60504 13.5807 7.63656C11.1643 8.5951 9.21911 10.398 8.1398 12.6794C8.10375 12.7545 8.06927 12.8295 8.03479 12.9046C8.00031 12.9796 7.96113 13.0749 7.92586 13.1604C7.88825 13.2513 7.8522 13.3436 7.81772 13.4366C7.78324 13.5297 7.74719 13.6325 7.71349 13.7315L7.66177 13.8906C7.62729 14.0002 7.59438 14.1112 7.56382 14.2223C7.52934 14.3444 7.49773 14.4679 7.46899 14.593C7.45489 14.6553 7.44078 14.7176 7.42746 14.7806C7.41884 14.8211 7.411 14.8609 7.40238 14.9014C7.37809 15.0215 7.35615 15.1423 7.33734 15.2646C7.31853 15.387 7.30051 15.5115 7.28562 15.6399C7.27622 15.7217 7.2676 15.8042 7.25976 15.8867C7.23312 16.1779 7.21901 16.4736 7.21901 16.7715C7.21901 17.0694 7.23312 17.3651 7.25976 17.6562C7.2676 17.7388 7.27622 17.8213 7.28562 17.9039C7.30051 18.0277 7.31775 18.1515 7.33734 18.2746C7.35693 18.3977 7.37809 18.5177 7.40238 18.6378C7.411 18.6783 7.41884 18.7181 7.42746 18.7586C7.44078 18.8217 7.45489 18.8839 7.46899 18.9462C7.49825 19.0708 7.52986 19.1944 7.56382 19.3169C7.60927 19.4813 7.65942 19.6434 7.71271 19.804C7.77488 19.9881 7.84201 20.1697 7.91411 20.3488L7.96426 20.4703C8.02957 20.6239 8.09801 20.7758 8.16958 20.9259C8.20014 20.9896 8.23227 21.0527 8.26362 21.1157C8.32396 21.2335 8.38665 21.3506 8.45091 21.4654C8.51517 21.5802 8.57081 21.6733 8.63272 21.7753C9.53692 23.255 10.8279 24.4838 12.3786 25.3406C12.4319 25.3699 12.4852 25.3991 12.5392 25.4277L12.7187 25.5207C12.7829 25.553 12.848 25.5845 12.913 25.616C13.0517 25.6821 13.1928 25.7458 13.3346 25.8066C13.413 25.8396 13.4914 25.8727 13.5697 25.9042C13.6481 25.9357 13.7374 25.9687 13.8221 26.0002C13.9153 26.0348 14.0094 26.0678 14.1034 26.0993L14.2695 26.1533C14.5459 26.2404 14.8278 26.3154 15.1151 26.3785C15.2444 26.4077 15.3745 26.434 15.5069 26.4587C15.6394 26.4835 15.7687 26.5053 15.8987 26.5248C16.9329 26.6769 17.9851 26.6769 19.0193 26.5248C19.189 26.4998 19.3575 26.4708 19.5247 26.4377L19.5459 26.4332C19.5981 26.4237 19.6483 26.4132 19.6963 26.4017C19.7943 26.3807 19.8907 26.3582 19.9878 26.3349C20.085 26.3117 20.1681 26.2891 20.2574 26.2651C21.5726 25.9067 22.7987 25.2977 23.8622 24.4746L17.3289 30.7369ZM17.4606 24.9174C12.8065 24.9174 9.02063 21.2635 9.02063 16.773C9.02063 12.2825 12.8065 8.62938 17.4606 8.62938C22.1147 8.62938 25.9005 12.2825 25.9005 16.773C25.9005 21.2635 22.1147 24.9174 17.4606 24.9174V24.9174ZM26.9945 20.3878C27.0509 20.2507 27.1032 20.1119 27.1512 19.9713C27.1794 19.8918 27.2069 19.8122 27.2296 19.7319C27.2296 19.7319 27.2296 19.7319 27.2296 19.7282C27.2562 19.6456 27.2821 19.5623 27.3079 19.479C27.3205 19.4363 27.333 19.3942 27.3448 19.3515C27.3448 19.3515 27.3448 19.3515 27.3448 19.347C27.3714 19.2509 27.3965 19.1549 27.4231 19.0573C27.4498 18.9597 27.4702 18.8599 27.4913 18.7571C27.4999 18.7166 27.5078 18.6768 27.5164 18.6363C27.5407 18.5162 27.5626 18.3954 27.5814 18.2731C27.6002 18.1508 27.6183 18.0262 27.6332 17.9024C27.6426 17.8198 27.6512 17.7373 27.659 17.6547C27.6857 17.3636 27.6998 17.0679 27.6998 16.77C27.6998 16.4721 27.6857 16.1764 27.659 15.8852C27.6512 15.8027 27.6426 15.7202 27.6332 15.6384C27.618 15.5138 27.6008 15.3887 27.5814 15.2631C27.5626 15.1408 27.5407 15.02 27.5164 14.8999C27.5078 14.8594 27.4999 14.8196 27.4913 14.7791C27.4631 14.647 27.4318 14.515 27.3989 14.3851C27.3761 14.2981 27.3526 14.2118 27.3275 14.1255C27.3064 14.0505 27.2852 13.9807 27.2625 13.9086C27.2398 13.8366 27.2163 13.7653 27.192 13.694C27.1677 13.6227 27.1489 13.5694 27.1269 13.5079C26.7988 12.5989 26.3325 11.7411 25.743 10.9625L31.8555 16.8158L25.4115 22.9865C26.0753 22.2032 26.6092 21.3267 26.9945 20.3878V20.3878ZM15.945 1.79225L1.88077 15.2549C2.62681 8.14385 8.54182 2.47588 15.945 1.79225ZM1.89487 18.3999L15.8298 31.7462C8.51831 31.0161 2.68323 25.4247 1.89487 18.3999ZM18.799 31.7725L33.0545 18.1208C32.3821 25.3691 26.3448 31.1557 18.799 31.7725V31.7725ZM9.25886 16.8225L17.3305 24.5519L25.4021 16.8225L17.3305 9.09314L9.25886 16.8225ZM17.3305 22.107L11.8096 16.8225L17.3289 11.5373L22.8482 16.8225L17.3305 22.107ZM17.3305 9.09389L9.25886 16.8233L17.3305 24.5527L25.4021 16.8233L17.3305 9.09389ZM11.8112 16.8233L17.3305 11.538L22.8497 16.8233L17.3305 22.1078L11.8112 16.8233ZM17.3305 9.09389L9.25886 16.8233L17.3305 24.5527L25.4021 16.8233L17.3305 9.09389ZM11.8112 16.8233L17.3305 11.538L22.8497 16.8233L17.3305 22.1078L11.8112 16.8233ZM17.3305 9.09389L9.25886 16.8233L17.3305 24.5527L25.4021 16.8233L17.3305 9.09389ZM11.8112 16.8233L17.3305 11.538L22.8497 16.8233L17.3305 22.1078L11.8112 16.8233ZM17.3305 9.09389L9.25886 16.8233L17.3305 24.5527L25.4021 16.8233L17.3305 9.09389ZM11.8112 16.8233L17.3305 11.538L22.8497 16.8233L17.3305 22.1078L11.8112 16.8233ZM17.3305 9.09389L9.25886 16.8233L17.3305 24.5527L25.4021 16.8233L17.3305 9.09389ZM11.8112 16.8233L17.3305 11.538L22.8497 16.8233L17.3305 22.1078L11.8112 16.8233ZM17.3305 9.09389L9.25886 16.8233L17.3305 24.5527L25.4021 16.8233L17.3305 9.09389ZM11.8112 16.8233L17.3305 11.538L22.8497 16.8233L17.3305 22.1078L11.8112 16.8233Z" fill="#182D5D"/>
<path d="M17.3289 9.09389L9.25729 16.8233L17.3289 24.5527L25.4005 16.8233L17.3289 9.09389ZM11.8096 16.8233L17.3289 11.538L22.8482 16.8233L17.3289 22.1078L11.8096 16.8233ZM17.3289 9.09389L9.25729 16.8233L17.3289 24.5527L25.4005 16.8233L17.3289 9.09389ZM11.8096 16.8233L17.3289 11.538L22.8482 16.8233L17.3289 22.1078L11.8096 16.8233ZM17.3289 9.09389L9.25729 16.8233L17.3289 24.5527L25.4005 16.8233L17.3289 9.09389ZM11.8096 16.8233L17.3289 11.538L22.8482 16.8233L17.3289 22.1078L11.8096 16.8233ZM17.3289 9.09389L9.25729 16.8233L17.3289 24.5527L25.4005 16.8233L17.3289 9.09389ZM11.8096 16.8233L17.3289 11.538L22.8482 16.8233L17.3289 22.1078L11.8096 16.8233ZM17.3289 9.09389L9.25729 16.8233L17.3289 24.5527L25.4005 16.8233L17.3289 9.09389ZM11.8096 16.8233L17.3289 11.538L22.8482 16.8233L17.3289 22.1078L11.8096 16.8233ZM17.3289 9.09389L9.25729 16.8233L17.3289 24.5527L25.4005 16.8233L17.3289 9.09389ZM11.8096 16.8233L17.3289 11.538L22.8482 16.8233L17.3289 22.1078L11.8096 16.8233ZM17.3289 9.09389L9.25729 16.8233L17.3289 24.5527L25.4005 16.8233L17.3289 9.09389ZM11.8096 16.8233L17.3289 11.538L22.8482 16.8233L17.3289 22.1078L11.8096 16.8233ZM17.3289 9.09389L9.25729 16.8233L17.3289 24.5527L25.4005 16.8233L17.3289 9.09389ZM11.8096 16.8233L17.3289 11.538L22.8482 16.8233L17.3289 22.1078L11.8096 16.8233ZM34.831 15.0583C34.8159 14.9177 34.7991 14.7781 34.7809 14.6395C34.7417 14.3439 34.6947 14.051 34.6398 13.7608C34.6194 13.6542 34.5983 13.5484 34.5763 13.4434C34.5552 13.3428 34.5332 13.243 34.5105 13.1432C34.4878 13.0434 34.4658 12.9533 34.4423 12.8588C34.3953 12.6707 34.3449 12.4833 34.2911 12.2967C34.266 12.2097 34.2399 12.1226 34.2127 12.0356C34.1868 11.9515 34.1602 11.8675 34.1343 11.7842C34.1085 11.7009 34.0811 11.6221 34.056 11.5418C34.0309 11.4615 34.0019 11.3857 33.9776 11.3084C33.9254 11.1583 33.8684 11.007 33.8068 10.8544C32.9143 8.58275 31.5184 6.52329 29.715 4.8178C27.9117 3.11232 25.7438 1.80131 23.3607 0.975032L23.1256 0.894737L22.8725 0.816692C22.7863 0.789677 22.6993 0.762662 22.6123 0.737147C22.5253 0.711633 22.4321 0.684617 22.3419 0.662105C22.2518 0.639592 22.1484 0.608824 22.0512 0.587062C21.8475 0.534532 21.6421 0.484254 21.4353 0.436977C21.2184 0.386948 21.0001 0.342173 20.7801 0.302651C20.5999 0.269632 20.4189 0.238864 20.237 0.210348C20.0552 0.181832 19.8724 0.156818 19.6885 0.135306L19.4667 0.109791C19.3217 0.0932817 19.1752 0.0790236 19.0294 0.0670168C18.5138 0.0224915 17.9914 0.000228882 17.4621 0.000228882C16.9329 0.000228882 16.4105 0.0224915 15.8948 0.0670168C15.748 0.0800242 15.6023 0.0942823 15.4575 0.109791C15.3118 0.1263 15.166 0.14356 15.0211 0.163071C14.8996 0.179581 14.7789 0.19684 14.6582 0.215601C14.478 0.244117 14.2985 0.274885 14.1199 0.307903C13.902 0.348426 13.6849 0.393452 13.4702 0.441479C13.3699 0.463992 13.2696 0.488006 13.1693 0.512019C12.9757 0.559296 12.7829 0.608824 12.5925 0.662105C9.75856 1.45745 7.18054 2.92591 5.09803 4.931C3.01553 6.9361 1.49612 9.41277 0.680996 12.1309C0.62614 12.3155 0.573635 12.5001 0.524265 12.6869C0.499188 12.783 0.474895 12.8798 0.451385 12.9766C0.401232 13.183 0.35578 13.3916 0.313462 13.6009C0.245023 13.9451 0.187294 14.2928 0.140275 14.644C0.122512 14.7826 0.105795 14.9222 0.0901215 15.0628C-0.0300405 16.2035 -0.0300405 17.353 0.0901215 18.4937C0.105795 18.6343 0.122512 18.7739 0.140275 18.9125C0.187294 19.2627 0.245023 19.6104 0.313462 19.9556C0.35578 20.1649 0.401232 20.3735 0.451385 20.5799C0.474895 20.6767 0.499188 20.7735 0.524265 20.8696C0.572851 21.0564 0.625356 21.241 0.680996 21.4256C1.49612 24.1437 3.01553 26.6204 5.09803 28.6255C7.18054 30.6306 9.75856 32.099 12.5925 32.8944V32.8944C12.7829 32.9484 12.9757 32.998 13.1693 33.0445C13.2696 33.0685 13.3699 33.0925 13.4702 33.115C13.6849 33.1631 13.902 33.2081 14.1199 33.2486C14.2985 33.2816 14.478 33.3124 14.6582 33.3409C14.7789 33.3597 14.8996 33.3769 15.0211 33.3934C15.166 33.4129 15.3118 33.4302 15.4575 33.4467C15.6033 33.4632 15.7483 33.4767 15.8948 33.4895C16.4105 33.5335 16.9329 33.5558 17.4621 33.5563C17.9914 33.5568 18.5138 33.5345 19.0294 33.4895C19.1752 33.477 19.321 33.4627 19.4667 33.4467L19.6885 33.4212C19.8724 33.3987 20.0552 33.3737 20.237 33.3462C20.4189 33.3186 20.5999 33.2879 20.7801 33.2539C20.9995 33.2133 21.2179 33.1686 21.4353 33.1195C21.6421 33.073 21.8475 33.0227 22.0512 32.9694C22.1484 32.9439 22.2456 32.9177 22.3419 32.8906C22.4383 32.8636 22.5222 32.8396 22.6123 32.8156C22.7024 32.7916 22.7863 32.7631 22.8725 32.7361L23.1232 32.6558L23.3583 32.5755C25.7408 31.7489 27.908 30.4378 29.7108 28.7325C31.5135 27.0272 32.9091 24.9681 33.8013 22.6969C33.8603 22.5468 33.9173 22.3954 33.9721 22.2429C33.9996 22.1678 34.027 22.0875 34.0505 22.0095C34.074 21.9314 34.1046 21.8481 34.1289 21.7671C34.1532 21.686 34.1821 21.5997 34.2072 21.5157C34.2323 21.4316 34.2597 21.3416 34.2856 21.2545C34.3378 21.0684 34.3882 20.8811 34.4368 20.6925C34.4603 20.5979 34.4831 20.5034 34.505 20.4081C34.527 20.3128 34.5497 20.2084 34.5708 20.1079C34.592 20.0073 34.6139 19.897 34.6343 19.7905C34.6892 19.4998 34.7362 19.2069 34.7754 18.9117C34.7942 18.7731 34.8109 18.6336 34.8255 18.493C34.9457 17.3522 34.9457 16.2028 34.8255 15.062L34.831 15.0583ZM33.0639 15.5325L18.6878 1.76523C26.3229 2.3363 32.4385 8.19863 33.0639 15.5318V15.5325ZM17.3289 30.7369L2.79764 16.8218L17.3289 2.90738L23.4312 8.7517C21.2564 7.24841 18.5512 6.62492 15.9003 7.01596C15.7679 7.03547 15.6362 7.05723 15.5085 7.082C15.4427 7.094 15.3776 7.10676 15.3126 7.12027C15.1417 7.15554 14.9717 7.19531 14.804 7.23809L14.6473 7.28011C14.5477 7.30788 14.449 7.33639 14.351 7.36641C14.2531 7.39643 14.1677 7.42419 14.0768 7.45496C13.9859 7.48573 13.9075 7.51349 13.8236 7.54426C13.7453 7.57428 13.6614 7.60504 13.5807 7.63656C11.1643 8.5951 9.21911 10.398 8.1398 12.6794C8.10375 12.7545 8.06927 12.8295 8.03479 12.9046C8.00031 12.9796 7.96113 13.0749 7.92586 13.1604C7.88825 13.2513 7.8522 13.3436 7.81772 13.4366C7.78324 13.5297 7.74719 13.6325 7.71349 13.7315L7.66177 13.8906C7.62729 14.0002 7.59438 14.1112 7.56382 14.2223C7.52934 14.3444 7.49773 14.4679 7.46899 14.593C7.45489 14.6553 7.44078 14.7176 7.42746 14.7806C7.41884 14.8211 7.411 14.8609 7.40238 14.9014C7.37809 15.0215 7.35615 15.1423 7.33734 15.2646C7.31853 15.387 7.30051 15.5115 7.28562 15.6399C7.27622 15.7217 7.2676 15.8042 7.25976 15.8867C7.23312 16.1779 7.21901 16.4736 7.21901 16.7715C7.21901 17.0694 7.23312 17.3651 7.25976 17.6562C7.2676 17.7388 7.27622 17.8213 7.28562 17.9039C7.30051 18.0277 7.31775 18.1515 7.33734 18.2746C7.35693 18.3977 7.37809 18.5177 7.40238 18.6378C7.411 18.6783 7.41884 18.7181 7.42746 18.7586C7.44078 18.8217 7.45489 18.8839 7.46899 18.9462C7.49825 19.0708 7.52986 19.1944 7.56382 19.3169C7.60927 19.4813 7.65942 19.6434 7.71271 19.804C7.77488 19.9881 7.84201 20.1697 7.91411 20.3488L7.96426 20.4703C8.02957 20.6239 8.09801 20.7758 8.16958 20.9259C8.20014 20.9896 8.23227 21.0527 8.26362 21.1157C8.32396 21.2335 8.38665 21.3506 8.45091 21.4654C8.51517 21.5802 8.57081 21.6733 8.63272 21.7753C9.53692 23.255 10.8279 24.4838 12.3786 25.3406C12.4319 25.3699 12.4852 25.3991 12.5392 25.4277L12.7187 25.5207C12.7829 25.553 12.848 25.5845 12.913 25.616C13.0517 25.6821 13.1928 25.7458 13.3346 25.8066C13.413 25.8396 13.4914 25.8727 13.5697 25.9042C13.6481 25.9357 13.7374 25.9687 13.8221 26.0002C13.9153 26.0348 14.0094 26.0678 14.1034 26.0993L14.2695 26.1533C14.5459 26.2404 14.8278 26.3154 15.1151 26.3785C15.2444 26.4077 15.3745 26.434 15.5069 26.4587C15.6394 26.4835 15.7687 26.5053 15.8987 26.5248C16.9329 26.6769 17.9851 26.6769 19.0193 26.5248C19.189 26.4998 19.3575 26.4708 19.5247 26.4377L19.5459 26.4332C19.5981 26.4237 19.6483 26.4132 19.6963 26.4017C19.7943 26.3807 19.8907 26.3582 19.9878 26.3349C20.085 26.3117 20.1681 26.2891 20.2574 26.2651C21.5726 25.9067 22.7987 25.2977 23.8622 24.4746L17.3289 30.7369ZM17.4606 24.9174C12.8065 24.9174 9.02063 21.2635 9.02063 16.773C9.02063 12.2825 12.8065 8.62938 17.4606 8.62938C22.1147 8.62938 25.9005 12.2825 25.9005 16.773C25.9005 21.2635 22.1147 24.9174 17.4606 24.9174V24.9174ZM26.9945 20.3878C27.0509 20.2507 27.1032 20.1119 27.1512 19.9713C27.1794 19.8918 27.2069 19.8122 27.2296 19.7319C27.2296 19.7319 27.2296 19.7319 27.2296 19.7282C27.2562 19.6456 27.2821 19.5623 27.3079 19.479C27.3205 19.4363 27.333 19.3942 27.3448 19.3515C27.3448 19.3515 27.3448 19.3515 27.3448 19.347C27.3714 19.2509 27.3965 19.1549 27.4231 19.0573C27.4498 18.9597 27.4702 18.8599 27.4913 18.7571C27.4999 18.7166 27.5078 18.6768 27.5164 18.6363C27.5407 18.5162 27.5626 18.3954 27.5814 18.2731C27.6002 18.1508 27.6183 18.0262 27.6332 17.9024C27.6426 17.8198 27.6512 17.7373 27.659 17.6547C27.6857 17.3636 27.6998 17.0679 27.6998 16.77C27.6998 16.4721 27.6857 16.1764 27.659 15.8852C27.6512 15.8027 27.6426 15.7202 27.6332 15.6384C27.618 15.5138 27.6008 15.3887 27.5814 15.2631C27.5626 15.1408 27.5407 15.02 27.5164 14.8999C27.5078 14.8594 27.4999 14.8196 27.4913 14.7791C27.4631 14.647 27.4318 14.515 27.3989 14.3851C27.3761 14.2981 27.3526 14.2118 27.3275 14.1255C27.3064 14.0505 27.2852 13.9807 27.2625 13.9086C27.2398 13.8366 27.2163 13.7653 27.192 13.694C27.1677 13.6227 27.1489 13.5694 27.1269 13.5079C26.7988 12.5989 26.3325 11.7411 25.743 10.9625L31.8555 16.8158L25.4115 22.9865C26.0753 22.2032 26.6092 21.3267 26.9945 20.3878V20.3878ZM15.945 1.79225L1.88077 15.2549C2.62681 8.14385 8.54182 2.47588 15.945 1.79225ZM1.89487 18.3999L15.8298 31.7462C8.51831 31.0161 2.68323 25.4247 1.89487 18.3999ZM18.799 31.7725L33.0545 18.1208C32.3821 25.3691 26.3448 31.1557 18.799 31.7725V31.7725ZM9.25886 16.8225L17.3305 24.5519L25.4021 16.8225L17.3305 9.09314L9.25886 16.8225ZM17.3305 22.107L11.8096 16.8225L17.3289 11.5373L22.8482 16.8225L17.3305 22.107ZM17.3305 9.09389L9.25886 16.8233L17.3305 24.5527L25.4021 16.8233L17.3305 9.09389ZM11.8112 16.8233L17.3305 11.538L22.8497 16.8233L17.3305 22.1078L11.8112 16.8233ZM17.3305 9.09389L9.25886 16.8233L17.3305 24.5527L25.4021 16.8233L17.3305 9.09389ZM11.8112 16.8233L17.3305 11.538L22.8497 16.8233L17.3305 22.1078L11.8112 16.8233ZM17.3305 9.09389L9.25886 16.8233L17.3305 24.5527L25.4021 16.8233L17.3305 9.09389ZM11.8112 16.8233L17.3305 11.538L22.8497 16.8233L17.3305 22.1078L11.8112 16.8233ZM17.3305 9.09389L9.25886 16.8233L17.3305 24.5527L25.4021 16.8233L17.3305 9.09389ZM11.8112 16.8233L17.3305 11.538L22.8497 16.8233L17.3305 22.1078L11.8112 16.8233ZM17.3305 9.09389L9.25886 16.8233L17.3305 24.5527L25.4021 16.8233L17.3305 9.09389ZM11.8112 16.8233L17.3305 11.538L22.8497 16.8233L17.3305 22.1078L11.8112 16.8233ZM17.3305 9.09389L9.25886 16.8233L17.3305 24.5527L25.4021 16.8233L17.3305 9.09389ZM11.8112 16.8233L17.3305 11.538L22.8497 16.8233L17.3305 22.1078L11.8112 16.8233Z" fill="#182D5D"/>
<path d="M34.831 15.0575C34.8153 14.9169 34.7986 14.7774 34.7809 14.6388C34.7417 14.3431 34.6947 14.0502 34.6398 13.76C34.6194 13.6535 34.5983 13.5477 34.5763 13.4426C34.5552 13.3421 34.5332 13.2422 34.5105 13.1424C34.4878 13.0426 34.4658 12.9526 34.4423 12.858C34.3953 12.6697 34.3444 12.4828 34.2911 12.296C34.266 12.2089 34.2399 12.1219 34.2127 12.0348C34.1868 11.9508 34.1602 11.8667 34.1343 11.7834C34.1085 11.7001 34.0811 11.6213 34.056 11.541C34.0309 11.4607 34.0019 11.3849 33.9776 11.3076C33.9254 11.1576 33.8684 11.0062 33.8068 10.8536C32.9105 8.58418 31.5132 6.52672 29.7104 4.82183C27.9076 3.11694 25.7417 1.80479 23.3607 0.975032L23.1256 0.894737L22.8725 0.816692C22.7863 0.789677 22.6993 0.762662 22.6123 0.737147C22.5253 0.711633 22.4321 0.684617 22.3419 0.662105C22.2518 0.639592 22.1484 0.608824 22.0512 0.587062C21.8475 0.534532 21.6421 0.484254 21.4353 0.436977C21.2184 0.386948 21.0001 0.342173 20.7801 0.302651C20.5999 0.269632 20.4189 0.238864 20.237 0.210348C20.0552 0.181832 19.8724 0.156818 19.6885 0.135306L19.4667 0.109791C19.321 0.0942823 19.1752 0.0800242 19.0294 0.0670168C18.5138 0.0224915 17.9914 0.000228882 17.4621 0.000228882C16.9329 0.000228882 16.4105 0.0224915 15.8948 0.0670168C15.748 0.0800242 15.6023 0.0942823 15.4575 0.109791C15.3118 0.1263 15.166 0.14356 15.0211 0.163071C14.8996 0.179581 14.7789 0.19684 14.6582 0.215601C14.478 0.244117 14.2985 0.274885 14.1199 0.307903C13.902 0.348426 13.6849 0.393452 13.4702 0.441479C13.3699 0.463992 13.2696 0.488006 13.1693 0.512019C12.9757 0.559296 12.7829 0.609575 12.5925 0.662105C9.76095 1.46191 7.1854 2.93187 5.10359 4.9363C3.02178 6.94073 1.50078 9.41504 0.680996 12.1309C0.62614 12.3155 0.573635 12.5001 0.524265 12.6869C0.499188 12.783 0.474895 12.8798 0.451385 12.9766C0.401232 13.183 0.35578 13.3916 0.313462 13.6009C0.245023 13.9451 0.187294 14.2928 0.140275 14.644C0.122512 14.7826 0.105795 14.9222 0.0901215 15.0628C-0.0300405 16.2035 -0.0300405 17.353 0.0901215 18.4937C0.105795 18.6343 0.122512 18.7739 0.140275 18.9125C0.187294 19.2627 0.245023 19.6104 0.313462 19.9556C0.35578 20.1649 0.401232 20.3735 0.451385 20.5799C0.474895 20.6767 0.499188 20.7735 0.524265 20.8696C0.572851 21.0564 0.625356 21.241 0.680996 21.4256C1.50078 24.1415 3.02178 26.6158 5.10359 28.6202C7.1854 30.6246 9.76095 32.0946 12.5925 32.8944V32.8944C12.7829 32.9477 12.9757 32.998 13.1693 33.0445C13.2696 33.0685 13.3699 33.0925 13.4702 33.115C13.6849 33.1631 13.902 33.2081 14.1199 33.2486C14.2985 33.2816 14.478 33.3124 14.6582 33.3409C14.7789 33.3597 14.8996 33.3769 15.0211 33.3934C15.166 33.4129 15.3118 33.4302 15.4575 33.4467C15.6033 33.4632 15.7483 33.4767 15.8948 33.4895C16.4105 33.5335 16.9329 33.5558 17.4621 33.5563C17.9914 33.5568 18.5138 33.5345 19.0294 33.4895C19.1752 33.477 19.321 33.4627 19.4667 33.4467L19.6885 33.4212C19.8724 33.3987 20.0552 33.3737 20.237 33.3462C20.4189 33.3186 20.5999 33.2879 20.7801 33.2539C20.9995 33.2133 21.2179 33.1686 21.4353 33.1195C21.6421 33.073 21.8475 33.0227 22.0512 32.9694C22.1484 32.9439 22.2456 32.9177 22.3419 32.8906C22.4383 32.8636 22.5222 32.8396 22.6123 32.8156C22.7024 32.7916 22.7863 32.7631 22.8725 32.7361L23.1232 32.6558L23.3583 32.5755C25.7388 31.7453 27.904 30.433 29.7063 28.7282C31.5086 27.0233 32.9054 24.966 33.8013 22.6969C33.8603 22.5468 33.9173 22.3954 33.9721 22.2429C33.9996 22.1678 34.027 22.0875 34.0505 22.0095C34.074 21.9314 34.1046 21.8481 34.1289 21.7671C34.1532 21.686 34.1821 21.5997 34.2072 21.5157C34.2323 21.4316 34.2597 21.3416 34.2856 21.2545C34.3389 21.0684 34.3898 20.8793 34.4368 20.6925C34.4603 20.5979 34.4831 20.5034 34.505 20.4081C34.527 20.3128 34.5497 20.2084 34.5708 20.1079C34.592 20.0073 34.6139 19.897 34.6343 19.7905C34.6892 19.4998 34.7362 19.2069 34.7754 18.9117C34.7937 18.7731 34.8104 18.6336 34.8255 18.493C34.9457 17.3522 34.9457 16.2028 34.8255 15.062L34.831 15.0575ZM18.799 31.7725C18.3581 31.8085 17.9119 31.8268 17.4606 31.8273C16.9159 31.8273 16.3716 31.8002 15.8298 31.7462C8.51831 31.0161 2.68323 25.4247 1.89487 18.3999C1.77695 17.3548 1.77222 16.3009 1.88077 15.2549C2.62681 8.14385 8.54182 2.47588 15.945 1.79225C16.4429 1.74222 16.9481 1.7172 17.4606 1.7172C17.8738 1.7172 18.2829 1.73271 18.6878 1.76373C26.3229 2.3348 32.4385 8.19713 33.0639 15.5303C33.0984 15.939 33.1159 16.3528 33.1164 16.7715C33.1164 17.2258 33.0957 17.676 33.0545 18.1223C32.3821 25.3691 26.3448 31.1557 18.799 31.7725Z" fill="#182D5D"/>
<path d="M17.3282 9.09434L9.25653 16.8237L17.3282 24.5531L25.3998 16.8237L17.3282 9.09434ZM11.8089 16.8237L17.3282 11.5385L22.8474 16.8237L17.3282 22.1082L11.8089 16.8237ZM17.3282 9.09434L9.25653 16.8237L17.3282 24.5531L25.3998 16.8237L17.3282 9.09434ZM11.8089 16.8237L17.3282 11.5385L22.8474 16.8237L17.3282 22.1082L11.8089 16.8237ZM17.3282 9.09434L9.25653 16.8237L17.3282 24.5531L25.3998 16.8237L17.3282 9.09434ZM11.8089 16.8237L17.3282 11.5385L22.8474 16.8237L17.3282 22.1082L11.8089 16.8237ZM17.3282 9.09434L9.25653 16.8237L17.3282 24.5531L25.3998 16.8237L17.3282 9.09434ZM11.8089 16.8237L17.3282 11.5385L22.8474 16.8237L17.3282 22.1082L11.8089 16.8237ZM17.3282 9.09434L9.25653 16.8237L17.3282 24.5531L25.3998 16.8237L17.3282 9.09434ZM11.8089 16.8237L17.3282 11.5385L22.8474 16.8237L17.3282 22.1082L11.8089 16.8237ZM17.3282 9.09434L9.25653 16.8237L17.3282 24.5531L25.3998 16.8237L17.3282 9.09434ZM11.8089 16.8237L17.3282 11.5385L22.8474 16.8237L17.3282 22.1082L11.8089 16.8237ZM17.3282 9.09434L9.25653 16.8237L17.3282 24.5531L25.3998 16.8237L17.3282 9.09434ZM11.8089 16.8237L17.3282 11.5385L22.8474 16.8237L17.3282 22.1082L11.8089 16.8237ZM17.3282 9.09434L9.25653 16.8237L17.3282 24.5531L25.3998 16.8237L17.3282 9.09434ZM11.8089 16.8237L17.3282 11.5385L22.8474 16.8237L17.3282 22.1082L11.8089 16.8237ZM33.0631 15.533L18.687 1.76567L17.3282 0.464432L1.88001 15.2553L0.246094 16.8222L1.89176 18.3981L15.829 31.7467L17.3266 33.1808L18.7967 31.773L33.0537 18.1212L34.4102 16.8222L33.0631 15.533ZM17.4598 24.9178C12.8057 24.9178 9.01987 21.264 9.01987 16.7735C9.01987 12.2829 12.8057 8.62982 17.4598 8.62982C22.1139 8.62982 25.8997 12.2829 25.8997 16.7735C25.8997 21.264 22.1139 24.9178 17.4598 24.9178ZM17.3282 30.7374L2.79688 16.8222L17.3282 2.90782L23.4305 8.75214C21.2557 7.24886 18.5505 6.62536 15.8996 7.01641C15.7671 7.03592 15.6355 7.05768 15.5077 7.08244C15.4419 7.09445 15.3769 7.10721 15.3118 7.12071C15.141 7.15598 14.9709 7.19576 14.8032 7.23853L14.6465 7.28056C14.547 7.30832 14.4482 7.33684 14.3503 7.36685C14.2523 7.39687 14.1669 7.42464 14.076 7.4554C13.9851 7.48617 13.9067 7.51394 13.8229 7.54471C13.7445 7.57472 13.6607 7.60549 13.5799 7.63701C11.1635 8.59555 9.21835 10.3984 8.13904 12.6799C8.103 12.7549 8.06851 12.83 8.03403 12.905C7.99955 12.98 7.96037 13.0753 7.92511 13.1609C7.88749 13.2517 7.85144 13.344 7.81696 13.4371C7.78248 13.5301 7.74643 13.6329 7.71274 13.732L7.66101 13.8911C7.62653 14.0006 7.59362 14.1117 7.56306 14.2228C7.52858 14.3448 7.49697 14.4684 7.46824 14.5935C7.45413 14.6557 7.44002 14.718 7.4267 14.7811C7.41808 14.8216 7.41025 14.8614 7.40163 14.9019C7.37733 15.022 7.35539 15.1428 7.33658 15.2651C7.31778 15.3874 7.29975 15.512 7.28486 15.6403C7.27546 15.7221 7.26684 15.8047 7.259 15.8872C7.23236 16.1784 7.21825 16.474 7.21825 16.7719C7.21825 17.0699 7.23236 17.3655 7.259 17.6567C7.26684 17.7392 7.27546 17.8218 7.28486 17.9043C7.29975 18.0282 7.31699 18.152 7.33658 18.2751C7.35617 18.3981 7.37733 18.5182 7.40163 18.6383C7.41025 18.6788 7.41808 18.7186 7.4267 18.7591C7.44002 18.8221 7.45413 18.8844 7.46824 18.9467C7.49749 19.0713 7.5291 19.1948 7.56306 19.3174C7.60851 19.4817 7.65866 19.6438 7.71195 19.8044C7.77412 19.9885 7.84126 20.1701 7.91335 20.3492L7.9635 20.4708C8.02881 20.6244 8.09725 20.7762 8.16882 20.9263C8.19938 20.9901 8.23151 21.0531 8.26286 21.1162C8.3232 21.234 8.38589 21.3511 8.45015 21.4659C8.51441 21.5807 8.57005 21.6737 8.63196 21.7758C9.53616 23.2555 10.8271 24.4842 12.3778 25.3411C12.4311 25.3703 12.4844 25.3996 12.5385 25.4281L12.7179 25.5212C12.7822 25.5534 12.8472 25.585 12.9123 25.6165C13.051 25.6825 13.192 25.7463 13.3339 25.8071C13.4122 25.8401 13.4906 25.8731 13.569 25.9046C13.6473 25.9362 13.7367 25.9692 13.8213 26.0007C13.9146 26.0352 14.0086 26.0682 14.1026 26.0998L14.2688 26.1538C14.5451 26.2408 14.827 26.3159 15.1143 26.3789C15.2436 26.4082 15.3737 26.4344 15.5062 26.4592C15.6386 26.484 15.7679 26.5057 15.898 26.5252C16.9321 26.6773 17.9844 26.6773 19.0185 26.5252C19.1883 26.5002 19.3568 26.4712 19.5239 26.4382L19.5451 26.4337C19.5974 26.4242 19.6475 26.4137 19.6956 26.4022C19.7935 26.3812 19.8899 26.3586 19.9871 26.3354C20.0843 26.3121 20.1673 26.2896 20.2567 26.2656C21.5719 25.9072 22.7979 25.2982 23.8615 24.4751L17.3282 30.7374ZM25.4154 22.993C26.0781 22.2075 26.6105 21.329 26.9937 20.3883C27.0502 20.2512 27.1024 20.1123 27.1505 19.9718C27.1787 19.8922 27.2061 19.8127 27.2288 19.7324C27.2288 19.7324 27.2288 19.7324 27.2288 19.7286C27.2555 19.6461 27.2813 19.5628 27.3072 19.4795C27.3197 19.4367 27.3323 19.3947 27.344 19.3519C27.344 19.3519 27.344 19.3519 27.344 19.3474C27.3707 19.2514 27.3957 19.1553 27.4224 19.0577C27.449 18.9602 27.4694 18.8604 27.4906 18.7576C27.4992 18.7171 27.507 18.6773 27.5156 18.6368C27.5399 18.5167 27.5619 18.3959 27.5807 18.2736C27.5995 18.1512 27.6175 18.0267 27.6324 17.9028C27.6418 17.8203 27.6504 17.7377 27.6583 17.6552C27.6849 17.364 27.699 17.0684 27.699 16.7704C27.699 16.4725 27.6849 16.1769 27.6583 15.8857C27.6504 15.8031 27.6418 15.7206 27.6324 15.6388C27.6173 15.5142 27.6 15.3892 27.5807 15.2636C27.5619 15.1413 27.5399 15.0205 27.5156 14.9004C27.507 14.8599 27.4992 14.8201 27.4906 14.7796C27.4624 14.6475 27.431 14.5154 27.3981 14.3856C27.3754 14.2985 27.3519 14.2122 27.3268 14.1259C27.3056 14.0509 27.2845 13.9811 27.2617 13.9091C27.239 13.837 27.2155 13.7657 27.1912 13.6945C27.1669 13.6232 27.1481 13.5699 27.1262 13.5083C26.7981 12.5993 26.3318 11.7416 25.7422 10.9629L31.8547 16.8162L25.4154 22.993ZM9.2581 16.823L17.3297 24.5524L25.4013 16.823L17.3297 9.09359L9.2581 16.823ZM17.3297 22.1075L11.8089 16.823L17.3282 11.5377L22.8474 16.823L17.3297 22.1075ZM17.3297 9.09434L9.2581 16.8237L17.3297 24.5531L25.4013 16.8237L17.3297 9.09434ZM11.8105 16.8237L17.3297 11.5385L22.849 16.8237L17.3297 22.1082L11.8105 16.8237ZM17.3297 9.09434L9.2581 16.8237L17.3297 24.5531L25.4013 16.8237L17.3297 9.09434ZM11.8105 16.8237L17.3297 11.5385L22.849 16.8237L17.3297 22.1082L11.8105 16.8237ZM17.3297 9.09434L9.2581 16.8237L17.3297 24.5531L25.4013 16.8237L17.3297 9.09434ZM11.8105 16.8237L17.3297 11.5385L22.849 16.8237L17.3297 22.1082L11.8105 16.8237ZM17.3297 9.09434L9.2581 16.8237L17.3297 24.5531L25.4013 16.8237L17.3297 9.09434ZM11.8105 16.8237L17.3297 11.5385L22.849 16.8237L17.3297 22.1082L11.8105 16.8237ZM17.3297 9.09434L9.2581 16.8237L17.3297 24.5531L25.4013 16.8237L17.3297 9.09434ZM11.8105 16.8237L17.3297 11.5385L22.849 16.8237L17.3297 22.1082L11.8105 16.8237ZM17.3297 9.09434L9.2581 16.8237L17.3297 24.5531L25.4013 16.8237L17.3297 9.09434ZM11.8105 16.8237L17.3297 11.5385L22.849 16.8237L17.3297 22.1082L11.8105 16.8237Z" fill="#182D5D"/>
<path d="M33.0631 15.5322L18.687 1.76567L17.3282 0.464432L1.88001 15.2553L0.246094 16.8222L1.89176 18.3981L15.829 31.7467L17.3266 33.1808L18.7967 31.773L33.0537 18.1212L34.4102 16.8222L33.0631 15.5322ZM23.8615 24.4811L17.3282 30.7374L2.79688 16.8222L17.3282 2.90782L23.4305 8.75214L23.45 8.7709L25.7226 10.9471L25.7446 10.9689L31.8571 16.8222L23.8615 24.4811Z" fill="#182D5D"/>
<path d="M17.3287 9.09396L9.25703 16.8234L17.3287 24.5527L25.4003 16.8234L17.3287 9.09396ZM11.8094 16.8234L17.3287 11.5381L22.8479 16.8234L17.3287 22.1079L11.8094 16.8234ZM17.3287 9.09396L9.25703 16.8234L17.3287 24.5527L25.4003 16.8234L17.3287 9.09396ZM11.8094 16.8234L17.3287 11.5381L22.8479 16.8234L17.3287 22.1079L11.8094 16.8234ZM17.3287 9.09396L9.25703 16.8234L17.3287 24.5527L25.4003 16.8234L17.3287 9.09396ZM11.8094 16.8234L17.3287 11.5381L22.8479 16.8234L17.3287 22.1079L11.8094 16.8234ZM17.3287 9.09396L9.25703 16.8234L17.3287 24.5527L25.4003 16.8234L17.3287 9.09396ZM11.8094 16.8234L17.3287 11.5381L22.8479 16.8234L17.3287 22.1079L11.8094 16.8234ZM17.3287 9.09396L9.25703 16.8234L17.3287 24.5527L25.4003 16.8234L17.3287 9.09396ZM11.8094 16.8234L17.3287 11.5381L22.8479 16.8234L17.3287 22.1079L11.8094 16.8234ZM17.3287 9.09396L9.25703 16.8234L17.3287 24.5527L25.4003 16.8234L17.3287 9.09396ZM11.8094 16.8234L17.3287 11.5381L22.8479 16.8234L17.3287 22.1079L11.8094 16.8234ZM17.3287 9.09396L9.25703 16.8234L17.3287 24.5527L25.4003 16.8234L17.3287 9.09396ZM11.8094 16.8234L17.3287 11.5381L22.8479 16.8234L17.3287 22.1079L11.8094 16.8234ZM17.3287 9.09396L9.25703 16.8234L17.3287 24.5527L25.4003 16.8234L17.3287 9.09396ZM11.8094 16.8234L17.3287 11.5381L22.8479 16.8234L17.3287 22.1079L11.8094 16.8234ZM27.6627 15.8883C27.6549 15.8058 27.6462 15.7232 27.6368 15.6414C27.6217 15.5169 27.6044 15.3918 27.5851 15.2662C27.5663 15.1439 27.5444 15.0231 27.5201 14.903C27.5114 14.8625 27.5036 14.8227 27.495 14.7822C27.4668 14.6501 27.4354 14.518 27.4025 14.3882C27.3798 14.3012 27.3563 14.2149 27.3312 14.1286C27.31 14.0535 27.2889 13.9837 27.2662 13.9117C27.2434 13.8397 27.2199 13.7684 27.1956 13.6971C27.1713 13.6258 27.1525 13.5725 27.1306 13.511C26.8025 12.6019 26.3362 11.7442 25.7467 10.9655C25.1024 10.1146 24.3207 9.3673 23.431 8.75177C21.2562 7.24848 18.551 6.62499 15.9001 7.01603C15.7676 7.03554 15.636 7.05731 15.5082 7.08207C15.4424 7.09408 15.3774 7.10683 15.3123 7.12034C15.1415 7.15561 14.9714 7.19539 14.8037 7.23816L14.647 7.28018C14.5475 7.30795 14.4487 7.33647 14.3508 7.36648C14.2528 7.3965 14.1674 7.42426 14.0765 7.45503C13.9856 7.4858 13.9072 7.51357 13.8234 7.54433C13.745 7.57435 13.6612 7.60512 13.5804 7.63664C11.164 8.59517 9.21885 10.398 8.13954 12.6795C8.10349 12.7545 8.06901 12.8296 8.03453 12.9046C8.00005 12.9797 7.96087 13.075 7.9256 13.1605C7.88799 13.2513 7.85194 13.3436 7.81746 13.4367C7.78298 13.5297 7.74693 13.6325 7.71323 13.7316L7.66151 13.8907C7.62703 14.0002 7.59412 14.1113 7.56356 14.2224C7.52908 14.3444 7.49747 14.468 7.46873 14.5931C7.45463 14.6554 7.44052 14.7177 7.4272 14.7807C7.41858 14.8212 7.41074 14.861 7.40212 14.9015C7.37783 15.0216 7.35589 15.1424 7.33708 15.2647C7.31827 15.387 7.30025 15.5116 7.28536 15.6399C7.27596 15.7217 7.26734 15.8043 7.2595 15.8868C7.23286 16.178 7.21875 16.4737 7.21875 16.7716C7.21875 17.0695 7.23286 17.3652 7.2595 17.6563C7.26734 17.7389 7.27596 17.8214 7.28536 17.904C7.30025 18.0278 7.31749 18.1516 7.33708 18.2747C7.35667 18.3977 7.37783 18.5178 7.40212 18.6379C7.41074 18.6784 7.41858 18.7182 7.4272 18.7587C7.44052 18.8217 7.45463 18.884 7.46873 18.9463C7.49799 19.0709 7.5296 19.1944 7.56356 19.317C7.60901 19.4814 7.65916 19.6435 7.71245 19.804C7.77462 19.9881 7.84175 20.1698 7.91385 20.3489L7.964 20.4704C8.02931 20.624 8.09775 20.7758 8.16932 20.9259C8.19988 20.9897 8.23201 21.0528 8.26336 21.1158C8.3237 21.2336 8.38639 21.3507 8.45065 21.4655C8.51491 21.5803 8.57055 21.6734 8.63246 21.7754C9.53666 23.2551 10.8276 24.4838 12.3783 25.3407C12.4316 25.37 12.4849 25.3992 12.539 25.4277L12.7184 25.5208C12.7827 25.5531 12.8477 25.5846 12.9128 25.6161C13.0515 25.6821 13.1925 25.7459 13.3344 25.8067C13.4127 25.8397 13.4911 25.8727 13.5695 25.9043C13.6478 25.9358 13.7372 25.9688 13.8218 26.0003C13.9151 26.0348 14.0091 26.0679 14.1031 26.0994L14.2693 26.1534C14.5456 26.2405 14.8275 26.3155 15.1148 26.3785C15.2441 26.4078 15.3742 26.4341 15.5067 26.4588C15.6391 26.4836 15.7684 26.5054 15.8985 26.5249C16.9326 26.6769 17.9849 26.6769 19.019 26.5249C19.1888 26.4998 19.3573 26.4708 19.5245 26.4378L19.5456 26.4333C19.5979 26.4238 19.648 26.4133 19.6961 26.4018C19.794 26.3808 19.8904 26.3583 19.9876 26.335C20.0848 26.3117 20.1678 26.2892 20.2572 26.2652C21.5724 25.9068 22.7985 25.2978 23.862 24.4747C25.2611 23.395 26.3416 21.9842 26.9966 20.3819C27.053 20.2448 27.1053 20.106 27.1533 19.9654C27.1815 19.8858 27.209 19.8063 27.2317 19.726C27.2317 19.726 27.2317 19.726 27.2317 19.7222C27.2583 19.6397 27.2842 19.5564 27.3101 19.4731C27.3226 19.4303 27.3351 19.3883 27.3469 19.3455C27.3469 19.3455 27.3469 19.3455 27.3469 19.341C27.3735 19.245 27.3986 19.1489 27.4252 19.0514C27.4519 18.9538 27.4723 18.854 27.4934 18.7512C27.502 18.7107 27.5099 18.6709 27.5185 18.6304C27.5428 18.5103 27.5647 18.3895 27.5835 18.2672C27.6024 18.1449 27.6204 18.0203 27.6353 17.8965C27.6447 17.8139 27.6533 17.7314 27.6611 17.6488C27.6878 17.3577 27.7019 17.062 27.7019 16.7641C27.7019 16.4661 27.6901 16.1795 27.6627 15.8883ZM17.4603 24.9174C12.8062 24.9174 9.02037 21.2636 9.02037 16.7731C9.02037 12.2825 12.8062 8.62945 17.4603 8.62945C22.1144 8.62945 25.9003 12.2825 25.9003 16.7731C25.9003 21.2636 22.1144 24.9174 17.4603 24.9174ZM17.3287 9.09396L9.25703 16.8234L17.3287 24.5527L25.4003 16.8234L17.3287 9.09396ZM11.8094 16.8234L17.3287 11.5381L22.8479 16.8234L17.3287 22.1079L11.8094 16.8234ZM17.3287 9.09396L9.25703 16.8234L17.3287 24.5527L25.4003 16.8234L17.3287 9.09396ZM11.8094 16.8234L17.3287 11.5381L22.8479 16.8234L17.3287 22.1079L11.8094 16.8234ZM17.3287 9.09396L9.25703 16.8234L17.3287 24.5527L25.4003 16.8234L17.3287 9.09396ZM11.8094 16.8234L17.3287 11.5381L22.8479 16.8234L17.3287 22.1079L11.8094 16.8234ZM17.3287 9.09396L9.25703 16.8234L17.3287 24.5527L25.4003 16.8234L17.3287 9.09396ZM11.8094 16.8234L17.3287 11.5381L22.8479 16.8234L17.3287 22.1079L11.8094 16.8234ZM17.3287 9.09396L9.25703 16.8234L17.3287 24.5527L25.4003 16.8234L17.3287 9.09396ZM11.8094 16.8234L17.3287 11.5381L22.8479 16.8234L17.3287 22.1079L11.8094 16.8234ZM17.3287 9.09396L9.25703 16.8234L17.3287 24.5527L25.4003 16.8234L17.3287 9.09396ZM11.8094 16.8234L17.3287 11.5381L22.8479 16.8234L17.3287 22.1079L11.8094 16.8234ZM17.3287 9.09396L9.25703 16.8234L17.3287 24.5527L25.4003 16.8234L17.3287 9.09396ZM11.8094 16.8234L17.3287 11.5381L22.8479 16.8234L17.3287 22.1079L11.8094 16.8234Z" fill="#182D5D"/>
<path d="M27.6627 15.8886C27.6548 15.806 27.6462 15.7235 27.6368 15.6417C27.6217 15.5171 27.6044 15.392 27.5851 15.2665C27.5655 15.1449 27.5436 15.0233 27.52 14.9033C27.5114 14.8627 27.5036 14.823 27.495 14.7824C27.4668 14.6504 27.4354 14.5183 27.4025 14.3885C27.3798 14.3014 27.3563 14.2151 27.3312 14.1288C27.31 14.0538 27.2889 13.984 27.2661 13.912C27.2434 13.8399 27.2199 13.7686 27.1956 13.6973C27.1713 13.626 27.1525 13.5728 27.1306 13.5112C26.4351 11.608 25.1503 9.95305 23.4474 8.76703C21.2714 7.25265 18.5585 6.62334 15.9001 7.01628C15.7676 7.03579 15.636 7.05756 15.5082 7.08232C15.4424 7.09433 15.3774 7.10708 15.3123 7.12059C15.1415 7.15586 14.9714 7.19563 14.8037 7.23841L14.647 7.28043C14.5475 7.3082 14.4487 7.33671 14.3508 7.36673C14.2528 7.39675 14.1674 7.42451 14.0765 7.45528C13.9856 7.48605 13.9072 7.51382 13.8234 7.54458C13.745 7.5746 13.6612 7.60537 13.5804 7.63689C11.1676 8.60064 9.22417 10.4019 8.13954 12.6798C8.10349 12.7548 8.06901 12.8298 8.03453 12.9049C8.00005 12.9799 7.96087 13.0752 7.9256 13.1608C7.88799 13.2516 7.85194 13.3439 7.81746 13.4369C7.78298 13.53 7.74693 13.6328 7.71323 13.7319L7.66151 13.8909C7.62703 14.0005 7.59412 14.1116 7.56356 14.2226C7.52986 14.3457 7.49851 14.4688 7.46873 14.5933C7.45463 14.6556 7.44052 14.7179 7.4272 14.7809C7.41858 14.8215 7.41074 14.8612 7.40212 14.9018C7.37861 15.0218 7.35667 15.1434 7.33708 15.265C7.31749 15.3865 7.30025 15.5119 7.28536 15.6402C7.27596 15.722 7.26734 15.8045 7.2595 15.8871C7.23286 16.1782 7.21875 16.4739 7.21875 16.7718C7.21875 17.0697 7.23286 17.3654 7.2595 17.6566C7.26734 17.7391 7.27596 17.8217 7.28536 17.9042C7.30025 18.028 7.31749 18.1519 7.33708 18.2749C7.35667 18.398 7.37861 18.5181 7.40212 18.6381C7.41074 18.6787 7.41858 18.7184 7.4272 18.759C7.44052 18.822 7.45463 18.8843 7.46873 18.9466C7.49851 19.0711 7.52986 19.1942 7.56356 19.3173C7.60901 19.4816 7.65916 19.6437 7.71245 19.8043C7.77462 19.9884 7.84175 20.17 7.91385 20.3491L7.964 20.4707C8.02931 20.6243 8.09775 20.7761 8.16932 20.9262C8.19988 20.99 8.23201 21.053 8.26336 21.116C8.3237 21.2339 8.38639 21.3509 8.45065 21.4657C8.51491 21.5806 8.57055 21.6736 8.63246 21.7757C9.53951 23.2533 10.8298 24.4814 12.3783 25.341C12.4316 25.3702 12.4849 25.3995 12.539 25.428L12.7184 25.5211C12.7827 25.5533 12.8477 25.5848 12.9128 25.6164C13.0515 25.6824 13.1925 25.7462 13.3344 25.807C13.4127 25.84 13.4911 25.873 13.5695 25.9045C13.6478 25.936 13.7372 25.9691 13.8218 26.0006C13.9151 26.0351 14.0091 26.0681 14.1031 26.0996L14.2693 26.1537C14.5456 26.2407 14.8275 26.3158 15.1148 26.3788C15.2441 26.4081 15.3742 26.4343 15.5067 26.4591C15.6391 26.4839 15.7684 26.5056 15.8985 26.5251C16.9326 26.6772 17.9849 26.6772 19.019 26.5251C19.1888 26.5001 19.3573 26.4711 19.5244 26.4381L19.5456 26.4336C19.5978 26.4241 19.648 26.4136 19.6961 26.4021C19.794 26.381 19.8904 26.3585 19.9876 26.3353C20.0848 26.312 20.1678 26.2895 20.2572 26.2655C21.5836 25.9032 22.8197 25.2875 23.891 24.4554C25.2723 23.3777 26.341 21.9779 26.9942 20.3904C27.0496 20.2533 27.1018 20.1145 27.1509 19.9739C27.1792 19.8944 27.2066 19.8148 27.2293 19.7345C27.2293 19.7345 27.2293 19.7345 27.2293 19.7308C27.256 19.6482 27.2818 19.5649 27.3077 19.4816C27.3202 19.4388 27.3328 19.3968 27.3445 19.354C27.3445 19.354 27.3445 19.354 27.3445 19.3495C27.3712 19.2535 27.3962 19.1574 27.4229 19.0599C27.4495 18.9623 27.4699 18.8625 27.4911 18.7597C27.4997 18.7192 27.5075 18.6794 27.5161 18.6389C27.5396 18.5188 27.5616 18.3973 27.5812 18.2757C27.6008 18.1541 27.618 18.0288 27.6329 17.905C27.6423 17.8224 27.6509 17.7399 27.6588 17.6573C27.6854 17.3662 27.6995 17.0705 27.6995 16.7726C27.6995 16.4747 27.6901 16.1797 27.6627 15.8886ZM17.4603 24.9177C12.8062 24.9177 9.02037 21.2639 9.02037 16.7733C9.02037 12.2828 12.8062 8.6297 17.4603 8.6297C22.1144 8.6297 25.9002 12.2828 25.9002 16.7733C25.9002 21.2639 22.1144 24.9177 17.4603 24.9177Z" fill="#182D5D"/>
<path d="M17.3294 9.09392L9.25781 16.8233L17.3294 24.5527L25.4011 16.8233L17.3294 9.09392ZM11.8102 16.8233L17.3294 11.5381L22.8487 16.8233L17.3294 22.1078L11.8102 16.8233Z" fill="#182D5D"/>
<path d="M17.3294 9.09392L9.25781 16.8233L17.3294 24.5527L25.4011 16.8233L17.3294 9.09392ZM11.8102 16.8233L17.3294 11.5381L22.8487 16.8233L17.3294 22.1078L11.8102 16.8233Z" fill="#182D5D"/>
<path d="M41.9336 5.80777H50.8367C53.859 5.80777 56.2031 6.84836 57.8692 8.92954C59.3555 10.8076 60.0989 13.2132 60.0994 16.1464C60.0994 18.4112 59.6603 20.4586 58.7821 22.2886C57.2357 25.5215 54.5773 27.1379 50.8069 27.1379H41.9336V5.80777ZM50.245 24.6697C51.2429 24.6697 52.0631 24.5682 52.7057 24.365C53.8524 23.9873 54.7928 23.2619 55.5268 22.1888C56.1099 21.3273 56.5299 20.2239 56.787 18.8787C56.9292 18.1409 57.0036 17.3926 57.0095 16.6424C57.0095 13.9994 56.4732 11.947 55.4007 10.4852C54.3281 9.02334 52.5996 8.29193 50.2152 8.29093H44.982V24.6697H50.245Z" fill="#182D5D"/>
<path d="M64.5117 5.80777H74.4798C76.4499 5.80777 78.041 6.34257 79.253 7.41218C80.4651 8.48179 81.0708 9.98539 81.0703 11.923C81.0703 13.5879 80.5298 15.0375 79.4489 16.2717C78.368 17.5059 76.7135 18.123 74.4853 18.123H67.5296V27.1379H64.5117V5.80777ZM76.2164 8.74043C75.5534 8.44026 74.6449 8.29018 73.4908 8.29018H67.5296V15.6811H73.4908C74.8366 15.6811 75.9282 15.406 76.7657 14.8557C77.6032 14.3053 78.0211 13.3323 78.0195 11.9365C78.0216 10.3671 77.4206 9.30175 76.2164 8.74043Z" fill="#182D5D"/>
<path d="M84.9355 5.80777H87.9534V24.5969H99.1314V27.1379H84.9355V5.80777Z" fill="#182D5D"/>
<path d="M2.22708 39.2383L3.46529 41.7891L4.71124 39.2383H5.8798L4.00701 42.7057V44.708H2.92744V42.7057L1.05078 39.2383H2.22708Z" fill="#182D5D"/>
<path d="M5.93011 42.717V42.6381C5.93011 42.34 5.97396 42.0658 6.06167 41.8154C6.14937 41.5624 6.27706 41.3433 6.44474 41.158C6.61241 40.9726 6.81749 40.8286 7.05997 40.726C7.30246 40.6208 7.57847 40.5682 7.88803 40.5682C8.20274 40.5682 8.48134 40.6208 8.72382 40.726C8.96888 40.8286 9.17525 40.9726 9.34292 41.158C9.5106 41.3433 9.63829 41.5624 9.72599 41.8154C9.8137 42.0658 9.85756 42.34 9.85756 42.6381V42.717C9.85756 43.0125 9.8137 43.2867 9.72599 43.5397C9.63829 43.7901 9.5106 44.0092 9.34292 44.1971C9.17525 44.3824 8.97017 44.5264 8.72769 44.6291C8.4852 44.7317 8.2079 44.7831 7.89577 44.7831C7.58621 44.7831 7.3089 44.7317 7.06384 44.6291C6.81878 44.5264 6.61241 44.3824 6.44474 44.1971C6.27706 44.0092 6.14937 43.7901 6.06167 43.5397C5.97396 43.2867 5.93011 43.0125 5.93011 42.717ZM6.95163 42.6381V42.717C6.95163 42.8948 6.96969 43.0613 7.0058 43.2166C7.04192 43.3719 7.09738 43.5083 7.17219 43.6261C7.24699 43.7438 7.34373 43.8364 7.46239 43.904C7.58363 43.9692 7.72809 44.0017 7.89577 44.0017C8.06086 44.0017 8.20274 43.9692 8.3214 43.904C8.44006 43.8364 8.5368 43.7438 8.61161 43.6261C8.68899 43.5083 8.74575 43.3719 8.78186 43.2166C8.81797 43.0613 8.83603 42.8948 8.83603 42.717V42.6381C8.83603 42.4628 8.81797 42.2987 8.78186 42.146C8.74575 41.9907 8.68899 41.8542 8.61161 41.7365C8.5368 41.6163 8.43877 41.5224 8.31753 41.4547C8.19887 41.3846 8.0557 41.3496 7.88803 41.3496C7.72293 41.3496 7.58105 41.3846 7.46239 41.4547C7.34373 41.5224 7.24699 41.6163 7.17219 41.7365C7.09738 41.8542 7.04192 41.9907 7.0058 42.146C6.96969 42.2987 6.95163 42.4628 6.95163 42.6381Z" fill="#182D5D"/>
<path d="M13.0924 43.7425V40.6433H14.1216V44.708H13.1543L13.0924 43.7425ZM13.2239 42.901L13.5412 42.8935C13.5412 43.1665 13.5103 43.4182 13.4484 43.6486C13.3865 43.879 13.2897 44.0794 13.1582 44.2497C13.0292 44.4174 12.8654 44.5489 12.6667 44.6441C12.4681 44.7368 12.2334 44.7831 11.9625 44.7831C11.7561 44.7831 11.5678 44.7555 11.3976 44.7004C11.2273 44.6428 11.0803 44.5539 10.9565 44.4337C10.8352 44.311 10.7411 44.1545 10.674 43.9642C10.6069 43.7713 10.5734 43.5397 10.5734 43.2692V40.6433H11.5949V43.2767C11.5949 43.4119 11.6104 43.5246 11.6414 43.6148C11.6749 43.7049 11.72 43.7788 11.7768 43.8364C11.8361 43.8915 11.9045 43.9316 11.9819 43.9566C12.0618 43.9792 12.147 43.9904 12.2372 43.9904C12.4849 43.9904 12.6796 43.9429 12.8215 43.8477C12.966 43.75 13.0692 43.6198 13.1311 43.457C13.193 43.2917 13.2239 43.1064 13.2239 42.901Z" fill="#182D5D"/>
<path d="M16.0486 41.4735V44.708H15.0271V40.6433H15.9944L16.0486 41.4735ZM17.3216 40.617L17.3062 41.5411C17.2494 41.5311 17.1849 41.5236 17.1127 41.5186C17.043 41.5136 16.9773 41.5111 16.9154 41.5111C16.758 41.5111 16.62 41.5324 16.5013 41.575C16.3827 41.615 16.2834 41.6739 16.2034 41.7515C16.126 41.8291 16.0667 41.9243 16.0254 42.037C15.9841 42.1472 15.9609 42.2724 15.9557 42.4127L15.7352 42.3864C15.7352 42.1284 15.7623 41.8893 15.8164 41.6689C15.8706 41.4485 15.9493 41.2556 16.0525 41.0904C16.1557 40.9251 16.2846 40.7973 16.4394 40.7072C16.5968 40.6145 16.7773 40.5682 16.9811 40.5682C17.0379 40.5682 17.0985 40.5732 17.163 40.5832C17.2301 40.5907 17.2829 40.602 17.3216 40.617Z" fill="#182D5D"/>
<path d="M21.6167 44.708H20.4017L20.4094 43.8965H21.6167C21.9443 43.8965 22.219 43.8264 22.4409 43.6862C22.6627 43.5434 22.8304 43.3393 22.9439 43.0738C23.0574 42.8059 23.1141 42.4853 23.1141 42.1121V41.8304C23.1141 41.5424 23.0819 41.2882 23.0174 41.0678C22.9529 40.8474 22.8575 40.6621 22.7311 40.5118C22.6073 40.3616 22.4538 40.2476 22.2706 40.17C22.0875 40.0923 21.8772 40.0535 21.6399 40.0535H20.3785V39.2383H21.6399C22.0165 39.2383 22.3596 39.2997 22.6692 39.4224C22.9813 39.5451 23.2509 39.7217 23.4779 39.9521C23.7075 40.18 23.8829 40.453 24.0041 40.771C24.1279 41.0891 24.1898 41.4447 24.1898 41.8379V42.1121C24.1898 42.5028 24.1279 42.8585 24.0041 43.179C23.8829 43.4971 23.7075 43.7701 23.4779 43.998C23.2509 44.2259 22.98 44.4012 22.6653 44.5239C22.3506 44.6466 22.001 44.708 21.6167 44.708ZM20.9976 39.2383V44.708H19.9335V39.2383H20.9976Z" fill="#182D5D"/>
<path d="M26.1013 40.6433V44.708H25.0759V40.6433H26.1013ZM25.0063 39.5802C25.0063 39.4324 25.0579 39.3097 25.1611 39.2121C25.2668 39.1144 25.4087 39.0655 25.5867 39.0655C25.7647 39.0655 25.9053 39.1144 26.0085 39.2121C26.1142 39.3097 26.1671 39.4324 26.1671 39.5802C26.1671 39.7255 26.1142 39.8469 26.0085 39.9446C25.9053 40.0423 25.7647 40.0911 25.5867 40.0911C25.4087 40.0911 25.2668 40.0423 25.1611 39.9446C25.0579 39.8469 25.0063 39.7255 25.0063 39.5802Z" fill="#182D5D"/>
<path d="M29.3826 43.8439V41.9694C29.3826 41.8317 29.3581 41.7127 29.3091 41.6125C29.2601 41.5123 29.1853 41.4347 29.0846 41.3796C28.984 41.3245 28.8564 41.297 28.7016 41.297C28.5649 41.297 28.4449 41.3195 28.3417 41.3646C28.2411 41.4097 28.1637 41.4735 28.1096 41.5562C28.0554 41.6363 28.0283 41.729 28.0283 41.8342H27.0029C27.0029 41.6664 27.0442 41.5073 27.1267 41.3571C27.2093 41.2043 27.3266 41.0691 27.4788 40.9514C27.6336 40.8311 27.8181 40.7372 28.0322 40.6696C28.2489 40.602 28.4913 40.5682 28.7596 40.5682C29.0769 40.5682 29.3594 40.6208 29.607 40.726C29.8572 40.8286 30.0533 40.9839 30.1952 41.1918C30.3396 41.3996 30.4119 41.6614 30.4119 41.9769V43.75C30.4119 43.9529 30.4248 44.1269 30.4505 44.2722C30.4789 44.4149 30.5202 44.5389 30.5744 44.6441V44.708H29.5335C29.4845 44.6053 29.4471 44.475 29.4213 44.3173C29.3955 44.157 29.3826 43.9992 29.3826 43.8439ZM29.5258 42.2324L29.5335 42.8221H28.8873C28.7274 42.8221 28.5868 42.8384 28.4655 42.871C28.3443 42.901 28.245 42.9461 28.1676 43.0062C28.0902 43.0638 28.0322 43.1339 27.9935 43.2166C27.9548 43.2967 27.9354 43.3881 27.9354 43.4908C27.9354 43.591 27.9586 43.6812 28.0051 43.7613C28.0541 43.8414 28.1237 43.9053 28.214 43.9529C28.3069 43.998 28.4152 44.0205 28.5391 44.0205C28.7196 44.0205 28.877 43.9854 29.0111 43.9153C29.1453 43.8427 29.2497 43.755 29.3245 43.6524C29.3994 43.5497 29.4393 43.452 29.4445 43.3593L29.7386 43.7876C29.7025 43.8903 29.6483 43.9992 29.5761 44.1144C29.5038 44.2296 29.411 44.3373 29.2975 44.4375C29.184 44.5377 29.0472 44.6203 28.8873 44.6854C28.7274 44.7505 28.5416 44.7831 28.3301 44.7831C28.0593 44.7831 27.8168 44.7305 27.6027 44.6253C27.3886 44.5201 27.2196 44.3761 27.0958 44.1933C26.9719 44.0105 26.91 43.8026 26.91 43.5697C26.91 43.3543 26.9513 43.164 27.0339 42.9987C27.1164 42.8334 27.2389 42.6944 27.4015 42.5817C27.564 42.4665 27.7652 42.3801 28.0051 42.3225C28.2476 42.2624 28.5249 42.2324 28.837 42.2324H29.5258Z" fill="#182D5D"/>
<path d="M32.3504 41.4773V44.708H31.3289V40.6433H32.2924L32.3504 41.4773ZM32.1995 42.5291H31.8861C31.8861 42.2461 31.9209 41.9857 31.9906 41.7478C32.0628 41.5098 32.1686 41.3032 32.3079 41.1279C32.4472 40.9501 32.6187 40.8124 32.8225 40.7147C33.0289 40.617 33.2675 40.5682 33.5383 40.5682C33.7266 40.5682 33.8995 40.5957 34.0568 40.6508C34.2142 40.7034 34.3496 40.7873 34.4631 40.9025C34.5792 41.0152 34.6682 41.163 34.7301 41.3458C34.792 41.5261 34.823 41.7427 34.823 41.9957V44.708H33.8015V42.0971C33.8015 41.9068 33.7731 41.7578 33.7163 41.6501C33.6622 41.5424 33.5835 41.4673 33.4803 41.4247C33.3771 41.3796 33.2533 41.3571 33.1088 41.3571C32.9489 41.3571 32.8109 41.3884 32.6948 41.451C32.5813 41.5111 32.4871 41.595 32.4123 41.7027C32.3401 41.8104 32.2859 41.9343 32.2498 42.0746C32.2163 42.2148 32.1995 42.3663 32.1995 42.5291ZM34.7456 42.3451L34.3238 42.4202C34.3264 42.1647 34.3625 41.9256 34.4322 41.7027C34.5018 41.4773 34.6037 41.2807 34.7379 41.1129C34.8746 40.9426 35.0435 40.8099 35.2447 40.7147C35.4485 40.617 35.6833 40.5682 35.949 40.5682C36.1553 40.5682 36.3411 40.597 36.5062 40.6546C36.6738 40.7097 36.817 40.7986 36.9357 40.9213C37.0543 41.0415 37.1446 41.198 37.2065 41.3909C37.271 41.5837 37.3033 41.8191 37.3033 42.0971V44.708H36.274V42.0934C36.274 41.8955 36.2456 41.744 36.1889 41.6388C36.1347 41.5336 36.056 41.461 35.9528 41.4209C35.8497 41.3784 35.7284 41.3571 35.5891 41.3571C35.4472 41.3571 35.3234 41.3834 35.2177 41.436C35.1145 41.486 35.0268 41.5562 34.9545 41.6463C34.8849 41.7365 34.832 41.8417 34.7959 41.9619C34.7624 42.0796 34.7456 42.2073 34.7456 42.3451Z" fill="#182D5D"/>
<path d="M38.0385 42.717V42.6381C38.0385 42.34 38.0823 42.0658 38.17 41.8154C38.2577 41.5624 38.3854 41.3433 38.5531 41.158C38.7208 40.9726 38.9258 40.8286 39.1683 40.726C39.4108 40.6208 39.6868 40.5682 39.9964 40.5682C40.3111 40.5682 40.5897 40.6208 40.8322 40.726C41.0772 40.8286 41.2836 40.9726 41.4513 41.158C41.619 41.3433 41.7466 41.5624 41.8343 41.8154C41.9221 42.0658 41.9659 42.34 41.9659 42.6381V42.717C41.9659 43.0125 41.9221 43.2867 41.8343 43.5397C41.7466 43.7901 41.619 44.0092 41.4513 44.1971C41.2836 44.3824 41.0785 44.5264 40.836 44.6291C40.5936 44.7317 40.3162 44.7831 40.0041 44.7831C39.6946 44.7831 39.4173 44.7317 39.1722 44.6291C38.9271 44.5264 38.7208 44.3824 38.5531 44.1971C38.3854 44.0092 38.2577 43.7901 38.17 43.5397C38.0823 43.2867 38.0385 43.0125 38.0385 42.717ZM39.06 42.6381V42.717C39.06 42.8948 39.078 43.0613 39.1142 43.2166C39.1503 43.3719 39.2057 43.5083 39.2805 43.6261C39.3553 43.7438 39.4521 43.8364 39.5707 43.904C39.692 43.9692 39.8364 44.0017 40.0041 44.0017C40.1692 44.0017 40.3111 43.9692 40.4298 43.904C40.5484 43.8364 40.6451 43.7438 40.72 43.6261C40.7973 43.5083 40.8541 43.3719 40.8902 43.2166C40.9263 43.0613 40.9444 42.8948 40.9444 42.717V42.6381C40.9444 42.4628 40.9263 42.2987 40.8902 42.146C40.8541 41.9907 40.7973 41.8542 40.72 41.7365C40.6451 41.6163 40.5471 41.5224 40.4259 41.4547C40.3072 41.3846 40.1641 41.3496 39.9964 41.3496C39.8313 41.3496 39.6894 41.3846 39.5707 41.4547C39.4521 41.5224 39.3553 41.6163 39.2805 41.7365C39.2057 41.8542 39.1503 41.9907 39.1142 42.146C39.078 42.2987 39.06 42.4628 39.06 42.6381Z" fill="#182D5D"/>
<path d="M43.711 41.5111V44.708H42.6895V40.6433H43.6491L43.711 41.5111ZM43.5485 42.5291H43.2467C43.2493 42.2336 43.2905 41.9656 43.3705 41.7252C43.4505 41.4848 43.5627 41.2782 43.7071 41.1054C43.8542 40.9326 44.0283 40.7998 44.2295 40.7072C44.4307 40.6145 44.6551 40.5682 44.9028 40.5682C45.104 40.5682 45.2859 40.5957 45.4484 40.6508C45.6109 40.7059 45.7502 40.7936 45.8663 40.9138C45.9849 41.034 46.0752 41.1918 46.1371 41.3871C46.2016 41.58 46.2339 41.8179 46.2339 42.1009V44.708H45.2046V42.0934C45.2046 41.908 45.1762 41.7615 45.1195 41.6538C45.0653 41.5462 44.9853 41.4698 44.8796 41.4247C44.7764 41.3796 44.6487 41.3571 44.4965 41.3571C44.3391 41.3571 44.2011 41.3884 44.0825 41.451C43.9664 41.5111 43.8684 41.595 43.7884 41.7027C43.711 41.8104 43.6517 41.9343 43.6104 42.0746C43.5691 42.2148 43.5485 42.3663 43.5485 42.5291Z" fill="#182D5D"/>
<path d="M49.6467 43.8439V38.9378H50.6759V44.708H49.7473L49.6467 43.8439ZM46.9574 42.7245V42.6456C46.9574 42.335 46.9936 42.0533 47.0658 41.8003C47.1406 41.5449 47.2489 41.3258 47.3908 41.1429C47.5327 40.9601 47.7042 40.8186 47.9055 40.7184C48.1092 40.6183 48.3401 40.5682 48.5981 40.5682C48.8483 40.5682 49.0663 40.617 49.252 40.7147C49.4403 40.8124 49.6003 40.9514 49.7318 41.1317C49.866 41.312 49.973 41.5261 50.053 41.7741C50.1329 42.0195 50.191 42.29 50.2271 42.5855V42.7996C50.191 43.0876 50.1329 43.3518 50.053 43.5922C49.973 43.8327 49.866 44.043 49.7318 44.2234C49.6003 44.4012 49.4403 44.5389 49.252 44.6366C49.0637 44.7343 48.8431 44.7831 48.5903 44.7831C48.335 44.7831 48.1054 44.7317 47.9016 44.6291C47.7004 44.5264 47.5288 44.3824 47.3869 44.1971C47.2476 44.0117 47.1406 43.7939 47.0658 43.5434C46.9936 43.293 46.9574 43.02 46.9574 42.7245ZM47.9828 42.6456V42.7245C47.9828 42.8998 47.9983 43.0638 48.0293 43.2166C48.0602 43.3694 48.1105 43.5046 48.1802 43.6223C48.2498 43.7375 48.3388 43.8277 48.4472 43.8928C48.5581 43.9579 48.6922 43.9904 48.8496 43.9904C49.0508 43.9904 49.2159 43.9479 49.3449 43.8627C49.4764 43.7751 49.5783 43.6561 49.6506 43.5058C49.7228 43.3531 49.7692 43.1815 49.7899 42.9912V42.4014C49.7795 42.2511 49.7524 42.1121 49.7086 41.9844C49.6673 41.8567 49.608 41.7465 49.5306 41.6538C49.4558 41.5612 49.3629 41.4886 49.252 41.436C49.1411 41.3834 49.0095 41.3571 48.8573 41.3571C48.7 41.3571 48.5658 41.3909 48.4549 41.4585C48.344 41.5236 48.2537 41.615 48.184 41.7327C48.1144 41.8504 48.0628 41.9869 48.0293 42.1422C47.9983 42.2975 47.9828 42.4653 47.9828 42.6456Z" fill="#182D5D"/>
<path d="M53.903 43.596C53.903 43.5109 53.8798 43.4345 53.8334 43.3669C53.7869 43.2992 53.6992 43.2379 53.5703 43.1828C53.4439 43.1252 53.2581 43.0713 53.0131 43.0212C52.7964 42.9762 52.5965 42.9198 52.4133 42.8522C52.2302 42.7846 52.0728 42.7032 51.9412 42.608C51.8097 42.5103 51.7065 42.3964 51.6317 42.2662C51.5595 42.1334 51.5233 41.9807 51.5233 41.8079C51.5233 41.6401 51.5608 41.4823 51.6356 41.3345C51.7104 41.1843 51.8187 41.0528 51.9606 40.9401C52.1025 40.8249 52.2753 40.7347 52.4791 40.6696C52.6829 40.602 52.9125 40.5682 53.1678 40.5682C53.5238 40.5682 53.8295 40.6245 54.0849 40.7372C54.3429 40.8499 54.5402 41.0052 54.6769 41.203C54.8136 41.3984 54.882 41.6188 54.882 41.8642H53.8605C53.8605 41.7565 53.8347 41.6589 53.7831 41.5712C53.7341 41.4835 53.658 41.4134 53.5548 41.3608C53.4516 41.3057 53.3213 41.2782 53.164 41.2782C53.0221 41.2782 52.9021 41.3007 52.8041 41.3458C52.7087 41.3909 52.6364 41.4497 52.5874 41.5224C52.5384 41.595 52.5139 41.6751 52.5139 41.7628C52.5139 41.8279 52.5268 41.8868 52.5526 41.9393C52.581 41.9894 52.6261 42.0358 52.688 42.0783C52.75 42.1209 52.8338 42.1597 52.9395 42.1948C53.0479 42.2299 53.1807 42.2637 53.3381 42.2962C53.6502 42.3563 53.9224 42.4365 54.1545 42.5366C54.3893 42.6343 54.5724 42.7645 54.704 42.9273C54.8356 43.0901 54.9013 43.298 54.9013 43.5509C54.9013 43.7312 54.8614 43.8965 54.7814 44.0468C54.7014 44.1946 54.5853 44.3235 54.4331 44.4337C54.2809 44.5439 54.0991 44.6303 53.8876 44.6929C53.676 44.753 53.4374 44.7831 53.1717 44.7831C52.7874 44.7831 52.4623 44.7167 52.1966 44.584C51.9309 44.4488 51.7297 44.2785 51.593 44.0731C51.4563 43.8652 51.3879 43.6498 51.3879 43.427H52.3669C52.3746 43.5847 52.4185 43.7112 52.4984 43.8064C52.5784 43.9015 52.679 43.9704 52.8003 44.013C52.9241 44.0531 53.0543 44.0731 53.1911 44.0731C53.3458 44.0731 53.4761 44.0531 53.5819 44.013C53.6876 43.9704 53.7676 43.9141 53.8218 43.8439C53.8759 43.7713 53.903 43.6887 53.903 43.596Z" fill="#182D5D"/>
<path d="M56.6426 43.8139L56.6348 44.5013C56.6348 44.7693 56.5665 45.041 56.4298 45.3165C56.293 45.592 56.1163 45.8199 55.8996 46.0002L55.3579 45.711C55.4276 45.5983 55.4921 45.4843 55.5514 45.3691C55.6133 45.2539 55.6623 45.1287 55.6984 44.9935C55.7371 44.8607 55.7565 44.7117 55.7565 44.5464V43.8139H56.6426Z" fill="#182D5D"/>
<path d="M60.2527 39.2383L61.4909 41.7891L62.7369 39.2383H63.9055L62.0327 42.7057V44.708H60.9531V42.7057L59.0764 39.2383H60.2527Z" fill="#182D5D"/>
<path d="M63.9558 42.717V42.6381C63.9558 42.34 63.9996 42.0658 64.0873 41.8154C64.175 41.5624 64.3027 41.3433 64.4704 41.158C64.6381 40.9726 64.8431 40.8286 65.0856 40.726C65.3281 40.6208 65.6041 40.5682 65.9137 40.5682C66.2284 40.5682 66.507 40.6208 66.7495 40.726C66.9945 40.8286 67.2009 40.9726 67.3686 41.158C67.5363 41.3433 67.6639 41.5624 67.7516 41.8154C67.8394 42.0658 67.8832 42.34 67.8832 42.6381V42.717C67.8832 43.0125 67.8394 43.2867 67.7516 43.5397C67.6639 43.7901 67.5363 44.0092 67.3686 44.1971C67.2009 44.3824 66.9958 44.5264 66.7533 44.6291C66.5109 44.7317 66.2335 44.7831 65.9214 44.7831C65.6119 44.7831 65.3346 44.7317 65.0895 44.6291C64.8444 44.5264 64.6381 44.3824 64.4704 44.1971C64.3027 44.0092 64.175 43.7901 64.0873 43.5397C63.9996 43.2867 63.9558 43.0125 63.9558 42.717ZM64.9773 42.6381V42.717C64.9773 42.8948 64.9953 43.0613 65.0315 43.2166C65.0676 43.3719 65.123 43.5083 65.1978 43.6261C65.2726 43.7438 65.3694 43.8364 65.488 43.904C65.6093 43.9692 65.7537 44.0017 65.9214 44.0017C66.0865 44.0017 66.2284 43.9692 66.3471 43.904C66.4657 43.8364 66.5624 43.7438 66.6373 43.6261C66.7146 43.5083 66.7714 43.3719 66.8075 43.2166C66.8436 43.0613 66.8617 42.8948 66.8617 42.717V42.6381C66.8617 42.4628 66.8436 42.2987 66.8075 42.146C66.7714 41.9907 66.7146 41.8542 66.6373 41.7365C66.5624 41.6163 66.4644 41.5224 66.3432 41.4547C66.2245 41.3846 66.0814 41.3496 65.9137 41.3496C65.7486 41.3496 65.6067 41.3846 65.488 41.4547C65.3694 41.5224 65.2726 41.6163 65.1978 41.7365C65.123 41.8542 65.0676 41.9907 65.0315 42.146C64.9953 42.2987 64.9773 42.4628 64.9773 42.6381Z" fill="#182D5D"/>
<path d="M71.118 43.7425V40.6433H72.1473V44.708H71.1799L71.118 43.7425ZM71.2496 42.901L71.5669 42.8935C71.5669 43.1665 71.5359 43.4182 71.474 43.6486C71.4121 43.879 71.3154 44.0794 71.1838 44.2497C71.0548 44.4174 70.891 44.5489 70.6924 44.6441C70.4938 44.7368 70.259 44.7831 69.9882 44.7831C69.7818 44.7831 69.5935 44.7555 69.4232 44.7004C69.253 44.6428 69.1059 44.5539 68.9821 44.4337C68.8609 44.311 68.7667 44.1545 68.6996 43.9642C68.6326 43.7713 68.599 43.5397 68.599 43.2692V40.6433H69.6206V43.2767C69.6206 43.4119 69.636 43.5246 69.667 43.6148C69.7005 43.7049 69.7457 43.7788 69.8024 43.8364C69.8618 43.8915 69.9301 43.9316 70.0075 43.9566C70.0875 43.9792 70.1726 43.9904 70.2629 43.9904C70.5105 43.9904 70.7053 43.9429 70.8472 43.8477C70.9916 43.75 71.0948 43.6198 71.1567 43.457C71.2186 43.2917 71.2496 43.1064 71.2496 42.901Z" fill="#182D5D"/>
<path d="M74.0743 41.4735V44.708H73.0527V40.6433H74.0201L74.0743 41.4735ZM75.3473 40.617L75.3318 41.5411C75.2751 41.5311 75.2106 41.5236 75.1383 41.5186C75.0687 41.5136 75.0029 41.5111 74.941 41.5111C74.7837 41.5111 74.6456 41.5324 74.527 41.575C74.4083 41.615 74.309 41.6739 74.229 41.7515C74.1516 41.8291 74.0923 41.9243 74.051 42.037C74.0098 42.1472 73.9866 42.2724 73.9814 42.4127L73.7608 42.3864C73.7608 42.1284 73.7879 41.8893 73.8421 41.6689C73.8963 41.4485 73.9749 41.2556 74.0781 41.0904C74.1813 40.9251 74.3103 40.7973 74.4651 40.7072C74.6224 40.6145 74.803 40.5682 75.0068 40.5682C75.0635 40.5682 75.1242 40.5732 75.1887 40.5832C75.2557 40.5907 75.3086 40.602 75.3473 40.617Z" fill="#182D5D"/>
<path d="M80.126 42.7132H78.675V41.9018H80.126C80.3633 41.9018 80.5555 41.8642 80.7026 41.7891C80.8522 41.7114 80.9618 41.6063 81.0315 41.4735C81.1011 41.3383 81.1359 41.1843 81.1359 41.0115C81.1359 40.8437 81.1011 40.6871 81.0315 40.5419C80.9618 40.3966 80.8522 40.2789 80.7026 40.1888C80.5555 40.0986 80.3633 40.0535 80.126 40.0535H79.0232V44.708H77.9591V39.2383H80.126C80.5646 39.2383 80.9386 39.3147 81.2481 39.4675C81.5603 39.6178 81.7976 39.8269 81.9601 40.0949C82.1252 40.3603 82.2078 40.6634 82.2078 41.0039C82.2078 41.3571 82.1252 41.6614 81.9601 41.9168C81.7976 42.1723 81.5603 42.3688 81.2481 42.5066C80.9386 42.6443 80.5646 42.7132 80.126 42.7132Z" fill="#182D5D"/>
<path d="M83.9877 41.4735V44.708H82.9662V40.6433H83.9335L83.9877 41.4735ZM85.2607 40.617L85.2452 41.5411C85.1885 41.5311 85.124 41.5236 85.0518 41.5186C84.9821 41.5136 84.9163 41.5111 84.8544 41.5111C84.6971 41.5111 84.5591 41.5324 84.4404 41.575C84.3217 41.615 84.2224 41.6739 84.1425 41.7515C84.0651 41.8291 84.0057 41.9243 83.9645 42.037C83.9232 42.1472 83.9 42.2724 83.8948 42.4127L83.6743 42.3864C83.6743 42.1284 83.7013 41.8893 83.7555 41.6689C83.8097 41.4485 83.8884 41.2556 83.9916 41.0904C84.0947 40.9251 84.2237 40.7973 84.3785 40.7072C84.5359 40.6145 84.7164 40.5682 84.9202 40.5682C84.977 40.5682 85.0376 40.5732 85.1021 40.5832C85.1691 40.5907 85.222 40.602 85.2607 40.617Z" fill="#182D5D"/>
<path d="M86.9052 40.6433V44.708H85.8798V40.6433H86.9052ZM85.8102 39.5802C85.8102 39.4324 85.8618 39.3097 85.965 39.2121C86.0707 39.1144 86.2126 39.0655 86.3906 39.0655C86.5686 39.0655 86.7092 39.1144 86.8124 39.2121C86.9181 39.3097 86.971 39.4324 86.971 39.5802C86.971 39.7255 86.9181 39.8469 86.8124 39.9446C86.7092 40.0423 86.5686 40.0911 86.3906 40.0911C86.2126 40.0911 86.0707 40.0423 85.965 39.9446C85.8618 39.8469 85.8102 39.7255 85.8102 39.5802Z" fill="#182D5D"/>
<path d="M89.5983 44.0017C89.7428 44.0017 89.8718 43.9742 89.9853 43.9191C90.0988 43.864 90.1891 43.7863 90.2561 43.6862C90.3258 43.586 90.3632 43.4695 90.3683 43.3368H91.3318C91.3267 43.6123 91.2467 43.859 91.0919 44.0768C90.9371 44.2947 90.7308 44.4675 90.4728 44.5953C90.2174 44.7205 89.9311 44.7831 89.6138 44.7831C89.2914 44.7831 89.0102 44.7305 88.7703 44.6253C88.5304 44.5201 88.3305 44.3736 88.1705 44.1858C88.0132 43.998 87.8945 43.7801 87.8145 43.5321C87.7371 43.2842 87.6984 43.0187 87.6984 42.7357V42.6155C87.6984 42.3325 87.7371 42.0671 87.8145 41.8191C87.8945 41.5712 88.0132 41.3533 88.1705 41.1655C88.3305 40.9777 88.5304 40.8311 88.7703 40.726C89.0102 40.6208 89.2901 40.5682 89.6099 40.5682C89.9479 40.5682 90.2445 40.632 90.4999 40.7598C90.7579 40.8875 90.9591 41.0678 91.1035 41.3007C91.2506 41.5336 91.3267 41.8079 91.3318 42.1234H90.3683C90.3632 41.9782 90.3296 41.8479 90.2677 41.7327C90.2058 41.6175 90.1181 41.5249 90.0046 41.4547C89.8911 41.3846 89.7531 41.3496 89.5906 41.3496C89.4178 41.3496 89.2733 41.3846 89.1572 41.4547C89.0437 41.5249 88.9547 41.6213 88.8902 41.744C88.8283 41.8642 88.7845 41.9994 88.7587 42.1497C88.7355 42.2975 88.7238 42.4527 88.7238 42.6155V42.7357C88.7238 42.901 88.7355 43.0588 88.7587 43.2091C88.7845 43.3593 88.8283 43.4946 88.8902 43.6148C88.9547 43.7325 89.0437 43.8264 89.1572 43.8965C89.2733 43.9667 89.4203 44.0017 89.5983 44.0017Z" fill="#182D5D"/>
<path d="M93.8934 44.7831C93.5761 44.7831 93.291 44.733 93.0382 44.6328C92.7854 44.5326 92.57 44.3937 92.392 44.2158C92.2166 44.0355 92.0812 43.8264 91.9857 43.5885C91.8929 43.3481 91.8465 43.0901 91.8465 42.8146V42.6644C91.8465 42.3513 91.8929 42.0671 91.9857 41.8116C92.0786 41.5537 92.2102 41.332 92.3804 41.1467C92.5507 40.9614 92.7545 40.8186 92.9918 40.7184C93.2291 40.6183 93.4909 40.5682 93.7773 40.5682C94.0739 40.5682 94.3358 40.617 94.5628 40.7147C94.7898 40.8099 94.9794 40.9451 95.1316 41.1204C95.2838 41.2957 95.3986 41.5061 95.476 41.7515C95.5533 41.9944 95.592 42.2637 95.592 42.5592V42.9762H92.3108V42.2925H94.586V42.2173C94.5808 42.0596 94.5499 41.9156 94.4931 41.7853C94.4364 41.6526 94.3487 41.5474 94.23 41.4698C94.1113 41.3896 93.9579 41.3496 93.7695 41.3496C93.6174 41.3496 93.4845 41.3821 93.371 41.4472C93.2601 41.5098 93.1672 41.6 93.0924 41.7177C93.0202 41.8329 92.966 41.9706 92.9299 42.1309C92.8938 42.2912 92.8757 42.469 92.8757 42.6644V42.8146C92.8757 42.9849 92.8989 43.1427 92.9454 43.288C92.9944 43.4332 93.0653 43.5597 93.1582 43.6674C93.2536 43.7726 93.3671 43.8552 93.4987 43.9153C93.6328 43.9729 93.785 44.0017 93.9553 44.0017C94.1694 44.0017 94.3629 43.9616 94.5357 43.8815C94.7111 43.7989 94.8633 43.6774 94.9923 43.5171L95.5069 44.0355C95.4192 44.1607 95.3005 44.281 95.1509 44.3962C95.0039 44.5114 94.8259 44.6053 94.6169 44.6779C94.408 44.748 94.1668 44.7831 93.8934 44.7831Z" fill="#182D5D"/>
<path d="M98.5495 43.5961C98.5495 43.511 98.5263 43.4346 98.4799 43.367C98.4334 43.2993 98.3457 43.238 98.2168 43.1829C98.0904 43.1253 97.9046 43.0714 97.6596 43.0214C97.4429 42.9763 97.243 42.9199 97.0598 42.8523C96.8767 42.7847 96.7193 42.7033 96.5877 42.6081C96.4562 42.5105 96.353 42.3965 96.2782 42.2663C96.206 42.1335 96.1698 41.9808 96.1698 41.808C96.1698 41.6402 96.2072 41.4824 96.2821 41.3346C96.3569 41.1844 96.4652 41.0529 96.6071 40.9402C96.749 40.825 96.9218 40.7348 97.1256 40.6697C97.3294 40.6021 97.559 40.5683 97.8143 40.5683C98.1703 40.5683 98.476 40.6246 98.7314 40.7373C98.9894 40.85 99.1867 41.0053 99.3234 41.2032C99.4601 41.3985 99.5285 41.6189 99.5285 41.8643H98.507C98.507 41.7566 98.4812 41.659 98.4296 41.5713C98.3806 41.4837 98.3045 41.4135 98.2013 41.3609C98.0981 41.3058 97.9678 41.2783 97.8105 41.2783C97.6686 41.2783 97.5486 41.3008 97.4506 41.3459C97.3552 41.391 97.2829 41.4498 97.2339 41.5225C97.1849 41.5951 97.1604 41.6752 97.1604 41.7629C97.1604 41.828 97.1733 41.8869 97.1991 41.9395C97.2275 41.9895 97.2726 42.0359 97.3345 42.0784C97.3965 42.121 97.4803 42.1598 97.586 42.1949C97.6944 42.23 97.8272 42.2638 97.9846 42.2963C98.2967 42.3564 98.5689 42.4366 98.801 42.5368C99.0358 42.6344 99.2189 42.7647 99.3505 42.9274C99.4821 43.0902 99.5478 43.2981 99.5478 43.551C99.5478 43.7314 99.5078 43.8966 99.4279 44.0469C99.3479 44.1947 99.2318 44.3236 99.0796 44.4338C98.9274 44.544 98.7456 44.6304 98.534 44.693C98.3225 44.7531 98.0839 44.7832 97.8182 44.7832C97.4339 44.7832 97.1088 44.7168 96.8431 44.5841C96.5774 44.4489 96.3762 44.2786 96.2395 44.0732C96.1028 43.8653 96.0344 43.65 96.0344 43.4271H97.0134C97.0211 43.5848 97.065 43.7113 97.1449 43.8065C97.2249 43.9016 97.3255 43.9705 97.4467 44.0131C97.5706 44.0532 97.7008 44.0732 97.8376 44.0732C97.9923 44.0732 98.1226 44.0532 98.2284 44.0131C98.3341 43.9705 98.4141 43.9142 98.4683 43.844C98.5224 43.7714 98.5495 43.6888 98.5495 43.5961Z" fill="#182D5D"/>
</svg>
