<svg width="79" height="28" viewBox="0 0 79 28" fill="none" xmlns="http://www.w3.org/2000/svg">
<path d="M13.8097 7.54529L7.37729 13.9586L13.8097 20.3719L20.2421 13.9586L13.8097 7.54529ZM9.41131 13.9586L13.8097 9.57327L18.2081 13.9586L13.8097 18.3433L9.41131 13.9586ZM13.8097 7.54529L7.37729 13.9586L13.8097 20.3719L20.2421 13.9586L13.8097 7.54529ZM9.41131 13.9586L13.8097 9.57327L18.2081 13.9586L13.8097 18.3433L9.41131 13.9586ZM13.8097 7.54529L7.37729 13.9586L13.8097 20.3719L20.2421 13.9586L13.8097 7.54529ZM9.41131 13.9586L13.8097 9.57327L18.2081 13.9586L13.8097 18.3433L9.41131 13.9586ZM13.8097 7.54529L7.37729 13.9586L13.8097 20.3719L20.2421 13.9586L13.8097 7.54529ZM9.41131 13.9586L13.8097 9.57327L18.2081 13.9586L13.8097 18.3433L9.41131 13.9586ZM13.8097 7.54529L7.37729 13.9586L13.8097 20.3719L20.2421 13.9586L13.8097 7.54529ZM9.41131 13.9586L13.8097 9.57327L18.2081 13.9586L13.8097 18.3433L9.41131 13.9586ZM13.8097 7.54529L7.37729 13.9586L13.8097 20.3719L20.2421 13.9586L13.8097 7.54529ZM9.41131 13.9586L13.8097 9.57327L18.2081 13.9586L13.8097 18.3433L9.41131 13.9586ZM13.8097 7.54529L7.37729 13.9586L13.8097 20.3719L20.2421 13.9586L13.8097 7.54529ZM9.41131 13.9586L13.8097 9.57327L18.2081 13.9586L13.8097 18.3433L9.41131 13.9586ZM13.8097 7.54529L7.37729 13.9586L13.8097 20.3719L20.2421 13.9586L13.8097 7.54529ZM9.41131 13.9586L13.8097 9.57327L18.2081 13.9586L13.8097 18.3433L9.41131 13.9586ZM27.7574 12.4941C27.7453 12.3775 27.732 12.2617 27.7175 12.1467C27.6862 11.9014 27.6488 11.6583 27.605 11.4176C27.5888 11.3291 27.5719 11.2414 27.5545 11.1542C27.5376 11.0707 27.5201 10.9879 27.502 10.9051C27.4839 10.8223 27.4664 10.7476 27.4477 10.6691C27.4102 10.5131 27.37 10.3576 27.3271 10.2028C27.3071 10.1305 27.2863 10.0583 27.2647 9.98608C27.2441 9.91635 27.2228 9.84661 27.2022 9.7775C27.1816 9.70838 27.1598 9.643 27.1398 9.57638C27.1198 9.50976 27.0967 9.44687 27.0773 9.38274C27.0357 9.25821 26.9903 9.13264 26.9412 9.00603C26.23 7.12118 25.1175 5.41239 23.6804 3.99729C22.2433 2.5822 20.5157 1.49441 18.6165 0.808824L18.4292 0.742201L18.2275 0.677445C18.1588 0.655029 18.0894 0.632614 18.0201 0.611444C17.9508 0.590274 17.8765 0.567858 17.8047 0.549179C17.7328 0.530499 17.6504 0.50497 17.573 0.486913C17.4106 0.443328 17.247 0.40161 17.0821 0.362383C16.9093 0.320873 16.7353 0.283722 16.56 0.250929C16.4164 0.223532 16.2721 0.198003 16.1272 0.174342C15.9824 0.150682 15.8366 0.129927 15.6901 0.112077L15.5134 0.0909071C15.3978 0.0772088 15.281 0.0653784 15.1649 0.055416C14.754 0.018472 14.3376 0 13.9159 0C13.4941 0 13.0778 0.018472 12.6669 0.055416C12.5499 0.0662086 12.4337 0.078039 12.3184 0.0909071C12.2022 0.104605 12.0861 0.118926 11.9705 0.135115C11.8737 0.148814 11.7776 0.163135 11.6814 0.178701C11.5377 0.202362 11.3947 0.22789 11.2523 0.255287C11.0787 0.28891 10.9057 0.326269 10.7346 0.366119C10.6547 0.384799 10.5748 0.404723 10.4948 0.424648C10.3406 0.463875 10.1869 0.50497 10.0352 0.549179C7.77676 1.2091 5.72229 2.42753 4.06271 4.09122C2.40312 5.75491 1.19228 7.80988 0.542697 10.0652C0.498981 10.2183 0.457139 10.3715 0.417796 10.5265C0.397811 10.6062 0.378452 10.6866 0.359717 10.7669C0.319748 10.9381 0.283527 11.1112 0.249804 11.2849C0.195263 11.5705 0.149258 11.859 0.111788 12.1504C0.0976322 12.2654 0.0843094 12.3812 0.0718193 12.4979C-0.0239398 13.4444 -0.0239398 14.3981 0.0718193 15.3446C0.0843094 15.4613 0.0976322 15.5771 0.111788 15.6921C0.149258 15.9826 0.195263 16.2711 0.249804 16.5576C0.283527 16.7313 0.319748 16.9044 0.359717 17.0756C0.378452 17.1559 0.397811 17.2362 0.417796 17.3159C0.456515 17.471 0.498357 17.6242 0.542697 17.7773C1.19228 20.0326 2.40312 22.0876 4.06271 23.7513C5.72229 25.415 7.77676 26.6334 10.0352 27.2933C10.1869 27.3381 10.3406 27.3792 10.4948 27.4178C10.5748 27.4378 10.6547 27.4577 10.7346 27.4764C10.9057 27.5162 11.0787 27.5536 11.2523 27.5872C11.3947 27.6146 11.5377 27.6401 11.6814 27.6638C11.7776 27.6793 11.8737 27.6937 11.9705 27.7074C12.0861 27.7236 12.2022 27.7379 12.3184 27.7516C12.4345 27.7653 12.5501 27.7765 12.6669 27.7871C13.0778 27.8236 13.4941 27.8421 13.9159 27.8425C14.3376 27.8429 14.754 27.8244 15.1649 27.7871C15.281 27.7767 15.3972 27.7649 15.5134 27.7516L15.6901 27.7304C15.8366 27.7117 15.9824 27.691 16.1272 27.6681C16.2721 27.6453 16.4164 27.6198 16.56 27.5916C16.7349 27.5579 16.9089 27.5208 17.0821 27.4801C17.247 27.4415 17.4106 27.3998 17.573 27.3556C17.6504 27.3344 17.7279 27.3126 17.8047 27.2902C17.8815 27.2678 17.9483 27.2479 18.0201 27.2279C18.0919 27.208 18.1588 27.1843 18.2275 27.1619L18.4273 27.0953L18.6147 27.0287C20.5133 26.3429 22.2404 25.255 23.677 23.8401C25.1137 22.4251 26.2258 20.7166 26.9368 18.8321C26.9839 18.7076 27.0292 18.582 27.073 18.4554C27.0948 18.3931 27.1167 18.3265 27.1354 18.2617C27.1541 18.197 27.1785 18.1279 27.1979 18.0606C27.2172 17.9934 27.2403 17.9218 27.2603 17.852C27.2803 17.7823 27.3022 17.7076 27.3228 17.6354C27.3644 17.4809 27.4046 17.3255 27.4433 17.169C27.462 17.0905 27.4801 17.0121 27.4976 16.933C27.5151 16.8539 27.5332 16.7674 27.5501 16.6839C27.5669 16.6005 27.5844 16.509 27.6007 16.4206C27.6444 16.1794 27.6819 15.9364 27.7131 15.6914C27.7281 15.5765 27.7414 15.4606 27.753 15.344C27.8488 14.3975 27.8488 13.4438 27.753 12.4972L27.7574 12.4941ZM26.3492 12.8876L14.8926 1.46448C20.9772 1.93831 25.8508 6.80247 26.3492 12.887V12.8876ZM13.8097 25.5032L2.22949 13.9574L13.8097 2.41215L18.6727 7.26136C16.9396 6.01404 14.7838 5.49671 12.6712 5.82117C12.5657 5.83736 12.4608 5.85541 12.359 5.87596C12.3065 5.88592 12.2547 5.89651 12.2028 5.90772C12.0667 5.93698 11.9312 5.96998 11.7975 6.00547L11.6726 6.04034C11.5933 6.06338 11.5146 6.08704 11.4366 6.11195C11.3585 6.13685 11.2904 6.15989 11.218 6.18542C11.1456 6.21095 11.0831 6.23399 11.0163 6.25952C10.9538 6.28442 10.887 6.30995 10.8227 6.3361C8.897 7.13143 7.34686 8.62733 6.48674 10.5203C6.45802 10.5826 6.43054 10.6449 6.40306 10.7071C6.37558 10.7694 6.34436 10.8485 6.31625 10.9194C6.28628 10.9948 6.25755 11.0714 6.23007 11.1486C6.20259 11.2258 6.17387 11.3111 6.14701 11.3933L6.1058 11.5253C6.07832 11.6162 6.05209 11.7083 6.02773 11.8005C6.00025 11.9018 5.97507 12.0043 5.95217 12.1081C5.94093 12.1598 5.92969 12.2114 5.91907 12.2637C5.9122 12.2974 5.90595 12.3304 5.89908 12.364C5.87972 12.4636 5.86224 12.5639 5.84725 12.6654C5.83226 12.7668 5.8179 12.8702 5.80603 12.9767C5.79854 13.0445 5.79167 13.113 5.78542 13.1815C5.76419 13.4231 5.75295 13.6684 5.75295 13.9156C5.75295 14.1628 5.76419 14.4082 5.78542 14.6497C5.79167 14.7182 5.79854 14.7867 5.80603 14.8552C5.8179 14.958 5.83164 15.0607 5.84725 15.1628C5.86286 15.2649 5.87972 15.3645 5.89908 15.4642C5.90595 15.4978 5.9122 15.5308 5.91907 15.5644C5.92969 15.6167 5.94093 15.6684 5.95217 15.7201C5.97548 15.8234 6.00067 15.926 6.02773 16.0277C6.06395 16.164 6.10392 16.2985 6.14639 16.4318C6.19593 16.5845 6.24943 16.7352 6.30689 16.8838L6.34686 16.9847C6.3989 17.1121 6.45344 17.2381 6.51048 17.3626C6.53483 17.4156 6.56044 17.4679 6.58542 17.5202C6.6335 17.6179 6.68346 17.7151 6.73467 17.8103C6.78588 17.9056 6.83022 17.9828 6.87956 18.0675C7.60013 19.2952 8.62893 20.3147 9.8647 21.0257C9.90716 21.05 9.94963 21.0743 9.99272 21.0979L10.1357 21.1751C10.1869 21.2019 10.2388 21.2281 10.2906 21.2542C10.4011 21.309 10.5136 21.3619 10.6266 21.4124C10.689 21.4398 10.7515 21.4672 10.8139 21.4933C10.8764 21.5195 10.9476 21.5469 11.015 21.573C11.0894 21.6016 11.1643 21.629 11.2392 21.6552L11.3716 21.7C11.5919 21.7723 11.8165 21.8345 12.0455 21.8868C12.1485 21.9111 12.2522 21.9329 12.3577 21.9534C12.4633 21.974 12.5663 21.9921 12.67 22.0082C13.4941 22.1344 14.3327 22.1344 15.1568 22.0082C15.2921 21.9875 15.4263 21.9634 15.5596 21.936L15.5764 21.9323C15.6181 21.9244 15.658 21.9157 15.6963 21.9061C15.7744 21.8887 15.8512 21.87 15.9287 21.8507C16.0061 21.8314 16.0723 21.8127 16.1435 21.7928C17.1916 21.4954 18.1687 20.9901 19.0162 20.3072L13.8097 25.5032ZM13.9146 20.6745C10.2057 20.6745 7.18869 17.6428 7.18869 13.9169C7.18869 10.1909 10.2057 7.15987 13.9146 7.15987C17.6236 7.15987 20.6406 10.1909 20.6406 13.9169C20.6406 17.6428 17.6236 20.6745 13.9146 20.6745ZM21.5124 16.9162C21.5573 16.8025 21.599 16.6873 21.6373 16.5706C21.6597 16.5046 21.6816 16.4386 21.6997 16.372C21.6997 16.372 21.6997 16.372 21.6997 16.3689C21.7209 16.3004 21.7416 16.2313 21.7622 16.1622C21.7722 16.1267 21.7821 16.0918 21.7915 16.0563C21.7915 16.0563 21.7915 16.0563 21.7915 16.0526C21.8127 15.9729 21.8327 15.8932 21.854 15.8122C21.8752 15.7313 21.8914 15.6485 21.9083 15.5632C21.9152 15.5296 21.9214 15.4966 21.9283 15.4629C21.9476 15.3633 21.9651 15.2631 21.9801 15.1616C21.9951 15.0601 22.0095 14.9567 22.0213 14.854C22.0288 14.7855 22.0357 14.717 22.0419 14.6485C22.0632 14.4069 22.0744 14.1616 22.0744 13.9144C22.0744 13.6672 22.0632 13.4219 22.0419 13.1803C22.0357 13.1118 22.0288 13.0433 22.0213 12.9754C22.0093 12.8721 21.9955 12.7683 21.9801 12.6641C21.9651 12.5626 21.9476 12.4624 21.9283 12.3627C21.9214 12.3291 21.9152 12.2961 21.9083 12.2625C21.8858 12.1529 21.8608 12.0433 21.8346 11.9356C21.8165 11.8634 21.7978 11.7918 21.7778 11.7202C21.7609 11.6579 21.7441 11.6 21.7259 11.5402C21.7078 11.4804 21.6891 11.4213 21.6697 11.3621C21.6504 11.303 21.6354 11.2588 21.6179 11.2077C21.3565 10.4535 20.9848 9.7418 20.515 9.09569L25.3862 13.9524L20.2509 19.0724C20.7798 18.4225 21.2053 17.6952 21.5124 16.9162ZM12.7068 1.48689L1.49882 12.6573C2.09335 6.75701 6.80712 2.05413 12.7068 1.48689ZM1.51006 15.2668L12.615 26.3407C6.78838 25.7348 2.13831 21.0954 1.51006 15.2668ZM14.9813 26.3624L26.3417 15.0352C25.8058 21.0494 20.9946 25.8506 14.9813 26.3624ZM7.37854 13.958L13.811 20.3713L20.2434 13.958L13.811 7.54467L7.37854 13.958ZM13.811 18.3427L9.41131 13.958L13.8097 9.57264L18.2081 13.958L13.811 18.3427ZM13.811 7.54529L7.37854 13.9586L13.811 20.3719L20.2434 13.9586L13.811 7.54529ZM9.41256 13.9586L13.811 9.57327L18.2093 13.9586L13.811 18.3433L9.41256 13.9586ZM13.811 7.54529L7.37854 13.9586L13.811 20.3719L20.2434 13.9586L13.811 7.54529ZM9.41256 13.9586L13.811 9.57327L18.2093 13.9586L13.811 18.3433L9.41256 13.9586ZM13.811 7.54529L7.37854 13.9586L13.811 20.3719L20.2434 13.9586L13.811 7.54529ZM9.41256 13.9586L13.811 9.57327L18.2093 13.9586L13.811 18.3433L9.41256 13.9586ZM13.811 7.54529L7.37854 13.9586L13.811 20.3719L20.2434 13.9586L13.811 7.54529ZM9.41256 13.9586L13.811 9.57327L18.2093 13.9586L13.811 18.3433L9.41256 13.9586ZM13.811 7.54529L7.37854 13.9586L13.811 20.3719L20.2434 13.9586L13.811 7.54529ZM9.41256 13.9586L13.811 9.57327L18.2093 13.9586L13.811 18.3433L9.41256 13.9586ZM13.811 7.54529L7.37854 13.9586L13.811 20.3719L20.2434 13.9586L13.811 7.54529ZM9.41256 13.9586L13.811 9.57327L18.2093 13.9586L13.811 18.3433L9.41256 13.9586Z" fill="#212121"/>
<path d="M13.8097 7.54529L7.37729 13.9586L13.8097 20.3719L20.2421 13.9586L13.8097 7.54529ZM9.41131 13.9586L13.8097 9.57327L18.2081 13.9586L13.8097 18.3433L9.41131 13.9586ZM13.8097 7.54529L7.37729 13.9586L13.8097 20.3719L20.2421 13.9586L13.8097 7.54529ZM9.41131 13.9586L13.8097 9.57327L18.2081 13.9586L13.8097 18.3433L9.41131 13.9586ZM13.8097 7.54529L7.37729 13.9586L13.8097 20.3719L20.2421 13.9586L13.8097 7.54529ZM9.41131 13.9586L13.8097 9.57327L18.2081 13.9586L13.8097 18.3433L9.41131 13.9586ZM13.8097 7.54529L7.37729 13.9586L13.8097 20.3719L20.2421 13.9586L13.8097 7.54529ZM9.41131 13.9586L13.8097 9.57327L18.2081 13.9586L13.8097 18.3433L9.41131 13.9586ZM13.8097 7.54529L7.37729 13.9586L13.8097 20.3719L20.2421 13.9586L13.8097 7.54529ZM9.41131 13.9586L13.8097 9.57327L18.2081 13.9586L13.8097 18.3433L9.41131 13.9586ZM13.8097 7.54529L7.37729 13.9586L13.8097 20.3719L20.2421 13.9586L13.8097 7.54529ZM9.41131 13.9586L13.8097 9.57327L18.2081 13.9586L13.8097 18.3433L9.41131 13.9586ZM13.8097 7.54529L7.37729 13.9586L13.8097 20.3719L20.2421 13.9586L13.8097 7.54529ZM9.41131 13.9586L13.8097 9.57327L18.2081 13.9586L13.8097 18.3433L9.41131 13.9586ZM13.8097 7.54529L7.37729 13.9586L13.8097 20.3719L20.2421 13.9586L13.8097 7.54529ZM9.41131 13.9586L13.8097 9.57327L18.2081 13.9586L13.8097 18.3433L9.41131 13.9586ZM27.7574 12.4941C27.7453 12.3775 27.732 12.2617 27.7175 12.1467C27.6862 11.9014 27.6488 11.6583 27.605 11.4176C27.5888 11.3291 27.5719 11.2414 27.5545 11.1542C27.5376 11.0707 27.5201 10.9879 27.502 10.9051C27.4839 10.8223 27.4664 10.7476 27.4477 10.6691C27.4102 10.5131 27.37 10.3576 27.3271 10.2028C27.3071 10.1305 27.2863 10.0583 27.2647 9.98608C27.2441 9.91635 27.2228 9.84661 27.2022 9.7775C27.1816 9.70838 27.1598 9.643 27.1398 9.57638C27.1198 9.50976 27.0967 9.44687 27.0773 9.38274C27.0357 9.25821 26.9903 9.13264 26.9412 9.00603C26.23 7.12118 25.1175 5.41239 23.6804 3.99729C22.2433 2.5822 20.5157 1.49441 18.6165 0.808824L18.4292 0.742201L18.2275 0.677445C18.1588 0.655029 18.0894 0.632614 18.0201 0.611444C17.9508 0.590274 17.8765 0.567858 17.8047 0.549179C17.7328 0.530499 17.6504 0.50497 17.573 0.486913C17.4106 0.443328 17.247 0.40161 17.0821 0.362383C16.9093 0.320873 16.7353 0.283722 16.56 0.250929C16.4164 0.223532 16.2721 0.198003 16.1272 0.174342C15.9824 0.150682 15.8366 0.129927 15.6901 0.112077L15.5134 0.0909071C15.3978 0.0772088 15.281 0.0653784 15.1649 0.055416C14.754 0.018472 14.3376 0 13.9159 0C13.4941 0 13.0778 0.018472 12.6669 0.055416C12.5499 0.0662086 12.4337 0.078039 12.3184 0.0909071C12.2022 0.104605 12.0861 0.118926 11.9705 0.135115C11.8737 0.148814 11.7776 0.163135 11.6814 0.178701C11.5377 0.202362 11.3947 0.22789 11.2523 0.255287C11.0787 0.28891 10.9057 0.326269 10.7346 0.366119C10.6547 0.384799 10.5748 0.404723 10.4948 0.424648C10.3406 0.463875 10.1869 0.50497 10.0352 0.549179C7.77676 1.2091 5.72229 2.42753 4.06271 4.09122C2.40312 5.75491 1.19228 7.80988 0.542697 10.0652C0.498981 10.2183 0.457139 10.3715 0.417796 10.5265C0.397811 10.6062 0.378452 10.6866 0.359717 10.7669C0.319748 10.9381 0.283527 11.1112 0.249804 11.2849C0.195263 11.5705 0.149258 11.859 0.111788 12.1504C0.0976322 12.2654 0.0843094 12.3812 0.0718193 12.4979C-0.0239398 13.4444 -0.0239398 14.3981 0.0718193 15.3446C0.0843094 15.4613 0.0976322 15.5771 0.111788 15.6921C0.149258 15.9826 0.195263 16.2711 0.249804 16.5576C0.283527 16.7313 0.319748 16.9044 0.359717 17.0756C0.378452 17.1559 0.397811 17.2362 0.417796 17.3159C0.456515 17.471 0.498357 17.6242 0.542697 17.7773C1.19228 20.0326 2.40312 22.0876 4.06271 23.7513C5.72229 25.415 7.77676 26.6334 10.0352 27.2933C10.1869 27.3381 10.3406 27.3792 10.4948 27.4178C10.5748 27.4378 10.6547 27.4577 10.7346 27.4764C10.9057 27.5162 11.0787 27.5536 11.2523 27.5872C11.3947 27.6146 11.5377 27.6401 11.6814 27.6638C11.7776 27.6793 11.8737 27.6937 11.9705 27.7074C12.0861 27.7236 12.2022 27.7379 12.3184 27.7516C12.4345 27.7653 12.5501 27.7765 12.6669 27.7871C13.0778 27.8236 13.4941 27.8421 13.9159 27.8425C14.3376 27.8429 14.754 27.8244 15.1649 27.7871C15.281 27.7767 15.3972 27.7649 15.5134 27.7516L15.6901 27.7304C15.8366 27.7117 15.9824 27.691 16.1272 27.6681C16.2721 27.6453 16.4164 27.6198 16.56 27.5916C16.7349 27.5579 16.9089 27.5208 17.0821 27.4801C17.247 27.4415 17.4106 27.3998 17.573 27.3556C17.6504 27.3344 17.7279 27.3126 17.8047 27.2902C17.8815 27.2678 17.9483 27.2479 18.0201 27.2279C18.0919 27.208 18.1588 27.1843 18.2275 27.1619L18.4273 27.0953L18.6147 27.0287C20.5133 26.3429 22.2404 25.255 23.677 23.8401C25.1137 22.4251 26.2258 20.7166 26.9368 18.8321C26.9839 18.7076 27.0292 18.582 27.073 18.4554C27.0948 18.3931 27.1167 18.3265 27.1354 18.2617C27.1541 18.197 27.1785 18.1279 27.1979 18.0606C27.2172 17.9934 27.2403 17.9218 27.2603 17.852C27.2803 17.7823 27.3022 17.7076 27.3228 17.6354C27.3644 17.4809 27.4046 17.3255 27.4433 17.169C27.462 17.0905 27.4801 17.0121 27.4976 16.933C27.5151 16.8539 27.5332 16.7674 27.5501 16.6839C27.5669 16.6005 27.5844 16.509 27.6007 16.4206C27.6444 16.1794 27.6819 15.9364 27.7131 15.6914C27.7281 15.5765 27.7414 15.4606 27.753 15.344C27.8488 14.3975 27.8488 13.4438 27.753 12.4972L27.7574 12.4941ZM26.3492 12.8876L14.8926 1.46448C20.9772 1.93831 25.8508 6.80247 26.3492 12.887V12.8876ZM13.8097 25.5032L2.22949 13.9574L13.8097 2.41215L18.6727 7.26136C16.9396 6.01404 14.7838 5.49671 12.6712 5.82117C12.5657 5.83736 12.4608 5.85541 12.359 5.87596C12.3065 5.88592 12.2547 5.89651 12.2028 5.90772C12.0667 5.93698 11.9312 5.96998 11.7975 6.00547L11.6726 6.04034C11.5933 6.06338 11.5146 6.08704 11.4366 6.11195C11.3585 6.13685 11.2904 6.15989 11.218 6.18542C11.1456 6.21095 11.0831 6.23399 11.0163 6.25952C10.9538 6.28442 10.887 6.30995 10.8227 6.3361C8.897 7.13143 7.34686 8.62733 6.48674 10.5203C6.45802 10.5826 6.43054 10.6449 6.40306 10.7071C6.37558 10.7694 6.34436 10.8485 6.31625 10.9194C6.28628 10.9948 6.25755 11.0714 6.23007 11.1486C6.20259 11.2258 6.17387 11.3111 6.14701 11.3933L6.1058 11.5253C6.07832 11.6162 6.05209 11.7083 6.02773 11.8005C6.00025 11.9018 5.97507 12.0043 5.95217 12.1081C5.94093 12.1598 5.92969 12.2114 5.91907 12.2637C5.9122 12.2974 5.90595 12.3304 5.89908 12.364C5.87972 12.4636 5.86224 12.5639 5.84725 12.6654C5.83226 12.7668 5.8179 12.8702 5.80603 12.9767C5.79854 13.0445 5.79167 13.113 5.78542 13.1815C5.76419 13.4231 5.75295 13.6684 5.75295 13.9156C5.75295 14.1628 5.76419 14.4082 5.78542 14.6497C5.79167 14.7182 5.79854 14.7867 5.80603 14.8552C5.8179 14.958 5.83164 15.0607 5.84725 15.1628C5.86286 15.2649 5.87972 15.3645 5.89908 15.4642C5.90595 15.4978 5.9122 15.5308 5.91907 15.5644C5.92969 15.6167 5.94093 15.6684 5.95217 15.7201C5.97548 15.8234 6.00067 15.926 6.02773 16.0277C6.06395 16.164 6.10392 16.2985 6.14639 16.4318C6.19593 16.5845 6.24943 16.7352 6.30689 16.8838L6.34686 16.9847C6.3989 17.1121 6.45344 17.2381 6.51048 17.3626C6.53483 17.4156 6.56044 17.4679 6.58542 17.5202C6.6335 17.6179 6.68346 17.7151 6.73467 17.8103C6.78588 17.9056 6.83022 17.9828 6.87956 18.0675C7.60013 19.2952 8.62893 20.3147 9.8647 21.0257C9.90716 21.05 9.94963 21.0743 9.99272 21.0979L10.1357 21.1751C10.1869 21.2019 10.2388 21.2281 10.2906 21.2542C10.4011 21.309 10.5136 21.3619 10.6266 21.4124C10.689 21.4398 10.7515 21.4672 10.8139 21.4933C10.8764 21.5195 10.9476 21.5469 11.015 21.573C11.0894 21.6016 11.1643 21.629 11.2392 21.6552L11.3716 21.7C11.5919 21.7723 11.8165 21.8345 12.0455 21.8868C12.1485 21.9111 12.2522 21.9329 12.3577 21.9534C12.4633 21.974 12.5663 21.9921 12.67 22.0082C13.4941 22.1344 14.3327 22.1344 15.1568 22.0082C15.2921 21.9875 15.4263 21.9634 15.5596 21.936L15.5764 21.9323C15.6181 21.9244 15.658 21.9157 15.6963 21.9061C15.7744 21.8887 15.8512 21.87 15.9287 21.8507C16.0061 21.8314 16.0723 21.8127 16.1435 21.7928C17.1916 21.4954 18.1687 20.9901 19.0162 20.3072L13.8097 25.5032ZM13.9146 20.6745C10.2057 20.6745 7.18869 17.6428 7.18869 13.9169C7.18869 10.1909 10.2057 7.15987 13.9146 7.15987C17.6236 7.15987 20.6406 10.1909 20.6406 13.9169C20.6406 17.6428 17.6236 20.6745 13.9146 20.6745ZM21.5124 16.9162C21.5573 16.8025 21.599 16.6873 21.6373 16.5706C21.6597 16.5046 21.6816 16.4386 21.6997 16.372C21.6997 16.372 21.6997 16.372 21.6997 16.3689C21.7209 16.3004 21.7416 16.2313 21.7622 16.1622C21.7722 16.1267 21.7821 16.0918 21.7915 16.0563C21.7915 16.0563 21.7915 16.0563 21.7915 16.0526C21.8127 15.9729 21.8327 15.8932 21.854 15.8122C21.8752 15.7313 21.8914 15.6485 21.9083 15.5632C21.9152 15.5296 21.9214 15.4966 21.9283 15.4629C21.9476 15.3633 21.9651 15.2631 21.9801 15.1616C21.9951 15.0601 22.0095 14.9567 22.0213 14.854C22.0288 14.7855 22.0357 14.717 22.0419 14.6485C22.0632 14.4069 22.0744 14.1616 22.0744 13.9144C22.0744 13.6672 22.0632 13.4219 22.0419 13.1803C22.0357 13.1118 22.0288 13.0433 22.0213 12.9754C22.0093 12.8721 21.9955 12.7683 21.9801 12.6641C21.9651 12.5626 21.9476 12.4624 21.9283 12.3627C21.9214 12.3291 21.9152 12.2961 21.9083 12.2625C21.8858 12.1529 21.8608 12.0433 21.8346 11.9356C21.8165 11.8634 21.7978 11.7918 21.7778 11.7202C21.7609 11.6579 21.7441 11.6 21.7259 11.5402C21.7078 11.4804 21.6891 11.4213 21.6697 11.3621C21.6504 11.303 21.6354 11.2588 21.6179 11.2077C21.3565 10.4535 20.9848 9.7418 20.515 9.09569L25.3862 13.9524L20.2509 19.0724C20.7798 18.4225 21.2053 17.6952 21.5124 16.9162ZM12.7068 1.48689L1.49882 12.6573C2.09335 6.75701 6.80712 2.05413 12.7068 1.48689ZM1.51006 15.2668L12.615 26.3407C6.78838 25.7348 2.13831 21.0954 1.51006 15.2668ZM14.9813 26.3624L26.3417 15.0352C25.8058 21.0494 20.9946 25.8506 14.9813 26.3624ZM7.37854 13.958L13.811 20.3713L20.2434 13.958L13.811 7.54467L7.37854 13.958ZM13.811 18.3427L9.41131 13.958L13.8097 9.57264L18.2081 13.958L13.811 18.3427ZM13.811 7.54529L7.37854 13.9586L13.811 20.3719L20.2434 13.9586L13.811 7.54529ZM9.41256 13.9586L13.811 9.57327L18.2093 13.9586L13.811 18.3433L9.41256 13.9586ZM13.811 7.54529L7.37854 13.9586L13.811 20.3719L20.2434 13.9586L13.811 7.54529ZM9.41256 13.9586L13.811 9.57327L18.2093 13.9586L13.811 18.3433L9.41256 13.9586ZM13.811 7.54529L7.37854 13.9586L13.811 20.3719L20.2434 13.9586L13.811 7.54529ZM9.41256 13.9586L13.811 9.57327L18.2093 13.9586L13.811 18.3433L9.41256 13.9586ZM13.811 7.54529L7.37854 13.9586L13.811 20.3719L20.2434 13.9586L13.811 7.54529ZM9.41256 13.9586L13.811 9.57327L18.2093 13.9586L13.811 18.3433L9.41256 13.9586ZM13.811 7.54529L7.37854 13.9586L13.811 20.3719L20.2434 13.9586L13.811 7.54529ZM9.41256 13.9586L13.811 9.57327L18.2093 13.9586L13.811 18.3433L9.41256 13.9586ZM13.811 7.54529L7.37854 13.9586L13.811 20.3719L20.2434 13.9586L13.811 7.54529ZM9.41256 13.9586L13.811 9.57327L18.2093 13.9586L13.811 18.3433L9.41256 13.9586Z" fill="#212121"/>
<path d="M27.7574 12.4935C27.7449 12.3769 27.7316 12.261 27.7175 12.1461C27.6862 11.9007 27.6488 11.6577 27.605 11.4169C27.5888 11.3285 27.5719 11.2407 27.5545 11.1536C27.5376 11.0701 27.5201 10.9873 27.502 10.9045C27.4839 10.8217 27.4664 10.747 27.4477 10.6685C27.4102 10.5122 27.3696 10.3572 27.3271 10.2021C27.3071 10.1299 27.2863 10.0577 27.2647 9.98546C27.2441 9.91573 27.2228 9.84599 27.2022 9.77687C27.1816 9.70776 27.1598 9.64238 27.1398 9.57576C27.1198 9.50913 27.0967 9.44625 27.0773 9.38211C27.0357 9.25758 26.9903 9.13202 26.9412 9.00541C26.2269 7.12237 25.1134 5.41523 23.6767 4.00063C22.24 2.58603 20.514 1.4973 18.6165 0.808824L18.4292 0.742201L18.2275 0.677445C18.1588 0.655029 18.0894 0.632614 18.0201 0.611444C17.9508 0.590274 17.8765 0.567858 17.8047 0.549179C17.7328 0.530499 17.6504 0.50497 17.573 0.486913C17.4106 0.443328 17.247 0.40161 17.0821 0.362383C16.9093 0.320873 16.7353 0.283722 16.56 0.250929C16.4164 0.223532 16.2721 0.198003 16.1272 0.174342C15.9824 0.150682 15.8366 0.129927 15.6901 0.112077L15.5134 0.0909071C15.3972 0.078039 15.281 0.0662086 15.1649 0.055416C14.754 0.018472 14.3376 0 13.9159 0C13.4941 0 13.0778 0.018472 12.6669 0.055416C12.5499 0.0662086 12.4337 0.078039 12.3184 0.0909071C12.2022 0.104605 12.0861 0.118926 11.9705 0.135115C11.8737 0.148814 11.7776 0.163135 11.6814 0.178701C11.5377 0.202362 11.3947 0.22789 11.2523 0.255287C11.0787 0.28891 10.9057 0.326269 10.7346 0.366119C10.6547 0.384799 10.5748 0.404723 10.4948 0.424648C10.3406 0.463875 10.1869 0.505593 10.0352 0.549179C7.77867 1.2128 5.72617 2.43247 4.06714 4.09561C2.4081 5.75875 1.196 7.81176 0.542697 10.0652C0.498981 10.2183 0.457139 10.3715 0.417796 10.5265C0.397811 10.6062 0.378452 10.6866 0.359717 10.7669C0.319748 10.9381 0.283527 11.1112 0.249804 11.2849C0.195263 11.5705 0.149258 11.859 0.111788 12.1504C0.0976322 12.2654 0.0843094 12.3812 0.0718193 12.4979C-0.0239398 13.4444 -0.0239398 14.3981 0.0718193 15.3446C0.0843094 15.4613 0.0976322 15.5771 0.111788 15.6921C0.149258 15.9826 0.195263 16.2711 0.249804 16.5576C0.283527 16.7313 0.319748 16.9044 0.359717 17.0756C0.378452 17.1559 0.397811 17.2362 0.417796 17.3159C0.456515 17.471 0.498357 17.6242 0.542697 17.7773C1.196 20.0307 2.4081 22.0837 4.06714 23.7469C5.72617 25.41 7.77867 26.6297 10.0352 27.2933C10.1869 27.3375 10.3406 27.3792 10.4948 27.4178C10.5748 27.4378 10.6547 27.4577 10.7346 27.4764C10.9057 27.5162 11.0787 27.5536 11.2523 27.5872C11.3947 27.6146 11.5377 27.6401 11.6814 27.6638C11.7776 27.6793 11.8737 27.6937 11.9705 27.7074C12.0861 27.7236 12.2022 27.7379 12.3184 27.7516C12.4345 27.7653 12.5501 27.7765 12.6669 27.7871C13.0778 27.8236 13.4941 27.8421 13.9159 27.8425C14.3376 27.8429 14.754 27.8244 15.1649 27.7871C15.281 27.7767 15.3972 27.7649 15.5134 27.7516L15.6901 27.7304C15.8366 27.7117 15.9824 27.691 16.1272 27.6681C16.2721 27.6453 16.4164 27.6198 16.56 27.5916C16.7349 27.5579 16.9089 27.5208 17.0821 27.4801C17.247 27.4415 17.4106 27.3998 17.573 27.3556C17.6504 27.3344 17.7279 27.3126 17.8047 27.2902C17.8815 27.2678 17.9483 27.2479 18.0201 27.2279C18.0919 27.208 18.1588 27.1843 18.2275 27.1619L18.4273 27.0953L18.6147 27.0287C20.5116 26.3399 22.2372 25.251 23.6735 23.8365C25.1097 22.4219 26.2228 20.7149 26.9368 18.8321C26.9839 18.7076 27.0292 18.582 27.073 18.4554C27.0948 18.3931 27.1167 18.3265 27.1354 18.2617C27.1541 18.197 27.1785 18.1279 27.1979 18.0606C27.2172 17.9934 27.2403 17.9218 27.2603 17.852C27.2803 17.7823 27.3022 17.7076 27.3228 17.6354C27.3652 17.4809 27.4058 17.324 27.4433 17.169C27.462 17.0905 27.4801 17.0121 27.4976 16.933C27.5151 16.8539 27.5332 16.7674 27.5501 16.6839C27.5669 16.6005 27.5844 16.509 27.6007 16.4206C27.6444 16.1794 27.6819 15.9364 27.7131 15.6914C27.7277 15.5765 27.741 15.4606 27.753 15.344C27.8488 14.3975 27.8488 13.4438 27.753 12.4972L27.7574 12.4935ZM14.9813 26.3624C14.6299 26.3923 14.2743 26.4075 13.9146 26.4079C13.4805 26.4079 13.0468 26.3854 12.615 26.3407C6.78838 25.7348 2.13831 21.0954 1.51006 15.2668C1.41608 14.3997 1.41231 13.5252 1.49882 12.6573C2.09335 6.75701 6.80712 2.05413 12.7068 1.48689C13.1036 1.44538 13.5062 1.42463 13.9146 1.42463C14.2439 1.42463 14.5699 1.43749 14.8926 1.46323C20.9772 1.93707 25.8508 6.80122 26.3492 12.8858C26.3766 13.2249 26.3906 13.5682 26.391 13.9156C26.391 14.2926 26.3746 14.6661 26.3417 15.0364C25.8058 21.0494 20.9946 25.8506 14.9813 26.3624Z" fill="#212121"/>
<path d="M13.8083 7.54526L7.37588 13.9586L13.8083 20.3719L20.2407 13.9586L13.8083 7.54526ZM9.4099 13.9586L13.8083 9.57324L18.2067 13.9586L13.8083 18.3433L9.4099 13.9586ZM13.8083 7.54526L7.37588 13.9586L13.8083 20.3719L20.2407 13.9586L13.8083 7.54526ZM9.4099 13.9586L13.8083 9.57324L18.2067 13.9586L13.8083 18.3433L9.4099 13.9586ZM13.8083 7.54526L7.37588 13.9586L13.8083 20.3719L20.2407 13.9586L13.8083 7.54526ZM9.4099 13.9586L13.8083 9.57324L18.2067 13.9586L13.8083 18.3433L9.4099 13.9586ZM13.8083 7.54526L7.37588 13.9586L13.8083 20.3719L20.2407 13.9586L13.8083 7.54526ZM9.4099 13.9586L13.8083 9.57324L18.2067 13.9586L13.8083 18.3433L9.4099 13.9586ZM13.8083 7.54526L7.37588 13.9586L13.8083 20.3719L20.2407 13.9586L13.8083 7.54526ZM9.4099 13.9586L13.8083 9.57324L18.2067 13.9586L13.8083 18.3433L9.4099 13.9586ZM13.8083 7.54526L7.37588 13.9586L13.8083 20.3719L20.2407 13.9586L13.8083 7.54526ZM9.4099 13.9586L13.8083 9.57324L18.2067 13.9586L13.8083 18.3433L9.4099 13.9586ZM13.8083 7.54526L7.37588 13.9586L13.8083 20.3719L20.2407 13.9586L13.8083 7.54526ZM9.4099 13.9586L13.8083 9.57324L18.2067 13.9586L13.8083 18.3433L9.4099 13.9586ZM13.8083 7.54526L7.37588 13.9586L13.8083 20.3719L20.2407 13.9586L13.8083 7.54526ZM9.4099 13.9586L13.8083 9.57324L18.2067 13.9586L13.8083 18.3433L9.4099 13.9586ZM26.3477 12.8876L14.8912 1.46444L13.8083 0.384766L1.49741 12.6572L0.195312 13.9573L1.50677 15.2649L12.6136 26.3406L13.807 27.5305L14.9786 26.3624L26.3403 15.0351L27.4213 13.9573L26.3477 12.8876ZM13.9132 20.6745C10.2043 20.6745 7.18728 17.6428 7.18728 13.9169C7.18728 10.1909 10.2043 7.15984 13.9132 7.15984C17.6221 7.15984 20.6391 10.1909 20.6391 13.9169C20.6391 17.6428 17.6221 20.6745 13.9132 20.6745ZM13.8083 25.5032L2.22808 13.9573L13.8083 2.41212L18.6713 7.26133C16.9382 6.01401 14.7824 5.49668 12.6698 5.82114C12.5643 5.83733 12.4594 5.85538 12.3576 5.87593C12.3051 5.88589 12.2533 5.89648 12.2014 5.90769C12.0653 5.93695 11.9298 5.96995 11.7961 6.00544L11.6712 6.04031C11.5919 6.06335 11.5132 6.08701 11.4352 6.11192C11.3571 6.13682 11.289 6.15986 11.2166 6.18539C11.1441 6.21092 11.0817 6.23396 11.0149 6.25949C10.9524 6.28439 10.8856 6.30992 10.8213 6.33607C8.89559 7.1314 7.34545 8.6273 6.48534 10.5203C6.45661 10.5826 6.42913 10.6448 6.40165 10.7071C6.37417 10.7694 6.34295 10.8484 6.31485 10.9194C6.28487 10.9948 6.25614 11.0713 6.22866 11.1485C6.20119 11.2258 6.17246 11.3111 6.1456 11.3933L6.10439 11.5253C6.07691 11.6162 6.05068 11.7083 6.02632 11.8005C5.99885 11.9017 5.97366 12.0043 5.95076 12.1081C5.93952 12.1597 5.92828 12.2114 5.91766 12.2637C5.91079 12.2973 5.90454 12.3303 5.89768 12.364C5.87832 12.4636 5.86083 12.5638 5.84584 12.6653C5.83085 12.7668 5.81649 12.8702 5.80462 12.9767C5.79713 13.0445 5.79026 13.113 5.78402 13.1815C5.76278 13.4231 5.75154 13.6684 5.75154 13.9156C5.75154 14.1628 5.76278 14.4081 5.78402 14.6497C5.79026 14.7182 5.79713 14.7867 5.80462 14.8552C5.81649 14.9579 5.83023 15.0607 5.84584 15.1628C5.86145 15.2649 5.87832 15.3645 5.89768 15.4641C5.90454 15.4978 5.91079 15.5308 5.91766 15.5644C5.92828 15.6167 5.93952 15.6684 5.95076 15.7201C5.97407 15.8234 5.99926 15.9259 6.02632 16.0276C6.06254 16.164 6.10251 16.2985 6.14498 16.4317C6.19452 16.5845 6.24802 16.7352 6.30548 16.8838L6.34545 16.9847C6.39749 17.1121 6.45203 17.2381 6.50907 17.3626C6.53342 17.4155 6.55903 17.4678 6.58401 17.5201C6.63209 17.6179 6.68205 17.715 6.73326 17.8103C6.78447 17.9056 6.82881 17.9828 6.87815 18.0675C7.59872 19.2952 8.62752 20.3147 9.86329 21.0257C9.90576 21.05 9.94822 21.0742 9.99131 21.0979L10.1343 21.1751C10.1855 21.2019 10.2374 21.228 10.2892 21.2542C10.3997 21.309 10.5121 21.3619 10.6252 21.4123C10.6876 21.4397 10.7501 21.4671 10.8125 21.4933C10.875 21.5194 10.9462 21.5468 11.0136 21.573C11.0879 21.6016 11.1629 21.629 11.2378 21.6552L11.3702 21.7C11.5905 21.7722 11.8151 21.8345 12.0441 21.8868C12.1471 21.9111 12.2508 21.9329 12.3563 21.9534C12.4619 21.974 12.5649 21.992 12.6686 22.0082C13.4927 22.1344 14.3313 22.1344 15.1553 22.0082C15.2907 21.9875 15.4249 21.9634 15.5582 21.936L15.575 21.9323C15.6167 21.9244 15.6566 21.9157 15.6949 21.9061C15.773 21.8887 15.8498 21.87 15.9272 21.8507C16.0047 21.8314 16.0709 21.8127 16.1421 21.7928C17.1902 21.4954 18.1673 20.9901 19.0148 20.3071L13.8083 25.5032ZM20.2532 19.0774C20.7813 18.4257 21.2055 17.6967 21.5109 16.9162C21.5559 16.8024 21.5975 16.6872 21.6358 16.5706C21.6583 16.5046 21.6802 16.4386 21.6983 16.372C21.6983 16.372 21.6983 16.372 21.6983 16.3689C21.7195 16.3004 21.7401 16.2313 21.7607 16.1621C21.7707 16.1266 21.7807 16.0918 21.7901 16.0563C21.7901 16.0563 21.7901 16.0563 21.7901 16.0526C21.8113 15.9729 21.8313 15.8932 21.8526 15.8122C21.8738 15.7313 21.89 15.6485 21.9069 15.5632C21.9138 15.5295 21.92 15.4965 21.9269 15.4629C21.9462 15.3633 21.9637 15.263 21.9787 15.1615C21.9937 15.06 22.0081 14.9567 22.0199 14.8539C22.0274 14.7855 22.0343 14.717 22.0405 14.6485C22.0618 14.4069 22.073 14.1616 22.073 13.9144C22.073 13.6672 22.0618 13.4219 22.0405 13.1803C22.0343 13.1118 22.0274 13.0433 22.0199 12.9754C22.0078 12.872 21.9941 12.7683 21.9787 12.6641C21.9637 12.5626 21.9462 12.4623 21.9269 12.3627C21.92 12.3291 21.9138 12.2961 21.9069 12.2625C21.8844 12.1529 21.8594 12.0433 21.8332 11.9356C21.8151 11.8634 21.7963 11.7917 21.7764 11.7201C21.7595 11.6579 21.7426 11.6 21.7245 11.5402C21.7064 11.4804 21.6877 11.4213 21.6683 11.3621C21.649 11.303 21.634 11.2588 21.6165 11.2077C21.355 10.4534 20.9834 9.74177 20.5136 9.09566L25.3848 13.9523L20.2532 19.0774ZM7.37713 13.958L13.8095 20.3713L20.2419 13.958L13.8095 7.54464L7.37713 13.958ZM13.8095 18.3427L9.4099 13.958L13.8083 9.57262L18.2067 13.958L13.8095 18.3427ZM13.8095 7.54526L7.37713 13.9586L13.8095 20.3719L20.2419 13.9586L13.8095 7.54526ZM9.41115 13.9586L13.8095 9.57324L18.2079 13.9586L13.8095 18.3433L9.41115 13.9586ZM13.8095 7.54526L7.37713 13.9586L13.8095 20.3719L20.2419 13.9586L13.8095 7.54526ZM9.41115 13.9586L13.8095 9.57324L18.2079 13.9586L13.8095 18.3433L9.41115 13.9586ZM13.8095 7.54526L7.37713 13.9586L13.8095 20.3719L20.2419 13.9586L13.8095 7.54526ZM9.41115 13.9586L13.8095 9.57324L18.2079 13.9586L13.8095 18.3433L9.41115 13.9586ZM13.8095 7.54526L7.37713 13.9586L13.8095 20.3719L20.2419 13.9586L13.8095 7.54526ZM9.41115 13.9586L13.8095 9.57324L18.2079 13.9586L13.8095 18.3433L9.41115 13.9586ZM13.8095 7.54526L7.37713 13.9586L13.8095 20.3719L20.2419 13.9586L13.8095 7.54526ZM9.41115 13.9586L13.8095 9.57324L18.2079 13.9586L13.8095 18.3433L9.41115 13.9586ZM13.8095 7.54526L7.37713 13.9586L13.8095 20.3719L20.2419 13.9586L13.8095 7.54526ZM9.41115 13.9586L13.8095 9.57324L18.2079 13.9586L13.8095 18.3433L9.41115 13.9586Z" fill="#212121"/>
<path d="M26.3477 12.887L14.8912 1.46444L13.8083 0.384766L1.49741 12.6572L0.195312 13.9573L1.50677 15.2649L12.6136 26.3406L13.807 27.5305L14.9786 26.3624L26.3403 15.0351L27.4213 13.9573L26.3477 12.887ZM19.0148 20.3121L13.8083 25.5032L2.22808 13.9573L13.8083 2.41212L18.6713 7.26133L18.6869 7.2769L20.498 9.08259L20.5155 9.10065L25.3866 13.9573L19.0148 20.3121Z" fill="#212121"/>
<path d="M13.8107 7.5453L7.37825 13.9586L13.8107 20.3719L20.2431 13.9586L13.8107 7.5453ZM9.41226 13.9586L13.8107 9.57327L18.2091 13.9586L13.8107 18.3433L9.41226 13.9586ZM13.8107 7.5453L7.37825 13.9586L13.8107 20.3719L20.2431 13.9586L13.8107 7.5453ZM9.41226 13.9586L13.8107 9.57327L18.2091 13.9586L13.8107 18.3433L9.41226 13.9586ZM13.8107 7.5453L7.37825 13.9586L13.8107 20.3719L20.2431 13.9586L13.8107 7.5453ZM9.41226 13.9586L13.8107 9.57327L18.2091 13.9586L13.8107 18.3433L9.41226 13.9586ZM13.8107 7.5453L7.37825 13.9586L13.8107 20.3719L20.2431 13.9586L13.8107 7.5453ZM9.41226 13.9586L13.8107 9.57327L18.2091 13.9586L13.8107 18.3433L9.41226 13.9586ZM13.8107 7.5453L7.37825 13.9586L13.8107 20.3719L20.2431 13.9586L13.8107 7.5453ZM9.41226 13.9586L13.8107 9.57327L18.2091 13.9586L13.8107 18.3433L9.41226 13.9586ZM13.8107 7.5453L7.37825 13.9586L13.8107 20.3719L20.2431 13.9586L13.8107 7.5453ZM9.41226 13.9586L13.8107 9.57327L18.2091 13.9586L13.8107 18.3433L9.41226 13.9586ZM13.8107 7.5453L7.37825 13.9586L13.8107 20.3719L20.2431 13.9586L13.8107 7.5453ZM9.41226 13.9586L13.8107 9.57327L18.2091 13.9586L13.8107 18.3433L9.41226 13.9586ZM13.8107 7.5453L7.37825 13.9586L13.8107 20.3719L20.2431 13.9586L13.8107 7.5453ZM9.41226 13.9586L13.8107 9.57327L18.2091 13.9586L13.8107 18.3433L9.41226 13.9586ZM22.046 13.1828C22.0398 13.1143 22.0329 13.0458 22.0254 12.9779C22.0133 12.8746 21.9996 12.7708 21.9842 12.6666C21.9692 12.5651 21.9517 12.4649 21.9324 12.3652C21.9255 12.3316 21.9193 12.2986 21.9124 12.265C21.8899 12.1554 21.8649 12.0458 21.8387 11.9381C21.8206 11.8659 21.8018 11.7943 21.7819 11.7227C21.765 11.6604 21.7481 11.6025 21.73 11.5427C21.7119 11.4829 21.6932 11.4238 21.6738 11.3646C21.6545 11.3055 21.6395 11.2613 21.622 11.2102C21.3605 10.456 20.9889 9.74429 20.5191 9.09819C20.0057 8.39213 19.3827 7.77209 18.6737 7.26137C16.9406 6.01404 14.7848 5.49671 12.6722 5.82117C12.5666 5.83736 12.4617 5.85542 12.3599 5.87597C12.3075 5.88593 12.2556 5.89651 12.2038 5.90772C12.0677 5.93699 11.9321 5.96999 11.7985 6.00548L11.6736 6.04035C11.5943 6.06338 11.5156 6.08704 11.4375 6.11195C11.3595 6.13686 11.2914 6.1599 11.219 6.18542C11.1465 6.21095 11.0841 6.23399 11.0172 6.25952C10.9548 6.28443 10.888 6.30995 10.8236 6.33611C8.89796 7.13143 7.34782 8.62733 6.4877 10.5203C6.45897 10.5826 6.4315 10.6449 6.40402 10.7071C6.37654 10.7694 6.34531 10.8485 6.31721 10.9194C6.28723 10.9948 6.25851 11.0714 6.23103 11.1486C6.20355 11.2258 6.17482 11.3111 6.14797 11.3933L6.10675 11.5253C6.07927 11.6162 6.05304 11.7083 6.02869 11.8005C6.00121 11.9018 5.97602 12.0043 5.95312 12.1081C5.94188 12.1598 5.93064 12.2114 5.92002 12.2637C5.91316 12.2974 5.90691 12.3304 5.90004 12.364C5.88068 12.4636 5.86319 12.5639 5.84821 12.6654C5.83322 12.7669 5.81885 12.8702 5.80699 12.9767C5.7995 13.0446 5.79263 13.113 5.78638 13.1815C5.76515 13.4231 5.75391 13.6685 5.75391 13.9156C5.75391 14.1628 5.76515 14.4082 5.78638 14.6497C5.79263 14.7182 5.7995 14.7867 5.80699 14.8552C5.81885 14.958 5.83259 15.0607 5.84821 15.1628C5.86382 15.2649 5.88068 15.3646 5.90004 15.4642C5.90691 15.4978 5.91316 15.5308 5.92002 15.5644C5.93064 15.6167 5.94188 15.6684 5.95312 15.7201C5.97644 15.8234 6.00163 15.926 6.02869 16.0277C6.06491 16.164 6.10488 16.2985 6.14735 16.4318C6.19689 16.5845 6.25039 16.7352 6.30784 16.8838L6.34781 16.9847C6.39985 17.1121 6.45439 17.2381 6.51143 17.3626C6.53579 17.4156 6.56139 17.4679 6.58637 17.5202C6.63446 17.6179 6.68442 17.7151 6.73563 17.8103C6.78684 17.9056 6.83118 17.9828 6.88052 18.0675C7.60109 19.2952 8.62989 20.3148 9.86566 21.0257C9.90812 21.05 9.95059 21.0743 9.99368 21.0979L10.1367 21.1751C10.1879 21.2019 10.2397 21.2281 10.2916 21.2542C10.4021 21.309 10.5145 21.3619 10.6276 21.4124C10.69 21.4398 10.7525 21.4672 10.8149 21.4933C10.8774 21.5195 10.9486 21.5469 11.016 21.573C11.0903 21.6017 11.1653 21.6291 11.2402 21.6552L11.3726 21.7C11.5928 21.7723 11.8174 21.8345 12.0464 21.8868C12.1495 21.9111 12.2531 21.9329 12.3587 21.9535C12.4642 21.974 12.5673 21.9921 12.6709 22.0082C13.495 22.1344 14.3336 22.1344 15.1577 22.0082C15.293 21.9875 15.4273 21.9634 15.5605 21.936L15.5774 21.9323C15.619 21.9244 15.659 21.9157 15.6973 21.9061C15.7754 21.8887 15.8522 21.87 15.9296 21.8507C16.0071 21.8314 16.0732 21.8127 16.1444 21.7928C17.1925 21.4954 18.1696 20.9901 19.0172 20.3072C20.1322 19.4113 20.9933 18.2407 21.5152 16.9112C21.5602 16.7975 21.6018 16.6823 21.6401 16.5656C21.6626 16.4996 21.6844 16.4336 21.7026 16.367C21.7026 16.367 21.7026 16.367 21.7026 16.3639C21.7238 16.2954 21.7444 16.2263 21.765 16.1572C21.775 16.1217 21.785 16.0868 21.7944 16.0513C21.7944 16.0513 21.7944 16.0513 21.7944 16.0476C21.8156 15.9679 21.8356 15.8882 21.8568 15.8073C21.878 15.7263 21.8943 15.6435 21.9111 15.5582C21.918 15.5246 21.9243 15.4916 21.9311 15.458C21.9505 15.3583 21.968 15.2581 21.983 15.1566C21.9979 15.0551 22.0123 14.9517 22.0242 14.849C22.0317 14.7805 22.0385 14.712 22.0448 14.6435C22.066 14.4019 22.0773 14.1566 22.0773 13.9094C22.0773 13.6622 22.0679 13.4244 22.046 13.1828ZM13.9156 20.6745C10.2066 20.6745 7.18965 17.6428 7.18965 13.9169C7.18965 10.1909 10.2066 7.15987 13.9156 7.15987C17.6245 7.15987 20.6415 10.1909 20.6415 13.9169C20.6415 17.6428 17.6245 20.6745 13.9156 20.6745ZM13.8107 7.5453L7.37825 13.9586L13.8107 20.3719L20.2431 13.9586L13.8107 7.5453ZM9.41226 13.9586L13.8107 9.57327L18.2091 13.9586L13.8107 18.3433L9.41226 13.9586ZM13.8107 7.5453L7.37825 13.9586L13.8107 20.3719L20.2431 13.9586L13.8107 7.5453ZM9.41226 13.9586L13.8107 9.57327L18.2091 13.9586L13.8107 18.3433L9.41226 13.9586ZM13.8107 7.5453L7.37825 13.9586L13.8107 20.3719L20.2431 13.9586L13.8107 7.5453ZM9.41226 13.9586L13.8107 9.57327L18.2091 13.9586L13.8107 18.3433L9.41226 13.9586ZM13.8107 7.5453L7.37825 13.9586L13.8107 20.3719L20.2431 13.9586L13.8107 7.5453ZM9.41226 13.9586L13.8107 9.57327L18.2091 13.9586L13.8107 18.3433L9.41226 13.9586ZM13.8107 7.5453L7.37825 13.9586L13.8107 20.3719L20.2431 13.9586L13.8107 7.5453ZM9.41226 13.9586L13.8107 9.57327L18.2091 13.9586L13.8107 18.3433L9.41226 13.9586ZM13.8107 7.5453L7.37825 13.9586L13.8107 20.3719L20.2431 13.9586L13.8107 7.5453ZM9.41226 13.9586L13.8107 9.57327L18.2091 13.9586L13.8107 18.3433L9.41226 13.9586ZM13.8107 7.5453L7.37825 13.9586L13.8107 20.3719L20.2431 13.9586L13.8107 7.5453ZM9.41226 13.9586L13.8107 9.57327L18.2091 13.9586L13.8107 18.3433L9.41226 13.9586Z" fill="#212121"/>
<path d="M22.046 13.183C22.0398 13.1145 22.0329 13.046 22.0254 12.9781C22.0133 12.8748 21.9996 12.771 21.9842 12.6668C21.9686 12.5659 21.9511 12.4651 21.9324 12.3655C21.9255 12.3318 21.9192 12.2988 21.9124 12.2652C21.8899 12.1556 21.8649 12.046 21.8387 11.9383C21.8206 11.8661 21.8018 11.7945 21.7818 11.7229C21.765 11.6606 21.7481 11.6027 21.73 11.5429C21.7119 11.4832 21.6932 11.424 21.6738 11.3649C21.6544 11.3057 21.6395 11.2615 21.622 11.2104C21.0677 9.63128 20.0438 8.25811 18.6868 7.27403C16.9527 6.0175 14.7908 5.49535 12.6722 5.82138C12.5666 5.83757 12.4617 5.85563 12.3599 5.87617C12.3075 5.88614 12.2556 5.89672 12.2038 5.90793C12.0677 5.93719 11.9321 5.97019 11.7985 6.00568L11.6736 6.04055C11.5943 6.06359 11.5156 6.08725 11.4375 6.11216C11.3595 6.13706 11.2914 6.1601 11.219 6.18563C11.1465 6.21116 11.0841 6.2342 11.0172 6.25973C10.9548 6.28463 10.888 6.31016 10.8236 6.33631C8.90081 7.13597 7.35206 8.63052 6.4877 10.5205C6.45897 10.5828 6.43149 10.6451 6.40402 10.7073C6.37654 10.7696 6.34531 10.8487 6.31721 10.9197C6.28723 10.995 6.25851 11.0716 6.23103 11.1488C6.20355 11.226 6.17482 11.3113 6.14797 11.3935L6.10675 11.5255C6.07927 11.6164 6.05304 11.7086 6.02869 11.8007C6.00183 11.9028 5.97685 12.0049 5.95312 12.1083C5.94188 12.16 5.93064 12.2117 5.92002 12.264C5.91315 12.2976 5.90691 12.3306 5.90004 12.3642C5.88131 12.4638 5.86382 12.5647 5.84821 12.6656C5.83259 12.7664 5.81885 12.8704 5.80699 12.9769C5.7995 13.0448 5.79263 13.1133 5.78638 13.1818C5.76515 13.4233 5.75391 13.6687 5.75391 13.9159C5.75391 14.163 5.76515 14.4084 5.78638 14.65C5.79263 14.7185 5.7995 14.7869 5.80699 14.8554C5.81885 14.9582 5.83259 15.0609 5.84821 15.163C5.86382 15.2651 5.88131 15.3648 5.90004 15.4644C5.90691 15.498 5.91315 15.531 5.92002 15.5646C5.93064 15.6169 5.94188 15.6686 5.95312 15.7203C5.97685 15.8237 6.00183 15.9258 6.02869 16.0279C6.06491 16.1643 6.10488 16.2987 6.14734 16.432C6.19689 16.5848 6.25039 16.7354 6.30784 16.884L6.34781 16.9849C6.39985 17.1123 6.45439 17.2383 6.51143 17.3629C6.53579 17.4158 6.56139 17.4681 6.58637 17.5204C6.63446 17.6181 6.68442 17.7153 6.73563 17.8105C6.78684 17.9058 6.83118 17.983 6.88051 18.0677C7.60336 19.2937 8.63163 20.3127 9.86565 21.0259C9.90812 21.0502 9.95058 21.0745 9.99367 21.0981L10.1367 21.1754C10.1879 21.2021 10.2397 21.2283 10.2916 21.2544C10.4021 21.3092 10.5145 21.3622 10.6275 21.4126C10.69 21.44 10.7524 21.4674 10.8149 21.4935C10.8774 21.5197 10.9485 21.5471 11.016 21.5732C11.0903 21.6019 11.1652 21.6293 11.2402 21.6554L11.3726 21.7003C11.5928 21.7725 11.8174 21.8347 12.0464 21.887C12.1495 21.9113 12.2531 21.9331 12.3587 21.9537C12.4642 21.9742 12.5673 21.9923 12.6709 22.0085C13.495 22.1347 14.3336 22.1347 15.1577 22.0085C15.293 21.9877 15.4273 21.9636 15.5605 21.9362L15.5774 21.9325C15.619 21.9246 15.659 21.9159 15.6973 21.9063C15.7753 21.8889 15.8522 21.8702 15.9296 21.8509C16.007 21.8316 16.0732 21.813 16.1444 21.793C17.2015 21.4925 18.1866 20.9816 19.0403 20.2912C20.1411 19.397 20.9928 18.2355 21.5133 16.9183C21.5574 16.8045 21.5991 16.6894 21.6382 16.5727C21.6607 16.5067 21.6825 16.4407 21.7007 16.3741C21.7007 16.3741 21.7007 16.3741 21.7007 16.371C21.7219 16.3025 21.7425 16.2334 21.7631 16.1643C21.7731 16.1288 21.7831 16.0939 21.7925 16.0584C21.7925 16.0584 21.7925 16.0584 21.7925 16.0547C21.8137 15.975 21.8337 15.8953 21.8549 15.8143C21.8761 15.7334 21.8924 15.6506 21.9092 15.5653C21.9161 15.5316 21.9224 15.4986 21.9292 15.465C21.948 15.3654 21.9654 15.2645 21.9811 15.1637C21.9967 15.0628 22.0104 14.9588 22.0223 14.8561C22.0298 14.7876 22.0366 14.7191 22.0429 14.6506C22.0641 14.409 22.0754 14.1637 22.0754 13.9165C22.0754 13.6693 22.0679 13.4246 22.046 13.183ZM13.9156 20.6747C10.2066 20.6747 7.18964 17.6431 7.18964 13.9171C7.18964 10.1912 10.2066 7.16008 13.9156 7.16008C17.6245 7.16008 20.6415 10.1912 20.6415 13.9171C20.6415 17.6431 17.6245 20.6747 13.9156 20.6747Z" fill="#212121"/>
<path d="M13.8113 7.54541L7.37891 13.9587L13.8113 20.372L20.2437 13.9587L13.8113 7.54541ZM9.41292 13.9587L13.8113 9.57339L18.2097 13.9587L13.8113 18.3434L9.41292 13.9587Z" fill="#212121"/>
<path d="M13.8113 7.54541L7.37891 13.9587L13.8113 20.372L20.2437 13.9587L13.8113 7.54541ZM9.41292 13.9587L13.8113 9.57339L18.2097 13.9587L13.8113 18.3434L9.41292 13.9587Z" fill="#212121"/>
<path d="M33.418 4.81885H40.513C42.9215 4.81885 44.7896 5.68226 46.1173 7.40908C47.3018 8.96737 47.8942 10.9634 47.8946 13.3971C47.8946 15.2763 47.5447 16.9751 46.8448 18.4935C45.6125 21.1759 43.494 22.5171 40.4893 22.5171H33.418V4.81885ZM40.0415 20.4692C40.8367 20.4692 41.4903 20.3849 42.0024 20.2164C42.9163 19.903 43.6657 19.3011 44.2507 18.4107C44.7153 17.6959 45.05 16.7804 45.2549 15.6642C45.3682 15.052 45.4275 14.4312 45.4322 13.8087C45.4322 11.6157 45.0048 9.91276 44.1501 8.69983C43.2954 7.48691 41.9179 6.88003 40.0178 6.8792H35.8473V20.4692H40.0415Z" fill="#212121"/>
<path d="M51.4102 4.81885H59.3539C60.9239 4.81885 62.1918 5.26259 63.1577 6.15008C64.1236 7.03756 64.6064 8.28515 64.606 9.89283C64.606 11.2743 64.1753 12.477 63.3139 13.5011C62.4525 14.5252 61.1339 15.0372 59.3582 15.0372H53.8151V22.5171H51.4102V4.81885ZM60.7378 7.25217C60.2094 7.00311 59.4854 6.87858 58.5657 6.87858H53.8151V13.0111H58.5657C59.6382 13.0111 60.5082 12.7828 61.1756 12.3262C61.8429 11.8695 62.176 11.0622 62.1748 9.90404C62.1764 8.60187 61.6974 7.71791 60.7378 7.25217Z" fill="#212121"/>
<path d="M67.6875 4.81885H70.0925V20.4088H79.0004V22.5171H67.6875V4.81885Z" fill="#212121"/>
</svg>
