<svg width="108" height="54" viewBox="0 0 108 54" fill="none" xmlns="http://www.w3.org/2000/svg">
<path d="M18.8791 10.3151L10.0854 19.0826L18.8791 27.8502L27.6728 19.0826L18.8791 10.3151ZM12.8661 19.0826L18.8791 13.0875L24.8921 19.0826L18.8791 25.0769L12.8661 19.0826ZM18.8791 10.3151L10.0854 19.0826L18.8791 27.8502L27.6728 19.0826L18.8791 10.3151ZM12.8661 19.0826L18.8791 13.0875L24.8921 19.0826L18.8791 25.0769L12.8661 19.0826ZM18.8791 10.3151L10.0854 19.0826L18.8791 27.8502L27.6728 19.0826L18.8791 10.3151ZM12.8661 19.0826L18.8791 13.0875L24.8921 19.0826L18.8791 25.0769L12.8661 19.0826ZM18.8791 10.3151L10.0854 19.0826L18.8791 27.8502L27.6728 19.0826L18.8791 10.3151ZM12.8661 19.0826L18.8791 13.0875L24.8921 19.0826L18.8791 25.0769L12.8661 19.0826ZM18.8791 10.3151L10.0854 19.0826L18.8791 27.8502L27.6728 19.0826L18.8791 10.3151ZM12.8661 19.0826L18.8791 13.0875L24.8921 19.0826L18.8791 25.0769L12.8661 19.0826ZM18.8791 10.3151L10.0854 19.0826L18.8791 27.8502L27.6728 19.0826L18.8791 10.3151ZM12.8661 19.0826L18.8791 13.0875L24.8921 19.0826L18.8791 25.0769L12.8661 19.0826ZM18.8791 10.3151L10.0854 19.0826L18.8791 27.8502L27.6728 19.0826L18.8791 10.3151ZM12.8661 19.0826L18.8791 13.0875L24.8921 19.0826L18.8791 25.0769L12.8661 19.0826ZM18.8791 10.3151L10.0854 19.0826L18.8791 27.8502L27.6728 19.0826L18.8791 10.3151ZM12.8661 19.0826L18.8791 13.0875L24.8921 19.0826L18.8791 25.0769L12.8661 19.0826ZM37.9468 17.0806C37.9303 16.9211 37.9121 16.7628 37.8922 16.6056C37.8495 16.2702 37.7983 15.938 37.7385 15.6088C37.7163 15.4879 37.6933 15.3679 37.6694 15.2488C37.6463 15.1347 37.6224 15.0215 37.5977 14.9083C37.5729 14.7951 37.549 14.6929 37.5234 14.5857C37.4722 14.3723 37.4172 14.1598 37.3586 13.9481C37.3313 13.8493 37.3028 13.7506 37.2732 13.6519C37.2451 13.5565 37.216 13.4612 37.1879 13.3667C37.1597 13.2722 37.1298 13.1828 37.1025 13.0918C37.0752 13.0007 37.0436 12.9147 37.0171 12.827C36.9602 12.6568 36.8982 12.4851 36.831 12.312C35.8587 9.73529 34.3379 7.39921 32.3732 5.46465C30.4086 3.53009 28.0468 2.04299 25.4504 1.10573L25.1943 1.01465L24.9185 0.926127C24.8246 0.895483 24.7299 0.864839 24.6351 0.835898C24.5403 0.806956 24.4387 0.776312 24.3406 0.750776C24.2424 0.725239 24.1297 0.690339 24.0238 0.665654C23.8018 0.606069 23.5782 0.549037 23.3528 0.49541C23.1166 0.438662 22.8786 0.387873 22.639 0.343042C22.4427 0.305588 22.2454 0.270688 22.0474 0.238342C21.8493 0.205995 21.6501 0.177621 21.4497 0.15322L21.2081 0.124278C21.0502 0.105551 20.8905 0.0893781 20.7317 0.0757586C20.17 0.0252529 19.6008 0 19.0242 0C18.4477 0 17.8785 0.0252529 17.3167 0.0757586C17.1568 0.090513 16.998 0.106686 16.8403 0.124278C16.6815 0.143005 16.5227 0.162583 16.3648 0.184715C16.2324 0.203442 16.101 0.22302 15.9695 0.2443C15.7731 0.276646 15.5776 0.311546 15.383 0.349C15.1456 0.394966 14.9091 0.446039 14.6752 0.500517C14.5659 0.526054 14.4566 0.553293 14.3474 0.580532C14.1365 0.634159 13.9265 0.690339 13.719 0.750776C10.6315 1.65295 7.82288 3.31864 5.55408 5.59306C3.28528 7.86747 1.62995 10.6768 0.741915 13.76C0.682152 13.9694 0.62495 14.1788 0.571164 14.3907C0.543843 14.4997 0.517377 14.6095 0.491764 14.7193C0.437124 14.9534 0.387606 15.19 0.341504 15.4275C0.266942 15.8179 0.204049 16.2123 0.152824 16.6107C0.133472 16.7679 0.115258 16.9262 0.0981833 17.0857C-0.0327278 18.3797 -0.0327278 19.6835 0.0981833 20.9775C0.115258 21.1369 0.133472 21.2952 0.152824 21.4524C0.204049 21.8497 0.266942 22.2441 0.341504 22.6356C0.387606 22.8731 0.437124 23.1098 0.491764 23.3439C0.517377 23.4537 0.543843 23.5635 0.571164 23.6724C0.624096 23.8844 0.681298 24.0938 0.741915 24.3032C1.62995 27.3864 3.28528 30.1957 5.55408 32.4701C7.82288 34.7445 10.6315 36.4102 13.719 37.3124C13.9265 37.3737 14.1365 37.4298 14.3474 37.4826C14.4566 37.5099 14.5659 37.5371 14.6752 37.5626C14.9091 37.6171 15.1456 37.6682 15.383 37.7141C15.5776 37.7516 15.7731 37.7865 15.9695 37.8188C16.101 37.8401 16.2324 37.8597 16.3648 37.8784C16.5227 37.9006 16.6815 37.9201 16.8403 37.9389C16.9991 37.9576 17.1571 37.9729 17.3167 37.9874C17.8785 38.0373 18.4477 38.0626 19.0242 38.0631C19.6008 38.0637 20.17 38.0385 20.7317 37.9874C20.8905 37.9732 21.0493 37.957 21.2081 37.9389L21.4497 37.9099C21.6501 37.8844 21.8493 37.856 22.0474 37.8248C22.2454 37.7936 22.4427 37.7587 22.639 37.7201C22.8781 37.6741 23.116 37.6233 23.3528 37.5677C23.5782 37.515 23.8018 37.4579 24.0238 37.3975C24.1297 37.3685 24.2355 37.3388 24.3406 37.3081C24.4456 37.2775 24.5369 37.2502 24.6351 37.223C24.7333 37.1958 24.8246 37.1634 24.9185 37.1328L25.1918 37.0417L25.4479 36.9506C28.0435 36.013 30.4046 34.5259 32.3686 32.5915C34.3326 30.6571 35.853 28.3214 36.825 25.7451C36.8893 25.5749 36.9514 25.4032 37.0111 25.2302C37.041 25.145 37.0709 25.054 37.0965 24.9654C37.1221 24.8769 37.1554 24.7824 37.1819 24.6905C37.2084 24.5986 37.2399 24.5007 37.2673 24.4053C37.2946 24.31 37.3245 24.2078 37.3526 24.1091C37.4096 23.898 37.4645 23.6855 37.5174 23.4715C37.543 23.3643 37.5678 23.257 37.5917 23.1489C37.6156 23.0408 37.6404 22.9225 37.6634 22.8084C37.6865 22.6944 37.7104 22.5692 37.7326 22.4484C37.7923 22.1187 37.8435 21.7864 37.8862 21.4516C37.9067 21.2944 37.9249 21.1361 37.9409 20.9766C38.0718 19.6826 38.0718 18.3788 37.9409 17.0848L37.9468 17.0806ZM36.0216 17.6185L20.3595 2.00207C28.6776 2.64985 35.3403 9.29958 36.0216 17.6177V17.6185ZM18.8791 34.8651L3.04791 19.0809L18.8791 3.29763L25.5273 9.92692C23.1579 8.22173 20.2108 7.51449 17.3227 7.95805C17.1784 7.98019 17.035 8.00487 16.8958 8.03296C16.8241 8.04658 16.7532 8.06105 16.6824 8.07637C16.4963 8.11638 16.311 8.1615 16.1283 8.21002L15.9575 8.25768C15.8491 8.28918 15.7415 8.32152 15.6348 8.35557C15.5281 8.38962 15.435 8.42112 15.336 8.45602C15.237 8.49092 15.1516 8.52241 15.0602 8.55731C14.9749 8.59136 14.8835 8.62626 14.7956 8.66201C12.163 9.7493 10.0438 11.7943 8.86795 14.3822C8.82868 14.4673 8.79112 14.5525 8.75355 14.6376C8.71599 14.7227 8.6733 14.8308 8.63488 14.9278C8.5939 15.0308 8.55463 15.1355 8.51706 15.2411C8.4795 15.3466 8.44022 15.4633 8.40351 15.5756L8.34716 15.7561C8.3096 15.8804 8.27374 16.0063 8.24044 16.1323C8.20288 16.2708 8.16844 16.411 8.13714 16.5528C8.12177 16.6235 8.1064 16.6941 8.09189 16.7656C8.0825 16.8116 8.07396 16.8567 8.06457 16.9027C8.0381 17.0389 8.0142 17.1759 7.99371 17.3147C7.97322 17.4534 7.95358 17.5947 7.93736 17.7403C7.92712 17.8331 7.91772 17.9267 7.90919 18.0203C7.88016 18.3506 7.86479 18.686 7.86479 19.0239C7.86479 19.3618 7.88016 19.6972 7.90919 20.0275C7.91772 20.1211 7.92712 20.2148 7.93736 20.3084C7.95358 20.4489 7.97236 20.5893 7.99371 20.7289C8.01505 20.8685 8.0381 21.0047 8.06457 21.1409C8.07396 21.1869 8.0825 21.232 8.09189 21.2779C8.1064 21.3494 8.12177 21.4201 8.13714 21.4907C8.16901 21.632 8.20345 21.7722 8.24044 21.9112C8.28996 22.0977 8.3446 22.2815 8.40266 22.4637C8.47039 22.6725 8.54353 22.8785 8.62207 23.0817L8.67671 23.2196C8.74786 23.3938 8.82242 23.566 8.9004 23.7363C8.93369 23.8086 8.9687 23.8801 9.00285 23.9516C9.06859 24.0853 9.13689 24.2181 9.20689 24.3483C9.2769 24.4785 9.33752 24.5841 9.40497 24.6998C10.3901 26.3783 11.7965 27.7721 13.4859 28.744C13.544 28.7772 13.602 28.8104 13.6609 28.8427L13.8564 28.9483C13.9265 28.9849 13.9973 29.0206 14.0682 29.0564C14.2193 29.1313 14.373 29.2037 14.5275 29.2726C14.6129 29.3101 14.6982 29.3475 14.7836 29.3833C14.869 29.419 14.9663 29.4565 15.0585 29.4922C15.1601 29.5314 15.2626 29.5688 15.365 29.6046L15.546 29.6659C15.8471 29.7646 16.1542 29.8497 16.4672 29.9212C16.6081 29.9544 16.7498 29.9842 16.8941 30.0123C17.0384 30.0404 17.1793 30.0651 17.321 30.0872C18.4476 30.2597 19.594 30.2597 20.7206 30.0872C20.9056 30.0588 21.0892 30.0259 21.2713 29.9885L21.2944 29.9834C21.3513 29.9726 21.4059 29.9607 21.4583 29.9476C21.565 29.9238 21.67 29.8982 21.7759 29.8719C21.8817 29.8455 21.9722 29.8199 22.0696 29.7927C23.5024 29.3861 24.8382 28.6953 25.9968 27.7617L18.8791 34.8651ZM19.0225 28.2639C13.9521 28.2639 9.82757 24.1193 9.82757 19.0256C9.82757 13.9319 13.9521 9.78818 19.0225 9.78818C24.093 9.78818 28.2175 13.9319 28.2175 19.0256C28.2175 24.1193 24.093 28.2639 19.0225 28.2639ZM29.4093 23.1259C29.4708 22.9704 29.5277 22.813 29.5801 22.6535C29.6108 22.5633 29.6407 22.4731 29.6654 22.382C29.6654 22.382 29.6654 22.382 29.6654 22.3777C29.6945 22.2841 29.7226 22.1896 29.7508 22.0951C29.7645 22.0466 29.7781 21.9989 29.7909 21.9504C29.7909 21.9504 29.7909 21.9504 29.7909 21.9453C29.82 21.8363 29.8473 21.7274 29.8763 21.6167C29.9053 21.5061 29.9275 21.3929 29.9506 21.2762C29.96 21.2303 29.9685 21.1852 29.9779 21.1392C30.0044 21.003 30.0283 20.866 30.0488 20.7272C30.0693 20.5885 30.0889 20.4472 30.1051 20.3067C30.1154 20.2131 30.1247 20.1194 30.1333 20.0258C30.1623 19.6955 30.1777 19.3601 30.1777 19.0222C30.1777 18.6843 30.1623 18.3489 30.1333 18.0186C30.1247 17.925 30.1154 17.8314 30.1051 17.7386C30.0886 17.5973 30.0698 17.4554 30.0488 17.313C30.0283 17.1742 30.0044 17.0372 29.9779 16.901C29.9685 16.855 29.96 16.8099 29.9506 16.7639C29.9198 16.6141 29.8857 16.4643 29.8498 16.317C29.8251 16.2183 29.7995 16.1204 29.7721 16.0225C29.7491 15.9374 29.726 15.8582 29.7013 15.7765C29.6765 15.6948 29.6509 15.6139 29.6244 15.5331C29.598 15.4522 29.5775 15.3918 29.5536 15.322C29.1962 14.2908 28.6881 13.3179 28.0459 12.4346L34.7051 19.0741L27.6847 26.0737C28.4079 25.1852 28.9895 24.1909 29.4093 23.1259ZM17.3714 2.03271L2.04901 17.3036C2.86179 9.23744 9.30593 2.80817 17.3714 2.03271ZM2.06438 20.8711L17.2459 36.01C9.28032 35.1818 2.92326 28.8393 2.06438 20.8711ZM20.4807 36.0398L36.0114 20.5544C35.2789 28.7763 28.7015 35.3401 20.4807 36.0398ZM10.0871 19.0818L18.8808 27.8494L27.6745 19.0818L18.8808 10.3142L10.0871 19.0818ZM18.8808 25.0761L12.8661 19.0818L18.8791 13.0867L24.8921 19.0818L18.8808 25.0761ZM18.8808 10.3151L10.0871 19.0826L18.8808 27.8502L27.6745 19.0826L18.8808 10.3151ZM12.8678 19.0826L18.8808 13.0875L24.8938 19.0826L18.8808 25.0769L12.8678 19.0826ZM18.8808 10.3151L10.0871 19.0826L18.8808 27.8502L27.6745 19.0826L18.8808 10.3151ZM12.8678 19.0826L18.8808 13.0875L24.8938 19.0826L18.8808 25.0769L12.8678 19.0826ZM18.8808 10.3151L10.0871 19.0826L18.8808 27.8502L27.6745 19.0826L18.8808 10.3151ZM12.8678 19.0826L18.8808 13.0875L24.8938 19.0826L18.8808 25.0769L12.8678 19.0826ZM18.8808 10.3151L10.0871 19.0826L18.8808 27.8502L27.6745 19.0826L18.8808 10.3151ZM12.8678 19.0826L18.8808 13.0875L24.8938 19.0826L18.8808 25.0769L12.8678 19.0826ZM18.8808 10.3151L10.0871 19.0826L18.8808 27.8502L27.6745 19.0826L18.8808 10.3151ZM12.8678 19.0826L18.8808 13.0875L24.8938 19.0826L18.8808 25.0769L12.8678 19.0826ZM18.8808 10.3151L10.0871 19.0826L18.8808 27.8502L27.6745 19.0826L18.8808 10.3151ZM12.8678 19.0826L18.8808 13.0875L24.8938 19.0826L18.8808 25.0769L12.8678 19.0826Z" fill="#0A0A0A"/>
<path d="M18.8791 10.3151L10.0854 19.0826L18.8791 27.8502L27.6728 19.0826L18.8791 10.3151ZM12.8661 19.0826L18.8791 13.0875L24.8921 19.0826L18.8791 25.0769L12.8661 19.0826ZM18.8791 10.3151L10.0854 19.0826L18.8791 27.8502L27.6728 19.0826L18.8791 10.3151ZM12.8661 19.0826L18.8791 13.0875L24.8921 19.0826L18.8791 25.0769L12.8661 19.0826ZM18.8791 10.3151L10.0854 19.0826L18.8791 27.8502L27.6728 19.0826L18.8791 10.3151ZM12.8661 19.0826L18.8791 13.0875L24.8921 19.0826L18.8791 25.0769L12.8661 19.0826ZM18.8791 10.3151L10.0854 19.0826L18.8791 27.8502L27.6728 19.0826L18.8791 10.3151ZM12.8661 19.0826L18.8791 13.0875L24.8921 19.0826L18.8791 25.0769L12.8661 19.0826ZM18.8791 10.3151L10.0854 19.0826L18.8791 27.8502L27.6728 19.0826L18.8791 10.3151ZM12.8661 19.0826L18.8791 13.0875L24.8921 19.0826L18.8791 25.0769L12.8661 19.0826ZM18.8791 10.3151L10.0854 19.0826L18.8791 27.8502L27.6728 19.0826L18.8791 10.3151ZM12.8661 19.0826L18.8791 13.0875L24.8921 19.0826L18.8791 25.0769L12.8661 19.0826ZM18.8791 10.3151L10.0854 19.0826L18.8791 27.8502L27.6728 19.0826L18.8791 10.3151ZM12.8661 19.0826L18.8791 13.0875L24.8921 19.0826L18.8791 25.0769L12.8661 19.0826ZM18.8791 10.3151L10.0854 19.0826L18.8791 27.8502L27.6728 19.0826L18.8791 10.3151ZM12.8661 19.0826L18.8791 13.0875L24.8921 19.0826L18.8791 25.0769L12.8661 19.0826ZM37.9468 17.0806C37.9303 16.9211 37.9121 16.7628 37.8922 16.6056C37.8495 16.2702 37.7983 15.938 37.7385 15.6088C37.7163 15.4879 37.6933 15.3679 37.6694 15.2488C37.6463 15.1347 37.6224 15.0215 37.5977 14.9083C37.5729 14.7951 37.549 14.6929 37.5234 14.5857C37.4722 14.3723 37.4172 14.1598 37.3586 13.9481C37.3313 13.8493 37.3028 13.7506 37.2732 13.6519C37.2451 13.5565 37.216 13.4612 37.1879 13.3667C37.1597 13.2722 37.1298 13.1828 37.1025 13.0918C37.0752 13.0007 37.0436 12.9147 37.0171 12.827C36.9602 12.6568 36.8982 12.4851 36.831 12.312C35.8587 9.73529 34.3379 7.39921 32.3732 5.46465C30.4086 3.53009 28.0468 2.04299 25.4504 1.10573L25.1943 1.01465L24.9185 0.926127C24.8246 0.895483 24.7299 0.864839 24.6351 0.835898C24.5403 0.806956 24.4387 0.776312 24.3406 0.750776C24.2424 0.725239 24.1297 0.690339 24.0238 0.665654C23.8018 0.606069 23.5782 0.549037 23.3528 0.49541C23.1166 0.438662 22.8786 0.387873 22.639 0.343042C22.4427 0.305588 22.2454 0.270688 22.0474 0.238342C21.8493 0.205995 21.6501 0.177621 21.4497 0.15322L21.2081 0.124278C21.0502 0.105551 20.8905 0.0893781 20.7317 0.0757586C20.17 0.0252529 19.6008 0 19.0242 0C18.4477 0 17.8785 0.0252529 17.3167 0.0757586C17.1568 0.090513 16.998 0.106686 16.8403 0.124278C16.6815 0.143005 16.5227 0.162583 16.3648 0.184715C16.2324 0.203442 16.101 0.22302 15.9695 0.2443C15.7731 0.276646 15.5776 0.311546 15.383 0.349C15.1456 0.394966 14.9091 0.446039 14.6752 0.500517C14.5659 0.526054 14.4566 0.553293 14.3474 0.580532C14.1365 0.634159 13.9265 0.690339 13.719 0.750776C10.6315 1.65295 7.82288 3.31864 5.55408 5.59306C3.28528 7.86747 1.62995 10.6768 0.741915 13.76C0.682152 13.9694 0.62495 14.1788 0.571164 14.3907C0.543843 14.4997 0.517377 14.6095 0.491764 14.7193C0.437124 14.9534 0.387606 15.19 0.341504 15.4275C0.266942 15.8179 0.204049 16.2123 0.152824 16.6107C0.133472 16.7679 0.115258 16.9262 0.0981833 17.0857C-0.0327278 18.3797 -0.0327278 19.6835 0.0981833 20.9775C0.115258 21.1369 0.133472 21.2952 0.152824 21.4524C0.204049 21.8497 0.266942 22.2441 0.341504 22.6356C0.387606 22.8731 0.437124 23.1098 0.491764 23.3439C0.517377 23.4537 0.543843 23.5635 0.571164 23.6724C0.624096 23.8844 0.681298 24.0938 0.741915 24.3032C1.62995 27.3864 3.28528 30.1957 5.55408 32.4701C7.82288 34.7445 10.6315 36.4102 13.719 37.3124C13.9265 37.3737 14.1365 37.4298 14.3474 37.4826C14.4566 37.5099 14.5659 37.5371 14.6752 37.5626C14.9091 37.6171 15.1456 37.6682 15.383 37.7141C15.5776 37.7516 15.7731 37.7865 15.9695 37.8188C16.101 37.8401 16.2324 37.8597 16.3648 37.8784C16.5227 37.9006 16.6815 37.9201 16.8403 37.9389C16.9991 37.9576 17.1571 37.9729 17.3167 37.9874C17.8785 38.0373 18.4477 38.0626 19.0242 38.0631C19.6008 38.0637 20.17 38.0385 20.7317 37.9874C20.8905 37.9732 21.0493 37.957 21.2081 37.9389L21.4497 37.9099C21.6501 37.8844 21.8493 37.856 22.0474 37.8248C22.2454 37.7936 22.4427 37.7587 22.639 37.7201C22.8781 37.6741 23.116 37.6233 23.3528 37.5677C23.5782 37.515 23.8018 37.4579 24.0238 37.3975C24.1297 37.3685 24.2355 37.3388 24.3406 37.3081C24.4456 37.2775 24.5369 37.2502 24.6351 37.223C24.7333 37.1958 24.8246 37.1634 24.9185 37.1328L25.1918 37.0417L25.4479 36.9506C28.0435 36.013 30.4046 34.5259 32.3686 32.5915C34.3326 30.6571 35.853 28.3214 36.825 25.7451C36.8893 25.5749 36.9514 25.4032 37.0111 25.2302C37.041 25.145 37.0709 25.054 37.0965 24.9654C37.1221 24.8769 37.1554 24.7824 37.1819 24.6905C37.2084 24.5986 37.2399 24.5007 37.2673 24.4053C37.2946 24.31 37.3245 24.2078 37.3526 24.1091C37.4096 23.898 37.4645 23.6855 37.5174 23.4715C37.543 23.3643 37.5678 23.257 37.5917 23.1489C37.6156 23.0408 37.6404 22.9225 37.6634 22.8084C37.6865 22.6944 37.7104 22.5692 37.7326 22.4484C37.7923 22.1187 37.8435 21.7864 37.8862 21.4516C37.9067 21.2944 37.9249 21.1361 37.9409 20.9766C38.0718 19.6826 38.0718 18.3788 37.9409 17.0848L37.9468 17.0806ZM36.0216 17.6185L20.3595 2.00207C28.6776 2.64985 35.3403 9.29958 36.0216 17.6177V17.6185ZM18.8791 34.8651L3.04791 19.0809L18.8791 3.29763L25.5273 9.92692C23.1579 8.22173 20.2108 7.51449 17.3227 7.95805C17.1784 7.98019 17.035 8.00487 16.8958 8.03296C16.8241 8.04658 16.7532 8.06105 16.6824 8.07637C16.4963 8.11638 16.311 8.1615 16.1283 8.21002L15.9575 8.25768C15.8491 8.28918 15.7415 8.32152 15.6348 8.35557C15.5281 8.38962 15.435 8.42112 15.336 8.45602C15.237 8.49092 15.1516 8.52241 15.0602 8.55731C14.9749 8.59136 14.8835 8.62626 14.7956 8.66201C12.163 9.7493 10.0438 11.7943 8.86795 14.3822C8.82868 14.4673 8.79112 14.5525 8.75355 14.6376C8.71599 14.7227 8.6733 14.8308 8.63488 14.9278C8.5939 15.0308 8.55463 15.1355 8.51706 15.2411C8.4795 15.3466 8.44022 15.4633 8.40351 15.5756L8.34716 15.7561C8.3096 15.8804 8.27374 16.0063 8.24044 16.1323C8.20288 16.2708 8.16844 16.411 8.13714 16.5528C8.12177 16.6235 8.1064 16.6941 8.09189 16.7656C8.0825 16.8116 8.07396 16.8567 8.06457 16.9027C8.0381 17.0389 8.0142 17.1759 7.99371 17.3147C7.97322 17.4534 7.95358 17.5947 7.93736 17.7403C7.92712 17.8331 7.91772 17.9267 7.90919 18.0203C7.88016 18.3506 7.86479 18.686 7.86479 19.0239C7.86479 19.3618 7.88016 19.6972 7.90919 20.0275C7.91772 20.1211 7.92712 20.2148 7.93736 20.3084C7.95358 20.4489 7.97236 20.5893 7.99371 20.7289C8.01505 20.8685 8.0381 21.0047 8.06457 21.1409C8.07396 21.1869 8.0825 21.232 8.09189 21.2779C8.1064 21.3494 8.12177 21.4201 8.13714 21.4907C8.16901 21.632 8.20345 21.7722 8.24044 21.9112C8.28996 22.0977 8.3446 22.2815 8.40266 22.4637C8.47039 22.6725 8.54353 22.8785 8.62207 23.0817L8.67671 23.2196C8.74786 23.3938 8.82242 23.566 8.9004 23.7363C8.93369 23.8086 8.9687 23.8801 9.00285 23.9516C9.06859 24.0853 9.13689 24.2181 9.20689 24.3483C9.2769 24.4785 9.33752 24.5841 9.40497 24.6998C10.3901 26.3783 11.7965 27.7721 13.4859 28.744C13.544 28.7772 13.602 28.8104 13.6609 28.8427L13.8564 28.9483C13.9265 28.9849 13.9973 29.0206 14.0682 29.0564C14.2193 29.1313 14.373 29.2037 14.5275 29.2726C14.6129 29.3101 14.6982 29.3475 14.7836 29.3833C14.869 29.419 14.9663 29.4565 15.0585 29.4922C15.1601 29.5314 15.2626 29.5688 15.365 29.6046L15.546 29.6659C15.8471 29.7646 16.1542 29.8497 16.4672 29.9212C16.6081 29.9544 16.7498 29.9842 16.8941 30.0123C17.0384 30.0404 17.1793 30.0651 17.321 30.0872C18.4476 30.2597 19.594 30.2597 20.7206 30.0872C20.9056 30.0588 21.0892 30.0259 21.2713 29.9885L21.2944 29.9834C21.3513 29.9726 21.4059 29.9607 21.4583 29.9476C21.565 29.9238 21.67 29.8982 21.7759 29.8719C21.8817 29.8455 21.9722 29.8199 22.0696 29.7927C23.5024 29.3861 24.8382 28.6953 25.9968 27.7617L18.8791 34.8651ZM19.0225 28.2639C13.9521 28.2639 9.82757 24.1193 9.82757 19.0256C9.82757 13.9319 13.9521 9.78818 19.0225 9.78818C24.093 9.78818 28.2175 13.9319 28.2175 19.0256C28.2175 24.1193 24.093 28.2639 19.0225 28.2639ZM29.4093 23.1259C29.4708 22.9704 29.5277 22.813 29.5801 22.6535C29.6108 22.5633 29.6407 22.4731 29.6654 22.382C29.6654 22.382 29.6654 22.382 29.6654 22.3777C29.6945 22.2841 29.7226 22.1896 29.7508 22.0951C29.7645 22.0466 29.7781 21.9989 29.7909 21.9504C29.7909 21.9504 29.7909 21.9504 29.7909 21.9453C29.82 21.8363 29.8473 21.7274 29.8763 21.6167C29.9053 21.5061 29.9275 21.3929 29.9506 21.2762C29.96 21.2303 29.9685 21.1852 29.9779 21.1392C30.0044 21.003 30.0283 20.866 30.0488 20.7272C30.0693 20.5885 30.0889 20.4472 30.1051 20.3067C30.1154 20.2131 30.1247 20.1194 30.1333 20.0258C30.1623 19.6955 30.1777 19.3601 30.1777 19.0222C30.1777 18.6843 30.1623 18.3489 30.1333 18.0186C30.1247 17.925 30.1154 17.8314 30.1051 17.7386C30.0886 17.5973 30.0698 17.4554 30.0488 17.313C30.0283 17.1742 30.0044 17.0372 29.9779 16.901C29.9685 16.855 29.96 16.8099 29.9506 16.7639C29.9198 16.6141 29.8857 16.4643 29.8498 16.317C29.8251 16.2183 29.7995 16.1204 29.7721 16.0225C29.7491 15.9374 29.726 15.8582 29.7013 15.7765C29.6765 15.6948 29.6509 15.6139 29.6244 15.5331C29.598 15.4522 29.5775 15.3918 29.5536 15.322C29.1962 14.2908 28.6881 13.3179 28.0459 12.4346L34.7051 19.0741L27.6847 26.0737C28.4079 25.1852 28.9895 24.1909 29.4093 23.1259ZM17.3714 2.03271L2.04901 17.3036C2.86179 9.23744 9.30593 2.80817 17.3714 2.03271ZM2.06438 20.8711L17.2459 36.01C9.28032 35.1818 2.92326 28.8393 2.06438 20.8711ZM20.4807 36.0398L36.0114 20.5544C35.2789 28.7763 28.7015 35.3401 20.4807 36.0398ZM10.0871 19.0818L18.8808 27.8494L27.6745 19.0818L18.8808 10.3142L10.0871 19.0818ZM18.8808 25.0761L12.8661 19.0818L18.8791 13.0867L24.8921 19.0818L18.8808 25.0761ZM18.8808 10.3151L10.0871 19.0826L18.8808 27.8502L27.6745 19.0826L18.8808 10.3151ZM12.8678 19.0826L18.8808 13.0875L24.8938 19.0826L18.8808 25.0769L12.8678 19.0826ZM18.8808 10.3151L10.0871 19.0826L18.8808 27.8502L27.6745 19.0826L18.8808 10.3151ZM12.8678 19.0826L18.8808 13.0875L24.8938 19.0826L18.8808 25.0769L12.8678 19.0826ZM18.8808 10.3151L10.0871 19.0826L18.8808 27.8502L27.6745 19.0826L18.8808 10.3151ZM12.8678 19.0826L18.8808 13.0875L24.8938 19.0826L18.8808 25.0769L12.8678 19.0826ZM18.8808 10.3151L10.0871 19.0826L18.8808 27.8502L27.6745 19.0826L18.8808 10.3151ZM12.8678 19.0826L18.8808 13.0875L24.8938 19.0826L18.8808 25.0769L12.8678 19.0826ZM18.8808 10.3151L10.0871 19.0826L18.8808 27.8502L27.6745 19.0826L18.8808 10.3151ZM12.8678 19.0826L18.8808 13.0875L24.8938 19.0826L18.8808 25.0769L12.8678 19.0826ZM18.8808 10.3151L10.0871 19.0826L18.8808 27.8502L27.6745 19.0826L18.8808 10.3151ZM12.8678 19.0826L18.8808 13.0875L24.8938 19.0826L18.8808 25.0769L12.8678 19.0826Z" fill="#0A0A0A"/>
<path d="M37.9468 17.0797C37.9298 16.9203 37.9116 16.7619 37.8922 16.6047C37.8495 16.2694 37.7983 15.9371 37.7385 15.608C37.7163 15.4871 37.6933 15.3671 37.6694 15.2479C37.6463 15.1338 37.6224 15.0206 37.5977 14.9074C37.5729 14.7942 37.549 14.6921 37.5234 14.5848C37.4722 14.3711 37.4167 14.1592 37.3586 13.9472C37.3313 13.8485 37.3028 13.7498 37.2732 13.651C37.2451 13.5557 37.216 13.4603 37.1879 13.3659C37.1597 13.2714 37.1298 13.182 37.1025 13.0909C37.0752 12.9998 37.0436 12.9139 37.0171 12.8262C36.9602 12.6559 36.8982 12.4843 36.831 12.3112C35.8545 9.73691 34.3323 7.4031 32.3682 5.46921C30.4041 3.53533 28.0444 2.04694 25.4504 1.10573L25.1943 1.01465L24.9185 0.926127C24.8246 0.895483 24.7299 0.864839 24.6351 0.835898C24.5403 0.806956 24.4387 0.776312 24.3406 0.750776C24.2424 0.725239 24.1297 0.690339 24.0238 0.665654C23.8018 0.606069 23.5782 0.549037 23.3528 0.49541C23.1166 0.438662 22.8786 0.387873 22.639 0.343042C22.4427 0.305588 22.2454 0.270688 22.0474 0.238342C21.8493 0.205995 21.6501 0.177621 21.4497 0.15322L21.2081 0.124278C21.0493 0.106686 20.8905 0.090513 20.7317 0.0757586C20.17 0.0252529 19.6008 0 19.0242 0C18.4477 0 17.8785 0.0252529 17.3167 0.0757586C17.1568 0.090513 16.998 0.106686 16.8403 0.124278C16.6815 0.143005 16.5227 0.162583 16.3648 0.184715C16.2324 0.203442 16.101 0.22302 15.9695 0.2443C15.7731 0.276646 15.5776 0.311546 15.383 0.349C15.1456 0.394966 14.9091 0.446039 14.6752 0.500517C14.5659 0.526054 14.4566 0.553293 14.3474 0.580532C14.1365 0.634159 13.9265 0.69119 13.719 0.750776C10.6341 1.65801 7.82818 3.3254 5.56014 5.59906C3.29209 7.87271 1.63504 10.6794 0.741915 13.76C0.682152 13.9694 0.62495 14.1788 0.571164 14.3907C0.543843 14.4997 0.517377 14.6095 0.491764 14.7193C0.437124 14.9534 0.387606 15.19 0.341504 15.4275C0.266942 15.8179 0.204049 16.2123 0.152824 16.6107C0.133472 16.7679 0.115258 16.9262 0.0981833 17.0857C-0.0327278 18.3797 -0.0327278 19.6835 0.0981833 20.9775C0.115258 21.1369 0.133472 21.2952 0.152824 21.4524C0.204049 21.8497 0.266942 22.2441 0.341504 22.6356C0.387606 22.8731 0.437124 23.1098 0.491764 23.3439C0.517377 23.4537 0.543843 23.5635 0.571164 23.6724C0.624096 23.8844 0.681298 24.0938 0.741915 24.3032C1.63504 27.3838 3.29209 30.1904 5.56014 32.4641C7.82818 34.7377 10.6341 36.4051 13.719 37.3124C13.9265 37.3728 14.1365 37.4298 14.3474 37.4826C14.4566 37.5099 14.5659 37.5371 14.6752 37.5626C14.9091 37.6171 15.1456 37.6682 15.383 37.7141C15.5776 37.7516 15.7731 37.7865 15.9695 37.8188C16.101 37.8401 16.2324 37.8597 16.3648 37.8784C16.5227 37.9006 16.6815 37.9201 16.8403 37.9389C16.9991 37.9576 17.1571 37.9729 17.3167 37.9874C17.8785 38.0373 18.4477 38.0626 19.0242 38.0631C19.6008 38.0637 20.17 38.0385 20.7317 37.9874C20.8905 37.9732 21.0493 37.957 21.2081 37.9389L21.4497 37.9099C21.6501 37.8844 21.8493 37.856 22.0474 37.8248C22.2454 37.7936 22.4427 37.7587 22.639 37.7201C22.8781 37.6741 23.116 37.6233 23.3528 37.5677C23.5782 37.515 23.8018 37.4579 24.0238 37.3975C24.1297 37.3685 24.2355 37.3388 24.3406 37.3081C24.4456 37.2775 24.5369 37.2502 24.6351 37.223C24.7333 37.1958 24.8246 37.1634 24.9185 37.1328L25.1918 37.0417L25.4479 36.9506C28.0412 36.009 30.4002 34.5204 32.3637 32.5865C34.3272 30.6527 35.8489 28.3191 36.825 25.7451C36.8893 25.5749 36.9514 25.4032 37.0111 25.2302C37.041 25.145 37.0709 25.054 37.0965 24.9654C37.1221 24.8769 37.1554 24.7824 37.1819 24.6905C37.2084 24.5986 37.2399 24.5007 37.2673 24.4053C37.2946 24.31 37.3245 24.2078 37.3526 24.1091C37.4107 23.898 37.4662 23.6835 37.5174 23.4715C37.543 23.3643 37.5678 23.257 37.5917 23.1489C37.6156 23.0408 37.6404 22.9225 37.6634 22.8084C37.6865 22.6944 37.7104 22.5692 37.7326 22.4484C37.7923 22.1187 37.8435 21.7864 37.8862 21.4516C37.9062 21.2944 37.9244 21.1361 37.9409 20.9766C38.0718 19.6826 38.0718 18.3788 37.9409 17.0848L37.9468 17.0797ZM20.4807 36.0398C20.0003 36.0807 19.5143 36.1014 19.0225 36.1019C18.4291 36.1019 17.8361 36.0712 17.2459 36.01C9.28032 35.1818 2.92326 28.8393 2.06438 20.8711C1.93591 19.6856 1.93076 18.4901 2.04901 17.3036C2.86179 9.23744 9.30593 2.80817 17.3714 2.03271C17.9138 1.97596 18.4642 1.94759 19.0225 1.94759C19.4727 1.94759 19.9184 1.96518 20.3595 2.00037C28.6776 2.64814 35.3403 9.29788 36.0216 17.616C36.0592 18.0796 36.0783 18.5489 36.0788 19.0239C36.0788 19.5392 36.0564 20.0499 36.0114 20.5561C35.2789 28.7763 28.7015 35.3401 20.4807 36.0398Z" fill="#0A0A0A"/>
<path d="M18.8787 10.3154L10.085 19.083L18.8787 27.8505L27.6724 19.083L18.8787 10.3154ZM12.8657 19.083L18.8787 13.0878L24.8917 19.083L18.8787 25.0773L12.8657 19.083ZM18.8787 10.3154L10.085 19.083L18.8787 27.8505L27.6724 19.083L18.8787 10.3154ZM12.8657 19.083L18.8787 13.0878L24.8917 19.083L18.8787 25.0773L12.8657 19.083ZM18.8787 10.3154L10.085 19.083L18.8787 27.8505L27.6724 19.083L18.8787 10.3154ZM12.8657 19.083L18.8787 13.0878L24.8917 19.083L18.8787 25.0773L12.8657 19.083ZM18.8787 10.3154L10.085 19.083L18.8787 27.8505L27.6724 19.083L18.8787 10.3154ZM12.8657 19.083L18.8787 13.0878L24.8917 19.083L18.8787 25.0773L12.8657 19.083ZM18.8787 10.3154L10.085 19.083L18.8787 27.8505L27.6724 19.083L18.8787 10.3154ZM12.8657 19.083L18.8787 13.0878L24.8917 19.083L18.8787 25.0773L12.8657 19.083ZM18.8787 10.3154L10.085 19.083L18.8787 27.8505L27.6724 19.083L18.8787 10.3154ZM12.8657 19.083L18.8787 13.0878L24.8917 19.083L18.8787 25.0773L12.8657 19.083ZM18.8787 10.3154L10.085 19.083L18.8787 27.8505L27.6724 19.083L18.8787 10.3154ZM12.8657 19.083L18.8787 13.0878L24.8917 19.083L18.8787 25.0773L12.8657 19.083ZM18.8787 10.3154L10.085 19.083L18.8787 27.8505L27.6724 19.083L18.8787 10.3154ZM12.8657 19.083L18.8787 13.0878L24.8917 19.083L18.8787 25.0773L12.8657 19.083ZM36.0213 17.6189L20.3591 2.00238L18.8787 0.526367L2.04863 17.3039L0.268555 19.0813L2.06144 20.8688L17.2455 36.0103L18.877 37.637L20.4786 36.0401L36.011 20.5547L37.4889 19.0813L36.0213 17.6189ZM19.0221 28.2642C13.9517 28.2642 9.8272 24.1196 9.8272 19.0259C9.8272 13.9322 13.9517 9.7885 19.0221 9.7885C24.0926 9.7885 28.2171 13.9322 28.2171 19.0259C28.2171 24.1196 24.0926 28.2642 19.0221 28.2642ZM18.8787 34.8654L3.04753 19.0813L18.8787 3.29794L25.5269 9.92724C23.1575 8.22204 20.2104 7.51481 17.3223 7.95837C17.178 7.9805 17.0346 8.00519 16.8954 8.03328C16.8237 8.0469 16.7529 8.06137 16.682 8.07669C16.4959 8.1167 16.3106 8.16181 16.1279 8.21033L15.9572 8.258C15.8487 8.2895 15.7412 8.32184 15.6344 8.35589C15.5277 8.38994 15.4347 8.42144 15.3356 8.45634C15.2366 8.49124 15.1512 8.52273 15.0599 8.55763C14.9745 8.59168 14.8831 8.62658 14.7952 8.66233C12.1626 9.74961 10.0434 11.7946 8.86757 14.3825C8.8283 14.4677 8.79074 14.5528 8.75317 14.6379C8.71561 14.723 8.67292 14.8311 8.6345 14.9282C8.59352 15.0312 8.55425 15.1359 8.51668 15.2414C8.47912 15.347 8.43984 15.4636 8.40313 15.5759L8.34678 15.7564C8.30922 15.8807 8.27336 16.0067 8.24006 16.1326C8.2025 16.2711 8.16806 16.4113 8.13676 16.5531C8.12139 16.6238 8.10602 16.6944 8.09151 16.7659C8.08212 16.8119 8.07358 16.857 8.06419 16.903C8.03772 17.0392 8.01382 17.1762 7.99333 17.315C7.97284 17.4537 7.9532 17.595 7.93698 17.7406C7.92674 17.8334 7.91735 17.927 7.90881 18.0206C7.87978 18.3509 7.86441 18.6863 7.86441 19.0242C7.86441 19.3622 7.87978 19.6976 7.90881 20.0278C7.91735 20.1215 7.92674 20.2151 7.93698 20.3087C7.9532 20.4492 7.97199 20.5896 7.99333 20.7292C8.01467 20.8688 8.03772 21.005 8.06419 21.1412C8.07358 21.1872 8.08212 21.2323 8.09151 21.2783C8.10602 21.3498 8.12139 21.4204 8.13676 21.4911C8.16863 21.6324 8.20307 21.7725 8.24006 21.9116C8.28958 22.098 8.34422 22.2819 8.40228 22.464C8.47001 22.6729 8.54315 22.8788 8.62169 23.082L8.67633 23.2199C8.74748 23.3941 8.82204 23.5663 8.90002 23.7366C8.93331 23.8089 8.96832 23.8804 9.00247 23.952C9.06821 24.0856 9.13651 24.2184 9.20652 24.3486C9.27652 24.4789 9.33714 24.5844 9.40459 24.7002C10.3897 26.3786 11.7961 27.7724 13.4855 28.7443C13.5436 28.7775 13.6016 28.8107 13.6606 28.8431L13.8561 28.9486C13.9261 28.9852 13.9969 29.021 14.0678 29.0567C14.2189 29.1316 14.3726 29.204 14.5271 29.2729C14.6125 29.3104 14.6979 29.3478 14.7832 29.3836C14.8686 29.4193 14.9659 29.4568 15.0582 29.4925C15.1597 29.5317 15.2622 29.5692 15.3647 29.6049L15.5456 29.6662C15.8467 29.7649 16.1538 29.8501 16.4668 29.9216C16.6077 29.9548 16.7494 29.9846 16.8937 30.0126C17.038 30.0407 17.1789 30.0654 17.3206 30.0875C18.4472 30.2601 19.5936 30.2601 20.7203 30.0875C20.9052 30.0592 21.0888 30.0263 21.2709 29.9888L21.294 29.9837C21.3509 29.9729 21.4055 29.961 21.4579 29.9479C21.5646 29.9241 21.6696 29.8986 21.7755 29.8722C21.8814 29.8458 21.9719 29.8203 22.0692 29.793C23.502 29.3864 24.8378 28.6956 25.9965 27.762L18.8787 34.8654ZM27.6895 26.0809C28.4114 25.1899 28.9914 24.1933 29.4089 23.1263C29.4704 22.9708 29.5273 22.8133 29.5797 22.6538C29.6104 22.5636 29.6403 22.4734 29.665 22.3823C29.665 22.3823 29.665 22.3823 29.665 22.378C29.6941 22.2844 29.7222 22.1899 29.7504 22.0954C29.7641 22.0469 29.7777 21.9993 29.7905 21.9507C29.7905 21.9507 29.7905 21.9507 29.7905 21.9456C29.8196 21.8367 29.8469 21.7277 29.8759 21.6171C29.905 21.5064 29.9271 21.3932 29.9502 21.2766C29.9596 21.2306 29.9681 21.1855 29.9775 21.1395C30.004 21.0033 30.0279 20.8663 30.0484 20.7275C30.0689 20.5888 30.0885 20.4475 30.1047 20.307C30.115 20.2134 30.1244 20.1198 30.1329 20.0261C30.1619 19.6958 30.1773 19.3605 30.1773 19.0225C30.1773 18.6846 30.1619 18.3492 30.1329 18.0189C30.1244 17.9253 30.115 17.8317 30.1047 17.7389C30.0882 17.5976 30.0694 17.4557 30.0484 17.3133C30.0279 17.1745 30.004 17.0375 29.9775 16.9013C29.9681 16.8553 29.9596 16.8102 29.9502 16.7642C29.9195 16.6144 29.8853 16.4646 29.8495 16.3174C29.8247 16.2186 29.7991 16.1207 29.7718 16.0228C29.7487 15.9377 29.7257 15.8585 29.7009 15.7768C29.6761 15.6951 29.6505 15.6142 29.6241 15.5334C29.5976 15.4525 29.5771 15.3921 29.5532 15.3223C29.1958 14.2911 28.6877 13.3182 28.0455 12.4349L34.7048 19.0745L27.6895 26.0809ZM10.0867 19.0821L18.8804 27.8497L27.6741 19.0821L18.8804 10.3145L10.0867 19.0821ZM18.8804 25.0764L12.8657 19.0821L18.8787 13.087L24.8917 19.0821L18.8804 25.0764ZM18.8804 10.3154L10.0867 19.083L18.8804 27.8505L27.6741 19.083L18.8804 10.3154ZM12.8674 19.083L18.8804 13.0878L24.8934 19.083L18.8804 25.0773L12.8674 19.083ZM18.8804 10.3154L10.0867 19.083L18.8804 27.8505L27.6741 19.083L18.8804 10.3154ZM12.8674 19.083L18.8804 13.0878L24.8934 19.083L18.8804 25.0773L12.8674 19.083ZM18.8804 10.3154L10.0867 19.083L18.8804 27.8505L27.6741 19.083L18.8804 10.3154ZM12.8674 19.083L18.8804 13.0878L24.8934 19.083L18.8804 25.0773L12.8674 19.083ZM18.8804 10.3154L10.0867 19.083L18.8804 27.8505L27.6741 19.083L18.8804 10.3154ZM12.8674 19.083L18.8804 13.0878L24.8934 19.083L18.8804 25.0773L12.8674 19.083ZM18.8804 10.3154L10.0867 19.083L18.8804 27.8505L27.6741 19.083L18.8804 10.3154ZM12.8674 19.083L18.8804 13.0878L24.8934 19.083L18.8804 25.0773L12.8674 19.083ZM18.8804 10.3154L10.0867 19.083L18.8804 27.8505L27.6741 19.083L18.8804 10.3154ZM12.8674 19.083L18.8804 13.0878L24.8934 19.083L18.8804 25.0773L12.8674 19.083Z" fill="#0A0A0A"/>
<path d="M36.0213 17.618L20.3591 2.00238L18.8787 0.526367L2.04863 17.3039L0.268555 19.0813L2.06144 20.8688L17.2455 36.0103L18.877 37.637L20.4786 36.0401L36.011 20.5547L37.4889 19.0813L36.0213 17.618ZM25.9965 27.7688L18.8787 34.8654L3.04753 19.0813L18.8787 3.29794L25.5269 9.92724L25.5482 9.94852L28.0241 12.4171L28.048 12.4417L34.7073 19.0813L25.9965 27.7688Z" fill="#0A0A0A"/>
<path d="M18.8786 10.315L10.0849 19.0825L18.8786 27.8501L27.6722 19.0825L18.8786 10.315ZM12.8656 19.0825L18.8786 13.0874L24.8916 19.0825L18.8786 25.0768L12.8656 19.0825ZM18.8786 10.315L10.0849 19.0825L18.8786 27.8501L27.6722 19.0825L18.8786 10.315ZM12.8656 19.0825L18.8786 13.0874L24.8916 19.0825L18.8786 25.0768L12.8656 19.0825ZM18.8786 10.315L10.0849 19.0825L18.8786 27.8501L27.6722 19.0825L18.8786 10.315ZM12.8656 19.0825L18.8786 13.0874L24.8916 19.0825L18.8786 25.0768L12.8656 19.0825ZM18.8786 10.315L10.0849 19.0825L18.8786 27.8501L27.6722 19.0825L18.8786 10.315ZM12.8656 19.0825L18.8786 13.0874L24.8916 19.0825L18.8786 25.0768L12.8656 19.0825ZM18.8786 10.315L10.0849 19.0825L18.8786 27.8501L27.6722 19.0825L18.8786 10.315ZM12.8656 19.0825L18.8786 13.0874L24.8916 19.0825L18.8786 25.0768L12.8656 19.0825ZM18.8786 10.315L10.0849 19.0825L18.8786 27.8501L27.6722 19.0825L18.8786 10.315ZM12.8656 19.0825L18.8786 13.0874L24.8916 19.0825L18.8786 25.0768L12.8656 19.0825ZM18.8786 10.315L10.0849 19.0825L18.8786 27.8501L27.6722 19.0825L18.8786 10.315ZM12.8656 19.0825L18.8786 13.0874L24.8916 19.0825L18.8786 25.0768L12.8656 19.0825ZM18.8786 10.315L10.0849 19.0825L18.8786 27.8501L27.6722 19.0825L18.8786 10.315ZM12.8656 19.0825L18.8786 13.0874L24.8916 19.0825L18.8786 25.0768L12.8656 19.0825ZM30.137 18.0219C30.1285 17.9283 30.1191 17.8347 30.1089 17.7419C30.0924 17.6006 30.0736 17.4587 30.0525 17.3163C30.032 17.1775 30.0081 17.0405 29.9817 16.9043C29.9723 16.8583 29.9637 16.8132 29.9543 16.7672C29.9236 16.6174 29.8894 16.4676 29.8536 16.3203C29.8288 16.2216 29.8032 16.1237 29.7759 16.0258C29.7528 15.9407 29.7298 15.8615 29.705 15.7798C29.6803 15.6981 29.6547 15.6172 29.6282 15.5364C29.6017 15.4555 29.5812 15.3951 29.5573 15.3253C29.1999 14.2941 28.6919 13.3212 28.0496 12.4379C27.3477 11.4727 26.4961 10.625 25.5268 9.92683C23.1574 8.22163 20.2102 7.51439 17.3222 7.95795C17.1779 7.98009 17.0344 8.00477 16.8953 8.03286C16.8236 8.04648 16.7527 8.06095 16.6818 8.07627C16.4957 8.11628 16.3105 8.1614 16.1278 8.20991L15.957 8.25758C15.8486 8.28908 15.741 8.32142 15.6343 8.35547C15.5276 8.38952 15.4345 8.42102 15.3355 8.45592C15.2364 8.49082 15.1511 8.52231 15.0597 8.55721C14.9743 8.59126 14.883 8.62616 14.795 8.66191C12.1625 9.7492 10.0433 11.7942 8.86742 14.3821C8.82815 14.4672 8.79058 14.5524 8.75302 14.6375C8.71545 14.7226 8.67276 14.8307 8.63435 14.9277C8.59336 15.0307 8.55409 15.1354 8.51653 15.241C8.47896 15.3465 8.43969 15.4632 8.40298 15.5755L8.34663 15.756C8.30906 15.8803 8.27321 16.0062 8.23991 16.1322C8.20234 16.2707 8.16791 16.4109 8.13661 16.5527C8.12124 16.6234 8.10587 16.694 8.09136 16.7655C8.08197 16.8115 8.07343 16.8566 8.06404 16.9026C8.03757 17.0388 8.01366 17.1758 7.99317 17.3146C7.97268 17.4533 7.95305 17.5946 7.93683 17.7402C7.92658 17.833 7.91719 17.9266 7.90865 18.0202C7.87963 18.3505 7.86426 18.6859 7.86426 19.0238C7.86426 19.3617 7.87963 19.6971 7.90865 20.0274C7.91719 20.121 7.92658 20.2147 7.93683 20.3083C7.95305 20.4488 7.97183 20.5892 7.99317 20.7288C8.01452 20.8684 8.03757 21.0046 8.06404 21.1408C8.07343 21.1868 8.08197 21.2319 8.09136 21.2778C8.10587 21.3493 8.12124 21.42 8.13661 21.4906C8.16848 21.632 8.20291 21.7721 8.23991 21.9112C8.28943 22.0976 8.34407 22.2814 8.40212 22.4636C8.46985 22.6724 8.54299 22.8784 8.62154 23.0816L8.67618 23.2195C8.74733 23.3937 8.82189 23.5659 8.89986 23.7362C8.93316 23.8085 8.96816 23.88 9.00231 23.9515C9.06805 24.0852 9.13635 24.218 9.20636 24.3482C9.27637 24.4784 9.33699 24.584 9.40443 24.6997C10.3895 26.3782 11.796 27.772 13.4854 28.7439C13.5434 28.7771 13.6015 28.8103 13.6604 28.8426L13.8559 28.9482C13.9259 28.9848 13.9968 29.0205 14.0676 29.0563C14.2188 29.1312 14.3724 29.2036 14.527 29.2725C14.6123 29.31 14.6977 29.3474 14.7831 29.3832C14.8685 29.4189 14.9658 29.4564 15.058 29.4921C15.1596 29.5313 15.2621 29.5687 15.3645 29.6045L15.5455 29.6658C15.8466 29.7645 16.1537 29.8496 16.4667 29.9211C16.6076 29.9543 16.7493 29.9841 16.8936 30.0122C17.0379 30.0403 17.1787 30.065 17.3205 30.0871C18.4471 30.2596 19.5935 30.2596 20.7201 30.0871C20.9051 30.0587 21.0886 30.0258 21.2708 29.9884L21.2938 29.9833C21.3507 29.9725 21.4054 29.9606 21.4578 29.9475C21.5645 29.9237 21.6695 29.8981 21.7754 29.8718C21.8812 29.8454 21.9717 29.8198 22.069 29.7926C23.5019 29.386 24.8377 28.6952 25.9963 27.7616C27.5206 26.5369 28.6978 24.9366 29.4113 23.119C29.4728 22.9635 29.5297 22.8061 29.5821 22.6466C29.6128 22.5564 29.6427 22.4661 29.6675 22.3751C29.6675 22.3751 29.6675 22.3751 29.6675 22.3708C29.6965 22.2772 29.7247 22.1827 29.7528 22.0882C29.7665 22.0397 29.7802 21.992 29.793 21.9435C29.793 21.9435 29.793 21.9435 29.793 21.9384C29.822 21.8294 29.8493 21.7205 29.8783 21.6098C29.9074 21.4992 29.9296 21.3859 29.9526 21.2693C29.962 21.2234 29.9706 21.1783 29.9799 21.1323C30.0064 20.9961 30.0303 20.859 30.0508 20.7203C30.0713 20.5815 30.0909 20.4402 30.1072 20.2998C30.1174 20.2062 30.1268 20.1125 30.1353 20.0189C30.1644 19.6886 30.1797 19.3532 30.1797 19.0153C30.1797 18.6774 30.1669 18.3522 30.137 18.0219ZM19.022 28.2638C13.9515 28.2638 9.82704 24.1192 9.82704 19.0255C9.82704 13.9318 13.9515 9.78808 19.022 9.78808C24.0924 9.78808 28.2169 13.9318 28.2169 19.0255C28.2169 24.1192 24.0924 28.2638 19.022 28.2638ZM18.8786 10.315L10.0849 19.0825L18.8786 27.8501L27.6722 19.0825L18.8786 10.315ZM12.8656 19.0825L18.8786 13.0874L24.8916 19.0825L18.8786 25.0768L12.8656 19.0825ZM18.8786 10.315L10.0849 19.0825L18.8786 27.8501L27.6722 19.0825L18.8786 10.315ZM12.8656 19.0825L18.8786 13.0874L24.8916 19.0825L18.8786 25.0768L12.8656 19.0825ZM18.8786 10.315L10.0849 19.0825L18.8786 27.8501L27.6722 19.0825L18.8786 10.315ZM12.8656 19.0825L18.8786 13.0874L24.8916 19.0825L18.8786 25.0768L12.8656 19.0825ZM18.8786 10.315L10.0849 19.0825L18.8786 27.8501L27.6722 19.0825L18.8786 10.315ZM12.8656 19.0825L18.8786 13.0874L24.8916 19.0825L18.8786 25.0768L12.8656 19.0825ZM18.8786 10.315L10.0849 19.0825L18.8786 27.8501L27.6722 19.0825L18.8786 10.315ZM12.8656 19.0825L18.8786 13.0874L24.8916 19.0825L18.8786 25.0768L12.8656 19.0825ZM18.8786 10.315L10.0849 19.0825L18.8786 27.8501L27.6722 19.0825L18.8786 10.315ZM12.8656 19.0825L18.8786 13.0874L24.8916 19.0825L18.8786 25.0768L12.8656 19.0825ZM18.8786 10.315L10.0849 19.0825L18.8786 27.8501L27.6722 19.0825L18.8786 10.315ZM12.8656 19.0825L18.8786 13.0874L24.8916 19.0825L18.8786 25.0768L12.8656 19.0825Z" fill="#0A0A0A"/>
<path d="M30.137 18.0222C30.1285 17.9286 30.1191 17.8349 30.1088 17.7422C30.0923 17.6009 30.0735 17.459 30.0525 17.3166C30.0311 17.1787 30.0072 17.0408 29.9816 16.9046C29.9722 16.8586 29.9637 16.8135 29.9543 16.7675C29.9236 16.6177 29.8894 16.4679 29.8536 16.3206C29.8288 16.2219 29.8032 16.124 29.7759 16.0261C29.7528 15.941 29.7298 15.8618 29.705 15.7801C29.6803 15.6984 29.6546 15.6175 29.6282 15.5367C29.6017 15.4558 29.5812 15.3954 29.5573 15.3256C28.7996 13.1667 27.3999 11.2895 25.5447 9.94413C23.174 8.22635 20.2184 7.51252 17.3222 7.95824C17.1779 7.98037 17.0344 8.00505 16.8953 8.03314C16.8236 8.04676 16.7527 8.06123 16.6818 8.07656C16.4957 8.11656 16.3105 8.16168 16.1277 8.2102L15.957 8.25787C15.8486 8.28936 15.741 8.32171 15.6343 8.35576C15.5276 8.38981 15.4345 8.4213 15.3355 8.4562C15.2364 8.4911 15.1511 8.5226 15.0597 8.5575C14.9743 8.59154 14.883 8.62644 14.795 8.6622C12.1664 9.7554 10.0491 11.7986 8.86742 14.3824C8.82815 14.4675 8.79058 14.5526 8.75302 14.6378C8.71545 14.7229 8.67276 14.831 8.63434 14.928C8.59336 15.031 8.55409 15.1357 8.51653 15.2413C8.47896 15.3468 8.43969 15.4634 8.40298 15.5758L8.34663 15.7563C8.30906 15.8805 8.27321 16.0065 8.23991 16.1325C8.2032 16.2721 8.16905 16.4117 8.13661 16.553C8.12124 16.6237 8.10587 16.6943 8.09136 16.7658C8.08196 16.8118 8.07343 16.8569 8.06404 16.9029C8.03842 17.0391 8.01452 17.177 7.99317 17.3149C7.97183 17.4528 7.95305 17.5949 7.93683 17.7405C7.92658 17.8332 7.91719 17.9269 7.90865 18.0205C7.87963 18.3508 7.86426 18.6862 7.86426 19.0241C7.86426 19.362 7.87963 19.6974 7.90865 20.0277C7.91719 20.1213 7.92658 20.215 7.93683 20.3086C7.95305 20.449 7.97183 20.5895 7.99317 20.7291C8.01452 20.8687 8.03842 21.0049 8.06404 21.1411C8.07343 21.1871 8.08196 21.2322 8.09136 21.2781C8.10587 21.3496 8.12124 21.4203 8.13661 21.4909C8.16905 21.6322 8.2032 21.7718 8.23991 21.9114C8.28943 22.0979 8.34407 22.2817 8.40212 22.4639C8.46985 22.6727 8.54299 22.8787 8.62154 23.0819L8.67618 23.2198C8.74732 23.394 8.82189 23.5662 8.89986 23.7365C8.93316 23.8088 8.96816 23.8803 9.00231 23.9518C9.06805 24.0855 9.13635 24.2183 9.20636 24.3485C9.27637 24.4787 9.33698 24.5843 9.40443 24.7C10.3926 26.3761 11.7984 27.7691 13.4854 28.7442C13.5434 28.7774 13.6015 28.8106 13.6604 28.8429L13.8559 28.9485C13.9259 28.9851 13.9968 29.0208 14.0676 29.0566C14.2188 29.1315 14.3724 29.2039 14.527 29.2728C14.6123 29.3103 14.6977 29.3477 14.7831 29.3835C14.8685 29.4192 14.9658 29.4567 15.058 29.4924C15.1596 29.5316 15.262 29.569 15.3645 29.6048L15.5455 29.6661C15.8466 29.7648 16.1536 29.8499 16.4667 29.9214C16.6076 29.9546 16.7493 29.9844 16.8936 30.0125C17.0379 30.0406 17.1787 30.0653 17.3204 30.0874C18.4471 30.2599 19.5935 30.2599 20.7201 30.0874C20.9051 30.059 21.0886 30.0261 21.2708 29.9887L21.2938 29.9836C21.3507 29.9728 21.4054 29.9609 21.4577 29.9478C21.5645 29.924 21.6695 29.8984 21.7753 29.8721C21.8812 29.8457 21.9717 29.8201 22.069 29.7929C23.5141 29.382 24.8608 28.6836 26.0279 27.7398C27.5329 26.5173 28.6971 24.9294 29.4088 23.1287C29.4691 22.9732 29.526 22.8157 29.5795 22.6563C29.6102 22.566 29.6401 22.4758 29.6649 22.3847C29.6649 22.3847 29.6649 22.3847 29.6649 22.3805C29.6939 22.2868 29.7221 22.1923 29.7503 22.0979C29.7639 22.0493 29.7776 22.0017 29.7904 21.9532C29.7904 21.9532 29.7904 21.9532 29.7904 21.948C29.8194 21.8391 29.8467 21.7301 29.8758 21.6195C29.9048 21.5088 29.927 21.3956 29.95 21.279C29.9594 21.233 29.968 21.1879 29.9774 21.1419C30.003 21.0057 30.0269 20.8678 30.0482 20.7299C30.0696 20.5921 30.0883 20.4499 30.1046 20.3094C30.1148 20.2158 30.1242 20.1222 30.1327 20.0285C30.1618 19.6983 30.1771 19.3629 30.1771 19.025C30.1771 18.687 30.1669 18.3525 30.137 18.0222ZM19.022 28.2641C13.9515 28.2641 9.82704 24.1195 9.82704 19.0258C9.82704 13.9321 13.9515 9.78836 19.022 9.78836C24.0924 9.78836 28.2169 13.9321 28.2169 19.0258C28.2169 24.1195 24.0924 28.2641 19.022 28.2641Z" fill="#0A0A0A"/>
<path d="M18.8786 10.3149L10.085 19.0825L18.8786 27.8501L27.6723 19.0825L18.8786 10.3149ZM12.8656 19.0825L18.8786 13.0874L24.8916 19.0825L18.8786 25.0768L12.8656 19.0825Z" fill="#0A0A0A"/>
<path d="M18.8786 10.3149L10.085 19.0825L18.8786 27.8501L27.6723 19.0825L18.8786 10.3149ZM12.8656 19.0825L18.8786 13.0874L24.8916 19.0825L18.8786 25.0768L12.8656 19.0825Z" fill="#0A0A0A"/>
<path d="M45.6846 6.5874H55.3841C58.6767 6.5874 61.2306 7.76776 63.0457 10.1285C64.665 12.2588 65.4749 14.9875 65.4755 18.3147C65.4755 20.8836 64.9971 23.206 64.0403 25.2819C62.3556 28.9489 59.4593 30.7825 55.3516 30.7825H45.6846V6.5874ZM54.7395 27.9828C55.8266 27.9828 56.7202 27.8676 57.4203 27.6372C58.6696 27.2088 59.6941 26.3859 60.4938 25.1687C61.129 24.1915 61.5866 22.9399 61.8666 21.4139C62.0216 20.5771 62.1027 19.7283 62.1091 18.8773C62.1091 15.8793 61.5249 13.5512 60.3564 11.8931C59.1878 10.2349 57.3048 9.40522 54.7071 9.40409H49.0057V27.9828H54.7395Z" fill="#0A0A0A"/>
<path d="M70.2822 6.5874H81.142C83.2883 6.5874 85.0217 7.19404 86.3422 8.40731C87.6627 9.62058 88.3226 11.3261 88.3221 13.524C88.3221 15.4126 87.7333 17.0568 86.5557 18.4568C85.378 19.8568 83.5755 20.5568 81.148 20.5568H73.57V30.7825H70.2822V6.5874ZM83.0339 9.91397C82.3116 9.57348 81.3218 9.40324 80.0645 9.40324H73.57V17.7869H80.0645C81.5307 17.7869 82.72 17.4748 83.6324 16.8506C84.5448 16.2263 85.0001 15.1226 84.9984 13.5393C85.0007 11.7591 84.3458 10.5507 83.0339 9.91397Z" fill="#0A0A0A"/>
<path d="M92.5342 6.5874H95.822V27.9002H108V30.7825H92.5342V6.5874Z" fill="#0A0A0A"/>
<path d="M2.51551 45.4526L3.91445 48.4531L5.32213 45.4526H6.64238L4.52648 49.5314V51.8867H3.30679V49.5314L1.18652 45.4526H2.51551Z" fill="#0A0A0A"/>
<path d="M6.69921 49.5446V49.4518C6.69921 49.1012 6.74875 48.7787 6.84785 48.4841C6.94694 48.1865 7.0912 47.9287 7.28064 47.7107C7.47008 47.4927 7.70178 47.3233 7.97574 47.2026C8.2497 47.0788 8.56154 47.017 8.91128 47.017C9.26684 47.017 9.5816 47.0788 9.85556 47.2026C10.1324 47.3233 10.3656 47.4927 10.555 47.7107C10.7445 47.9287 10.8887 48.1865 10.9878 48.4841C11.0869 48.7787 11.1365 49.1012 11.1365 49.4518V49.5446C11.1365 49.8922 11.0869 50.2148 10.9878 50.5124C10.8887 50.807 10.7445 51.0648 10.555 51.2857C10.3656 51.5037 10.1339 51.6731 9.85993 51.7939C9.58597 51.9147 9.27267 51.9751 8.92002 51.9751C8.57029 51.9751 8.25698 51.9147 7.98011 51.7939C7.70324 51.6731 7.47008 51.5037 7.28064 51.2857C7.0912 51.0648 6.94694 50.807 6.84785 50.5124C6.74875 50.2148 6.69921 49.8922 6.69921 49.5446ZM7.85333 49.4518V49.5446C7.85333 49.7538 7.87373 49.9497 7.91453 50.1323C7.95534 50.315 8.018 50.4756 8.10252 50.614C8.18704 50.7525 8.29633 50.8615 8.43039 50.941C8.56737 51.0176 8.73058 51.0559 8.92002 51.0559C9.10655 51.0559 9.26684 51.0176 9.4009 50.941C9.53497 50.8615 9.64426 50.7525 9.72878 50.614C9.81621 50.4756 9.88033 50.315 9.92113 50.1323C9.96194 49.9497 9.98234 49.7538 9.98234 49.5446V49.4518C9.98234 49.2456 9.96194 49.0526 9.92113 48.8729C9.88033 48.6903 9.81621 48.5297 9.72878 48.3913C9.64426 48.2499 9.53351 48.1394 9.39653 48.0598C9.26247 47.9774 9.10072 47.9361 8.91128 47.9361C8.72475 47.9361 8.56446 47.9774 8.43039 48.0598C8.29633 48.1394 8.18704 48.2499 8.10252 48.3913C8.018 48.5297 7.95534 48.6903 7.91453 48.8729C7.87373 49.0526 7.85333 49.2456 7.85333 49.4518Z" fill="#0A0A0A"/>
<path d="M14.7912 50.751V47.1053H15.954V51.8867H14.8611L14.7912 50.751ZM14.9398 49.7612L15.2983 49.7523C15.2983 50.0734 15.2633 50.3695 15.1934 50.6405C15.1234 50.9116 15.0141 51.1472 14.8655 51.3476C14.7198 51.5449 14.5347 51.6996 14.3103 51.8116C14.0859 51.9206 13.8207 51.9751 13.5147 51.9751C13.2815 51.9751 13.0687 51.9427 12.8764 51.8778C12.684 51.8101 12.5179 51.7055 12.378 51.5641C12.241 51.4197 12.1347 51.2356 12.0589 51.0117C11.9831 50.7849 11.9452 50.5124 11.9452 50.1942V47.1053H13.0993V50.203C13.0993 50.3621 13.1168 50.4947 13.1518 50.6008C13.1897 50.7068 13.2407 50.7937 13.3048 50.8615C13.3718 50.9263 13.4491 50.9734 13.5365 51.0029C13.6269 51.0294 13.723 51.0427 13.825 51.0427C14.1048 51.0427 14.3249 50.9867 14.4852 50.8747C14.6484 50.7598 14.765 50.6066 14.8349 50.4152C14.9048 50.2207 14.9398 50.0027 14.9398 49.7612Z" fill="#0A0A0A"/>
<path d="M18.1311 48.0819V51.8867H16.977V47.1053H18.0699L18.1311 48.0819ZM19.5694 47.0744L19.5519 48.1615C19.4878 48.1497 19.415 48.1409 19.3334 48.135C19.2547 48.1291 19.1803 48.1261 19.1104 48.1261C18.9326 48.1261 18.7767 48.1512 18.6426 48.2012C18.5086 48.2484 18.3964 48.3176 18.306 48.4089C18.2186 48.5003 18.1515 48.6122 18.1049 48.7448C18.0583 48.8744 18.0321 49.0217 18.0262 49.1867L17.777 49.1557C17.777 48.8523 17.8076 48.571 17.8688 48.3117C17.93 48.0525 18.0189 47.8256 18.1355 47.6312C18.2521 47.4368 18.3978 47.2865 18.5727 47.1805C18.7505 47.0715 18.9545 47.017 19.1847 47.017C19.2488 47.017 19.3173 47.0229 19.3902 47.0346C19.466 47.0435 19.5257 47.0567 19.5694 47.0744Z" fill="#0A0A0A"/>
<path d="M24.422 51.8867H23.0493L23.058 50.9322H24.422C24.7921 50.9322 25.1025 50.8497 25.3532 50.6847C25.6038 50.5168 25.7932 50.2767 25.9215 49.9644C26.0497 49.6492 26.1138 49.2721 26.1138 48.8332V48.5017C26.1138 48.163 26.0774 47.8639 26.0045 47.6047C25.9317 47.3454 25.8238 47.1274 25.681 46.9507C25.5411 46.7739 25.3677 46.6399 25.1608 46.5485C24.9539 46.4572 24.7163 46.4116 24.4482 46.4116H23.0231V45.4526H24.4482C24.8737 45.4526 25.2614 45.5248 25.6111 45.6692C25.9637 45.8135 26.2683 46.0212 26.5248 46.2922C26.7842 46.5603 26.9823 46.8814 27.1193 47.2556C27.2592 47.6297 27.3292 48.0481 27.3292 48.5106V48.8332C27.3292 49.2927 27.2592 49.7111 27.1193 50.0882C26.9823 50.4623 26.7842 50.7834 26.5248 51.0515C26.2683 51.3196 25.9623 51.5258 25.6067 51.6702C25.2512 51.8145 24.8562 51.8867 24.422 51.8867ZM23.7225 45.4526V51.8867H22.5203V45.4526H23.7225Z" fill="#0A0A0A"/>
<path d="M29.4888 47.1053V51.8867H28.3303V47.1053H29.4888ZM28.2516 45.8548C28.2516 45.681 28.3099 45.5366 28.4264 45.4217C28.5459 45.3068 28.7062 45.2494 28.9073 45.2494C29.1084 45.2494 29.2673 45.3068 29.3838 45.4217C29.5033 45.5366 29.5631 45.681 29.5631 45.8548C29.5631 46.0256 29.5033 46.1685 29.3838 46.2834C29.2673 46.3983 29.1084 46.4557 28.9073 46.4557C28.7062 46.4557 28.5459 46.3983 28.4264 46.2834C28.3099 46.1685 28.2516 46.0256 28.2516 45.8548Z" fill="#0A0A0A"/>
<path d="M33.1959 50.8703V48.6652C33.1959 48.5032 33.1683 48.3633 33.1129 48.2454C33.0575 48.1276 32.973 48.0363 32.8593 47.9715C32.7457 47.9066 32.6014 47.8742 32.4265 47.8742C32.2721 47.8742 32.1365 47.9008 32.02 47.9538C31.9063 48.0068 31.8189 48.0819 31.7577 48.1792C31.6965 48.2734 31.6659 48.3824 31.6659 48.5062H30.5074C30.5074 48.3088 30.554 48.1217 30.6473 47.9449C30.7405 47.7652 30.8731 47.6062 31.0451 47.4677C31.2199 47.3263 31.4283 47.2158 31.6702 47.1363C31.915 47.0567 32.189 47.017 32.4921 47.017C32.8506 47.017 33.1697 47.0788 33.4495 47.2026C33.7322 47.3233 33.9537 47.506 34.114 47.7505C34.2772 47.995 34.3588 48.3029 34.3588 48.6741V50.7598C34.3588 50.9985 34.3734 51.2032 34.4025 51.3741C34.4346 51.542 34.4812 51.6878 34.5424 51.8116V51.8867H33.3664C33.3111 51.7659 33.2688 51.6127 33.2397 51.4271C33.2105 51.2386 33.1959 51.053 33.1959 50.8703ZM33.3577 48.9746L33.3664 49.6684H32.6364C32.4557 49.6684 32.2968 49.6875 32.1599 49.7258C32.0229 49.7612 31.9107 49.8142 31.8232 49.8849C31.7358 49.9526 31.6702 50.0351 31.6265 50.1323C31.5828 50.2266 31.5609 50.3341 31.5609 50.4549C31.5609 50.5728 31.5872 50.6788 31.6396 50.7731C31.695 50.8674 31.7737 50.9425 31.8757 50.9985C31.9806 51.0515 32.103 51.078 32.2429 51.078C32.4469 51.078 32.6247 51.0368 32.7763 50.9543C32.9278 50.8688 33.0459 50.7657 33.1304 50.6449C33.2149 50.5242 33.2601 50.4093 33.2659 50.3003L33.5981 50.804C33.5573 50.9248 33.4961 51.053 33.4145 51.1885C33.3329 51.324 33.228 51.4507 33.0998 51.5685C32.9715 51.6864 32.8171 51.7836 32.6364 51.8602C32.4557 51.9368 32.2458 51.9751 32.0068 51.9751C31.7008 51.9751 31.4269 51.9132 31.185 51.7895C30.9431 51.6657 30.7522 51.4963 30.6123 51.2813C30.4724 51.0662 30.4024 50.8217 30.4024 50.5477C30.4024 50.2944 30.4491 50.0705 30.5423 49.876C30.6356 49.6816 30.774 49.5181 30.9576 49.3855C31.1413 49.25 31.3686 49.1484 31.6396 49.0806C31.9136 49.0099 32.2269 48.9746 32.5795 48.9746H33.3577Z" fill="#0A0A0A"/>
<path d="M36.549 48.0864V51.8867H35.3949V47.1053H36.4834L36.549 48.0864ZM36.3785 49.3237H36.0244C36.0244 48.9908 36.0638 48.6844 36.1425 48.4045C36.2241 48.1247 36.3436 47.8816 36.5009 47.6754C36.6583 47.4662 36.8521 47.3042 37.0824 47.1893C37.3155 47.0744 37.5851 47.017 37.8911 47.017C38.1039 47.017 38.2991 47.0494 38.4769 47.1142C38.6547 47.176 38.8077 47.2747 38.936 47.4103C39.0671 47.5428 39.1677 47.7166 39.2376 47.9317C39.3075 48.1438 39.3425 48.3986 39.3425 48.6962V51.8867H38.1884V48.8155C38.1884 48.5916 38.1563 48.4163 38.0922 48.2896C38.031 48.163 37.9421 48.0746 37.8256 48.0245C37.709 47.9715 37.5691 47.9449 37.4059 47.9449C37.2252 47.9449 37.0693 47.9818 36.9381 48.0554C36.8099 48.1261 36.7035 48.2248 36.619 48.3515C36.5374 48.4782 36.4762 48.624 36.4354 48.789C36.3975 48.9539 36.3785 49.1322 36.3785 49.3237ZM39.2551 49.1071L38.7786 49.1955C38.7815 48.895 38.8223 48.6137 38.901 48.3515C38.9797 48.0864 39.0948 47.8551 39.2463 47.6577C39.4008 47.4574 39.5917 47.3012 39.819 47.1893C40.0493 47.0744 40.3145 47.017 40.6147 47.017C40.8478 47.017 41.0577 47.0508 41.2442 47.1186C41.4336 47.1834 41.5954 47.288 41.7295 47.4323C41.8635 47.5738 41.9655 47.7579 42.0355 47.9847C42.1083 48.2116 42.1448 48.4885 42.1448 48.8155V51.8867H40.9819V48.8111C40.9819 48.5783 40.9498 48.4001 40.8857 48.2764C40.8245 48.1526 40.7356 48.0672 40.6191 48.0201C40.5025 47.97 40.3655 47.9449 40.2081 47.9449C40.0478 47.9449 39.9079 47.9759 39.7884 48.0377C39.6719 48.0967 39.5728 48.1792 39.4912 48.2852C39.4125 48.3913 39.3527 48.515 39.3119 48.6564C39.274 48.7949 39.2551 48.9451 39.2551 49.1071Z" fill="#0A0A0A"/>
<path d="M42.9754 49.5446V49.4518C42.9754 49.1012 43.0249 48.7787 43.124 48.4841C43.2231 48.1865 43.3674 47.9287 43.5568 47.7107C43.7463 47.4927 43.978 47.3233 44.2519 47.2026C44.5259 47.0788 44.8377 47.017 45.1875 47.017C45.543 47.017 45.8578 47.0788 46.1317 47.2026C46.4086 47.3233 46.6418 47.4927 46.8312 47.7107C47.0206 47.9287 47.1649 48.1865 47.264 48.4841C47.3631 48.7787 47.4126 49.1012 47.4126 49.4518V49.5446C47.4126 49.8922 47.3631 50.2148 47.264 50.5124C47.1649 50.807 47.0206 51.0648 46.8312 51.2857C46.6418 51.5037 46.4101 51.6731 46.1361 51.7939C45.8622 51.9147 45.5488 51.9751 45.1962 51.9751C44.8465 51.9751 44.5332 51.9147 44.2563 51.7939C43.9794 51.6731 43.7463 51.5037 43.5568 51.2857C43.3674 51.0648 43.2231 50.807 43.124 50.5124C43.0249 50.2148 42.9754 49.8922 42.9754 49.5446ZM44.1295 49.4518V49.5446C44.1295 49.7538 44.1499 49.9497 44.1907 50.1323C44.2315 50.315 44.2942 50.4756 44.3787 50.614C44.4632 50.7525 44.5725 50.8615 44.7066 50.941C44.8436 51.0176 45.0068 51.0559 45.1962 51.0559C45.3827 51.0559 45.543 51.0176 45.6771 50.941C45.8111 50.8615 45.9204 50.7525 46.005 50.614C46.0924 50.4756 46.1565 50.315 46.1973 50.1323C46.2381 49.9497 46.2585 49.7538 46.2585 49.5446V49.4518C46.2585 49.2456 46.2381 49.0526 46.1973 48.8729C46.1565 48.6903 46.0924 48.5297 46.005 48.3913C45.9204 48.2499 45.8097 48.1394 45.6727 48.0598C45.5386 47.9774 45.3769 47.9361 45.1875 47.9361C45.0009 47.9361 44.8406 47.9774 44.7066 48.0598C44.5725 48.1394 44.4632 48.2499 44.3787 48.3913C44.2942 48.5297 44.2315 48.6903 44.1907 48.8729C44.1499 49.0526 44.1295 49.2456 44.1295 49.4518Z" fill="#0A0A0A"/>
<path d="M49.3843 48.1261V51.8867H48.2301V47.1053H49.3143L49.3843 48.1261ZM49.2007 49.3237H48.8597C48.8626 48.976 48.9092 48.6608 48.9996 48.378C49.0899 48.0952 49.2167 47.8521 49.3799 47.6489C49.546 47.4456 49.7427 47.2895 49.9701 47.1805C50.1974 47.0715 50.451 47.017 50.7307 47.017C50.9581 47.017 51.1635 47.0494 51.3471 47.1142C51.5308 47.179 51.6881 47.2821 51.8193 47.4235C51.9534 47.5649 52.0554 47.7505 52.1253 47.9803C52.1982 48.2071 52.2346 48.487 52.2346 48.8199V51.8867H51.0717V48.8111C51.0717 48.5931 51.0397 48.4207 50.9756 48.294C50.9144 48.1674 50.824 48.0775 50.7045 48.0245C50.5879 47.9715 50.4437 47.9449 50.2717 47.9449C50.0939 47.9449 49.938 47.9818 49.8039 48.0554C49.6728 48.1261 49.562 48.2248 49.4717 48.3515C49.3843 48.4782 49.3172 48.624 49.2706 48.789C49.224 48.9539 49.2007 49.1322 49.2007 49.3237Z" fill="#0A0A0A"/>
<path d="M56.0904 50.8703V45.0991H57.2533V51.8867H56.2041L56.0904 50.8703ZM53.0521 49.5535V49.4607C53.0521 49.0954 53.0929 48.7639 53.1745 48.4664C53.259 48.1659 53.3814 47.9081 53.5417 47.6931C53.702 47.478 53.8958 47.3116 54.1232 47.1937C54.3534 47.0759 54.6143 47.017 54.9057 47.017C55.1884 47.017 55.4347 47.0744 55.6445 47.1893C55.8573 47.3042 56.038 47.4677 56.1866 47.6798C56.3381 47.8919 56.4591 48.1438 56.5494 48.4355C56.6398 48.7242 56.7054 49.0423 56.7462 49.39V49.6418C56.7054 49.9806 56.6398 50.2914 56.5494 50.5742C56.4591 50.8571 56.3381 51.1045 56.1866 51.3166C56.038 51.5258 55.8573 51.6878 55.6445 51.8027C55.4318 51.9176 55.1826 51.9751 54.8969 51.9751C54.6084 51.9751 54.349 51.9147 54.1188 51.7939C53.8915 51.6731 53.6977 51.5037 53.5374 51.2857C53.38 51.0677 53.259 50.8114 53.1745 50.5168C53.0929 50.2222 53.0521 49.9011 53.0521 49.5535ZM54.2106 49.4607V49.5535C54.2106 49.7597 54.2281 49.9526 54.2631 50.1323C54.298 50.3121 54.3549 50.4711 54.4336 50.6096C54.5122 50.7451 54.6128 50.8512 54.7352 50.9278C54.8605 51.0044 55.0121 51.0427 55.1899 51.0427C55.4172 51.0427 55.6037 50.9926 55.7494 50.8924C55.8981 50.7893 56.0132 50.6494 56.0948 50.4726C56.1764 50.2929 56.2289 50.0911 56.2522 49.8672V49.1734C56.2405 48.9967 56.2099 48.8332 56.1604 48.6829C56.1137 48.5327 56.0467 48.403 55.9593 48.294C55.8747 48.185 55.7698 48.0996 55.6445 48.0377C55.5192 47.9759 55.3705 47.9449 55.1986 47.9449C55.0208 47.9449 54.8693 47.9847 54.7439 48.0643C54.6186 48.1409 54.5166 48.2484 54.4379 48.3868C54.3592 48.5253 54.3009 48.6859 54.2631 48.8685C54.2281 49.0512 54.2106 49.2485 54.2106 49.4607Z" fill="#0A0A0A"/>
<path d="M60.8993 50.5787C60.8993 50.4785 60.873 50.3886 60.8206 50.3091C60.7681 50.2296 60.669 50.1574 60.5233 50.0926C60.3805 50.0248 60.1707 49.9615 59.8938 49.9026C59.649 49.8495 59.4231 49.7832 59.2162 49.7037C59.0092 49.6242 58.8315 49.5284 58.6828 49.4165C58.5342 49.3016 58.4176 49.1675 58.3331 49.0143C58.2515 48.8582 58.2107 48.6785 58.2107 48.4752C58.2107 48.2778 58.2529 48.0922 58.3375 47.9184C58.422 47.7417 58.5444 47.587 58.7047 47.4544C58.865 47.3189 59.0602 47.2129 59.2905 47.1363C59.5207 47.0567 59.7801 47.017 60.0686 47.017C60.4708 47.017 60.8162 47.0832 61.1047 47.2158C61.3962 47.3484 61.6191 47.531 61.7736 47.7638C61.9281 47.9936 62.0053 48.2528 62.0053 48.5415H60.8512C60.8512 48.4148 60.822 48.2999 60.7637 48.1968C60.7084 48.0937 60.6224 48.0112 60.5058 47.9494C60.3892 47.8846 60.2421 47.8521 60.0643 47.8521C59.904 47.8521 59.7685 47.8787 59.6577 47.9317C59.5499 47.9847 59.4683 48.0539 59.4129 48.1394C59.3575 48.2248 59.3298 48.3191 59.3298 48.4222C59.3298 48.4988 59.3444 48.568 59.3735 48.6299C59.4056 48.6888 59.4566 48.7433 59.5266 48.7934C59.5965 48.8435 59.6912 48.8891 59.8107 48.9304C59.9331 48.9716 60.0832 49.0114 60.261 49.0497C60.6136 49.1204 60.9211 49.2147 61.1834 49.3325C61.4486 49.4474 61.6556 49.6006 61.8042 49.7921C61.9528 49.9836 62.0272 50.2281 62.0272 50.5256C62.0272 50.7377 61.982 50.9322 61.8916 51.1089C61.8013 51.2828 61.6701 51.4345 61.4982 51.5641C61.3262 51.6937 61.1208 51.7954 60.8818 51.869C60.6428 51.9397 60.3732 51.9751 60.073 51.9751C59.6388 51.9751 59.2715 51.897 58.9714 51.7409C58.6712 51.5818 58.4438 51.3814 58.2894 51.1399C58.1349 50.8954 58.0577 50.642 58.0577 50.3798H59.1637C59.1725 50.5654 59.222 50.7142 59.3123 50.8261C59.4027 50.9381 59.5164 51.0191 59.6533 51.0692C59.7932 51.1163 59.9404 51.1399 60.0949 51.1399C60.2697 51.1399 60.4169 51.1163 60.5364 51.0692C60.6559 51.0191 60.7463 50.9528 60.8075 50.8703C60.8687 50.7849 60.8993 50.6877 60.8993 50.5787Z" fill="#0A0A0A"/>
<path d="M63.9944 50.835L63.9857 51.6436C63.9857 51.9589 63.9084 52.2785 63.754 52.6026C63.5995 52.9266 63.3999 53.1947 63.155 53.4068L62.543 53.0666C62.6217 52.934 62.6946 52.7999 62.7616 52.6644C62.8315 52.5289 62.8869 52.3816 62.9277 52.2225C62.9714 52.0664 62.9933 51.8911 62.9933 51.6967V50.835H63.9944Z" fill="#0A0A0A"/>
<path d="M68.0732 45.4526L69.4721 48.4531L70.8798 45.4526H72.2001L70.0842 49.5314V51.8867H68.8645V49.5314L66.7442 45.4526H68.0732Z" fill="#0A0A0A"/>
<path d="M72.2569 49.5446V49.4518C72.2569 49.1012 72.3064 48.7787 72.4055 48.4841C72.5046 48.1865 72.6489 47.9287 72.8383 47.7107C73.0278 47.4927 73.2595 47.3233 73.5334 47.2026C73.8074 47.0788 74.1192 47.017 74.4689 47.017C74.8245 47.017 75.1393 47.0788 75.4132 47.2026C75.6901 47.3233 75.9233 47.4927 76.1127 47.7107C76.3021 47.9287 76.4464 48.1865 76.5455 48.4841C76.6446 48.7787 76.6941 49.1012 76.6941 49.4518V49.5446C76.6941 49.8922 76.6446 50.2148 76.5455 50.5124C76.4464 50.807 76.3021 51.0648 76.1127 51.2857C75.9233 51.5037 75.6916 51.6731 75.4176 51.7939C75.1436 51.9147 74.8303 51.9751 74.4777 51.9751C74.128 51.9751 73.8147 51.9147 73.5378 51.7939C73.2609 51.6731 73.0278 51.5037 72.8383 51.2857C72.6489 51.0648 72.5046 50.807 72.4055 50.5124C72.3064 50.2148 72.2569 49.8922 72.2569 49.5446ZM73.411 49.4518V49.5446C73.411 49.7538 73.4314 49.9497 73.4722 50.1323C73.513 50.315 73.5757 50.4756 73.6602 50.614C73.7447 50.7525 73.854 50.8615 73.9881 50.941C74.125 51.0176 74.2883 51.0559 74.4777 51.0559C74.6642 51.0559 74.8245 51.0176 74.9586 50.941C75.0926 50.8615 75.2019 50.7525 75.2865 50.614C75.3739 50.4756 75.438 50.315 75.4788 50.1323C75.5196 49.9497 75.54 49.7538 75.54 49.5446V49.4518C75.54 49.2456 75.5196 49.0526 75.4788 48.8729C75.438 48.6903 75.3739 48.5297 75.2865 48.3913C75.2019 48.2499 75.0912 48.1394 74.9542 48.0598C74.8201 47.9774 74.6584 47.9361 74.4689 47.9361C74.2824 47.9361 74.1221 47.9774 73.9881 48.0598C73.854 48.1394 73.7447 48.2499 73.6602 48.3913C73.5757 48.5297 73.513 48.6903 73.4722 48.8729C73.4314 49.0526 73.411 49.2456 73.411 49.4518Z" fill="#0A0A0A"/>
<path d="M80.3489 50.751V47.1053H81.5117V51.8867H80.4188L80.3489 50.751ZM80.4975 49.7612L80.856 49.7523C80.856 50.0734 80.821 50.3695 80.7511 50.6405C80.6811 50.9116 80.5718 51.1472 80.4232 51.3476C80.2775 51.5449 80.0924 51.6996 79.868 51.8116C79.6436 51.9206 79.3783 51.9751 79.0723 51.9751C78.8392 51.9751 78.6264 51.9427 78.4341 51.8778C78.2417 51.8101 78.0756 51.7055 77.9357 51.5641C77.7987 51.4197 77.6923 51.2356 77.6166 51.0117C77.5408 50.7849 77.5029 50.5124 77.5029 50.1942V47.1053H78.657V50.203C78.657 50.3621 78.6745 50.4947 78.7095 50.6008C78.7474 50.7068 78.7984 50.7937 78.8625 50.8615C78.9295 50.9263 79.0068 50.9734 79.0942 51.0029C79.1845 51.0294 79.2807 51.0427 79.3827 51.0427C79.6625 51.0427 79.8825 50.9867 80.0428 50.8747C80.206 50.7598 80.3226 50.6066 80.3926 50.4152C80.4625 50.2207 80.4975 50.0027 80.4975 49.7612Z" fill="#0A0A0A"/>
<path d="M83.6888 48.0819V51.8867H82.5347V47.1053H83.6276L83.6888 48.0819ZM85.1271 47.0744L85.1096 48.1615C85.0455 48.1497 84.9726 48.1409 84.891 48.135C84.8123 48.1291 84.738 48.1261 84.6681 48.1261C84.4903 48.1261 84.3344 48.1512 84.2003 48.2012C84.0662 48.2484 83.954 48.3176 83.8637 48.4089C83.7763 48.5003 83.7092 48.6122 83.6626 48.7448C83.616 48.8744 83.5897 49.0217 83.5839 49.1867L83.3347 49.1557C83.3347 48.8523 83.3653 48.571 83.4265 48.3117C83.4877 48.0525 83.5766 47.8256 83.6932 47.6312C83.8098 47.4368 83.9555 47.2865 84.1304 47.1805C84.3081 47.0715 84.5121 47.017 84.7424 47.017C84.8065 47.017 84.875 47.0229 84.9479 47.0346C85.0236 47.0435 85.0834 47.0567 85.1271 47.0744Z" fill="#0A0A0A"/>
<path d="M90.5261 49.5402H88.8867V48.5857H90.5261C90.7943 48.5857 91.0114 48.5415 91.1775 48.4531C91.3465 48.3618 91.4704 48.2381 91.5491 48.0819C91.6278 47.9229 91.6671 47.7417 91.6671 47.5384C91.6671 47.341 91.6278 47.1569 91.5491 46.986C91.4704 46.8152 91.3465 46.6767 91.1775 46.5706C91.0114 46.4646 90.7943 46.4116 90.5261 46.4116H89.2802V51.8867H88.078V45.4526H90.5261C91.0216 45.4526 91.4442 45.5425 91.7939 45.7222C92.1466 45.899 92.4147 46.1449 92.5983 46.4602C92.7848 46.7724 92.8781 47.1289 92.8781 47.5296C92.8781 47.9449 92.7848 48.3029 92.5983 48.6034C92.4147 48.9039 92.1466 49.1351 91.7939 49.2972C91.4442 49.4592 91.0216 49.5402 90.5261 49.5402Z" fill="#0A0A0A"/>
<path d="M94.8891 48.0819V51.8867H93.7349V47.1053H94.8279L94.8891 48.0819ZM96.3273 47.0744L96.3099 48.1615C96.2457 48.1497 96.1729 48.1409 96.0913 48.135C96.0126 48.1291 95.9383 48.1261 95.8683 48.1261C95.6905 48.1261 95.5346 48.1512 95.4005 48.2012C95.2665 48.2484 95.1543 48.3176 95.0639 48.4089C94.9765 48.5003 94.9095 48.6122 94.8628 48.7448C94.8162 48.8744 94.79 49.0217 94.7841 49.1867L94.535 49.1557C94.535 48.8523 94.5656 48.571 94.6268 48.3117C94.688 48.0525 94.7768 47.8256 94.8934 47.6312C95.01 47.4368 95.1557 47.2865 95.3306 47.1805C95.5084 47.0715 95.7124 47.017 95.9426 47.017C96.0067 47.017 96.0752 47.0229 96.1481 47.0346C96.2239 47.0435 96.2836 47.0567 96.3273 47.0744Z" fill="#0A0A0A"/>
<path d="M98.1853 47.1053V51.8867H97.0268V47.1053H98.1853ZM96.9481 45.8548C96.9481 45.681 97.0064 45.5366 97.123 45.4217C97.2425 45.3068 97.4028 45.2494 97.6039 45.2494C97.805 45.2494 97.9638 45.3068 98.0804 45.4217C98.1999 45.5366 98.2596 45.681 98.2596 45.8548C98.2596 46.0256 98.1999 46.1685 98.0804 46.2834C97.9638 46.3983 97.805 46.4557 97.6039 46.4557C97.4028 46.4557 97.2425 46.3983 97.123 46.2834C97.0064 46.1685 96.9481 46.0256 96.9481 45.8548Z" fill="#0A0A0A"/>
<path d="M101.228 51.0559C101.391 51.0559 101.537 51.0235 101.665 50.9587C101.793 50.8939 101.895 50.8026 101.971 50.6847C102.05 50.5669 102.092 50.4299 102.098 50.2738H103.187C103.181 50.5978 103.09 50.888 102.915 51.1443C102.741 51.4006 102.507 51.6039 102.216 51.7541C101.927 51.9014 101.604 51.9751 101.245 51.9751C100.881 51.9751 100.563 51.9132 100.292 51.7895C100.021 51.6657 99.7955 51.4934 99.6148 51.2724C99.4371 51.0515 99.303 50.7952 99.2126 50.5035C99.1252 50.2119 99.0815 49.8996 99.0815 49.5667V49.4253C99.0815 49.0924 99.1252 48.7801 99.2126 48.4885C99.303 48.1968 99.4371 47.9405 99.6148 47.7196C99.7955 47.4986 100.021 47.3263 100.292 47.2026C100.563 47.0788 100.88 47.017 101.241 47.017C101.623 47.017 101.958 47.0921 102.247 47.2423C102.538 47.3926 102.765 47.6047 102.929 47.8787C103.095 48.1526 103.181 48.4752 103.187 48.8464H102.098C102.092 48.6756 102.054 48.5224 101.984 48.3868C101.914 48.2513 101.815 48.1423 101.687 48.0598C101.559 47.9774 101.403 47.9361 101.219 47.9361C101.024 47.9361 100.861 47.9774 100.73 48.0598C100.601 48.1423 100.501 48.2557 100.428 48.4001C100.358 48.5415 100.308 48.7006 100.279 48.8774C100.253 49.0512 100.24 49.2338 100.24 49.4253V49.5667C100.24 49.7612 100.253 49.9467 100.279 50.1235C100.308 50.3003 100.358 50.4594 100.428 50.6008C100.501 50.7392 100.601 50.8497 100.73 50.9322C100.861 51.0147 101.027 51.0559 101.228 51.0559Z" fill="#0A0A0A"/>
<path d="M106.081 51.9751C105.722 51.9751 105.4 51.9161 105.114 51.7983C104.829 51.6805 104.585 51.517 104.384 51.3078C104.186 51.0957 104.033 50.8497 103.925 50.5698C103.82 50.287 103.768 49.9836 103.768 49.6595V49.4828C103.768 49.1145 103.82 48.7801 103.925 48.4796C104.03 48.1762 104.179 47.9155 104.371 47.6975C104.564 47.4795 104.794 47.3116 105.062 47.1937C105.33 47.0759 105.626 47.017 105.949 47.017C106.285 47.017 106.58 47.0744 106.837 47.1893C107.093 47.3012 107.308 47.4603 107.479 47.6666C107.651 47.8728 107.781 48.1202 107.869 48.4089C107.956 48.6947 108 49.0114 108 49.359V49.8495H104.293V49.0453H106.863V48.9569C106.857 48.7713 106.822 48.6019 106.758 48.4487C106.694 48.2926 106.595 48.1688 106.461 48.0775C106.327 47.9832 106.153 47.9361 105.941 47.9361C105.769 47.9361 105.619 47.9744 105.49 48.051C105.365 48.1247 105.26 48.2307 105.176 48.3692C105.094 48.5047 105.033 48.6667 104.992 48.8553C104.951 49.0438 104.931 49.253 104.931 49.4828V49.6595C104.931 49.8598 104.957 50.0454 105.009 50.2163C105.065 50.3872 105.145 50.5359 105.25 50.6626C105.358 50.7864 105.486 50.8836 105.635 50.9543C105.786 51.022 105.958 51.0559 106.15 51.0559C106.392 51.0559 106.611 51.0088 106.806 50.9145C107.004 50.8173 107.176 50.6744 107.322 50.4859L107.904 51.0957C107.804 51.243 107.67 51.3844 107.501 51.5199C107.335 51.6554 107.134 51.7659 106.898 51.8513C106.662 51.9338 106.389 51.9751 106.081 51.9751Z" fill="#0A0A0A"/>
</svg>
