<svg width="164" height="58" viewBox="0 0 164 58" fill="none" xmlns="http://www.w3.org/2000/svg">
<rect x="0.680176" width="162.4" height="58" rx="4" fill="#0A0A0A"/>
<path d="M54.4801 20.2601H56.3201V21.7001C55.8501 22.0601 55.2001 22.2701 54.6201 22.2701C53.2401 22.2701 52.0801 21.0701 52.0801 19.6401C52.0801 18.2201 53.2401 17.0201 54.6201 17.0201C55.3301 17.0201 56.1401 17.3401 56.6101 17.8501L57.3201 17.1701C56.6701 16.5001 55.5901 16.0901 54.6201 16.0901C52.6901 16.0901 51.0401 17.7101 51.0401 19.6401C51.0401 21.5701 52.6901 23.2001 54.6201 23.2001C55.5901 23.2001 56.6701 22.7801 57.3201 22.1201V19.3801H54.4801V20.2601ZM61.0915 22.3201C60.2015 22.3201 59.5715 21.7001 59.4415 20.8401H63.5115C63.5115 18.9901 62.6015 17.7901 61.0215 17.7901C59.5915 17.7901 58.4415 18.9301 58.4415 20.4801C58.4415 22.0701 59.6615 23.2001 61.1015 23.2001C61.8315 23.2001 62.7315 22.8901 63.1915 22.4001L62.5715 21.7601C62.2615 22.0801 61.6315 22.3201 61.0915 22.3201ZM61.0615 18.6701C61.9515 18.6701 62.4415 19.2501 62.5515 20.0501H59.4515C59.6115 19.2101 60.2615 18.6701 61.0615 18.6701ZM67.079 22.1501C66.969 22.2601 66.769 22.3401 66.549 22.3401C66.259 22.3401 66.019 22.0801 66.019 21.7201V18.7501H67.239V17.9101H66.019V16.4901H65.049V17.9101H64.269V18.7501H65.049V21.7901C65.049 22.6201 65.609 23.2001 66.409 23.2001C66.779 23.2001 67.159 23.0601 67.439 22.8301L67.079 22.1501ZM71.7994 17.0501C72.1194 17.0501 72.3894 16.7701 72.3894 16.4501C72.3894 16.1401 72.1194 15.8601 71.7994 15.8601C71.4594 15.8601 71.1994 16.1401 71.1994 16.4501C71.1994 16.7701 71.4594 17.0501 71.7994 17.0501ZM71.2994 23.0801H72.2894V17.9101H71.2994V23.0801ZM76.1415 22.1501C76.0315 22.2601 75.8315 22.3401 75.6115 22.3401C75.3215 22.3401 75.0815 22.0801 75.0815 21.7201V18.7501H76.3015V17.9101H75.0815V16.4901H74.1115V17.9101H73.3315V18.7501H74.1115V21.7901C74.1115 22.6201 74.6715 23.2001 75.4715 23.2001C75.8415 23.2001 76.2215 23.0601 76.5015 22.8301L76.1415 22.1501ZM83.7019 23.2001C85.6319 23.2001 87.2519 21.5701 87.2519 19.6401C87.2519 17.7101 85.6319 16.0901 83.7019 16.0901C81.7719 16.0901 80.1319 17.7101 80.1319 19.6401C80.1319 21.5701 81.7719 23.2001 83.7019 23.2001ZM83.7019 22.2701C82.3319 22.2701 81.1719 21.0701 81.1719 19.6401C81.1719 18.2201 82.3319 17.0201 83.7019 17.0201C85.0719 17.0201 86.2219 18.2201 86.2219 19.6401C86.2219 21.0701 85.0719 22.2701 83.7019 22.2701ZM91.0878 17.7901C90.3878 17.7901 89.7578 18.1501 89.4478 18.6601V17.9101H88.4578V23.0801H89.4478V19.7301C89.5278 19.1201 90.1478 18.6501 90.8678 18.6501C91.5678 18.6501 92.0578 19.1901 92.0578 19.9601V23.0801H93.0278V19.7901C93.0278 18.6201 92.2278 17.7901 91.0878 17.7901Z" fill="white"/>
<path d="M55.9221 33.8857H58.1621V35.3557C57.6161 35.7477 56.9441 35.9717 56.2861 35.9717C54.6481 35.9717 53.2621 34.5437 53.2621 32.8637C53.2621 31.1977 54.6481 29.7697 56.2861 29.7697C57.1681 29.7697 58.1061 30.1897 58.6801 30.8477L60.1781 29.5037C59.2121 28.4957 57.7281 27.8937 56.2861 27.8937C53.5001 27.8937 51.1341 30.1617 51.1341 32.8637C51.1341 35.5657 53.5001 37.8477 56.2861 37.8477C57.7281 37.8477 59.2121 37.2457 60.1781 36.2377V32.2757H55.9221V33.8857ZM65.4164 37.8477C67.5584 37.8477 69.3504 36.1117 69.3504 34.0537C69.3504 31.9957 67.5584 30.2737 65.4164 30.2737C63.2604 30.2737 61.4544 31.9957 61.4544 34.0537C61.4544 36.1117 63.2604 37.8477 65.4164 37.8477ZM65.4164 36.1257C64.3244 36.1257 63.4144 35.1737 63.4144 34.0537C63.4144 32.9337 64.3244 31.9957 65.4164 31.9957C66.4944 31.9957 67.4044 32.9337 67.4044 34.0537C67.4044 35.1737 66.4944 36.1257 65.4164 36.1257ZM74.2894 37.8477C76.4314 37.8477 78.2234 36.1117 78.2234 34.0537C78.2234 31.9957 76.4314 30.2737 74.2894 30.2737C72.1334 30.2737 70.3274 31.9957 70.3274 34.0537C70.3274 36.1117 72.1334 37.8477 74.2894 37.8477ZM74.2894 36.1257C73.1974 36.1257 72.2874 35.1737 72.2874 34.0537C72.2874 32.9337 73.1974 31.9957 74.2894 31.9957C75.3674 31.9957 76.2774 32.9337 76.2774 34.0537C76.2774 35.1737 75.3674 36.1257 74.2894 36.1257ZM84.8424 30.4417V31.4217C84.3524 30.7357 83.4284 30.2737 82.4484 30.2737C80.6284 30.2737 79.2424 31.6877 79.2424 33.7037C79.2424 35.7197 80.6284 37.1477 82.4484 37.1477C83.4004 37.1477 84.2684 36.7277 84.8424 36.0277V36.8257C84.8424 37.7637 84.0024 38.3657 82.6864 38.3657C81.8464 38.3657 81.0064 38.0997 80.5304 37.6797L79.8164 39.1217C80.5304 39.6817 81.7344 40.0877 83.0084 40.0877C85.2904 40.0877 86.9004 38.7717 86.9004 36.9097V30.4417H84.8424ZM83.0924 35.4257C82.0704 35.4257 81.3424 34.7117 81.3424 33.7037C81.3424 32.6957 82.0704 31.9957 83.0924 31.9957C84.1144 31.9957 84.8424 32.6957 84.8424 33.7037C84.8424 34.7117 84.1144 35.4257 83.0924 35.4257ZM88.6982 37.6797H90.7422V27.8937H88.6982V37.6797ZM95.9424 36.0417C95.0884 36.0417 94.4584 35.5097 94.2204 34.7257H99.4424C99.4424 31.9957 98.1124 30.2737 95.8444 30.2737C93.7304 30.2737 92.1204 31.8557 92.1204 34.0397C92.1204 36.2657 93.8004 37.8477 95.9564 37.8477C97.0204 37.8477 98.2664 37.3997 98.9104 36.7277L97.6084 35.3977C97.2164 35.7757 96.5164 36.0417 95.9424 36.0417ZM95.9284 32.0797C96.7544 32.0797 97.2864 32.5417 97.4824 33.2557H94.2484C94.5144 32.5277 95.1584 32.0797 95.9284 32.0797ZM104.791 37.6797H106.849V34.5577H109.117C111.203 34.5577 112.743 33.2137 112.743 31.3097C112.743 29.4057 111.203 28.0617 109.117 28.0617H104.791V37.6797ZM106.849 32.6677V29.9517H108.893C109.915 29.9517 110.615 30.4837 110.615 31.3097C110.615 32.1357 109.915 32.6677 108.893 32.6677H106.849ZM113.978 37.6797H116.022V27.8937H113.978V37.6797ZM121.04 30.2737C120.032 30.2737 119.038 30.5537 118.016 31.0717L118.702 32.4297C119.276 32.1357 119.906 31.9117 120.578 31.9117C121.768 31.9117 122.244 32.5837 122.244 33.3537V33.4937C121.628 33.2557 120.984 33.1297 120.396 33.1297C118.716 33.1297 117.386 34.1097 117.386 35.5377C117.386 36.9237 118.576 37.8477 120.116 37.8477C120.9 37.8477 121.726 37.5397 122.244 36.9517V37.6797H124.218V33.3537C124.218 31.4637 122.93 30.2737 121.04 30.2737ZM120.578 36.4337C119.878 36.4337 119.36 36.0697 119.36 35.4817C119.36 34.8937 119.948 34.4597 120.69 34.4597C121.25 34.4597 121.782 34.5577 122.244 34.7257V35.3977C122.104 36.0697 121.362 36.4337 120.578 36.4337ZM127.592 40.1997C128.726 40.1997 129.65 39.4577 130.196 38.0437L133.164 30.4417H131.078L129.272 35.5237L127.368 30.4417H125.254L128.264 37.7497L128.012 38.2817C127.858 38.5477 127.55 38.6737 127.158 38.6737C126.92 38.6737 126.556 38.5477 126.206 38.3517L125.772 39.7517C126.262 40.0177 126.99 40.1997 127.592 40.1997Z" fill="white"/>
<g filter="url(#filter0_ii_555_3695)">
<path d="M16.2973 14.3816C15.9598 14.7388 15.7603 15.2933 15.7603 16.0114V41.6659C15.7603 42.3851 15.9598 42.9384 16.2973 43.2957L16.3832 43.3792L30.7544 29.008V28.8386V28.6693L16.3832 14.2969L16.2973 14.3816Z" fill="url(#paint0_linear_555_3695)"/>
<path d="M35.544 33.7984L30.7544 29.0065V28.8371V28.6678L35.5452 23.877L35.6531 23.9384L41.329 27.1632C42.9495 28.0843 42.9495 29.5911 41.329 30.5133L35.6531 33.7381L35.544 33.7984Z" fill="url(#paint1_linear_555_3695)"/>
<g filter="url(#filter1_i_555_3695)">
<path d="M35.6531 33.7368L30.7533 28.8369L16.2974 43.294C16.831 43.8601 17.7137 43.9297 18.7078 43.3659L35.6531 33.7368Z" fill="url(#paint2_linear_555_3695)"/>
</g>
<path d="M35.6531 23.9378L18.7078 14.3098C17.7137 13.7448 16.831 13.8156 16.2974 14.3817L30.7544 28.8388L35.6531 23.9378Z" fill="url(#paint3_linear_555_3695)"/>
</g>
<defs>
<filter id="filter0_ii_555_3695" x="15.7603" y="13.9199" width="26.7842" height="29.835" filterUnits="userSpaceOnUse" color-interpolation-filters="sRGB">
<feFlood flood-opacity="0" result="BackgroundImageFix"/>
<feBlend mode="normal" in="SourceGraphic" in2="BackgroundImageFix" result="shape"/>
<feColorMatrix in="SourceAlpha" type="matrix" values="0 0 0 0 0 0 0 0 0 0 0 0 0 0 0 0 0 0 127 0" result="hardAlpha"/>
<feOffset dy="-0.15"/>
<feComposite in2="hardAlpha" operator="arithmetic" k2="-1" k3="1"/>
<feColorMatrix type="matrix" values="0 0 0 0 0 0 0 0 0 0 0 0 0 0 0 0 0 0 0.12 0"/>
<feBlend mode="normal" in2="shape" result="effect1_innerShadow_555_3695"/>
<feColorMatrix in="SourceAlpha" type="matrix" values="0 0 0 0 0 0 0 0 0 0 0 0 0 0 0 0 0 0 127 0" result="hardAlpha"/>
<feOffset dy="0.15"/>
<feComposite in2="hardAlpha" operator="arithmetic" k2="-1" k3="1"/>
<feColorMatrix type="matrix" values="0 0 0 0 1 0 0 0 0 1 0 0 0 0 1 0 0 0 0.25 0"/>
<feBlend mode="normal" in2="effect1_innerShadow_555_3695" result="effect2_innerShadow_555_3695"/>
</filter>
<filter id="filter1_i_555_3695" x="16.2974" y="28.8369" width="19.356" height="14.918" filterUnits="userSpaceOnUse" color-interpolation-filters="sRGB">
<feFlood flood-opacity="0" result="BackgroundImageFix"/>
<feBlend mode="normal" in="SourceGraphic" in2="BackgroundImageFix" result="shape"/>
<feColorMatrix in="SourceAlpha" type="matrix" values="0 0 0 0 0 0 0 0 0 0 0 0 0 0 0 0 0 0 127 0" result="hardAlpha"/>
<feOffset dy="-0.15"/>
<feComposite in2="hardAlpha" operator="arithmetic" k2="-1" k3="1"/>
<feColorMatrix type="matrix" values="0 0 0 0 0 0 0 0 0 0 0 0 0 0 0 0 0 0 0.08 0"/>
<feBlend mode="normal" in2="shape" result="effect1_innerShadow_555_3695"/>
</filter>
<linearGradient id="paint0_linear_555_3695" x1="29.4805" y1="15.7399" x2="10.0134" y2="35.207" gradientUnits="userSpaceOnUse">
<stop stop-color="#00A0FF"/>
<stop offset="0.0066" stop-color="#00A1FF"/>
<stop offset="0.2601" stop-color="#00BEFF"/>
<stop offset="0.5122" stop-color="#00D2FF"/>
<stop offset="0.7604" stop-color="#00DFFF"/>
<stop offset="1" stop-color="#00E3FF"/>
</linearGradient>
<linearGradient id="paint1_linear_555_3695" x1="43.4384" y1="28.8371" x2="15.3712" y2="28.8371" gradientUnits="userSpaceOnUse">
<stop stop-color="#FFE000"/>
<stop offset="0.4087" stop-color="#FFBD00"/>
<stop offset="0.7754" stop-color="#FFA500"/>
<stop offset="1" stop-color="#FF9C00"/>
</linearGradient>
<linearGradient id="paint2_linear_555_3695" x1="32.9922" y1="31.4978" x2="6.59234" y2="57.8977" gradientUnits="userSpaceOnUse">
<stop stop-color="#FF3A44"/>
<stop offset="1" stop-color="#C31162"/>
</linearGradient>
<linearGradient id="paint3_linear_555_3695" x1="12.6566" y1="5.84154" x2="24.4449" y2="17.6298" gradientUnits="userSpaceOnUse">
<stop stop-color="#32A071"/>
<stop offset="0.0685" stop-color="#2DA771"/>
<stop offset="0.4762" stop-color="#15CF74"/>
<stop offset="0.8009" stop-color="#06E775"/>
<stop offset="1" stop-color="#00F076"/>
</linearGradient>
</defs>
</svg>
