<svg width="426" height="221" viewBox="0 0 426 221" fill="none" xmlns="http://www.w3.org/2000/svg">
<rect width="426" height="221" fill="#F5F5F5"/>
<path d="M381 131C384.314 131 387 128.314 387 125C387 121.686 384.314 119 381 119C377.686 119 375 121.686 375 125C375 128.314 377.686 131 381 131Z" fill="#212121" fill-opacity="0.3"/>
<path d="M353 131C356.314 131 359 128.314 359 125C359 121.686 356.314 119 353 119C349.686 119 347 121.686 347 125C347 128.314 349.686 131 353 131Z" fill="#212121" fill-opacity="0.3"/>
<path d="M325 131C328.314 131 331 128.314 331 125C331 121.686 328.314 119 325 119C321.686 119 319 121.686 319 125C319 128.314 321.686 131 325 131Z" fill="#212121" fill-opacity="0.3"/>
<path d="M297 131C300.314 131 303 128.314 303 125C303 121.686 300.314 119 297 119C293.686 119 291 121.686 291 125C291 128.314 293.686 131 297 131Z" fill="#212121" fill-opacity="0.3"/>
<path d="M269 131C272.314 131 275 128.314 275 125C275 121.686 272.314 119 269 119C265.686 119 263 121.686 263 125C263 128.314 265.686 131 269 131Z" fill="#212121" fill-opacity="0.3"/>
<path d="M241 131C244.314 131 247 128.314 247 125C247 121.686 244.314 119 241 119C237.686 119 235 121.686 235 125C235 128.314 237.686 131 241 131Z" fill="#212121" fill-opacity="0.3"/>
<path d="M213 131C216.314 131 219 128.314 219 125C219 121.686 216.314 119 213 119C209.686 119 207 121.686 207 125C207 128.314 209.686 131 213 131Z" fill="#212121" fill-opacity="0.3"/>
<path d="M185 131C188.314 131 191 128.314 191 125C191 121.686 188.314 119 185 119C181.686 119 179 121.686 179 125C179 128.314 181.686 131 185 131Z" fill="#212121" fill-opacity="0.3"/>
<path d="M157 131C160.314 131 163 128.314 163 125C163 121.686 160.314 119 157 119C153.686 119 151 121.686 151 125C151 128.314 153.686 131 157 131Z" fill="#212121" fill-opacity="0.3"/>
<path d="M129 131C132.314 131 135 128.314 135 125C135 121.686 132.314 119 129 119C125.686 119 123 121.686 123 125C123 128.314 125.686 131 129 131Z" fill="#212121" fill-opacity="0.3"/>
<path d="M101 131C104.314 131 107 128.314 107 125C107 121.686 104.314 119 101 119C97.6863 119 95 121.686 95 125C95 128.314 97.6863 131 101 131Z" fill="#212121" fill-opacity="0.3"/>
<path d="M73 131C76.3137 131 79 128.314 79 125C79 121.686 76.3137 119 73 119C69.6863 119 67 121.686 67 125C67 128.314 69.6863 131 73 131Z" fill="#212121" fill-opacity="0.3"/>
<path d="M45 131C48.3137 131 51 128.314 51 125C51 121.686 48.3137 119 45 119C41.6863 119 39 121.686 39 125C39 128.314 41.6863 131 45 131Z" fill="#212121" fill-opacity="0.3"/>
<path d="M381 103C384.314 103 387 100.314 387 97C387 93.6863 384.314 91 381 91C377.686 91 375 93.6863 375 97C375 100.314 377.686 103 381 103Z" fill="#0A0A0A"/>
<path d="M269 103C272.314 103 275 100.314 275 97C275 93.6863 272.314 91 269 91C265.686 91 263 93.6863 263 97C263 100.314 265.686 103 269 103Z" fill="#0A0A0A"/>
<path d="M157 103C160.314 103 163 100.314 163 97C163 93.6863 160.314 91 157 91C153.686 91 151 93.6863 151 97C151 100.314 153.686 103 157 103Z" fill="#0A0A0A"/>
<path d="M45 103C48.3137 103 51 100.314 51 97C51 93.6863 48.3137 91 45 91C41.6863 91 39 93.6863 39 97C39 100.314 41.6863 103 45 103Z" fill="#0A0A0A"/>
</svg>
