<svg width="335" height="174" viewBox="0 0 335 174" fill="none" xmlns="http://www.w3.org/2000/svg">
<rect width="335" height="173.791" fill="#F5F5F5"/>
<path d="M299.613 103.016C302.219 103.016 304.331 100.903 304.331 98.2974C304.331 95.6916 302.219 93.5791 299.613 93.5791C297.007 93.5791 294.895 95.6916 294.895 98.2974C294.895 100.903 297.007 103.016 299.613 103.016Z" fill="#757575"/>
<path d="M277.594 103.016C280.2 103.016 282.312 100.903 282.312 98.2974C282.312 95.6916 280.2 93.5791 277.594 93.5791C274.988 93.5791 272.875 95.6916 272.875 98.2974C272.875 100.903 274.988 103.016 277.594 103.016Z" fill="#757575"/>
<path d="M255.575 103.016C258.181 103.016 260.294 100.903 260.294 98.2974C260.294 95.6916 258.181 93.5791 255.575 93.5791C252.969 93.5791 250.857 95.6916 250.857 98.2974C250.857 100.903 252.969 103.016 255.575 103.016Z" fill="#757575"/>
<path d="M233.556 103.016C236.162 103.016 238.275 100.903 238.275 98.2974C238.275 95.6916 236.162 93.5791 233.556 93.5791C230.95 93.5791 228.838 95.6916 228.838 98.2974C228.838 100.903 230.95 103.016 233.556 103.016Z" fill="#757575"/>
<path d="M211.537 103.016C214.143 103.016 216.255 100.903 216.255 98.2974C216.255 95.6916 214.143 93.5791 211.537 93.5791C208.931 93.5791 206.819 95.6916 206.819 98.2974C206.819 100.903 208.931 103.016 211.537 103.016Z" fill="#757575"/>
<path d="M189.519 103.016C192.124 103.016 194.237 100.903 194.237 98.2974C194.237 95.6916 192.124 93.5791 189.519 93.5791C186.913 93.5791 184.8 95.6916 184.8 98.2974C184.8 100.903 186.913 103.016 189.519 103.016Z" fill="#757575"/>
<path d="M167.5 103.016C170.106 103.016 172.218 100.903 172.218 98.2974C172.218 95.6916 170.106 93.5791 167.5 93.5791C164.894 93.5791 162.782 95.6916 162.782 98.2974C162.782 100.903 164.894 103.016 167.5 103.016Z" fill="#757575"/>
<path d="M145.481 103.016C148.087 103.016 150.199 100.903 150.199 98.2974C150.199 95.6916 148.087 93.5791 145.481 93.5791C142.875 93.5791 140.763 95.6916 140.763 98.2974C140.763 100.903 142.875 103.016 145.481 103.016Z" fill="#757575"/>
<path d="M123.462 103.016C126.068 103.016 128.181 100.903 128.181 98.2974C128.181 95.6916 126.068 93.5791 123.462 93.5791C120.857 93.5791 118.744 95.6916 118.744 98.2974C118.744 100.903 120.857 103.016 123.462 103.016Z" fill="#757575"/>
<path d="M101.443 103.016C104.049 103.016 106.162 100.903 106.162 98.2974C106.162 95.6916 104.049 93.5791 101.443 93.5791C98.8376 93.5791 96.7251 95.6916 96.7251 98.2974C96.7251 100.903 98.8376 103.016 101.443 103.016Z" fill="#757575"/>
<path d="M79.4249 103.016C82.0307 103.016 84.1432 100.903 84.1432 98.2974C84.1432 95.6916 82.0307 93.5791 79.4249 93.5791C76.819 93.5791 74.7065 95.6916 74.7065 98.2974C74.7065 100.903 76.819 103.016 79.4249 103.016Z" fill="#757575"/>
<path d="M57.4063 103.016C60.0121 103.016 62.1246 100.903 62.1246 98.2974C62.1246 95.6916 60.0121 93.5791 57.4063 93.5791C54.8004 93.5791 52.688 95.6916 52.688 98.2974C52.688 100.903 54.8004 103.016 57.4063 103.016Z" fill="#757575"/>
<path d="M35.3873 103.016C37.9931 103.016 40.1056 100.903 40.1056 98.2974C40.1056 95.6916 37.9931 93.5791 35.3873 93.5791C32.7814 93.5791 30.6689 95.6916 30.6689 98.2974C30.6689 100.903 32.7814 103.016 35.3873 103.016Z" fill="#757575"/>
<path d="M299.612 80.9972C302.218 80.9972 304.331 78.8847 304.331 76.2789C304.331 73.673 302.218 71.5605 299.612 71.5605C297.007 71.5605 294.894 73.673 294.894 76.2789C294.894 78.8847 297.007 80.9972 299.612 80.9972Z" fill="#0A0A0A"/>
<path d="M211.537 80.9972C214.143 80.9972 216.255 78.8847 216.255 76.2789C216.255 73.673 214.143 71.5605 211.537 71.5605C208.931 71.5605 206.819 73.673 206.819 76.2789C206.819 78.8847 208.931 80.9972 211.537 80.9972Z" fill="#0A0A0A"/>
<path d="M123.462 80.9972C126.068 80.9972 128.181 78.8847 128.181 76.2789C128.181 73.673 126.068 71.5605 123.462 71.5605C120.857 71.5605 118.744 73.673 118.744 76.2789C118.744 78.8847 120.857 80.9972 123.462 80.9972Z" fill="#0A0A0A"/>
<path d="M35.3873 80.9972C37.9931 80.9972 40.1056 78.8847 40.1056 76.2789C40.1056 73.673 37.9931 71.5605 35.3873 71.5605C32.7814 71.5605 30.6689 73.673 30.6689 76.2789C30.6689 78.8847 32.7814 80.9972 35.3873 80.9972Z" fill="#0A0A0A"/>
</svg>
