<svg width="348" height="40" viewBox="0 0 348 40" fill="none" xmlns="http://www.w3.org/2000/svg">
<path d="M342 40C345.314 40 348 37.3137 348 34C348 30.6863 345.314 28 342 28C338.686 28 336 30.6863 336 34C336 37.3137 338.686 40 342 40Z" fill="#212121" fill-opacity="0.3"/>
<path d="M314 40C317.314 40 320 37.3137 320 34C320 30.6863 317.314 28 314 28C310.686 28 308 30.6863 308 34C308 37.3137 310.686 40 314 40Z" fill="#212121" fill-opacity="0.3"/>
<path d="M286 40C289.314 40 292 37.3137 292 34C292 30.6863 289.314 28 286 28C282.686 28 280 30.6863 280 34C280 37.3137 282.686 40 286 40Z" fill="#212121" fill-opacity="0.3"/>
<path d="M258 40C261.314 40 264 37.3137 264 34C264 30.6863 261.314 28 258 28C254.686 28 252 30.6863 252 34C252 37.3137 254.686 40 258 40Z" fill="#212121" fill-opacity="0.3"/>
<path d="M230 40C233.314 40 236 37.3137 236 34C236 30.6863 233.314 28 230 28C226.686 28 224 30.6863 224 34C224 37.3137 226.686 40 230 40Z" fill="#212121" fill-opacity="0.3"/>
<path d="M202 40C205.314 40 208 37.3137 208 34C208 30.6863 205.314 28 202 28C198.686 28 196 30.6863 196 34C196 37.3137 198.686 40 202 40Z" fill="#212121" fill-opacity="0.3"/>
<path d="M174 40C177.314 40 180 37.3137 180 34C180 30.6863 177.314 28 174 28C170.686 28 168 30.6863 168 34C168 37.3137 170.686 40 174 40Z" fill="#212121" fill-opacity="0.3"/>
<path d="M146 40C149.314 40 152 37.3137 152 34C152 30.6863 149.314 28 146 28C142.686 28 140 30.6863 140 34C140 37.3137 142.686 40 146 40Z" fill="#212121" fill-opacity="0.3"/>
<path d="M118 40C121.314 40 124 37.3137 124 34C124 30.6863 121.314 28 118 28C114.686 28 112 30.6863 112 34C112 37.3137 114.686 40 118 40Z" fill="#212121" fill-opacity="0.3"/>
<path d="M90 40C93.3137 40 96 37.3137 96 34C96 30.6863 93.3137 28 90 28C86.6863 28 84 30.6863 84 34C84 37.3137 86.6863 40 90 40Z" fill="#212121" fill-opacity="0.3"/>
<path d="M62 40C65.3137 40 68 37.3137 68 34C68 30.6863 65.3137 28 62 28C58.6863 28 56 30.6863 56 34C56 37.3137 58.6863 40 62 40Z" fill="#212121" fill-opacity="0.3"/>
<path d="M34 40C37.3137 40 40 37.3137 40 34C40 30.6863 37.3137 28 34 28C30.6863 28 28 30.6863 28 34C28 37.3137 30.6863 40 34 40Z" fill="#212121" fill-opacity="0.3"/>
<path d="M6 40C9.31371 40 12 37.3137 12 34C12 30.6863 9.31371 28 6 28C2.68629 28 0 30.6863 0 34C0 37.3137 2.68629 40 6 40Z" fill="#212121" fill-opacity="0.3"/>
<path d="M342 12C345.314 12 348 9.31371 348 6C348 2.68629 345.314 0 342 0C338.686 0 336 2.68629 336 6C336 9.31371 338.686 12 342 12Z" fill="#0A0A0A"/>
<path d="M230 12C233.314 12 236 9.31371 236 6C236 2.68629 233.314 0 230 0C226.686 0 224 2.68629 224 6C224 9.31371 226.686 12 230 12Z" fill="#0A0A0A"/>
<path d="M118 12C121.314 12 124 9.31371 124 6C124 2.68629 121.314 0 118 0C114.686 0 112 2.68629 112 6C112 9.31371 114.686 12 118 12Z" fill="#0A0A0A"/>
<path d="M6 12C9.31371 12 12 9.31371 12 6C12 2.68629 9.31371 0 6 0C2.68629 0 0 2.68629 0 6C0 9.31371 2.68629 12 6 12Z" fill="#0A0A0A"/>
</svg>
